<svg width="27" height="24" viewBox="0 0 27 24" fill="none" xmlns="http://www.w3.org/2000/svg">
<path d="M4.7476 6.31836C12.0525 6.31836 19.3573 6.31836 26.8836 6.31836C26.8836 6.62955 26.8828 6.91998 26.8565 7.22669C26.8536 7.2608 26.8507 7.29491 26.8477 7.33005C26.8382 7.43982 26.8282 7.54953 26.818 7.65924C26.8145 7.69725 26.811 7.73527 26.8074 7.77443C26.6546 9.4159 26.3233 11.0022 25.782 12.5605C25.7637 12.6134 25.7454 12.6662 25.7265 12.7207C25.1153 14.4626 24.2441 16.1245 23.0544 17.5437C23.0091 17.5987 22.9639 17.6537 22.9187 17.7087C21.9519 18.8768 21.9519 18.8768 21.5224 18.9273C21.4583 18.9274 21.3942 18.9274 21.3282 18.9275C21.2922 18.9277 21.2562 18.928 21.2191 18.9282C21.0983 18.9289 20.9775 18.9284 20.8566 18.9279C20.7692 18.9281 20.6818 18.9284 20.5944 18.9287C20.3539 18.9295 20.1135 18.9293 19.8731 18.9289C19.6139 18.9286 19.3547 18.9293 19.0955 18.9298C18.5876 18.9307 18.0797 18.9308 17.5718 18.9305C17.1591 18.9303 16.7464 18.9304 16.3337 18.9306C16.2457 18.9307 16.2457 18.9307 16.1559 18.9308C16.0367 18.9308 15.9174 18.9309 15.7982 18.931C14.6797 18.9317 13.5611 18.9314 12.4426 18.9308C11.4188 18.9303 10.3949 18.931 9.37113 18.9322C8.32041 18.9335 7.2697 18.934 6.21899 18.9337C5.62887 18.9335 5.03876 18.9336 4.44865 18.9345C3.9463 18.9353 3.44397 18.9353 2.94162 18.9344C2.68523 18.934 2.42885 18.9339 2.17247 18.9347C1.93785 18.9354 1.70325 18.9351 1.46864 18.9341C1.38367 18.9339 1.29871 18.9341 1.21375 18.9346C1.09838 18.9353 0.983078 18.9347 0.867708 18.9338C0.803594 18.9338 0.73948 18.9338 0.673424 18.9338C0.413688 18.8948 0.246819 18.7789 0.0873111 18.5727C-0.0232459 18.3225 -0.0106821 18.0734 0.0266601 17.806C0.133863 17.5468 0.342072 17.3903 0.554078 17.2173C0.724728 17.0614 0.863084 16.8803 1.00671 16.6997C1.08469 16.6018 1.16396 16.5048 1.2448 16.4092C2.98586 14.3488 3.95822 11.6682 4.43287 9.04602C4.44062 9.00342 4.44837 8.96082 4.45636 8.91693C4.60843 8.05634 4.66596 7.18924 4.7476 6.31836Z" fill="#353535"/>
<path d="M26.8311 13.9766C26.8484 13.9766 26.8657 13.9766 26.8836 13.9766C26.8885 15.168 26.8922 16.3594 26.8944 17.5509C26.8955 18.1041 26.897 18.6573 26.8994 19.2105C26.9015 19.6926 26.9029 20.1748 26.9033 20.6569C26.9036 20.9123 26.9042 21.1676 26.9058 21.4229C26.9072 21.6632 26.9076 21.9035 26.9073 22.1438C26.9074 22.232 26.9078 22.3202 26.9086 22.4084C26.9096 22.5289 26.9094 22.6493 26.9088 22.7698C26.909 22.8372 26.9092 22.9046 26.9094 22.9741C26.8783 23.1931 26.8151 23.302 26.6738 23.4709C26.4632 23.6277 26.3099 23.648 26.0499 23.6482C26.014 23.6485 25.9782 23.6487 25.9412 23.649C25.8206 23.6496 25.7001 23.6491 25.5795 23.6486C25.4923 23.6488 25.4051 23.6491 25.3179 23.6495C25.0781 23.6502 24.8383 23.65 24.5985 23.6496C24.3399 23.6494 24.0814 23.65 23.8228 23.6505C23.3162 23.6515 22.8096 23.6515 22.3029 23.6512C21.8913 23.651 21.4796 23.6511 21.0679 23.6514C21.0094 23.6514 20.9508 23.6514 20.8905 23.6515C20.7716 23.6516 20.6527 23.6516 20.5337 23.6517C19.418 23.6524 18.3022 23.6522 17.1864 23.6516C16.1651 23.651 15.1439 23.6517 14.1226 23.653C13.0745 23.6543 12.0264 23.6548 10.9783 23.6544C10.3896 23.6542 9.80098 23.6543 9.21233 23.6553C8.71124 23.656 8.21015 23.6561 7.70905 23.6552C7.4533 23.6547 7.19756 23.6546 6.94181 23.6554C6.70777 23.6561 6.47376 23.6559 6.23973 23.6549C6.15498 23.6547 6.07022 23.6548 5.98547 23.6554C5.87039 23.656 5.75537 23.6554 5.64029 23.6545C5.54436 23.6545 5.54436 23.6545 5.44649 23.6545C5.18622 23.6153 5.01839 23.5004 4.86235 23.2906C4.76368 23.0777 4.74101 22.8755 4.74165 22.6426C4.74166 22.5943 4.74166 22.546 4.74166 22.4963C4.74193 22.4449 4.7422 22.3934 4.74248 22.3405C4.74256 22.2873 4.74263 22.2341 4.74271 22.1793C4.743 22.0099 4.74366 21.8405 4.74433 21.671C4.74459 21.556 4.74483 21.4409 4.74504 21.3259C4.74562 21.0442 4.7465 20.7626 4.74761 20.481C4.78253 20.4809 4.81746 20.4808 4.85344 20.4808C6.92489 20.4765 8.99634 20.4717 11.0678 20.4663C11.3167 20.4656 11.5656 20.465 11.8145 20.4643C11.864 20.4642 11.9136 20.4641 11.9646 20.4639C12.7662 20.4618 13.5678 20.4601 14.3694 20.4585C15.1923 20.4569 16.0152 20.4549 16.8381 20.4525C17.3456 20.451 17.8531 20.4499 18.3606 20.4491C18.709 20.4486 19.0573 20.4476 19.4056 20.4464C19.6064 20.4457 19.8071 20.4452 20.0079 20.4451C20.2261 20.445 20.4443 20.4441 20.6625 20.4431C20.7253 20.4432 20.788 20.4433 20.8526 20.4434C21.632 20.4383 22.4208 20.3513 22.9986 19.7696C23.0256 19.7391 23.0526 19.7087 23.0804 19.6773C23.1619 19.5863 23.2481 19.5122 23.3429 19.4352C23.5498 19.2603 23.7199 19.0621 23.8936 18.8549C23.9319 18.8108 23.9701 18.7667 24.0094 18.7213C24.6428 17.9804 25.1904 17.1808 25.6771 16.337C25.7027 16.2927 25.7284 16.2483 25.7548 16.2026C26.1674 15.4823 26.5144 14.7436 26.8311 13.9766Z" fill="#353535"/>
<path d="M10.6225 0.0235101C10.8881 0.149284 10.9384 0.235266 11.0946 0.495604C11.0946 0.859117 11.0946 1.22263 11.0946 1.59716C12.3756 1.59716 13.6565 1.59716 14.9763 1.59716C14.9763 1.33751 14.9763 1.07785 14.9763 0.810334C15.0239 0.490186 15.0938 0.335457 15.3435 0.12842C15.5889 -0.0351699 15.843 -0.00726885 16.1303 0.0235101C16.3958 0.149284 16.4462 0.235266 16.6024 0.495604C16.6024 0.859117 16.6024 1.22263 16.6024 1.59716C17.9007 1.59716 19.1989 1.59716 20.5365 1.59716C20.5365 1.33751 20.5365 1.07785 20.5365 0.810334C20.5841 0.490186 20.654 0.335457 20.9037 0.12842C21.1491 -0.0351699 21.4033 -0.00726885 21.6905 0.0235101C21.9305 0.137188 22.0546 0.254801 22.1626 0.495604C22.1816 0.685086 22.1774 0.87259 22.1725 1.06277C22.1717 1.11413 22.171 1.16548 22.1703 1.2184C22.1685 1.34468 22.1659 1.4709 22.1626 1.59716C22.2152 1.59669 22.2677 1.59623 22.3218 1.59575C22.8173 1.59149 23.3128 1.58835 23.8083 1.58629C24.063 1.58519 24.3177 1.58371 24.5724 1.58133C24.8183 1.57905 25.0642 1.57779 25.3101 1.57725C25.4039 1.57686 25.4976 1.57611 25.5913 1.57497C25.7228 1.57345 25.8542 1.57324 25.9857 1.57334C26.0243 1.57258 26.0629 1.57183 26.1027 1.57105C26.3707 1.57319 26.5229 1.63372 26.7262 1.80698C27.2307 2.6478 26.8836 3.76389 26.8836 4.74445C19.5787 4.74445 12.2738 4.74445 4.74759 4.74445C4.74759 2.08539 4.74759 2.08539 4.98036 1.81681C5.22066 1.61168 5.36948 1.58227 5.67522 1.58525C5.71617 1.58523 5.75712 1.58522 5.79932 1.5852C5.93471 1.58527 6.07008 1.58609 6.20547 1.58691C6.29933 1.58711 6.39319 1.58726 6.48704 1.58736C6.73411 1.58776 6.98117 1.58879 7.22823 1.58995C7.48033 1.59103 7.73243 1.59151 7.98453 1.59203C8.4792 1.59316 8.97386 1.59495 9.46853 1.59716C9.46731 1.54083 9.4661 1.48451 9.46484 1.42647C9.46386 1.35114 9.4629 1.2758 9.46197 1.20047C9.4611 1.16351 9.46022 1.12656 9.45931 1.08849C9.45636 0.768243 9.48427 0.493581 9.7013 0.243165C10.0023 -0.0138144 10.237 -0.0177944 10.6225 0.0235101Z" fill="#353535"/>
</svg>
