<svg width="21" height="29" viewBox="0 0 21 29" fill="none" xmlns="http://www.w3.org/2000/svg">
<path d="M12.8694 0.286697C12.9432 0.304366 12.9432 0.304366 13.0185 0.322393C14.997 0.805197 16.683 1.83539 18.1113 3.27406C18.1391 3.30201 18.1669 3.32997 18.1956 3.35877C20.0804 5.28057 21.0011 8.02455 21 10.6777C20.9342 14.9616 18.3047 19.1166 15.9695 22.551C15.9235 22.6189 15.9235 22.6189 15.8766 22.6883C15.259 23.601 14.6095 24.4872 13.9284 25.3534C13.7905 25.5292 13.6539 25.7059 13.5172 25.8825C13.0714 26.458 12.614 27.0221 12.1418 27.5761C11.9729 27.7746 11.8093 27.9765 11.6469 28.1805C11.4197 28.46 11.1677 28.7565 10.8402 28.9202C10.7325 28.9301 10.6243 28.9353 10.5161 28.9379C10.4583 28.94 10.4004 28.9421 10.3409 28.9442C9.96859 28.8938 9.7369 28.6198 9.49802 28.3531C9.46851 28.3206 9.439 28.2881 9.4086 28.2546C9.19175 28.0139 8.98368 27.7671 8.7809 27.5144C8.67468 27.3826 8.56745 27.252 8.45901 27.1221C8.10231 26.694 7.75563 26.2614 7.42444 25.8133C7.23516 25.5578 7.03896 25.3093 6.83828 25.0627C6.50574 24.6524 6.20293 24.2239 5.90193 23.7901C5.83142 23.6893 5.75995 23.5893 5.68764 23.4898C3.26627 20.1533 0.785575 16.2061 0.130819 12.067C0.124298 12.0262 0.117777 11.9854 0.111058 11.9433C-0.285039 9.3575 0.391672 6.5603 1.92878 4.44474C1.96787 4.39322 2.00696 4.34171 2.04724 4.28863C2.08284 4.24118 2.11844 4.19374 2.15512 4.14485C3.67327 2.18626 5.73043 0.869891 8.13468 0.286697C8.18223 0.274763 8.22978 0.262829 8.27876 0.250533C9.73537 -0.101554 11.4186 -0.0762007 12.8694 0.286697ZM6.89465 6.71234C6.85883 6.74343 6.82301 6.77453 6.7861 6.80657C5.80562 7.71718 5.33369 9.06719 5.24949 10.3706C5.21486 11.8443 5.8179 13.1717 6.80878 14.2386C7.49353 14.9096 8.33704 15.3688 9.26199 15.618C9.30682 15.6307 9.35165 15.6433 9.39784 15.6564C10.6861 15.9544 12.1154 15.6812 13.2338 14.9943C14.4518 14.1847 15.2954 13.0458 15.6313 11.6161C15.906 10.241 15.6752 8.80794 14.8894 7.6286C14.0137 6.38814 12.8302 5.64658 11.3594 5.32522C9.67366 5.12014 8.16884 5.58602 6.89465 6.71234Z" fill="#353535"/>
</svg>
