<svg width="14" height="14" viewBox="0 0 14 14" fill="none" xmlns="http://www.w3.org/2000/svg">
<path d="M8.66253 2.36365C8.73419 2.39772 8.78059 2.44493 8.8368 2.50088C8.86157 2.52534 8.88633 2.54979 8.91184 2.57498C8.93907 2.60229 8.9663 2.6296 8.99353 2.65691C9.02234 2.68553 9.05117 2.71412 9.08002 2.74271C9.15831 2.82039 9.23633 2.89833 9.31429 2.97634C9.37934 3.04139 9.4445 3.10632 9.50966 3.17126C9.66332 3.32439 9.81675 3.47774 9.97005 3.63122C10.1284 3.78973 10.2871 3.94784 10.446 4.10575C10.5824 4.24124 10.7184 4.37699 10.8543 4.51295C10.9355 4.5942 11.0168 4.67535 11.0983 4.75623C11.1749 4.83226 11.2512 4.9086 11.3273 4.9852C11.3553 5.01331 11.3834 5.0413 11.4117 5.06916C11.4501 5.10712 11.4881 5.14553 11.5261 5.18396C11.5475 5.20536 11.5689 5.22676 11.591 5.24881C11.6329 5.30777 11.6329 5.30777 11.6295 5.35771C11.5963 5.44005 11.546 5.4872 11.4834 5.55019C11.4706 5.56327 11.4577 5.57635 11.4444 5.58983C11.401 5.63386 11.3572 5.6776 11.3135 5.72134C11.282 5.75307 11.2506 5.78481 11.2192 5.81657C11.1327 5.904 11.0458 5.99117 10.959 6.0783C10.8654 6.17224 10.7721 6.26641 10.6787 6.36055C10.453 6.58799 10.2269 6.81504 10.0008 7.04203C9.91558 7.12754 9.83043 7.21307 9.74527 7.2986C9.36983 7.6757 8.99426 8.05268 8.61835 8.42933C8.52632 8.52154 8.43429 8.61376 8.34227 8.70598C8.31939 8.7289 8.29652 8.75181 8.27295 8.77543C7.90277 9.14642 7.53333 9.51814 7.1642 9.89018C6.78509 10.2723 6.40531 10.6537 6.02487 11.0344C5.81133 11.2482 5.5981 11.4622 5.38561 11.677C5.20456 11.86 5.02291 12.0424 4.84046 12.224C4.74747 12.3166 4.65478 12.4094 4.56286 12.5031C4.47849 12.5891 4.39333 12.6741 4.30749 12.7586C4.27678 12.7891 4.24635 12.8199 4.21628 12.8511C3.993 13.0817 3.78557 13.1734 3.47192 13.2385C3.39685 13.2543 3.32298 13.2743 3.24892 13.2943C3.19806 13.3073 3.14718 13.3202 3.09629 13.333C3.05378 13.3438 3.05378 13.3438 3.01042 13.3549C2.91885 13.3781 2.82727 13.4013 2.73567 13.4244C2.70398 13.4324 2.67228 13.4404 2.63963 13.4487C2.47243 13.4909 2.3052 13.533 2.13796 13.575C2.00036 13.6096 1.86281 13.6445 1.7253 13.6795C1.55793 13.722 1.39049 13.7643 1.22297 13.8063C1.15958 13.8222 1.09622 13.8383 1.0329 13.8545C0.944395 13.8771 0.855793 13.8993 0.767154 13.9213C0.741443 13.928 0.715732 13.9347 0.689242 13.9415C0.493841 13.9894 0.264802 14.0436 0.0847808 13.9356C-0.00880327 13.8296 -0.00063213 13.7459 0.000804371 13.6088C0.0102018 13.4622 0.0451708 13.3236 0.0809495 13.1815C0.0888948 13.1488 0.0968401 13.1161 0.105026 13.0824C0.126702 12.9936 0.148691 12.9049 0.17087 12.8162C0.189432 12.7418 0.207794 12.6674 0.226165 12.593C0.269542 12.4173 0.313306 12.2418 0.357299 12.0662C0.402524 11.8858 0.447006 11.7052 0.491143 11.5245C0.529229 11.3686 0.567814 11.213 0.606788 11.0574C0.629986 10.9647 0.65299 10.872 0.675495 10.7792C0.700616 10.6757 0.726775 10.5725 0.753028 10.4692C0.760252 10.4388 0.767477 10.4085 0.77492 10.3771C0.782302 10.3488 0.789684 10.3205 0.797289 10.2913C0.806383 10.2547 0.806383 10.2547 0.815662 10.2174C0.927524 9.97714 1.16724 9.79227 1.35268 9.60676C1.38395 9.57537 1.41523 9.54398 1.44649 9.51258C1.53198 9.42677 1.61756 9.34103 1.70315 9.25532C1.79561 9.1627 1.88798 9.07001 1.98037 8.97732C2.20311 8.75392 2.42599 8.53064 2.64888 8.30739C2.71182 8.24435 2.77476 8.18131 2.83769 8.11826C3.22858 7.72669 3.61952 7.33515 4.01058 6.94374C4.101 6.85324 4.19142 6.76274 4.28184 6.67224C4.30431 6.64975 4.32678 6.62726 4.34994 6.60408C4.71479 6.23889 5.07936 5.87341 5.44381 5.50782C5.81798 5.1325 6.19239 4.75744 6.56706 4.38263C6.77743 4.17216 6.98769 3.96158 7.19767 3.75071C7.37627 3.57134 7.5551 3.39221 7.73423 3.21338C7.82568 3.12207 7.91701 3.03066 8.00805 2.93895C8.09128 2.85512 8.1748 2.7716 8.25859 2.68833C8.28896 2.65804 8.31921 2.62764 8.34933 2.59711C8.39008 2.55585 8.43122 2.51502 8.47249 2.47428C8.50672 2.43999 8.50672 2.43999 8.54164 2.40501C8.60346 2.36018 8.60346 2.36018 8.66253 2.36365Z" fill="black"/>
<path d="M12.5336 0.285835C12.6785 0.404054 12.81 0.536709 12.943 0.66793C12.9816 0.705546 13.0203 0.743161 13.0589 0.780757C13.1147 0.835097 13.1702 0.889687 13.2256 0.944348C13.2528 0.97111 13.28 0.997815 13.3073 1.02446C13.5401 1.25232 13.7912 1.49941 13.8982 1.81422C13.9084 1.84292 13.9185 1.87163 13.9289 1.90121C14.0496 2.28921 14.0157 2.73131 13.8323 3.09091C13.7154 3.30134 13.578 3.4635 13.4064 3.6313C13.3805 3.65712 13.3546 3.68296 13.3287 3.70883C13.275 3.76234 13.2211 3.81561 13.1671 3.86871C13.0977 3.93684 13.0287 4.00539 12.9599 4.0741C12.894 4.13988 12.8278 4.20543 12.7616 4.27097C12.7369 4.29561 12.7121 4.32025 12.6865 4.34564C12.6522 4.3793 12.6522 4.3793 12.6172 4.41364C12.5971 4.4335 12.5769 4.45336 12.5561 4.47382C12.5063 4.51617 12.5063 4.51617 12.4517 4.51617C12.4122 4.47613 12.4122 4.47613 12.3663 4.42072C12.2643 4.3009 12.1562 4.18936 12.0448 4.07832C12.0248 4.05836 12.0049 4.03839 11.9844 4.01782C11.9425 3.97598 11.9007 3.93417 11.8588 3.8924C11.795 3.82873 11.7313 3.76491 11.6676 3.70108C11.6268 3.66022 11.5859 3.61937 11.545 3.57853C11.5261 3.55962 11.5073 3.54071 11.4879 3.52123C11.3855 3.41935 11.2808 3.32476 11.169 3.23343C11.1373 3.19905 11.1064 3.16386 11.0769 3.12767C11.0119 3.05123 10.9454 2.98434 10.8688 2.91956C10.7734 2.83876 10.6928 2.75127 10.6119 2.65613C10.5553 2.5903 10.4943 2.5298 10.4321 2.46924C10.3635 2.40071 10.2951 2.33221 10.2274 2.26284C10.162 2.19646 10.162 2.19646 10.0943 2.14684C10.0124 2.07857 9.94697 2.00277 9.8777 1.922C9.77615 1.80471 9.66434 1.70457 9.54379 1.6076C9.50413 1.56858 9.50413 1.56858 9.47684 1.48671C9.62378 1.33658 9.77111 1.18684 9.91891 1.03756C9.98756 0.968201 10.0561 0.898727 10.1243 0.828947C10.1904 0.761392 10.2568 0.694192 10.3234 0.627209C10.3606 0.589607 10.3975 0.551659 10.4344 0.513703C10.9882 -0.0403355 11.8699 -0.191768 12.5336 0.285835Z" fill="black"/>
</svg>
