<svg width="20" height="24" viewBox="0 0 20 24" fill="none" xmlns="http://www.w3.org/2000/svg">
<path d="M7.90772 11.6769C7.98257 11.6767 7.98257 11.6767 8.05894 11.6764C8.22222 11.676 8.3855 11.6759 8.54878 11.6758C8.66359 11.6757 8.7784 11.6755 8.89321 11.6754C9.13334 11.6751 9.37346 11.675 9.61359 11.675C9.9192 11.675 10.2248 11.6744 10.5304 11.6736C10.7675 11.6731 11.0045 11.673 11.2416 11.673C11.3541 11.673 11.4667 11.6728 11.5793 11.6724C12.7116 11.6692 13.7524 11.7783 14.8294 12.1436C14.8796 12.1606 14.9297 12.1775 14.9814 12.195C16.9357 12.9017 18.4457 14.4613 19.3263 16.3098C19.5384 16.7699 19.6883 17.247 19.8064 17.7388C19.8135 17.7684 19.8207 17.798 19.828 17.8286C19.8505 17.9268 19.8703 18.0253 19.8898 18.1241C19.9015 18.1816 19.9015 18.1816 19.9135 18.2404C20.001 18.7281 19.996 19.2127 19.9956 19.7067C19.9958 19.8011 19.996 19.8955 19.9962 19.99C19.9966 20.1866 19.9966 20.3833 19.9963 20.58C19.9961 20.8318 19.9968 21.0836 19.9979 21.3353C19.9986 21.5298 19.9986 21.7242 19.9985 21.9187C19.9985 22.0115 19.9987 22.1044 19.9992 22.1973C19.9998 22.3268 19.9995 22.4564 19.9989 22.5859C19.9993 22.624 19.9996 22.6621 20 22.7013C19.9976 22.9654 19.9499 23.1615 19.7647 23.3622C19.7377 23.3842 19.7106 23.4062 19.6828 23.4289C19.6557 23.4515 19.6287 23.4741 19.6008 23.4974C19.4321 23.6151 19.2734 23.6044 19.0744 23.6046C19.0426 23.6047 19.0109 23.6048 18.9782 23.6049C18.8709 23.6051 18.7637 23.6051 18.6565 23.605C18.5791 23.6051 18.5018 23.6053 18.4244 23.6054C18.2113 23.6058 17.9981 23.6059 17.785 23.6059C17.5553 23.606 17.3257 23.6063 17.096 23.6067C16.5936 23.6073 16.0912 23.6076 15.5887 23.6078C15.2752 23.6079 14.9616 23.6081 14.6481 23.6083C13.7804 23.6089 12.9127 23.6093 12.045 23.6095C11.9894 23.6095 11.9339 23.6095 11.8766 23.6095C11.7931 23.6095 11.7931 23.6095 11.7079 23.6095C11.595 23.6096 11.4822 23.6096 11.3693 23.6096C11.2853 23.6096 11.2853 23.6096 11.1996 23.6096C10.2922 23.6098 9.38479 23.6106 8.47736 23.6117C7.5463 23.6128 6.61525 23.6134 5.68419 23.6134C5.1612 23.6135 4.63821 23.6137 4.11522 23.6145C3.66994 23.6153 3.22466 23.6155 2.77938 23.6151C2.55211 23.6149 2.32483 23.615 2.09755 23.6156C1.88958 23.6162 1.68161 23.6162 1.47364 23.6156C1.39831 23.6155 1.32299 23.6156 1.24767 23.616C1.14541 23.6166 1.04318 23.6162 0.940916 23.6157C0.884079 23.6157 0.827241 23.6157 0.768681 23.6157C0.521369 23.5882 0.342221 23.4918 0.185797 23.2995C0.163203 23.2725 0.140609 23.2454 0.11733 23.2176C-0.0134946 23.0301 0.00903973 22.8245 0.00874498 22.606C0.00851658 22.5656 0.00828817 22.5253 0.00805285 22.4837C0.00737937 22.3498 0.00706688 22.2158 0.00681318 22.0819C0.00654834 21.9882 0.00628346 21.8946 0.00601856 21.801C0.0055346 21.604 0.00526622 21.4071 0.00510601 21.2102C0.00485583 20.9602 0.00375549 20.7102 0.00243925 20.4603C0.00157326 20.2664 0.00134187 20.0725 0.00127189 19.8786C0.0011343 19.7866 0.000770665 19.6947 0.00015928 19.6027C-0.0128498 17.492 0.7715 15.6355 2.17834 14.0758C2.22495 14.0241 2.22495 14.0241 2.2725 13.9714C2.54897 13.6813 2.87125 13.4423 3.19042 13.2017C3.22932 13.1722 3.26822 13.1427 3.3083 13.1124C4.64649 12.1381 6.26398 11.6761 7.90772 11.6769Z" fill="black"/>
<path d="M12.2992 0.50426C12.3462 0.525015 12.3932 0.545771 12.4417 0.567156C13.7114 1.15936 14.6922 2.29152 15.1974 3.58651C15.2443 3.7187 15.2867 3.8518 15.3268 3.98617C15.3358 4.01616 15.3448 4.04616 15.354 4.07706C15.491 4.56535 15.5363 5.04716 15.5338 5.55318C15.5336 5.60989 15.5333 5.66661 15.533 5.72504C15.5138 7.17666 14.8983 8.54926 13.8633 9.56701C13.7 9.71255 13.5312 9.84839 13.3573 9.98104C13.3036 10.0229 13.3036 10.0229 13.2487 10.0655C12.109 10.9107 10.624 11.2331 9.22664 11.0623C9.03693 11.0337 8.85088 10.994 8.66489 10.9471C8.63435 10.9395 8.6038 10.9318 8.57233 10.9239C7.74365 10.7079 6.95616 10.2979 6.332 9.71023C6.22765 9.61109 6.22765 9.61109 6.11096 9.52334C5.22268 8.79008 4.62111 7.45481 4.48845 6.32459C4.34585 4.6567 4.7455 3.18344 5.82434 1.89893C6.17652 1.49652 6.56268 1.16618 7.00876 0.87229C7.04143 0.849696 7.07411 0.827102 7.10777 0.803823C8.61641 -0.179842 10.6868 -0.237637 12.2992 0.50426Z" fill="black"/>
</svg>
