<svg width="26" height="26" viewBox="0 0 26 26" fill="none" xmlns="http://www.w3.org/2000/svg">
<path d="M17.4263 0.00652519C17.5075 0.00621502 17.5886 0.00583658 17.6698 0.00539539C17.8892 0.00442409 18.1086 0.00448424 18.3281 0.00479471C18.5117 0.00496307 18.6953 0.00463126 18.8788 0.00430369C19.3121 0.00354172 19.7454 0.00362468 20.1787 0.00424404C20.6249 0.00486769 21.071 0.00410296 21.5172 0.00264713C21.9011 0.00144158 22.285 0.00108335 22.6689 0.00140184C22.8978 0.00158449 23.1267 0.00145633 23.3556 0.000519035C23.5709 -0.000324241 23.7862 -0.000103213 24.0015 0.000915874C24.0803 0.0011153 24.159 0.000949608 24.2377 0.000378846C24.6806 -0.00258545 25.0362 0.0166991 25.4222 0.245768C25.4715 0.274899 25.5207 0.304029 25.5715 0.334043C25.9865 0.772002 26.0045 1.25728 25.9988 1.83401C25.999 1.91634 25.9993 1.99867 25.9997 2.081C26.0005 2.30312 25.9996 2.52521 25.9983 2.74733C25.9972 2.9805 25.9975 3.21368 25.9976 3.44685C25.9976 3.8382 25.9966 4.22952 25.9948 4.62086C25.9928 5.07256 25.9923 5.52425 25.9927 5.97595C25.9931 6.41161 25.9925 6.84726 25.9914 7.28292C25.991 7.46784 25.9908 7.65276 25.9909 7.83769C25.991 8.05556 25.9902 8.27341 25.9888 8.49127C25.9884 8.57098 25.9883 8.65069 25.9885 8.7304C25.9896 9.32088 25.9501 9.75655 25.5306 10.1997C25.1832 10.5069 24.8143 10.5518 24.3597 10.5371C23.9444 10.4833 23.6392 10.2942 23.3717 9.97706C23.1762 9.64395 23.1164 9.34183 23.1171 8.96317C23.1165 8.91842 23.116 8.87368 23.1154 8.82758C23.1138 8.68427 23.1133 8.54097 23.1128 8.39765C23.1119 8.30857 23.111 8.21948 23.11 8.13039C23.1069 7.80187 23.1051 7.47335 23.1032 7.14482C23.0976 6.40983 23.092 5.67484 23.0863 4.91757C21.4549 6.5489 19.8236 8.18023 18.1428 9.86099C18.287 10.1133 18.4305 10.3505 18.591 10.591C19.3149 11.703 19.7246 12.9128 19.9898 14.2069C19.9979 14.2459 20.0059 14.2849 20.0143 14.325C20.308 15.8363 20.119 17.53 19.6639 18.9873C19.6446 19.0491 19.6446 19.0491 19.6249 19.1121C19.1997 20.4343 18.4923 21.5738 17.5996 22.627C17.5667 22.6666 17.5338 22.7062 17.4999 22.7471C17.281 23.0055 17.0433 23.2239 16.7848 23.4418C16.7345 23.4866 16.6843 23.5313 16.6326 23.5774C14.6649 25.3175 12.0197 26.1182 9.41643 25.9734C8.68697 25.923 7.98432 25.8035 7.27818 25.6147C7.23625 25.6036 7.19432 25.5924 7.15112 25.5809C6.148 25.3026 5.12052 24.8324 4.2904 24.2023C4.23354 24.1607 4.17667 24.119 4.11809 24.0761C3.69769 23.7642 3.31114 23.4223 2.93232 23.0615C2.89394 23.026 2.85557 22.9905 2.81603 22.954C0.952672 21.1777 0.0674017 18.5479 0.000980671 16.0271C-0.0343517 13.4899 0.886009 11.028 2.60701 9.16433C2.69368 9.0695 2.77474 8.97373 2.85423 8.87298C3.02701 8.67361 3.21924 8.50901 3.42122 8.33994C3.46485 8.3024 3.50848 8.26487 3.55343 8.2262C5.05929 6.95527 6.89815 6.17789 8.85355 5.94971C8.90348 5.94369 8.95341 5.93767 9.00485 5.93146C11.3412 5.69365 13.5864 6.29991 15.5678 7.52084C15.754 7.63456 15.9435 7.74279 16.1329 7.85103C17.7642 6.2197 19.3955 4.58837 21.0763 2.90761C19.6348 2.89835 19.6348 2.89835 18.1933 2.89143C17.913 2.88896 17.913 2.88896 17.7813 2.88753C17.6903 2.88674 17.5993 2.88637 17.5084 2.88634C16.3946 2.88527 16.3946 2.88527 15.948 2.53307C15.6053 2.10487 15.4995 1.80487 15.513 1.25138C15.5618 0.83391 15.7532 0.527793 16.0711 0.259561C16.5125 0.000535526 16.9261 0.00479554 17.4263 0.00652519ZM5.48551 10.3499C5.44111 10.3878 5.39672 10.4257 5.35097 10.4647C3.97837 11.6609 3.02273 13.4053 2.87799 15.239C2.78754 17.2635 3.27122 19.1233 4.63331 20.6713C4.71769 20.7623 4.80259 20.8528 4.88795 20.9429C4.93319 20.9917 4.97843 21.0404 5.02503 21.0906C6.23837 22.3573 7.98779 23.1219 9.73737 23.1853C11.8094 23.2298 13.6263 22.5648 15.1551 21.1602C15.195 21.1248 15.2349 21.0894 15.276 21.0529C16.5734 19.8409 17.3214 17.9739 17.3823 16.2168C17.3845 16.1759 17.3866 16.135 17.3889 16.0929C17.4436 14.2116 16.7066 12.3611 15.4345 10.9905C14.716 10.2371 13.9338 9.68326 12.9821 9.26343C12.9474 9.24811 12.9127 9.23278 12.877 9.21699C12.1107 8.88695 11.2634 8.69615 10.4289 8.66588C10.3556 8.66262 10.3556 8.66262 10.2808 8.6593C8.56936 8.62009 6.77596 9.2114 5.48551 10.3499Z" fill="black"/>
</svg>
