<svg width="18" height="18" viewBox="0 0 18 18" fill="none" xmlns="http://www.w3.org/2000/svg">
<g clip-path="url(#clip0_154_2818)">
<path d="M0.527459 5.66016C6.14262 5.66016 11.7578 5.66016 17.5431 5.66016C17.546 7.28728 17.5489 8.91439 17.5519 10.5908C17.5532 11.1046 17.5544 11.6183 17.5558 12.1476C17.5564 12.775 17.5564 12.775 17.5565 13.0688C17.5566 13.2739 17.5572 13.479 17.5579 13.6841C17.5588 13.9209 17.5592 14.1576 17.559 14.3944C17.559 14.5154 17.5591 14.6364 17.5598 14.7574C17.5606 14.8873 17.5604 15.0172 17.56 15.1471C17.5604 15.1844 17.5608 15.2218 17.5612 15.2602C17.5579 15.6763 17.436 16.0049 17.1564 16.3125C17.1281 16.3437 17.0998 16.3749 17.0707 16.407C16.7152 16.7278 16.3015 16.9538 15.8122 16.9544C15.7877 16.9545 15.7632 16.9546 15.738 16.9547C15.6561 16.9551 15.5742 16.9549 15.4923 16.9547C15.4329 16.9548 15.3735 16.955 15.3141 16.9552C15.1511 16.9556 14.9881 16.9556 14.825 16.9555C14.6491 16.9555 14.4732 16.9559 14.2973 16.9562C13.9527 16.9568 13.6082 16.957 13.2636 16.9571C12.9835 16.9571 12.7034 16.9572 12.4233 16.9575C11.629 16.9581 10.8348 16.9584 10.0406 16.9584C9.97637 16.9583 9.97637 16.9583 9.91085 16.9583C9.86798 16.9583 9.82511 16.9583 9.78095 16.9583C9.08625 16.9583 8.39155 16.959 7.69686 16.96C6.98347 16.961 6.27008 16.9615 5.55669 16.9614C5.15621 16.9614 4.75573 16.9616 4.35525 16.9623C4.01427 16.963 3.67329 16.9631 3.33231 16.9626C3.15838 16.9624 2.98446 16.9624 2.81054 16.963C2.65119 16.9636 2.49185 16.9635 2.33249 16.9629C2.27498 16.9628 2.21747 16.9629 2.15996 16.9633C1.70344 16.9662 1.30887 16.8985 0.949334 16.5938C0.608917 16.2275 0.516408 15.8201 0.519004 15.3331C0.518944 15.2918 0.518883 15.2504 0.518821 15.2078C0.518726 15.0935 0.518945 14.9791 0.519298 14.8648C0.519606 14.7394 0.519502 14.614 0.519451 14.4887C0.519414 14.2455 0.519738 14.0024 0.52019 13.7593C0.520697 13.4779 0.520752 13.1965 0.520807 12.9152C0.521176 12.1726 0.522158 11.4301 0.523065 10.6875C0.524515 9.02848 0.525965 7.36945 0.527459 5.66016ZM3.6256 7.80249C3.53612 7.96654 3.54471 8.13786 3.54376 8.32063C3.54356 8.35028 3.54335 8.37993 3.54315 8.41048C3.54282 8.47316 3.54259 8.53583 3.54245 8.59851C3.54211 8.69388 3.54102 8.78922 3.53991 8.88457C3.53968 8.94562 3.5395 9.00666 3.53936 9.0677C3.53893 9.09598 3.53849 9.12426 3.53805 9.1534C3.53887 9.36306 3.57447 9.53045 3.7091 9.69873C3.80582 9.77127 3.89832 9.77811 4.0147 9.77966C4.05907 9.78034 4.05907 9.78034 4.10433 9.78103C4.13619 9.78129 4.16805 9.78155 4.20088 9.78181C4.23378 9.7821 4.26668 9.78238 4.30059 9.78267C4.37024 9.78316 4.43989 9.78354 4.50955 9.78381C4.6158 9.78442 4.72202 9.78596 4.82826 9.78751C4.89599 9.78787 4.96372 9.78817 5.03144 9.78841C5.07891 9.78933 5.07891 9.78933 5.12734 9.79027C5.32199 9.7896 5.43869 9.76739 5.58996 9.63281C5.72557 9.47624 5.71186 9.30608 5.71191 9.1089C5.71217 9.07532 5.71244 9.04173 5.71272 9.00713C5.7131 8.93624 5.7132 8.86535 5.71304 8.79446C5.71301 8.68627 5.71447 8.57816 5.71603 8.46998C5.71621 8.40097 5.7163 8.33196 5.7163 8.26295C5.71688 8.23076 5.71745 8.19856 5.71805 8.16539C5.71644 8.016 5.71041 7.90786 5.61722 7.78703C5.43018 7.6187 5.26874 7.61807 5.02773 7.61833C4.99735 7.61818 4.96697 7.61803 4.93567 7.61788C4.87155 7.61767 4.80743 7.61766 4.74331 7.61781C4.6457 7.61792 4.54814 7.61709 4.45054 7.6162C4.38805 7.61612 4.32557 7.6161 4.26309 7.61613C4.23415 7.61581 4.20521 7.61549 4.17539 7.61515C3.96473 7.61683 3.77899 7.64399 3.6256 7.80249ZM7.8092 7.80249C7.74598 7.9184 7.73013 8.02644 7.72883 8.15733C7.72849 8.18479 7.72815 8.21226 7.7278 8.24055C7.72765 8.26992 7.7275 8.2993 7.72735 8.32956C7.72715 8.36007 7.72695 8.39059 7.72674 8.42203C7.72641 8.4865 7.72618 8.55098 7.72604 8.61546C7.7257 8.71376 7.72461 8.81203 7.7235 8.91032C7.72327 8.97308 7.72309 9.03584 7.72295 9.0986C7.72252 9.12783 7.72209 9.15706 7.72164 9.18718C7.72241 9.39057 7.75939 9.53546 7.89269 9.69653C7.98955 9.77321 8.08361 9.77804 8.20208 9.7791C8.23247 9.77944 8.26287 9.77978 8.29418 9.78013C8.34329 9.78035 8.34329 9.78035 8.3934 9.78058C8.44405 9.78088 8.44405 9.78088 8.49572 9.78119C8.56718 9.78152 8.63864 9.78175 8.71009 9.78188C8.81927 9.78222 8.92843 9.78332 9.03761 9.78442C9.10705 9.78465 9.17649 9.78484 9.24593 9.78497C9.27853 9.78541 9.31113 9.78584 9.34472 9.78629C9.51496 9.7857 9.63924 9.78469 9.77355 9.66797C9.90974 9.51054 9.89433 9.34049 9.89303 9.14282C9.89318 9.09232 9.89318 9.09232 9.89334 9.0408C9.89341 8.96976 9.89321 8.89872 9.89277 8.82769C9.89221 8.71912 9.89277 8.61061 9.89344 8.50204C9.89337 8.43292 9.89324 8.3638 9.89303 8.29468C9.89324 8.2623 9.89346 8.22992 9.89368 8.19656C9.8918 8.02536 9.88524 7.90832 9.77355 7.76953C9.60207 7.61948 9.43704 7.62288 9.21819 7.62177C9.17247 7.62146 9.17247 7.62146 9.12583 7.62116C9.06129 7.62083 8.99675 7.6206 8.93221 7.62046C8.83398 7.62012 8.73578 7.61903 8.63757 7.61792C8.57476 7.61769 8.51196 7.61751 8.44915 7.61737C8.41999 7.61694 8.39083 7.6165 8.36079 7.61606C8.14912 7.61686 7.96341 7.64313 7.8092 7.80249ZM12.0467 7.80662C11.9612 7.9585 11.9682 8.09439 11.9697 8.26598C11.9695 8.31752 11.9695 8.31752 11.9693 8.37011C11.9692 8.44266 11.9695 8.5152 11.9701 8.58775C11.9708 8.69848 11.9701 8.80914 11.9692 8.91987C11.9693 8.99048 11.9694 9.06109 11.9697 9.1317C11.9694 9.16466 11.9692 9.19763 11.9689 9.23159C11.9717 9.42845 11.9925 9.55015 12.129 9.70312C12.2312 9.76568 12.3084 9.78248 12.4275 9.78365C12.4585 9.7841 12.4895 9.78455 12.5214 9.78501C12.5546 9.78509 12.5878 9.78517 12.622 9.78525C12.6737 9.7856 12.6737 9.7856 12.7263 9.78596C12.7991 9.78631 12.8718 9.78648 12.9446 9.78647C13.0556 9.78662 13.1666 9.7879 13.2776 9.78923C13.3484 9.78944 13.4192 9.78958 13.49 9.78964C13.523 9.79015 13.5561 9.79065 13.5902 9.79117C13.7858 9.78982 13.9156 9.77552 14.0626 9.63281C14.1399 9.45047 14.1433 9.27386 14.1423 9.0791C14.1423 9.05038 14.1424 9.02166 14.1425 8.99207C14.1425 8.93168 14.1424 8.87129 14.1421 8.8109C14.1417 8.71902 14.1421 8.62716 14.1425 8.53528C14.1425 8.47632 14.1424 8.41736 14.1423 8.3584C14.1424 8.33122 14.1426 8.30404 14.1427 8.27604C14.1413 8.10822 14.121 7.96418 14.0626 7.80469C13.9315 7.67692 13.8222 7.62501 13.6404 7.62324C13.5982 7.62273 13.5982 7.62273 13.5551 7.62222C13.5247 7.62207 13.4944 7.62192 13.4632 7.62177C13.4162 7.62146 13.4162 7.62146 13.3682 7.62116C13.3018 7.62083 13.2355 7.6206 13.1692 7.62046C13.068 7.62012 12.9669 7.61903 12.8657 7.61792C12.8012 7.61769 12.7367 7.61751 12.6722 7.61737C12.642 7.61694 12.6119 7.6165 12.5809 7.61606C12.3592 7.61688 12.2176 7.65669 12.0467 7.80662ZM3.63 12.5837C3.53252 12.7446 3.54472 12.9188 3.54376 13.1019C3.54356 13.1315 3.54335 13.1612 3.54315 13.1917C3.54282 13.2544 3.54259 13.3171 3.54245 13.3798C3.54211 13.4751 3.54102 13.5705 3.53991 13.6658C3.53968 13.7269 3.5395 13.7879 3.53936 13.849C3.53893 13.8772 3.53849 13.9055 3.53805 13.9346C3.53877 14.1206 3.56965 14.2488 3.65637 14.4141C3.82156 14.5739 4.01514 14.5606 4.2337 14.5618C4.26248 14.562 4.29127 14.5622 4.32093 14.5624C4.3818 14.5628 4.44268 14.563 4.50355 14.5631C4.59598 14.5635 4.68839 14.5646 4.78082 14.5657C4.84014 14.5659 4.89947 14.5661 4.95879 14.5662C4.98612 14.5667 5.01345 14.5671 5.04161 14.5675C5.22577 14.5668 5.39578 14.5487 5.5548 14.4492C5.70728 14.2595 5.71628 14.0934 5.7141 13.8558C5.71424 13.8231 5.71437 13.7904 5.71451 13.7567C5.71461 13.6879 5.71435 13.6191 5.71376 13.5503C5.71301 13.4453 5.71376 13.3403 5.71465 13.2353C5.71456 13.1682 5.71438 13.1011 5.7141 13.034C5.71439 13.0028 5.71467 12.9716 5.71497 12.9395C5.71207 12.7471 5.68701 12.6305 5.5548 12.4805C5.45337 12.4184 5.37719 12.4012 5.259 12.4005C5.22861 12.4002 5.19822 12.3998 5.16691 12.3995C5.13435 12.3995 5.10179 12.3995 5.06825 12.3996C5.01767 12.3994 5.01767 12.3994 4.96607 12.3991C4.89482 12.3989 4.82358 12.3989 4.75233 12.3991C4.64346 12.3992 4.53462 12.3983 4.42575 12.3975C4.35647 12.3974 4.28719 12.3973 4.2179 12.3974C4.18542 12.3971 4.15293 12.3967 4.11946 12.3964C3.90918 12.3979 3.77675 12.4213 3.63 12.5837ZM7.8048 12.5859C7.71259 12.739 7.72372 12.9041 7.72392 13.0779C7.72377 13.1082 7.72361 13.1386 7.72346 13.1699C7.72326 13.234 7.72324 13.2982 7.72339 13.3623C7.7235 13.4599 7.72268 13.5574 7.72179 13.655C7.72171 13.7175 7.72168 13.78 7.72172 13.8425C7.7214 13.8714 7.72107 13.9004 7.72074 13.9302C7.72223 14.1175 7.75241 14.2476 7.83996 14.4141C7.96475 14.5348 8.09299 14.5587 8.26236 14.5604C8.28971 14.5607 8.31706 14.561 8.34523 14.5614C8.3745 14.5615 8.40376 14.5617 8.43391 14.5618C8.46434 14.562 8.49477 14.5622 8.52612 14.5624C8.59045 14.5628 8.65478 14.563 8.71911 14.5631C8.81703 14.5635 8.91491 14.5646 9.01282 14.5657C9.07546 14.5659 9.13811 14.5661 9.20075 14.5662C9.24433 14.5669 9.24433 14.5669 9.28878 14.5675C9.47647 14.5668 9.6096 14.5438 9.77355 14.4492C9.91449 14.2976 9.89488 14.1133 9.89427 13.9176C9.89445 13.8833 9.89463 13.8489 9.89482 13.8135C9.89505 13.7409 9.895 13.6684 9.8947 13.5958C9.8944 13.4851 9.89542 13.3744 9.89653 13.2637C9.89659 13.1931 9.89657 13.1225 9.89646 13.0519C9.89686 13.0189 9.89725 12.986 9.89766 12.952C9.89557 12.7549 9.87517 12.6336 9.7384 12.4805C9.63631 12.418 9.55884 12.401 9.43993 12.3994C9.39346 12.3985 9.39346 12.3985 9.34604 12.3977C9.31283 12.3975 9.27961 12.3973 9.24539 12.3971C9.21097 12.3968 9.17655 12.3965 9.1411 12.3961C9.06834 12.3956 8.99559 12.3953 8.92283 12.3952C8.81179 12.3948 8.70081 12.393 8.58978 12.3913C8.51901 12.3909 8.44824 12.3907 8.37747 12.3905C8.34439 12.3898 8.31132 12.3891 8.27724 12.3884C8.05758 12.3899 7.95304 12.42 7.8048 12.5859ZM12.0587 12.5508C11.9963 12.6529 11.9793 12.7303 11.9776 12.8492C11.9771 12.8802 11.9765 12.9112 11.9759 12.9431C11.9757 12.9764 11.9755 13.0096 11.9754 13.0438C11.975 13.0782 11.9747 13.1126 11.9744 13.1481C11.9739 13.2208 11.9736 13.2936 11.9734 13.3663C11.973 13.4774 11.9713 13.5884 11.9695 13.6994C11.9692 13.7702 11.9689 13.8409 11.9688 13.9117C11.9681 13.9448 11.9674 13.9779 11.9667 14.0119C11.9677 14.1633 11.972 14.2745 12.0665 14.3971C12.254 14.5646 12.4152 14.5655 12.6561 14.5653C12.7017 14.5655 12.7017 14.5655 12.7482 14.5657C12.8123 14.5659 12.8764 14.5659 12.9405 14.5658C13.0381 14.5657 13.1357 14.5665 13.2333 14.5674C13.2958 14.5675 13.3583 14.5675 13.4207 14.5675C13.4641 14.5679 13.4641 14.5679 13.5084 14.5684C13.6958 14.567 13.8259 14.5368 13.9923 14.4492C14.1542 14.2819 14.1389 14.0841 14.1401 13.863C14.1404 13.8185 14.1404 13.8185 14.1407 13.7731C14.141 13.7104 14.1412 13.6478 14.1414 13.5851C14.1417 13.4897 14.1428 13.3944 14.1439 13.299C14.1441 13.238 14.1443 13.1769 14.1445 13.1159C14.1449 13.0876 14.1453 13.0593 14.1458 13.0302C14.145 12.8205 14.1094 12.6531 13.9747 12.4849C13.877 12.4116 13.7835 12.4055 13.6659 12.4039C13.6356 12.4035 13.6053 12.403 13.5741 12.4026C13.5252 12.4022 13.5252 12.4022 13.4753 12.4018C13.4416 12.4015 13.4079 12.4012 13.3732 12.4009C13.3019 12.4004 13.2306 12.4001 13.1593 12.3998C13.0505 12.3992 12.9417 12.3976 12.8329 12.3961C12.7636 12.3957 12.6942 12.3954 12.6249 12.3952C12.5925 12.3946 12.5601 12.394 12.5267 12.3933C12.3305 12.394 12.2113 12.4147 12.0587 12.5508Z" fill="white"/>
<path d="M1.80742 1.0507C1.84542 1.0507 1.88342 1.0507 1.92257 1.05071C1.96337 1.05089 2.00417 1.05107 2.0462 1.05126C2.08814 1.05131 2.13008 1.05136 2.17329 1.05141C2.30726 1.0516 2.44123 1.05205 2.5752 1.05249C2.66602 1.05267 2.75684 1.05283 2.84766 1.05297C3.07031 1.05336 3.29297 1.05395 3.51562 1.05469C3.51583 1.0758 3.51604 1.09692 3.51625 1.11867C3.5185 1.33882 3.52147 1.55896 3.52485 1.7791C3.52602 1.86121 3.52701 1.94332 3.5278 2.02543C3.52899 2.14361 3.53083 2.26175 3.53279 2.37992C3.53302 2.41651 3.53324 2.4531 3.53347 2.4908C3.53734 2.68219 3.54737 2.8236 3.65625 2.98828C3.75939 3.07587 3.87641 3.12633 4.01221 3.13207C4.14619 3.11811 4.27823 3.09185 4.39453 3.02344C4.44061 2.93756 4.44061 2.93756 4.46484 2.84766C4.48225 2.81285 4.48225 2.81285 4.5 2.77735C4.5116 2.20887 4.5232 1.64039 4.53516 1.05469C7.34273 1.05469 10.1503 1.05469 13.043 1.05469C13.0546 1.62317 13.0662 2.19164 13.0781 2.77735C13.1129 2.83535 13.1477 2.89336 13.1836 2.95313C13.1836 2.97633 13.1836 2.99953 13.1836 3.02344C13.3307 3.09238 13.4778 3.13273 13.6406 3.12891C13.7573 3.08235 13.7573 3.08235 13.8516 3.02344C13.8748 3.02344 13.898 3.02344 13.9219 3.02344C13.9953 2.88146 14.0317 2.76739 14.0346 2.60724C14.0353 2.57276 14.036 2.53828 14.0367 2.50275C14.0373 2.46561 14.0379 2.42848 14.0385 2.39022C14.0396 2.33308 14.0396 2.33308 14.0407 2.2748C14.043 2.15301 14.0451 2.03122 14.0471 1.90943C14.0486 1.82691 14.0502 1.7444 14.0517 1.66189C14.0555 1.45949 14.0591 1.25709 14.0625 1.05469C14.3295 1.0511 14.5965 1.04865 14.8635 1.04696C14.9542 1.04626 15.0448 1.04531 15.1355 1.04408C15.2665 1.04236 15.3975 1.04157 15.5285 1.04096C15.5884 1.03987 15.5884 1.03987 15.6495 1.03876C16.2177 1.0386 16.6674 1.25618 17.0767 1.63985C17.82 2.41388 17.4727 3.56781 17.4727 4.57031C11.8807 4.57031 6.28875 4.57031 0.527344 4.57031C0.527344 1.89064 0.527344 1.89064 0.993164 1.37989C1.21814 1.16443 1.49856 1.04998 1.80742 1.0507Z" fill="white"/>
</g>
<defs>
<clipPath id="clip0_154_2818">
<rect width="18" height="18" fill="white"/>
</clipPath>
</defs>
</svg>
