<svg width="17" height="18" viewBox="0 0 17 18" fill="none" xmlns="http://www.w3.org/2000/svg">
<path d="M9.98099 0.14406C10.0126 0.149875 10.0443 0.155689 10.0769 0.16168C12.0555 0.536865 13.9585 1.63038 15.1825 3.25053C15.1997 3.27298 15.2169 3.29543 15.2346 3.31856C16.3727 4.81155 17.0094 6.62773 16.9999 8.5085C16.9998 8.53666 16.9997 8.56481 16.9997 8.59382C16.9913 10.4962 16.3533 12.3561 15.1464 13.8342C15.117 13.871 15.0875 13.9078 15.0572 13.9457C14.6388 14.4606 14.1647 14.9235 13.6293 15.3152C13.5885 15.3457 13.5478 15.3763 13.5071 15.4069C12.4042 16.225 11.1161 16.7261 9.76426 16.9407C9.73719 16.9453 9.71012 16.9499 9.68223 16.9547C8.82341 17.0986 7.87229 17.0582 7.01901 16.9045C6.98669 16.8987 6.95437 16.8929 6.92107 16.8869C5.28835 16.5794 3.79139 15.8115 2.60256 14.6537C2.54333 14.5961 2.48355 14.5391 2.42365 14.4821C2.17544 14.2434 1.95934 13.9874 1.75291 13.7119C1.71423 13.6604 1.67483 13.6095 1.63532 13.5586C0.552425 12.1319 -0.00886978 10.3231 0.000105979 8.5401C0.000183827 8.51195 0.000261674 8.48379 0.000341881 8.45478C0.00759299 6.80884 0.478619 5.15359 1.42014 3.79235C1.44351 3.75848 1.44351 3.75848 1.46736 3.72392C1.97795 2.99167 2.58798 2.30674 3.31004 1.77788C3.37061 1.73349 3.43049 1.68828 3.49037 1.64297C4.57777 0.831537 5.86589 0.32845 7.19962 0.107938C7.22574 0.1033 7.25186 0.0986607 7.27878 0.0938813C8.14332 -0.0549993 9.12224 -0.018306 9.98099 0.14406ZM7.92205 3.39502C7.78621 3.59144 7.73709 3.7556 7.73637 3.99154C7.73616 4.03205 7.73596 4.07256 7.73575 4.11429C7.73571 4.15858 7.73567 4.20287 7.73562 4.2485C7.73544 4.29526 7.73526 4.34203 7.73508 4.39022C7.73461 4.51844 7.73437 4.64666 7.73421 4.77489C7.73411 4.85508 7.73396 4.93526 7.7338 5.01545C7.7333 5.26656 7.73295 5.51768 7.73281 5.76879C7.73265 6.05824 7.73202 6.34768 7.73097 6.63713C7.73019 6.86114 7.72983 7.08514 7.72978 7.30915C7.72974 7.44281 7.72953 7.57646 7.72888 7.71012C7.72817 7.85936 7.72833 8.00859 7.72857 8.15783C7.72824 8.20182 7.7279 8.24582 7.72756 8.29114C7.72912 8.60844 7.76076 8.85041 7.98856 9.08928C8.01746 9.11985 8.04635 9.15041 8.07612 9.1819C8.10872 9.21522 8.14132 9.24853 8.1749 9.28286C8.20142 9.31016 8.20142 9.31016 8.22846 9.33802C8.37245 9.48627 8.51805 9.63289 8.66396 9.77925C8.68686 9.80225 8.70976 9.82525 8.73335 9.84895C8.85416 9.9703 8.97508 10.0915 9.09608 10.2127C9.22049 10.3373 9.34455 10.4623 9.46855 10.5873C9.56462 10.684 9.66093 10.7805 9.75731 10.8769C9.80317 10.9229 9.84893 10.969 9.8946 11.0151C9.95845 11.0796 10.0226 11.1437 10.0869 11.2077C10.1054 11.2266 10.1239 11.2454 10.143 11.2648C10.3427 11.4623 10.5456 11.5802 10.8301 11.5983C11.0499 11.5894 11.235 11.4965 11.3897 11.3418C11.5431 11.1289 11.5977 10.9155 11.5595 10.6531C11.4532 10.2952 11.1222 10.0557 10.8201 9.86918C10.1732 9.46064 9.45521 8.89257 9.26563 8.11638C9.04741 6.93334 9.15226 5.64892 9.22932 4.45541C9.23193 4.41282 9.23453 4.37023 9.23722 4.32635C9.24219 4.24746 9.24769 4.1686 9.25385 4.08979C9.2709 3.81945 9.23485 3.63642 9.08698 3.40405C8.90582 3.22289 8.73372 3.15458 8.48166 3.13849C8.26192 3.14745 8.0768 3.24027 7.92205 3.39502Z" fill="white"/>
</svg>
