<svg width="20.982147" height="21.045723" viewBox="0 0 20.9821 21.0457" fill="none" xmlns="http://www.w3.org/2000/svg" xmlns:xlink="http://www.w3.org/1999/xlink">
	<desc>
			Created with Pixso.
	</desc>
	<defs/>
	<path id="Vector" d="M16.8 2.13C16.84 2.16 16.89 2.2 16.93 2.23C17.25 2.47 17.54 2.74 17.83 3.02C17.85 3.04 17.88 3.06 17.9 3.09C18.27 3.44 18.6 3.82 18.9 4.23C18.93 4.27 18.93 4.27 18.96 4.31C19.3 4.76 19.58 5.23 19.84 5.73C19.86 5.77 19.88 5.8 19.9 5.84C20.65 7.3 20.98 8.89 20.98 10.53C20.98 10.58 20.98 10.62 20.98 10.67C20.97 11.29 20.96 11.9 20.82 12.51C20.81 12.58 20.81 12.58 20.79 12.65C20.3 15.06 18.96 17.32 16.99 18.83C16.96 18.85 16.94 18.87 16.91 18.89C15.07 20.32 12.82 21.05 10.5 21.04C10.46 21.04 10.41 21.04 10.37 21.04C9.74 21.04 9.13 21.02 8.52 20.89C8.48 20.88 8.44 20.87 8.4 20.86C7.58 20.69 6.81 20.44 6.05 20.09C6 20.07 6 20.07 5.95 20.04C5.85 20 5.85 20 5.76 19.94C5.39 19.73 5.03 19.86 4.63 19.95C4.59 19.96 4.55 19.97 4.51 19.98C4.37 20.02 4.24 20.05 4.11 20.08C4.02 20.1 3.92 20.13 3.83 20.15C3.58 20.21 3.34 20.27 3.09 20.33C2.8 20.4 2.5 20.47 2.2 20.55C1.97 20.6 1.74 20.66 1.51 20.71C1.31 20.76 1.11 20.81 0.91 20.86C0.84 20.88 0.77 20.89 0.71 20.91C0.62 20.93 0.54 20.95 0.45 20.97C0.4 20.98 0.36 20.99 0.31 21C0.2 21.03 0.2 21.03 0.01 21.03C0.04 20.77 0.08 20.53 0.14 20.28C0.15 20.24 0.16 20.21 0.17 20.17C0.2 20.06 0.23 19.94 0.25 19.83C0.27 19.74 0.29 19.66 0.31 19.58C0.37 19.37 0.42 19.15 0.48 18.94C0.52 18.76 0.56 18.59 0.6 18.42C0.64 18.29 0.67 18.16 0.7 18.04C0.74 17.87 0.78 17.71 0.82 17.54C0.91 17.19 0.99 16.85 1.09 16.5C1.1 16.45 1.11 16.4 1.13 16.34C1.15 16.25 1.18 16.16 1.2 16.07C1.27 15.83 1.29 15.69 1.18 15.46C1.16 15.41 1.16 15.41 1.14 15.37C1.12 15.34 1.11 15.32 1.09 15.29C0.44 14.01 0.01 12.54 0 11.1C0 11.07 0 11.03 0 10.98C-0.03 7.85 1.02 5.18 3.21 2.94C3.46 2.7 3.71 2.48 3.98 2.27C4.01 2.25 4.04 2.22 4.07 2.2C4.58 1.82 5.1 1.48 5.67 1.19C5.7 1.18 5.73 1.16 5.77 1.14C6.65 0.7 7.55 0.41 8.52 0.21C8.56 0.2 8.6 0.2 8.64 0.19C11.41 -0.41 14.57 0.42 16.8 2.13ZM5.85 6.06C5.24 6.8 5.03 7.64 5.11 8.58C5.17 9.15 5.39 9.64 5.67 10.13C5.69 10.17 5.72 10.22 5.75 10.27C6.49 11.48 7.59 12.68 8.71 13.54C8.77 13.59 8.83 13.64 8.89 13.69C10.33 14.82 12.03 15.59 13.9 15.46C14.09 15.42 14.24 15.37 14.41 15.27C14.45 15.25 14.49 15.23 14.52 15.21C15.05 14.9 15.39 14.4 15.57 13.81C15.62 13.53 15.58 13.28 15.44 13.03C15.22 12.72 14.89 12.57 14.55 12.4C14.47 12.36 14.38 12.32 14.29 12.27C13.59 11.92 13.59 11.92 12.82 11.95C12.46 12.1 12.24 12.48 12.04 12.8C11.98 12.89 11.98 12.89 11.84 12.98C11.09 13.04 10.27 12.48 9.72 12.01C9.68 11.98 9.64 11.94 9.6 11.91C9.54 11.85 9.54 11.85 9.48 11.8C8.95 11.35 8.04 10.42 7.97 9.68C7.99 9.41 8.16 9.25 8.33 9.05C8.39 8.99 8.44 8.92 8.49 8.85C8.52 8.81 8.52 8.81 8.56 8.76C8.74 8.49 8.75 8.25 8.71 7.93C8.64 7.69 8.53 7.47 8.42 7.25C8.37 7.15 8.33 7.05 8.28 6.94C7.98 6.24 7.98 6.24 7.4 5.78C6.82 5.58 6.31 5.64 5.85 6.06Z" fill="#FFFFFF" fill-opacity="1.000000" fill-rule="nonzero"/>
</svg>
