<svg width="21" height="21" viewBox="0 0 21 21" fill="none" xmlns="http://www.w3.org/2000/svg">
<path d="M1.77605 0.00938932C1.82009 0.00911435 1.86412 0.00883938 1.90949 0.00855608C2.05462 0.00778041 2.19974 0.00761855 2.34487 0.00753045C2.44617 0.00726721 2.54747 0.00699178 2.64877 0.0067047C2.86102 0.0062149 3.07326 0.00606276 3.2855 0.0061113C3.5567 0.00611962 3.82788 0.00500244 4.09908 0.00359197C4.30832 0.00267907 4.51755 0.00251569 4.72679 0.00255892C4.82674 0.00246266 4.92668 0.00210251 5.02662 0.00146739C5.1668 0.000660058 5.30693 0.000902631 5.44711 0.00139416C5.48791 0.000934085 5.52871 0.000474013 5.57075 0C6.05928 0.00432581 6.42703 0.181679 6.77803 0.511066C7.21889 0.965915 7.26038 1.48131 7.29184 2.08319C7.34332 3.06526 7.46365 4.01612 7.74256 4.96277C7.92264 5.57463 8.06622 6.17299 7.75663 6.7756C7.67908 6.88817 7.59522 6.99543 7.51102 7.10308C7.46193 7.16726 7.41289 7.23149 7.36391 7.29576C7.3381 7.3295 7.31228 7.36323 7.28569 7.39798C7.01761 7.74842 6.75292 8.101 6.49218 8.45692C6.24983 8.78707 6.00083 9.11203 5.75081 9.43639C5.90979 9.7654 6.08146 10.082 6.27273 10.3933C6.29781 10.4342 6.32289 10.4751 6.34873 10.5173C6.54579 10.8362 6.75218 11.1438 6.97886 11.4422C6.9964 11.4653 7.01394 11.4884 7.03201 11.5122C7.60908 12.2687 8.23124 12.9846 8.98469 13.5708C9.02305 13.6027 9.06142 13.6345 9.10094 13.6673C9.84324 14.2787 10.6797 14.7904 11.5227 15.2492C11.7693 15.0895 12.0039 14.9201 12.2339 14.7375C12.5268 14.5072 12.8243 14.2842 13.1253 14.0646C13.3267 13.9172 13.5233 13.7654 13.7178 13.6092C14.1432 13.2714 14.5787 13.0454 15.1362 13.0598C15.467 13.1028 15.7871 13.2038 16.1081 13.2922C17.0573 13.5493 18.0253 13.7034 19.0089 13.7274C19.5948 13.7437 20.0886 13.8439 20.5275 14.262C20.6888 14.437 20.8082 14.6189 20.8968 14.8398C20.9108 14.873 20.9248 14.9061 20.9391 14.9403C20.9929 15.1376 20.9908 15.3235 20.9906 15.5271C20.991 15.5931 20.991 15.5931 20.9914 15.6605C20.9922 15.8058 20.9924 15.9512 20.9925 16.0965C20.9927 16.1979 20.993 16.2992 20.9933 16.4006C20.9938 16.6131 20.9939 16.8256 20.9939 17.0381C20.9939 17.3096 20.995 17.5811 20.9964 17.8526C20.9973 18.062 20.9975 18.2714 20.9974 18.4809C20.9975 18.5809 20.9979 18.681 20.9985 18.781C20.9993 18.9214 20.9991 19.0617 20.9986 19.2021C20.9991 19.243 20.9995 19.2838 21 19.326C20.9956 19.8269 20.809 20.2102 20.4563 20.5605C20.1313 20.8527 19.7874 20.9929 19.3466 20.9924C19.3008 20.9928 19.3008 20.9928 19.254 20.9931C19.1543 20.9936 19.0547 20.9934 18.955 20.9929C18.9205 20.9928 18.886 20.9927 18.8505 20.9927C14.8187 20.9762 10.8336 19.5192 7.0499 16.6177C6.98699 16.5658 6.92333 16.5148 6.85958 16.464C6.37986 16.0812 5.94344 15.6502 5.50819 15.2184C5.45071 15.1614 5.39306 15.1046 5.33541 15.0478C5.11799 14.8306 4.91708 14.6068 4.72585 14.3662C4.65094 14.2734 4.57305 14.1853 4.49205 14.0979C4.23798 13.8146 4.01323 13.5072 3.78591 13.2024C3.76345 13.1724 3.74098 13.1423 3.71784 13.1113C1.36097 9.94194 0.0328594 6.00438 0.00196297 2.05525C0.00146662 2.0222 0.000970268 1.98914 0.000458877 1.95509C-0.00686287 1.38448 0.0701395 0.943685 0.47016 0.512505C0.85426 0.13096 1.24434 0.00890972 1.77605 0.00938932Z" fill="black"/>
</svg>
