<svg width="39" height="39" viewBox="0 0 39 39" fill="none" xmlns="http://www.w3.org/2000/svg">
<path d="M19.0556 38.8914C16.9121 38.8914 14.8055 38.5362 12.7975 37.8381C8.59462 36.3783 5.01181 33.4648 2.71225 29.6377C0.938302 26.6873 0 23.2995 0 19.8378C0 15.3886 1.5481 11.1057 4.37328 7.69533C3.82713 6.0343 4.03655 4.90711 4.99744 4.34043C5.33827 4.13922 5.69347 4.03656 6.05278 4.03656C6.41209 4.03656 6.98082 4.14743 7.49206 4.69562C10.8038 2.16405 14.8568 0.784317 19.0597 0.784317H19.0679C19.8399 0.275128 20.8336 0 21.9198 0C22.6343 0 23.359 0.117031 24.0715 0.34904C25.1063 0.685762 26.0282 1.23396 26.7345 1.94026C26.7961 1.9998 26.8515 2.05729 26.9008 2.11683C27.0671 2.29751 27.219 2.4864 27.3566 2.68351C33.9021 5.85567 38.1132 12.549 38.1132 19.8399C38.1132 30.346 29.5658 38.8934 19.0597 38.8934L19.0556 38.8914Z" fill="white"/>
<path d="M36.8977 20.0057C36.8977 29.861 28.9067 37.8479 19.0555 37.8479C17.0024 37.8479 15.0293 37.5009 13.1937 36.8623C11.4218 36.2464 10.7237 34.341 9.25571 33.2323C7.42838 31.8526 4.93171 31.1504 3.74907 29.1814C2.13733 26.502 1.20929 23.3627 1.20929 20.0057C1.20929 10.1504 9.20027 2.16357 19.0535 2.16357C28.9067 2.16357 36.8956 10.1525 36.8956 20.0057H36.8977Z" fill="#F6A23C"/>
<path d="M18.7722 18.4656L18.5731 18.4348C19.2568 14.0307 20.5031 9.72314 22.2811 5.63525L22.4659 5.71532C20.6961 9.78884 19.4539 14.0779 18.7722 18.4656Z" fill="#412945"/>
<path d="M19.5032 19.8886C18.7722 16.3818 17.8339 12.877 16.717 9.47283L16.908 9.40918C18.0269 12.8216 18.9673 16.3325 19.7003 19.8455L19.5032 19.8866V19.8886Z" fill="#412945"/>
<path d="M20.6345 8.15282C20.6345 9.34777 19.5914 10.3785 18.1029 10.824C18.0865 10.8302 17.8503 10.475 17.8319 10.4811C17.8011 10.4914 17.9859 10.8589 17.953 10.8671C17.4828 10.9944 16.9695 11.0642 16.4316 11.0642C14.2326 11.0642 12.4279 9.89187 12.2452 8.40126C12.2411 8.37251 12.5141 8.28217 12.5121 8.25343C12.5121 8.23084 12.2328 8.26985 12.2328 8.24727C12.2287 8.21442 12.2287 8.18362 12.2287 8.15077C12.2287 6.54107 14.1094 5.2373 16.4316 5.2373C17.3617 5.2373 18.224 5.44673 18.918 5.80193C18.9406 5.8122 18.7702 6.06679 18.7948 6.07911C18.8174 6.09143 19.033 5.86352 19.0556 5.8779C20.0164 6.40967 20.6324 7.23094 20.6324 8.15282H20.6345Z" fill="#F6A23C"/>
<path d="M18.877 6.1242C18.5279 6.68677 18.4643 7.42181 18.7127 8.03776C18.7209 8.06035 18.7189 8.08909 18.7024 8.10757C18.6881 8.13015 18.6655 8.14247 18.6388 8.14042C17.8565 8.10141 17.0845 8.73379 16.9614 9.50578C17.0948 9.59202 17.2221 9.68852 17.3412 9.79734C17.6492 10.0786 17.9058 10.4297 18.105 10.826C18.0557 10.8424 18.0064 10.8568 17.9551 10.8691C17.7683 10.4995 17.5239 10.1731 17.2385 9.91026C17.1153 9.79734 16.9819 9.70084 16.8423 9.6105C16.8423 9.6105 16.8382 9.6105 16.8361 9.60639C16.3249 9.28199 15.7274 9.128 15.1648 9.18754C14.861 9.22245 14.6146 9.31073 14.4318 9.45445C14.4134 9.46883 14.3887 9.47499 14.3661 9.46883C14.3435 9.46267 14.3251 9.44624 14.3148 9.42366C14.0787 8.85698 13.5325 8.43813 12.9227 8.35806C12.6969 8.32726 12.4669 8.34369 12.2452 8.40528C12.239 8.35395 12.2329 8.30468 12.2329 8.25129C12.4628 8.19175 12.7031 8.17738 12.9412 8.20612C13.5715 8.2903 14.1403 8.7071 14.4134 9.27788C14.6084 9.15059 14.8548 9.06846 15.1443 9.03766C15.3024 9.01918 15.4605 9.02123 15.6206 9.03766C15.3065 8.41555 14.8568 7.85708 14.3189 7.41565C14.2861 7.38896 14.282 7.34174 14.3086 7.30888C14.3353 7.27603 14.3826 7.27192 14.4154 7.29861C14.9882 7.76879 15.4687 8.37038 15.7951 9.03971C15.7951 9.04587 15.7951 9.05203 15.7993 9.05819C16.0949 9.10336 16.3844 9.19781 16.6595 9.33537C16.6123 8.52026 16.4522 7.71336 16.1791 6.94342C16.1647 6.90235 16.1852 6.86129 16.2263 6.84692C16.2653 6.83255 16.3064 6.85308 16.3208 6.89209C16.6082 7.69694 16.7745 8.53668 16.8176 9.39081C16.8176 9.39902 16.8176 9.40929 16.8135 9.4175C16.8135 9.4175 16.8176 9.42161 16.8217 9.42161C16.9223 8.92269 17.257 8.48947 17.6943 8.23487C17.7128 7.67641 17.6635 7.11794 17.5486 6.57179C17.5403 6.53073 17.567 6.49171 17.6081 6.4835C17.6492 6.47529 17.6882 6.50198 17.6964 6.54305C17.8093 7.07277 17.8565 7.61481 17.8463 8.15685C18.0598 8.0583 18.2918 7.9967 18.53 7.99259C18.3123 7.3561 18.3924 6.62312 18.7456 6.05028C18.799 5.9661 18.8544 5.88603 18.918 5.81006C18.9653 5.83264 19.0104 5.85729 19.0556 5.88398C18.9899 5.95994 18.9283 6.04413 18.8749 6.13036L18.877 6.1242Z" fill="#412945"/>
<path d="M26.7899 5.73649C26.4204 6.87395 25.1125 7.53302 23.5582 7.49811C23.5398 7.49811 23.4268 7.08748 23.4063 7.08748C23.3734 7.08748 23.435 7.49401 23.4022 7.49195C22.9156 7.46732 22.4064 7.37698 21.8952 7.21067C19.803 6.53107 18.4499 4.86183 18.7333 3.38559C18.7394 3.35685 19.0269 3.35685 19.033 3.3281C19.0371 3.30757 18.762 3.2583 18.7702 3.23776C18.7764 3.20491 18.7866 3.17412 18.7969 3.14332C19.2938 1.61165 21.4845 0.950521 23.6937 1.66708C24.5787 1.95453 25.3322 2.4206 25.8845 2.97291C25.903 2.99139 25.6627 3.17822 25.6812 3.19875C25.6997 3.21723 25.9748 3.06735 25.9913 3.08789C26.7427 3.89068 27.0733 4.86183 26.7899 5.73854V5.73649Z" fill="#F6A23C"/>
<path d="M25.7428 3.26604C25.2357 3.69516 24.9503 4.37271 24.9975 5.03589C24.9975 5.06052 24.9872 5.08516 24.9667 5.09953C24.9462 5.11596 24.9215 5.12007 24.8948 5.1098C24.1639 4.83262 23.2318 5.19398 22.8766 5.89001C22.9772 6.0132 23.0675 6.14255 23.1476 6.28422C23.3529 6.64558 23.4905 7.06032 23.5562 7.49765C23.5048 7.49765 23.4535 7.49765 23.4001 7.49149C23.3365 7.08291 23.2051 6.69691 23.0141 6.35813C22.932 6.21236 22.8355 6.0789 22.7308 5.9516C22.7308 5.94955 22.7267 5.9475 22.7267 5.94544C22.3407 5.47937 21.8192 5.14881 21.2669 5.03178C20.9671 4.97019 20.7063 4.98045 20.4867 5.05847C20.4641 5.06669 20.4394 5.06463 20.4189 5.05231C20.4004 5.04 20.3881 5.01946 20.384 4.99482C20.3347 4.38297 19.9446 3.81629 19.3903 3.55143C19.1849 3.45288 18.9611 3.39745 18.7332 3.38718C18.7435 3.33791 18.7538 3.28657 18.7681 3.2373C19.0043 3.25167 19.2383 3.31121 19.456 3.41387C20.0288 3.689 20.4435 4.25978 20.5257 4.88806C20.7515 4.82646 21.0102 4.82441 21.2956 4.886C21.4517 4.9168 21.6015 4.96813 21.7494 5.03178C21.6426 4.34191 21.388 3.67258 21.0102 3.08742C20.9876 3.05251 20.9979 3.00529 21.0328 2.9827C21.0677 2.96012 21.1149 2.97039 21.1375 3.00529C21.5379 3.62946 21.8069 4.35012 21.9116 5.08722C21.9116 5.09337 21.9116 5.09953 21.9116 5.10569C22.1785 5.23915 22.4249 5.41983 22.6446 5.63542C22.8519 4.84494 22.9464 4.02777 22.9258 3.21266C22.9258 3.16954 22.9566 3.13669 22.9998 3.13464C23.0408 3.13464 23.0757 3.16544 23.0757 3.2065C23.1004 4.06062 22.9998 4.91064 22.778 5.73602C22.776 5.74423 22.7698 5.75245 22.7657 5.76066C22.7657 5.76271 22.7677 5.76476 22.7718 5.76682C23.0223 5.32333 23.472 5.0133 23.9689 4.90653C24.1578 4.38092 24.285 3.83478 24.3425 3.28042C24.3466 3.23935 24.3856 3.20856 24.4247 3.21472C24.4637 3.22087 24.4965 3.25783 24.4904 3.29684C24.4349 3.83477 24.3117 4.36655 24.1352 4.87779C24.3692 4.84905 24.6094 4.86342 24.8373 4.93323C24.8271 4.25978 25.1289 3.58839 25.6422 3.15107C25.7182 3.08742 25.7962 3.02993 25.8804 2.97449C25.9173 3.00939 25.9543 3.04636 25.9871 3.08742C25.9009 3.1408 25.8167 3.20034 25.7407 3.26604H25.7428Z" fill="#412945"/>
<path d="M19.0761 14.0018C19.0761 14.0018 12.432 6.05191 7.62142 12.9465C2.81082 19.8411 13.9596 30.957 18.0311 33.5358C18.0311 33.5358 35.4235 23.8427 30.4466 14.086C26.9295 7.19143 19.0761 13.9998 19.0761 13.9998V14.0018Z" fill="white"/>
<path d="M21.0225 32.5526C21.0225 32.5526 21.4002 32.9304 21.16 33.6901C20.9444 34.3718 19.7392 34.4498 19.7392 34.4498C19.7392 34.4498 20.1827 35.1089 19.8419 35.5133C19.1726 36.3059 15.9799 36.6138 13.5817 36.8253C13.4503 36.8356 13.321 36.8479 13.1937 36.8602C9.21667 35.4784 5.88231 32.7292 3.74905 29.1793C5.56407 29.2655 7.82051 29.3168 9.31728 29.1423C10.5574 29.0006 11.545 28.7255 12.3252 28.4422C13.3477 28.0685 14.0129 27.6743 14.4277 27.5306C14.8568 27.3807 17.5362 27.3335 19.6592 27.317C19.7043 27.317 19.8316 27.4751 19.8747 27.4751C19.9076 27.4751 19.8522 27.317 19.885 27.315C20.8069 27.3088 21.5994 27.3109 22.0183 27.3109C22.0758 27.3109 22.0183 27.4012 22.0634 27.4033C22.1106 27.4033 22.2503 27.3109 22.277 27.3109H22.3283C22.3283 27.3109 22.6917 28.6516 21.7288 29.1505C20.9383 29.5612 18.6326 30.1504 17.8174 30.3537C17.6594 30.3948 17.5587 30.4173 17.5362 30.4235C17.6409 30.4481 19.3799 30.8465 20.7658 30.405C21.3695 30.2141 22.4186 29.9225 23.4658 29.7973C24.903 29.6228 26.3423 29.7583 26.6379 30.8773L21.0225 32.5506V32.5526Z" fill="#FF9582"/>
<path d="M26.7221 30.8546C26.5065 30.1893 26.2909 29.7787 24.6484 29.6227C24.3178 29.5919 23.9955 29.596 23.6834 29.6227C22.8991 29.6925 22.1661 29.9142 21.4516 30.1298C21.0163 30.2633 20.6036 30.3885 20.1971 30.4686C19.5052 30.6143 18.5546 30.4973 17.8175 30.3556C17.1707 30.2325 16.6903 30.0887 16.678 30.0867C16.6307 30.0703 16.5835 30.101 16.5671 30.1462C16.5548 30.1955 16.5815 30.2427 16.6287 30.2571C16.719 30.2838 18.8913 30.9203 20.2341 30.6451C20.6488 30.5589 21.0656 30.4357 21.507 30.3002C22.1271 30.1134 22.7636 29.9224 23.4288 29.8341C23.8189 29.7787 24.2193 29.7643 24.634 29.8013C26.1595 29.943 26.3567 30.3125 26.5271 30.8238C26.5209 30.8238 26.5147 30.8279 26.5106 30.8299C26.1595 30.4727 25.6093 30.3269 25.1288 30.4665C24.6402 30.6041 24.246 31.0332 24.1454 31.5301C22.7431 31.9428 21.1334 32.4006 20.4476 32.5567C20.1601 32.6203 19.807 32.6634 19.4313 32.6901C18.5094 32.7538 17.4458 32.7271 16.8545 32.7024C16.5753 32.6901 16.4028 32.6778 16.3946 32.6778C16.3453 32.6778 16.3043 32.7127 16.3022 32.7599C16.2981 32.8092 16.3371 32.8503 16.3844 32.8544C16.4193 32.8544 16.6944 32.8749 17.0989 32.8893C17.6368 32.9098 18.3985 32.9221 19.1233 32.8831C19.6243 32.8605 20.1068 32.8133 20.4866 32.7271C20.6324 32.6942 20.8192 32.6491 21.0369 32.5895C21.0369 32.5957 21.0369 32.5998 21.043 32.6039C21.0656 32.6408 21.583 33.4806 20.735 34.0391C19.8378 34.6324 16.8545 34.5852 16.8278 34.5852C16.7765 34.5852 16.7375 34.6222 16.7375 34.6714C16.7375 34.7207 16.7765 34.7597 16.8237 34.7597C16.9141 34.7597 18.4868 34.7885 19.7023 34.5647L19.7085 34.577C19.7085 34.577 19.9425 34.887 19.8871 35.2032C19.8542 35.3798 19.7392 35.5256 19.5442 35.6467C18.8276 36.0943 15.9676 36.6035 13.6618 36.7C13.6167 36.7 13.5756 36.7431 13.5776 36.7903C13.5776 36.8026 13.5818 36.815 13.5879 36.8273C13.6023 36.8581 13.6351 36.8786 13.67 36.8766C15.8977 36.7862 18.5443 36.3263 19.4805 35.8849C19.5401 35.8561 19.5914 35.8274 19.6386 35.8007C19.8768 35.6508 20.0185 35.4619 20.0616 35.2361C20.1191 34.9281 19.9671 34.6488 19.8891 34.5318C20.1807 34.4702 20.4455 34.3922 20.6509 34.2957C20.7186 34.2629 20.7823 34.23 20.8377 34.191C21.7288 33.6017 21.3161 32.7312 21.2155 32.5484C23.0531 32.0618 26.6277 30.9819 26.6687 30.9695L26.6811 30.9634C26.6995 30.9552 26.7139 30.9429 26.7221 30.9264C26.7344 30.9059 26.7385 30.8792 26.7303 30.8587L26.7221 30.8546ZM24.3425 31.4705C24.4554 31.0763 24.7778 30.7478 25.174 30.6349C25.5621 30.522 26.0015 30.6246 26.3094 30.8874C25.9152 31.0045 25.1761 31.2262 24.3425 31.4705Z" fill="#412945"/>
<path d="M20.1088 27.7605C20.4743 28.0007 20.9732 28.0397 21.4434 27.8672C21.4947 27.8488 21.546 27.8262 21.5994 27.8015C21.8314 27.6907 22.0573 27.5305 22.277 27.3149C22.2277 27.3149 22.1394 27.3149 22.0183 27.3149H22.0162C21.8088 27.4915 21.5974 27.6209 21.3818 27.703C20.9711 27.8549 20.5215 27.8221 20.2074 27.6147C20.0862 27.5367 19.9815 27.432 19.885 27.319C19.809 27.319 19.7331 27.319 19.6591 27.3211C19.7844 27.4812 19.9302 27.6455 20.1109 27.7605H20.1088Z" fill="#412945"/>
<path d="M30.1058 12.0456C29.7362 13.183 28.4283 13.8421 26.8741 13.8072C26.8556 13.8072 26.7427 13.3966 26.7221 13.3966C26.6893 13.3966 26.7509 13.8031 26.718 13.801C26.2314 13.7764 25.7222 13.6861 25.211 13.5198C23.1188 12.8401 21.7637 11.1709 22.0491 9.69467C22.0552 9.66593 22.3427 9.66593 22.3488 9.63719C22.353 9.61665 22.0778 9.56738 22.086 9.54685C22.0922 9.51399 22.1025 9.4832 22.1127 9.4524C22.6096 7.92073 24.8003 7.2596 27.0096 7.97616C27.8945 8.26361 28.648 8.72968 29.2003 9.28198C29.2188 9.30046 28.9786 9.4873 28.997 9.50783C29.0155 9.52631 29.2907 9.37643 29.3071 9.39696C30.0585 10.1998 30.3891 11.1709 30.1058 12.0476V12.0456Z" fill="#F6A23C"/>
<path d="M29.0607 9.57366C28.5536 10.0028 28.2682 10.6803 28.3154 11.3435C28.3154 11.3681 28.3051 11.3928 28.2846 11.4072C28.2641 11.4236 28.2394 11.4277 28.2127 11.4174C27.4818 11.1402 26.5497 11.5016 26.1945 12.1976C26.2951 12.3208 26.3854 12.4502 26.4655 12.5918C26.6708 12.9532 26.8084 13.3679 26.8741 13.8053C26.8227 13.8053 26.7714 13.8053 26.718 13.7991C26.6544 13.3905 26.523 13.0045 26.332 12.6658C26.2499 12.52 26.1534 12.3865 26.0487 12.2592C26.0487 12.2572 26.0446 12.2551 26.0446 12.2531C25.6586 11.787 25.1371 11.4564 24.5848 11.3394C24.285 11.2778 24.0243 11.2881 23.8046 11.3661C23.782 11.3743 23.7573 11.3722 23.7368 11.3599C23.7183 11.3476 23.706 11.3271 23.7019 11.3024C23.6526 10.6906 23.2625 10.1239 22.7082 9.85905C22.5028 9.7605 22.2791 9.70506 22.0511 9.6948C22.0614 9.64552 22.0717 9.59419 22.0861 9.54491C22.3222 9.55929 22.5562 9.61883 22.7739 9.72149C23.3467 9.99662 23.7614 10.5674 23.8436 11.1957C24.0694 11.1341 24.3281 11.132 24.6135 11.1936C24.7696 11.2244 24.9194 11.2758 25.0673 11.3394C24.9605 10.6495 24.7059 9.98019 24.3281 9.39504C24.3055 9.36013 24.3158 9.31291 24.3507 9.29032C24.3856 9.26774 24.4328 9.27801 24.4554 9.31291C24.8558 9.93708 25.1248 10.6577 25.2295 11.3948C25.2295 11.401 25.2295 11.4072 25.2295 11.4133C25.4964 11.5468 25.7428 11.7275 25.9625 11.943C26.1698 11.1526 26.2643 10.3354 26.2437 9.52028C26.2437 9.47716 26.2745 9.44431 26.3177 9.44226C26.3587 9.44226 26.3936 9.47305 26.3936 9.51412C26.4183 10.3682 26.3177 11.2183 26.0959 12.0436C26.0939 12.0519 26.0877 12.0601 26.0836 12.0683C26.0836 12.0703 26.0857 12.0724 26.0898 12.0744C26.3402 11.6309 26.7899 11.3209 27.2868 11.2142C27.4757 10.6885 27.603 10.1424 27.6604 9.58804C27.6645 9.54697 27.7036 9.51617 27.7426 9.52233C27.7816 9.52849 27.8144 9.56545 27.8083 9.60446C27.7528 10.1424 27.6296 10.6742 27.4531 11.1854C27.6871 11.1567 27.9274 11.171 28.1553 11.2408C28.145 10.5674 28.4468 9.89601 28.9601 9.45868C29.0361 9.39504 29.1141 9.33754 29.1983 9.28211C29.2352 9.31701 29.2722 9.35397 29.305 9.39504C29.2188 9.44842 29.1346 9.50796 29.0587 9.57366H29.0607Z" fill="#412945"/>
</svg>
