<svg width="38" height="38" viewBox="0 0 38 38" fill="none" xmlns="http://www.w3.org/2000/svg">
<path d="M18.6716 37.3412C14.6228 37.3412 10.771 36.0662 7.53107 33.6516C2.81696 30.1428 0 24.5437 0 18.6716C0 8.37698 8.37698 0 18.6716 0C28.9663 0 37.3412 8.37698 37.3412 18.6716C37.3412 22.9176 35.8793 27.0691 33.2246 30.3645C30.2495 34.0623 26.0364 36.4727 21.3634 37.1462C20.9856 37.1995 20.6468 37.2385 20.3306 37.2652C19.8009 37.3145 19.2383 37.3392 18.6737 37.3392L18.6716 37.3412Z" fill="white"/>
<path d="M36.1422 18.5315C36.1422 22.6666 34.7049 26.465 32.2986 29.4524C31.1427 30.8896 27.6974 29.8836 26.1473 30.8937C24.0777 32.2427 23.7717 35.421 21.2196 35.7885C20.9035 35.8337 20.5832 35.8727 20.2608 35.8994C19.7475 35.9466 16.6862 28.0357 16.1606 28.0357C12.2616 28.0357 11.2042 34.688 8.29897 32.5239C4.03041 29.3477 1.26477 24.2619 1.26477 18.5315C1.26477 8.90004 9.07302 1.0918 18.7045 1.0918C28.336 1.0918 36.1422 8.90004 36.1422 18.5315Z" fill="#F6A23C"/>
<path d="M32.2985 29.4526C29.5986 32.8096 25.6832 35.1441 21.2195 35.7888V29.4526H32.2985Z" fill="#412945"/>
<path d="M28.4201 24.4718C28.5268 23.3692 28.1942 22.1024 27.8431 21.1271C27.4489 20.0349 27.5126 18.8296 28.0259 17.7866H23.6177C24.131 18.8296 24.1946 20.0328 23.8004 21.1271C23.4493 22.1004 23.1167 23.3692 23.2235 24.4718C23.4042 26.3299 25.3465 26.3853 25.8721 26.3669V29.7423L24.0345 30.5122L27.9663 30.4999L26.0774 29.7423V26.3648C26.8206 26.332 28.262 26.0609 28.418 24.4718H28.4201Z" fill="#F7EDE5"/>
<path d="M25.8885 25.8002C23.4699 25.8556 23.4945 23.7552 23.7224 22.6383C23.9482 21.5193 24.5786 21.3099 24.5601 19.5277C24.5601 19.5277 24.7839 20.1211 25.5826 20.0431C26.3813 19.963 27.0855 19.4518 27.0937 19.4395C27.0937 19.4395 26.9336 20.6057 27.5844 21.7288C28.4221 23.1783 28.1778 25.7468 25.8885 25.8002Z" fill="#6E72FF"/>
<path d="M25.5333 21.8151L24.4143 15.2552L21.9012 13.6906L22.008 13.5161L24.6012 15.1299L25.7366 21.7802L25.5333 21.8151Z" fill="#412945"/>
<path d="M27.0855 20.3864C27.256 20.3761 27.4099 20.4911 27.4469 20.6595L27.6769 21.6717C27.7261 21.8914 27.5598 22.1008 27.336 22.1008H27.2621C27.0896 22.1008 26.9418 21.9755 26.9151 21.8031L26.7591 20.7909C26.7283 20.5855 26.8782 20.3987 27.0855 20.3864Z" fill="white"/>
<path d="M27.9068 22.774C27.9068 22.9731 27.7446 23.1353 27.5454 23.1353C27.3463 23.1353 27.1841 22.9731 27.1841 22.774C27.1841 22.5748 27.3463 22.4126 27.5454 22.4126C27.7446 22.4126 27.9068 22.5748 27.9068 22.774Z" fill="white"/>
<path d="M27.0938 19.4395C27.0856 19.4518 26.3814 20.2648 25.5827 20.3449C24.784 20.4229 24.5602 19.5277 24.5602 19.5277L27.0938 19.4395Z" fill="#412945"/>
<path d="M22.4679 8.21913H22.4782C22.4782 8.21913 22.4597 10.0239 22.162 11.6418C22.1579 11.6623 22.1456 11.7362 22.1374 11.7752C22.1374 11.7835 21.8417 11.7465 21.8417 11.7506C21.8314 11.8019 22.1127 11.8984 22.1024 11.9498C21.8951 12.9271 21.5768 13.7874 21.0882 14.0666C20.6098 14.3376 19.8131 14.469 18.9878 14.4095L18.6695 17.0109L13.9164 15.9966L14.8095 11.2743C13.9164 10.4427 13.3559 9.25804 13.3559 7.94195C13.3559 5.4227 15.3988 3.38184 17.9181 3.38184C20.4373 3.38184 22.4782 5.4227 22.4782 7.94195C22.4782 8.03434 22.4741 8.12674 22.4679 8.21913Z" fill="#FF9582"/>
<path d="M21.4433 11.0853C21.4433 11.7259 20.9239 12.2454 20.2833 12.2454C19.6427 12.2454 19.1232 11.7259 19.1232 11.0853C19.1232 10.4447 19.6427 9.92529 20.2833 9.92529C20.9239 9.92529 21.4433 10.4447 21.4433 11.0853Z" fill="#E36352"/>
<path d="M21.5214 9.7191C21.5153 10.0127 21.3818 10.2488 21.2196 10.2468C21.0595 10.2447 20.9322 10.0024 20.9383 9.70883C20.9445 9.41523 21.0779 9.17911 21.2401 9.18117C21.4003 9.18322 21.5276 9.42549 21.5214 9.7191Z" fill="#412945"/>
<path d="M22.1374 11.7749C22.1374 11.7749 22.1333 11.7893 22.1333 11.7934C22.123 11.8447 22.1128 11.8981 22.1025 11.9494C21.7802 11.8324 21.5009 11.6004 21.3387 11.2986C21.3161 11.2534 21.3305 11.2021 21.3757 11.1795C21.4188 11.1548 21.4742 11.1713 21.4968 11.2144C21.6323 11.471 21.8664 11.6702 22.1374 11.7749Z" fill="#412945"/>
<path d="M20.6427 8.21462C20.6324 8.21462 20.6201 8.21257 20.6098 8.20846C20.5647 8.18999 20.5441 8.1366 20.5626 8.09143C20.6283 7.93539 20.7638 7.80193 20.9342 7.72391C21.078 7.65821 21.2443 7.62741 21.4332 7.63768C21.4824 7.63973 21.5194 7.6808 21.5173 7.73007C21.5153 7.77935 21.4722 7.8122 21.425 7.81425C21.2648 7.80604 21.1252 7.83068 21.0082 7.88612C20.8768 7.94566 20.7741 8.04626 20.7269 8.16329C20.7125 8.1982 20.6796 8.21873 20.6427 8.21668V8.21462Z" fill="#412945"/>
<path d="M17.8626 11.3516C17.8626 11.3516 17.8606 11.3516 17.8585 11.3516C17.8154 11.3516 17.7825 11.3147 17.7846 11.2716C17.7969 10.9677 17.7538 10.6679 17.6552 10.3805C17.6121 10.2511 17.5649 10.1567 17.5115 10.0787C17.3801 9.89388 17.1584 9.77274 16.9325 9.76248C16.8894 9.76248 16.8566 9.72552 16.8586 9.6824C16.8586 9.63929 16.9017 9.60644 16.9387 9.60849C17.2118 9.62081 17.4787 9.76658 17.6368 9.98833C17.7189 10.1054 17.7702 10.2388 17.801 10.3292C17.9057 10.6351 17.9509 10.9533 17.9386 11.2757C17.9386 11.3167 17.9037 11.3496 17.8626 11.3496V11.3516Z" fill="#412945"/>
<path d="M20.5976 33.3805C20.4785 34.3743 20.3553 35.2613 20.2608 35.8998C19.7475 35.947 19.2301 35.9696 18.7045 35.9696C14.8055 35.9696 11.2043 34.6884 8.299 32.5244L8.46326 31.8632C8.46326 31.8632 6.70573 25.6359 6.95006 21.5091C7.01987 20.3346 7.24983 19.3306 7.73027 18.688C9.89638 15.7868 12.9371 16.103 12.9371 16.103V14.6001L14.1485 14.7746L18.6963 15.4255L18.8606 15.4501L19.5073 15.5425L19.1583 19.2464C19.1583 19.2464 19.6777 21.4577 20.2177 23.6711C20.4169 24.4944 20.6201 25.3177 20.8008 26.0281C21.1766 27.5084 20.9035 30.7997 20.5976 33.3805Z" fill="#E36352"/>
<path d="M19.6222 5.44274C19.6222 5.44274 20.0677 7.01548 19.6756 8.0893C19.2834 9.16311 18.8112 9.71336 18.8112 9.71336L18.7065 10.6311C18.7065 10.6311 18.1562 8.63955 17.2385 9.13642C16.3207 9.63534 16.3741 10.8672 16.7662 11.2327C17.1584 11.5982 17.9714 11.7563 17.9714 11.7563C17.9714 11.7563 18.9939 12.4893 18.8112 14.4295C18.6285 16.3698 18.4704 17.1295 17.0023 17.6017C15.5343 18.0739 13.8569 16.5012 11.8653 16.7106C9.8737 16.92 7.14707 18.0205 7.01567 21.5602C7.01567 21.5602 4.99739 20.0142 5.23351 16.6593C5.46962 13.3044 6.39355 12.1115 7.53923 11.3908C9.5842 10.1055 10.8428 11.2594 11.6538 9.60865C12.4669 7.95789 11.391 4.99515 14.5632 3.4758C17.7353 1.95644 19.883 2.95224 20.5646 3.21299C21.2463 3.4758 22.975 4.47159 23.552 6.804L20.4332 7.22285C20.4332 7.22285 20.2751 5.83285 19.6201 5.44069L19.6222 5.44274Z" fill="#412945"/>
<path d="M24.6012 14.9575C24.2604 14.5387 23.7101 14.8528 23.7101 14.8528C23.7101 14.8528 23.513 14.551 23.3036 14.473C23.0942 14.3949 22.8704 14.434 22.8704 14.434C22.8704 14.434 22.739 14.0931 22.5295 14.0151C22.3201 13.9371 22.0573 14.1465 22.0573 14.1465C22.0573 14.1465 21.7699 13.9371 21.5584 13.9638C21.349 13.9905 20.7453 15.6946 20.5092 16.4009C20.2731 17.1092 20.9281 18.76 20.9814 19.3103C21.0348 19.8605 20.8336 20.8912 20.8336 20.8912L19.5052 26.868L18.5258 25.749L14.1218 30.2927C14.1218 30.2927 16.7088 33.2103 20.3778 33.3848C24.0468 33.5593 23.977 21.0657 23.977 21.0657C23.977 21.0657 23.9421 20.1213 24.2563 19.493C24.5704 18.8647 24.5437 16.5056 24.5437 16.5056C24.9626 16.3742 24.9359 15.3784 24.5971 14.9596L24.6012 14.9575Z" fill="#FF9582"/>
<path d="M24.862 15.3821C24.7798 14.99 24.5519 14.7333 24.2255 14.6635C24.0386 14.6225 23.8744 14.6635 23.7327 14.7498C23.6239 14.606 23.318 14.259 22.9484 14.3124C22.9381 14.3124 22.9279 14.3186 22.9156 14.3227C22.8478 14.1728 22.661 13.9531 22.3119 13.9531C21.9136 13.9531 21.3675 15.1193 21.2627 15.3534C21.2463 15.3924 21.2627 15.4376 21.3017 15.4561C21.312 15.4602 21.3223 15.4622 21.3325 15.4622C21.3613 15.4622 21.39 15.4458 21.4024 15.417C21.6467 14.8729 22.0902 14.1092 22.3099 14.1092C22.6199 14.1092 22.741 14.3165 22.7739 14.3925C22.394 14.6738 22.0594 15.5998 22.0183 15.7189C22.0039 15.7599 22.0245 15.803 22.0655 15.8174C22.0737 15.8195 22.082 15.8215 22.0902 15.8215C22.121 15.8215 22.1518 15.801 22.162 15.7702C22.3324 15.2877 22.7 14.5054 22.9648 14.4664C23.2461 14.4233 23.5048 14.7169 23.6013 14.8422C23.166 15.2179 22.9689 16.0207 22.9566 16.0679C22.9463 16.109 22.973 16.15 23.0141 16.1603C23.0552 16.1706 23.0962 16.1439 23.1065 16.1028C23.1106 16.0884 23.4555 14.6574 24.1865 14.8155C24.5252 14.8894 24.6566 15.183 24.7059 15.415C24.7881 15.803 24.6895 16.2322 24.5417 16.4252C24.5211 16.0371 24.5027 15.7517 24.4986 15.7209C24.4965 15.6778 24.4575 15.6491 24.4164 15.6491C24.3733 15.6511 24.3425 15.6881 24.3446 15.7312C24.3446 15.7517 24.4903 17.7946 24.3877 18.581C24.3179 19.1128 24.0879 19.6569 23.9339 20.0182C23.8539 20.2092 23.7943 20.3467 23.7758 20.4371C23.7676 20.4781 23.7943 20.5192 23.8354 20.5274C23.8415 20.5274 23.8456 20.5274 23.8518 20.5274C23.8867 20.5274 23.9196 20.5028 23.9278 20.4658C23.9442 20.3898 24.0017 20.2523 24.0756 20.0778C24.2316 19.7102 24.4678 19.1518 24.5396 18.5995C24.5992 18.1375 24.5786 17.2813 24.5478 16.6202C24.5519 16.6202 24.556 16.6202 24.5601 16.6161C24.8168 16.4293 24.9544 15.8523 24.8538 15.3801L24.862 15.3821Z" fill="#412945"/>
<path d="M13.6721 30.8223C13.6515 30.8223 13.631 30.812 13.6166 30.7977L10.7853 27.6871C10.7565 27.6563 10.7586 27.607 10.7894 27.5783C10.8202 27.5495 10.8695 27.5516 10.8982 27.5824L13.6741 30.6334L18.9939 25.211L15.561 18.7948C15.5405 18.7578 15.5548 18.7106 15.5918 18.6901C15.6287 18.6695 15.676 18.6839 15.6965 18.7209L19.1561 25.1863C19.1725 25.2151 19.1664 25.252 19.1438 25.2767L13.7275 30.7977C13.7131 30.812 13.6926 30.8203 13.6721 30.8203V30.8223Z" fill="#412945"/>
</svg>
