<svg width="38" height="38" viewBox="0 0 38 38" fill="none" xmlns="http://www.w3.org/2000/svg">
<path d="M18.6716 37.3412C14.6228 37.3412 10.771 36.0662 7.53107 33.6516C2.81696 30.1428 0 24.5437 0 18.6716C0 8.37698 8.37698 0 18.6716 0C28.9663 0 37.3412 8.37698 37.3412 18.6716C37.3412 22.9176 35.8793 27.0691 33.2246 30.3645C30.2495 34.0623 26.0364 36.4727 21.3633 37.1462C20.9856 37.1995 20.6468 37.2385 20.3306 37.2652C19.8009 37.3145 19.2383 37.3392 18.6737 37.3392L18.6716 37.3412Z" fill="white"/>
<path d="M36.2407 18.5911C36.2407 21.7509 35.4051 24.7137 33.9411 27.2719C33.1301 28.6907 29.6192 25.2434 28.4571 26.3767C28.4181 26.4157 25.4553 27.3068 25.4163 27.3458C22.4762 30.1628 23.9894 35.8522 19.651 36.076C19.6181 36.078 19.5832 36.0801 19.5504 36.0801C19.5319 36.0821 19.5114 36.0842 19.4929 36.0842C19.2404 36.0944 18.9878 36.1006 18.7332 36.1006C9.06274 36.1006 1.22369 28.2616 1.22369 18.5911C1.22369 8.92059 9.06274 1.08154 18.7332 1.08154C28.4037 1.08154 36.2407 8.92059 36.2407 18.5911Z" fill="#F6A23C"/>
<path d="M8.22097 25.0912C8.18401 25.0912 8.15116 25.0645 8.145 25.0276L6.46756 14.9896C6.4614 14.9485 6.48809 14.9075 6.5312 14.9013C6.57432 14.8931 6.61333 14.9218 6.61949 14.965L8.29694 25.003C8.3031 25.044 8.2764 25.0851 8.23329 25.0912C8.22918 25.0912 8.22507 25.0912 8.22097 25.0912Z" fill="white"/>
<path d="M8.66657 15.1075C8.66657 15.592 8.50437 16.0376 8.2313 16.3948C8.21282 16.4174 8.1389 16.2737 8.12042 16.2942C8.09989 16.3188 8.13685 16.5077 8.11632 16.5324C7.72827 16.9615 7.16775 17.2305 6.54358 17.2305C5.37122 17.2305 4.42059 16.2798 4.42059 15.1075C4.42059 14.9843 4.43086 14.8631 4.45139 14.7441C4.4555 14.7215 4.5869 14.7276 4.591 14.705C4.59716 14.6763 4.47603 14.6229 4.48424 14.5942C4.71214 13.6682 5.54779 12.9824 6.54358 12.9824C7.14106 12.9824 7.6831 13.2309 8.06909 13.6292C8.08963 13.6497 7.91921 13.7955 7.93769 13.8181C7.95412 13.8365 8.15943 13.7298 8.17586 13.7483C8.48178 14.1178 8.66657 14.5901 8.66657 15.1075Z" fill="#F6A23C"/>
<path d="M7.45308 15.4542C7.33195 15.3844 7.20465 15.3269 7.0712 15.2879C7.10405 14.9245 7.25187 14.5795 7.51263 14.2654C7.69126 14.0478 7.92121 13.8691 8.1758 13.748C8.1409 13.7069 8.106 13.6679 8.06904 13.6289C7.81034 13.7583 7.57833 13.943 7.39354 14.1668C7.35042 14.2182 7.31142 14.2695 7.27651 14.3229C7.29499 14.1258 7.30525 13.8917 7.27856 13.6987C7.2724 13.6577 7.2334 13.6269 7.19233 13.633C7.14922 13.6392 7.12047 13.6782 7.12663 13.7192C7.16769 14.0231 7.11226 14.4522 7.08556 14.6226C7.08556 14.6329 7.08556 14.6432 7.08556 14.6514C6.99728 14.8423 6.94184 15.0415 6.92131 15.2468C6.87409 15.2365 6.82686 15.2283 6.77964 15.2242C6.77964 15.216 6.78169 15.2078 6.77964 15.1996C6.7201 14.7951 6.61949 14.3968 6.47782 14.0129C6.46345 13.9738 6.41828 13.9533 6.37927 13.9677C6.34026 13.9821 6.31973 14.0272 6.3341 14.0662C6.46961 14.4358 6.56816 14.8198 6.62565 15.2099C6.51273 15.2037 6.39775 15.2099 6.28688 15.2222C6.28688 15.214 6.28483 15.2037 6.28072 15.1955C6.11441 14.8362 5.89677 14.5015 5.63807 14.1997C5.60933 14.1668 5.56211 14.1648 5.52926 14.1915C5.4964 14.2202 5.49435 14.2674 5.52104 14.3003C5.76742 14.5857 5.97274 14.906 6.13289 15.2468C5.99533 15.2756 5.86393 15.3207 5.73663 15.3803C5.67503 15.2037 5.59085 15.0045 5.42865 14.869C5.27056 14.7356 5.06729 14.6863 4.85581 14.6452C4.73057 14.6206 4.60532 14.598 4.48213 14.5918C4.46776 14.6411 4.45749 14.6925 4.44928 14.7417C4.56836 14.7438 4.69156 14.7684 4.82502 14.7951C5.02417 14.8362 5.19869 14.8772 5.3301 14.9881C5.48408 15.1175 5.55595 15.3289 5.62165 15.5137C5.62781 15.5343 5.64423 15.5527 5.66477 15.5609C5.68735 15.5692 5.70994 15.5671 5.73047 15.5568C6.2335 15.2817 6.8782 15.292 7.37301 15.5835C7.72821 15.793 7.99307 16.1399 8.11421 16.5301C8.15527 16.4849 8.19223 16.4397 8.22919 16.3925C8.08546 16.0044 7.81034 15.6636 7.45103 15.4521L7.45308 15.4542Z" fill="white"/>
<path d="M9.40977 27.7853C9.38513 27.7853 9.36049 27.771 9.34817 27.7463L5.56211 19.6075C5.54568 19.5726 5.56211 19.5336 5.59496 19.5172C5.62986 19.5008 5.66887 19.5172 5.6853 19.55L9.47137 27.6888C9.48779 27.7238 9.47137 27.7628 9.43851 27.7792C9.42825 27.7833 9.42003 27.7853 9.40977 27.7853Z" fill="white"/>
<path d="M7.45923 19.1929C7.57216 19.6056 7.53931 20.0224 7.39148 20.3899C7.38121 20.4125 7.28471 20.3078 7.27445 20.3304C7.26418 20.355 7.3381 20.509 7.32578 20.5337C7.09787 20.9895 6.68313 21.3508 6.15341 21.4966C5.15762 21.7717 4.12487 21.1886 3.84974 20.1908C3.821 20.0861 3.80046 19.9814 3.7902 19.8746C3.7902 19.8561 3.90107 19.8274 3.89902 19.8089C3.89902 19.7842 3.78198 19.7658 3.78198 19.7411C3.75735 18.9014 4.3076 18.1212 5.15351 17.8871C5.66064 17.7475 6.1801 17.8296 6.60306 18.0781C6.62564 18.0904 6.51477 18.2546 6.5353 18.269C6.55378 18.2813 6.70366 18.1417 6.72214 18.154C7.06913 18.3963 7.33809 18.7535 7.45923 19.1929Z" fill="#F6A23C"/>
<path d="M6.51066 19.7741C6.39158 19.7433 6.27044 19.7248 6.14725 19.7227C6.08976 19.4065 6.13493 19.078 6.28276 18.7495C6.38336 18.5216 6.53735 18.3163 6.72419 18.1541C6.68518 18.1274 6.64617 18.1028 6.60511 18.0781C6.41621 18.2485 6.26223 18.46 6.15751 18.6941C6.13288 18.7475 6.11234 18.8008 6.09387 18.8542C6.06307 18.6818 6.01585 18.4805 5.94809 18.3225C5.93372 18.2875 5.89265 18.2732 5.8598 18.2875C5.8249 18.3019 5.80847 18.343 5.8249 18.3758C5.93167 18.6243 5.98505 19.0021 6.00147 19.154C6.00147 19.1622 6.00558 19.1704 6.00969 19.1786C5.97889 19.3614 5.97889 19.5441 6.00969 19.7227C5.96657 19.7248 5.92551 19.7289 5.88444 19.7371C5.88444 19.7289 5.88444 19.7227 5.88033 19.7166C5.73456 19.386 5.55388 19.0719 5.34446 18.7783C5.32187 18.7475 5.2808 18.7413 5.25001 18.7618C5.21921 18.7844 5.21305 18.8255 5.23358 18.8563C5.43479 19.1376 5.60931 19.4435 5.75098 19.7597C5.65448 19.7802 5.55799 19.811 5.46559 19.85C5.46354 19.8418 5.45943 19.8356 5.45327 19.8295C5.22742 19.5626 4.96461 19.3285 4.67306 19.1355C4.64226 19.115 4.59915 19.1232 4.57862 19.154C4.55809 19.1848 4.5663 19.2279 4.5971 19.2484C4.87427 19.4332 5.12476 19.657 5.34035 19.9096C5.22947 19.9671 5.12887 20.0348 5.03442 20.1169C4.93998 19.9814 4.82295 19.8315 4.65254 19.7556C4.48623 19.6796 4.30144 19.6858 4.11255 19.7001C3.99962 19.7083 3.88875 19.7186 3.78198 19.7433C3.78198 19.7884 3.78404 19.8336 3.7902 19.8788C3.89286 19.8521 4.00167 19.8439 4.12281 19.8356C4.30144 19.8233 4.45953 19.8172 4.5971 19.8808C4.7593 19.9547 4.87017 20.1169 4.96872 20.2586C4.97899 20.275 4.99747 20.2873 5.01595 20.2894C5.03648 20.2894 5.05495 20.2832 5.07138 20.2709C5.43479 19.9198 5.98505 19.7761 6.47371 19.9075C6.8248 20.002 7.13072 20.234 7.32577 20.5378C7.35041 20.4906 7.37095 20.4434 7.39148 20.3941C7.17795 20.0985 6.86381 19.8726 6.50861 19.7782L6.51066 19.7741Z" fill="white"/>
<path d="M7.98069 27.2007C7.98069 27.2007 7.97453 27.2007 7.97042 27.2007C7.93347 27.1945 7.90677 27.1617 7.91293 27.1247L9.17769 18.2386C9.18385 18.2016 9.21876 18.1749 9.25366 18.1811C9.29062 18.1872 9.31731 18.2201 9.31115 18.257L8.0464 27.1432C8.04229 27.176 8.01354 27.2007 7.97864 27.2007H7.98069Z" fill="white"/>
<path d="M10.9948 18.9221C10.8655 19.3286 10.6109 19.6612 10.2865 19.8891C10.266 19.9035 10.2413 19.7618 10.2208 19.7762C10.1982 19.7906 10.1777 19.961 10.153 19.9754C9.7116 20.232 9.16956 20.31 8.64395 20.1437C7.65842 19.8316 7.11228 18.7784 7.42436 17.7928C7.45721 17.6902 7.49827 17.5896 7.54755 17.4951C7.55576 17.4787 7.66664 17.5157 7.67485 17.4992C7.68717 17.4766 7.60093 17.3986 7.61325 17.3781C8.05058 16.6595 8.93755 16.3063 9.7732 16.5712C10.2762 16.7313 10.6643 17.0845 10.884 17.5218C10.8942 17.5444 10.7136 17.6224 10.7238 17.645C10.732 17.6635 10.9332 17.6306 10.9435 17.6491C11.1016 18.0413 11.1324 18.4868 10.9928 18.9221H10.9948Z" fill="#F6A23C"/>
<path d="M9.88206 18.891C9.79788 18.8007 9.70754 18.7185 9.60488 18.6487C9.73012 18.351 9.94571 18.1005 10.2475 17.9075C10.4549 17.772 10.6972 17.6837 10.9435 17.6488C10.9251 17.6057 10.9066 17.5626 10.8861 17.5195C10.6335 17.5585 10.3892 17.6529 10.1757 17.7925C10.1264 17.8233 10.0792 17.8562 10.036 17.8932C10.1038 17.733 10.1757 17.538 10.2044 17.3675C10.2106 17.3306 10.1859 17.2957 10.149 17.2895C10.112 17.2834 10.0771 17.308 10.0709 17.345C10.0258 17.6119 9.86358 17.9568 9.79582 18.0923C9.79172 18.1005 9.78966 18.1087 9.78966 18.1169C9.66442 18.2545 9.56587 18.4064 9.494 18.5728C9.45705 18.5522 9.42009 18.5317 9.38108 18.5153C9.38519 18.5091 9.38724 18.5029 9.38929 18.4947C9.44678 18.1395 9.46731 17.7761 9.45294 17.4168C9.45294 17.3799 9.42009 17.3511 9.38108 17.3511C9.34412 17.3511 9.31538 17.384 9.31538 17.423C9.3318 17.77 9.31127 18.119 9.25583 18.4619C9.16344 18.427 9.06489 18.4003 8.96839 18.3818C8.96839 18.3736 8.97044 18.3654 8.96839 18.3592C8.92322 18.0122 8.83083 17.6735 8.69327 17.3511C8.67889 17.3162 8.63783 17.2998 8.60498 17.3162C8.57008 17.3306 8.55365 17.3716 8.57007 17.4045C8.70148 17.7104 8.78976 18.0328 8.83288 18.3633C8.70969 18.351 8.5865 18.3531 8.46331 18.3695C8.4592 18.2052 8.44072 18.0143 8.34012 17.8582C8.24362 17.7043 8.08552 17.6078 7.91921 17.5174C7.82066 17.464 7.72211 17.4107 7.61945 17.3737C7.59481 17.4107 7.57223 17.4517 7.5517 17.4907C7.65025 17.5236 7.7488 17.577 7.85351 17.6365C8.00956 17.7248 8.14506 17.8049 8.22719 17.9342C8.32164 18.0841 8.32574 18.2812 8.3319 18.4537C8.3319 18.4721 8.34011 18.4927 8.35654 18.505C8.37297 18.5173 8.3935 18.5214 8.41198 18.5194C8.90885 18.4229 9.44678 18.6036 9.78556 18.9793C10.0278 19.2503 10.1592 19.6117 10.1572 19.973C10.2044 19.9463 10.2475 19.9176 10.2906 19.8888C10.2742 19.5234 10.1325 19.1641 9.88616 18.891H9.88206Z" fill="white"/>
<path d="M17.3432 4.25394C17.3432 4.25394 12.9351 3.62772 12.1015 5.22304C11.4978 6.37693 12.8344 7.24132 12.8344 7.24132C12.8344 7.24132 11.3582 7.28443 11.3151 8.60463C11.2802 9.67228 12.3643 9.78315 12.3643 9.78315C12.3643 9.78315 11.6313 10.3067 12.2863 10.8837C12.9412 11.4606 14.8034 11.1711 14.8034 11.1711L18.185 8.44448L17.3453 4.24983L17.3432 4.25394Z" fill="#E36352"/>
<path d="M22.7431 16.3126L18.2077 18.4356L17.1585 14.8548C16.2161 15.1094 15.2388 15.1772 14.7747 15.0807C14.4175 15.0047 14.0931 14.05 13.8405 12.9577C13.8282 12.9084 13.8159 12.8571 13.8056 12.8078C13.5757 11.7936 13.4053 10.691 13.319 10.0791C13.2595 9.79376 13.2287 9.4981 13.2287 9.19628C13.2287 6.80022 15.171 4.85791 17.5671 4.85791C19.9631 4.85791 21.9034 6.80022 21.9034 9.19628C21.9034 10.0976 21.6262 10.9333 21.154 11.6272L21.4065 12.0646L22.7431 16.3126Z" fill="#FF9582"/>
<path d="M17.2447 11.7767C17.2447 12.4173 16.7253 12.9368 16.0847 12.9368C15.4441 12.9368 14.9246 12.4173 14.9246 11.7767C14.9246 11.1362 15.4441 10.6167 16.0847 10.6167C16.7253 10.6167 17.2447 11.1362 17.2447 11.7767Z" fill="#E36352"/>
<path d="M14.9144 10.5268C14.9287 10.7958 14.8014 11.0237 14.6269 11.0319C14.4544 11.0421 14.3005 10.8307 14.2861 10.5596C14.2717 10.2886 14.399 10.0628 14.5735 10.0546C14.746 10.0443 14.9 10.2558 14.9144 10.5247V10.5268Z" fill="#412945"/>
<path d="M14.9102 11.8937C14.7295 12.3782 14.323 12.7765 13.8405 12.9572C13.8282 12.9079 13.8159 12.8566 13.8056 12.8073C14.2388 12.6349 14.6022 12.2756 14.7644 11.8403C14.7809 11.8013 14.826 11.7807 14.865 11.7951C14.9041 11.8095 14.9246 11.8547 14.9102 11.8937Z" fill="#412945"/>
<path d="M15.171 9.20018C15.1525 9.20018 15.1361 9.19402 15.1196 9.1817C14.8938 8.9846 14.5304 8.95586 14.2758 9.116C14.2388 9.13859 14.1916 9.12832 14.169 9.09137C14.1464 9.05441 14.1567 9.00718 14.1937 8.9846C14.5078 8.78955 14.939 8.8224 15.2202 9.06467C15.2531 9.09342 15.2551 9.14064 15.2285 9.17349C15.2141 9.19197 15.1915 9.20018 15.171 9.20018Z" fill="#412945"/>
<path d="M19.341 12.0381C19.341 12.0381 19.3328 12.0381 19.3266 12.0381C19.2856 12.0298 19.2568 11.9908 19.265 11.9477C19.3225 11.6213 19.4046 11.2414 19.5709 10.9006C19.6982 10.6419 19.9302 10.2887 20.3183 10.0896C20.3573 10.0711 20.4025 10.0855 20.421 10.1224C20.4394 10.1594 20.4251 10.2066 20.3881 10.2251C20.037 10.4058 19.8235 10.7281 19.7085 10.9663C19.5504 11.2886 19.4744 11.6418 19.4149 11.9724C19.4087 12.0093 19.3759 12.036 19.3389 12.036L19.341 12.0381Z" fill="#412945"/>
<path d="M15.6391 4.62211C15.6391 4.62211 15.5077 6.56237 16.3721 7.89899C17.2365 9.23561 18.3904 9.89057 18.3904 9.89057L18.4951 11.2272C18.4951 11.2272 19.1767 9.99529 19.5443 9.70784C19.9118 9.4204 20.8809 9.54975 20.9589 10.4675C21.0369 11.3853 20.6448 12.1983 19.8317 12.4324L21.9814 13.8737C21.9814 13.8737 22.0594 11.7774 22.4269 10.8063C22.7944 9.83719 24.9174 6.71841 23.5274 5.69593C22.1374 4.67344 17.8401 4.2279 17.1318 4.17657C16.4234 4.12524 15.6371 4.62211 15.6371 4.62211H15.6391Z" fill="#E36352"/>
<path d="M11.2269 33.1381C11.2269 33.1381 9.56585 30.6558 9.11209 29.9577C8.65834 29.2596 7.46955 28.0359 7.36483 27.1962C7.26012 26.3564 6.54356 24.4613 6.33413 23.9111C6.24174 23.6688 6.33413 23.3691 6.33413 23.3691C6.33413 23.3691 5.9851 22.4595 6.10623 22.285C6.22942 22.1105 8.23744 20.7656 8.23744 20.7656C8.23744 20.7656 8.67476 21.1331 8.46534 21.5869C8.25591 22.0407 7.29503 22.5827 7.29503 22.5827L7.36483 22.8619C7.36483 22.8619 7.97668 22.4944 8.39553 22.634C8.81438 22.7736 9.11209 22.9317 9.0238 23.4738C9.0238 23.4738 9.65208 23.5621 9.44265 24.2766C9.44265 24.2766 9.94979 24.3299 9.68698 25.0978C9.79169 25.141 9.39954 25.4962 9.39954 25.4962C9.39954 25.4962 10.2475 26.3051 10.5781 26.9519C10.9107 27.5986 10.7013 28.3501 10.7013 28.3501L12.5532 29.2761L11.2248 33.1381H11.2269Z" fill="#FF9582"/>
<path d="M9.0259 23.552C9.0259 23.552 9.01974 23.552 9.01769 23.552C8.97662 23.5479 8.94583 23.5089 8.94994 23.4658C8.95404 23.4391 9.01769 22.8211 8.38531 22.7123C7.70776 22.5953 6.69349 23.3118 6.68322 23.32C6.64832 23.3447 6.6011 23.3365 6.57646 23.3016C6.55182 23.2666 6.56003 23.2194 6.59494 23.1948C6.63805 23.164 7.67286 22.4351 8.412 22.5604C9.19221 22.6938 9.10598 23.4761 9.10392 23.4843C9.09982 23.5233 9.06697 23.552 9.02796 23.552H9.0259Z" fill="#412945"/>
<path d="M9.4447 24.3566C9.4447 24.3566 9.42827 24.3566 9.42006 24.3525C9.379 24.3402 9.35846 24.2971 9.37078 24.256C9.37694 24.2355 9.52272 23.7694 9.12029 23.5908C8.75688 23.4286 7.79188 23.755 7.45106 23.8926C7.41204 23.909 7.36688 23.8905 7.35045 23.8495C7.33403 23.8105 7.3525 23.7653 7.39357 23.7489C7.44695 23.7283 8.68707 23.2273 9.18394 23.4491C9.6069 23.638 9.58842 24.0897 9.51861 24.3032C9.50834 24.3361 9.47755 24.3566 9.4447 24.3566Z" fill="#412945"/>
<path d="M8.68299 25.8864C8.65014 25.8864 8.6214 25.8823 8.59676 25.87C8.55981 25.8515 8.53311 25.8187 8.52901 25.7776C8.50437 25.6092 8.91295 25.2314 9.15728 25.02C9.19013 24.9912 9.23736 24.9953 9.2661 25.0282C9.29485 25.061 9.29074 25.1082 9.25789 25.137C9.0074 25.3526 8.73638 25.6277 8.68915 25.7345C8.84314 25.7304 9.37903 25.4409 9.55971 25.2602C9.65415 25.1657 9.74655 24.9399 9.73217 24.7407C9.72191 24.6073 9.66647 24.5046 9.56792 24.4328C9.34617 24.2706 8.33191 24.634 7.7447 24.8988C7.70569 24.9173 7.66052 24.8988 7.64204 24.8598C7.62356 24.8208 7.64204 24.7756 7.68105 24.7572C7.94796 24.636 9.29895 24.0447 9.65826 24.3055C9.79171 24.404 9.86974 24.5498 9.88411 24.7264C9.90464 24.981 9.78761 25.2458 9.66647 25.3649C9.54533 25.4881 8.97249 25.8823 8.68299 25.8823V25.8864Z" fill="#412945"/>
<path d="M33.9412 27.2718C33.1302 28.6905 32.1262 29.984 30.9641 31.1174C30.9435 31.1379 30.845 30.9655 30.8245 30.9839C30.806 31.0024 30.8655 31.2139 30.847 31.2324C27.9069 34.0493 23.9894 35.852 19.651 36.0758C19.6182 36.0779 19.5833 36.0799 19.5504 36.0799L20.5894 31.413L20.5935 31.3905L19.803 29.7602L18.8811 27.861C18.8811 27.861 18.8647 27.9391 18.8318 28.0807C18.5464 29.3167 17.0558 35.3654 15.1423 35.5851C13.0111 35.8294 10.3193 32.6491 10.3193 32.6491L10.5452 32.1193L11.9003 28.9492L11.9619 28.8055L13.4997 29.6432C13.4997 29.6432 13.6065 28.8548 13.7564 27.7687C13.8919 26.7831 14.0602 25.5574 14.2163 24.4528C14.3271 23.6664 14.4319 22.9416 14.5119 22.4098C14.8281 20.3115 17.7272 18.7039 17.7272 18.7039L17.4829 16.9217C17.4829 16.9217 17.5753 16.8991 17.7436 16.8519C18.1235 16.7451 18.8914 16.5172 19.8605 16.1538C20.9343 15.7514 21.8829 15.082 22.2647 14.7905C22.3818 14.7043 22.4454 14.6509 22.4454 14.6509L23.1107 16.2934C23.1107 16.2934 26.8844 16.1189 28.4571 17.4822C29.7075 18.5663 32.7462 24.7731 33.9412 27.2718Z" fill="#412945"/>
<path d="M27.3381 23.5992L30.9641 31.1179C30.9251 31.1569 30.886 31.1939 30.847 31.2329L27.1985 23.6669C27.1801 23.6279 27.1985 23.5827 27.2355 23.5643C27.2724 23.5458 27.3197 23.5622 27.3381 23.5992Z" fill="#F7EDE5"/>
<path d="M20.6345 31.547L19.651 36.0764C19.6182 36.0784 19.5833 36.0805 19.5504 36.0805C19.5319 36.0825 19.5114 36.0846 19.4929 36.0846L20.4785 31.5409L18.8318 28.0813L17.448 25.1699C17.4315 25.1308 17.448 25.0836 17.4849 25.0672C17.5239 25.0487 17.5691 25.0651 17.5876 25.1021L19.803 29.7608L20.5893 31.4136L20.6283 31.4978C20.6366 31.5142 20.6386 31.5306 20.6345 31.547Z" fill="#F7EDE5"/>
<path d="M27.8925 9.03212C27.8925 9.03212 27.5024 6.79005 26.3793 7.45323C25.2563 8.1164 27.6379 11.9559 27.6379 11.9559C27.6379 11.9559 30.6767 8.57016 29.8348 7.76531C28.993 6.96046 27.8925 9.03212 27.8925 9.03212Z" fill="white"/>
<path d="M13.4607 25.4921C13.4607 25.4921 13.0706 23.25 11.9475 23.9132C10.8244 24.5764 13.2061 28.4158 13.2061 28.4158C13.2061 28.4158 16.2448 25.0301 15.403 24.2232C14.5612 23.4163 13.4607 25.49 13.4607 25.49V25.4921Z" fill="white"/>
<path d="M32.7709 18.1188C32.7709 18.1188 31.3562 16.3366 30.6869 17.4556C30.0175 18.5746 33.9453 20.8084 33.9453 20.8084C33.9453 20.8084 34.9944 16.3818 33.8693 16.0758C32.7462 15.7699 32.7709 18.1167 32.7709 18.1167V18.1188Z" fill="white"/>
<path d="M7.52907 8.79611C7.52907 8.79611 7.60504 6.52119 6.37107 6.94209C5.13711 7.36094 6.68316 11.6069 6.68316 11.6069C6.68316 11.6069 10.3481 8.91314 9.68902 7.95225C9.02995 6.99136 7.52907 8.79611 7.52907 8.79611Z" fill="white"/>
</svg>
