<svg width="39" height="39" viewBox="0 0 39 39" fill="none" xmlns="http://www.w3.org/2000/svg">
<path d="M19.2588 38.5115C15.0827 38.5115 11.1098 37.1954 7.76718 34.707C2.90525 31.0893 0 25.3116 0 19.2568C0 8.63773 8.63979 0 19.2568 0C29.8738 0 38.5115 8.63773 38.5115 19.2568C38.5115 23.6362 37.0045 27.9192 34.2655 31.3172C31.1981 35.132 26.8536 37.6163 22.0306 38.3124C21.6405 38.3678 21.2915 38.4089 20.965 38.4356C20.4189 38.4869 19.8399 38.5115 19.2547 38.5115H19.2588Z" fill="white"/>
<path d="M36.9059 19.2378C36.9059 22.5968 35.9676 25.7362 34.3415 28.4115C33.7153 29.4401 30.5657 27.8222 29.7506 28.6989C28.9868 29.5181 30.5657 32.8422 29.6582 33.5054C26.7386 35.6428 23.1373 36.9034 19.2404 36.9034C17.4849 36.9034 15.789 36.6468 14.1875 36.1704C14.1423 36.156 14.0951 36.1417 14.0479 36.1273C14.0171 36.1191 15.6555 29.2615 15.6227 29.2491C11.9926 28.1137 7.19436 32.6841 4.99335 29.6844C2.84162 26.7586 1.57275 23.1471 1.57275 19.2378C1.57275 9.48112 9.48366 1.57227 19.2404 1.57227C28.9971 1.57227 36.9059 9.48112 36.9059 19.2378Z" fill="#F6A23C"/>
<path d="M16.4357 12.126H20.3676C20.3676 12.126 19.7639 13.8301 18.4807 13.8568C17.1954 13.8835 16.4357 12.126 16.4357 12.126Z" fill="#412945"/>
<path d="M19.265 20.4332C19.226 20.4332 19.1911 20.4024 19.1891 20.3634L18.5341 12.395C18.53 12.3519 18.5628 12.3149 18.6039 12.3128C18.645 12.3087 18.684 12.3416 18.686 12.3827L19.341 20.3511C19.3451 20.3942 19.3123 20.4311 19.2712 20.4332C19.2691 20.4332 19.2671 20.4332 19.265 20.4332Z" fill="#412945"/>
<path d="M18.6881 17.1849C18.6881 17.1849 14.3887 16.7927 14.284 13.752C14.284 13.752 17.8483 14.2242 18.6881 17.1849Z" fill="#412945"/>
<path d="M18.9509 18.1028C18.9509 18.1028 20.1294 13.4113 22.2791 13.0171C22.2791 13.0171 23.0387 14.9307 21.8335 16.1359C20.6283 17.3411 18.9509 18.1008 18.9509 18.1008V18.1028Z" fill="#412945"/>
<path d="M12.2678 4.54346H24.2543C24.2543 4.54346 23.4864 12.8958 18.068 12.6515C12.6517 12.4071 12.2657 4.54346 12.2657 4.54346H12.2678Z" fill="#FF926C"/>
<path d="M16.2509 9.21438C16.214 9.21438 16.1811 9.18768 16.175 9.15072C15.5118 5.19219 12.2863 4.62346 12.2555 4.6173C12.2144 4.61114 12.1857 4.57008 12.1918 4.52902C12.198 4.4859 12.239 4.45921 12.2801 4.46537C12.3129 4.47153 15.4276 5.01562 16.2509 8.72982C16.4255 8.01326 16.9655 6.57604 18.5074 6.62121C20.1007 6.66433 20.7844 8.1652 21.0082 8.82016C21.2196 7.90239 22.0245 5.18398 24.2296 4.46742C24.2707 4.4551 24.3138 4.47563 24.3261 4.5167C24.3384 4.55776 24.3179 4.60088 24.2768 4.6132C21.7145 5.44474 21.1026 9.11172 21.0965 9.14867C21.0903 9.18563 21.0595 9.21232 21.0225 9.21438C20.9794 9.21643 20.9527 9.18974 20.9445 9.15483C20.9404 9.13225 20.4086 6.82858 18.5012 6.77725C16.5979 6.72181 16.3372 9.04807 16.3249 9.14662C16.3208 9.18563 16.29 9.21437 16.2509 9.21643H16.2489L16.2509 9.21438Z" fill="#412945"/>
<path d="M15.8342 5.16784C15.8342 5.39779 16.2284 5.51894 16.6185 5.51894C17.0086 5.51894 17.4028 5.39779 17.4028 5.16784C17.4028 4.70382 15.8342 4.70382 15.8342 5.16784ZM16.6185 5.36495C16.2099 5.36495 15.9882 5.23354 15.9882 5.16784C15.9882 5.10214 16.2099 4.96868 16.6185 4.96868C17.0271 4.96868 17.2488 5.10008 17.2488 5.16784C17.2488 5.23559 17.0271 5.36495 16.6185 5.36495Z" fill="#412945"/>
<path d="M19.4252 5.32353C19.4252 5.55553 19.8194 5.67667 20.2095 5.67667C20.5996 5.67667 20.9938 5.55553 20.9938 5.32353C20.9938 4.86156 19.4252 4.86156 19.4252 5.32353ZM20.2095 5.52268C19.8009 5.52268 19.5792 5.39128 19.5792 5.32353C19.5792 5.25577 19.8009 5.12642 20.2095 5.12642C20.6181 5.12642 20.8398 5.25577 20.8398 5.32353C20.8398 5.39128 20.6181 5.52268 20.2095 5.52268Z" fill="#412945"/>
<path d="M17.5897 6.05888C17.5897 6.28883 17.9839 6.40998 18.374 6.40998C18.7641 6.40998 19.1583 6.28883 19.1583 6.05888C19.1583 5.59691 17.5897 5.59691 17.5897 6.05888ZM18.374 6.25599C17.9654 6.25599 17.7436 6.12458 17.7436 6.05888C17.7436 5.99317 17.9654 5.85972 18.374 5.85972C18.7826 5.85972 19.0043 5.99112 19.0043 6.05888C19.0043 6.12663 18.7826 6.25599 18.374 6.25599Z" fill="#412945"/>
<path d="M23.3631 32.0111C23.3631 32.0111 18.6634 34.3004 16.9859 35.0334C16.9099 35.0663 16.795 35.1135 16.6471 35.173C16.1236 35.3763 15.1812 35.7212 14.0478 36.1278C14.017 36.1196 13.9842 36.1093 13.9513 36.097C10.3213 34.9616 7.1943 32.6846 4.99329 29.6849C5.03024 29.6685 5.06104 29.652 5.08568 29.6356C5.67905 29.2496 9.73408 25.3712 10.6416 25.0919C11.159 24.9338 14.1402 24.1598 16.6081 23.5253C16.6225 23.5212 16.6348 23.5192 16.6492 23.5151C16.7067 23.5007 16.7642 23.4843 16.8217 23.4699C18.5895 23.0162 20.0431 22.6445 20.0431 22.6445C20.0431 22.6445 20.7781 23.0654 21.0266 23.6444C21.0368 23.667 21.0471 23.6896 21.0553 23.7142C21.0635 23.7409 21.0738 23.7697 21.08 23.7984C21.1128 23.9216 21.119 24.051 21.0923 24.1824C21.0738 24.2686 21.0594 24.3384 21.0492 24.3938C21.0204 24.5437 21.0122 24.5951 21.0163 24.5951C21.0266 24.5704 21.0594 24.4472 21.0779 24.3754C21.0841 24.3446 21.0902 24.322 21.0902 24.322C21.0902 24.322 21.1087 24.3281 21.1395 24.3446C21.2935 24.4205 21.776 24.7182 21.893 25.4759C22.0018 26.1842 21.7719 26.7858 21.6651 27.0178C21.6343 27.0835 21.6138 27.1184 21.6138 27.1184C21.6138 27.1184 21.6384 27.1266 21.6774 27.1574C21.7986 27.2519 22.045 27.5701 21.9361 28.5597C21.7965 29.8532 20.8089 30.6129 20.041 31.0687C19.7495 31.2412 19.1767 31.504 18.5771 31.7627C18.4416 31.8223 18.3102 31.8777 18.1891 31.929C17.8626 32.0686 17.5464 32.2 17.2795 32.3089C17.1912 32.3458 17.1091 32.3787 17.0331 32.4095C17.1071 32.3828 17.1892 32.352 17.2775 32.3191C17.7127 32.1569 18.3061 31.9475 18.957 31.7586L19.0617 31.7278C19.0925 31.7175 19.1233 31.7093 19.1561 31.7011C19.1746 31.695 19.1951 31.6888 19.2157 31.6847C19.2259 31.6806 19.2383 31.6785 19.2506 31.6744C19.2691 31.6683 19.2916 31.6621 19.3163 31.6559C19.3491 31.6477 19.384 31.6375 19.4251 31.6272C19.4292 31.6251 19.4354 31.6231 19.4415 31.6231C19.5195 31.6005 19.6078 31.5779 19.7043 31.5553C19.7823 31.5369 19.8665 31.5184 19.9548 31.4979C21.4803 31.1509 23.0161 31.0708 23.3631 32.0111Z" fill="#FF9582"/>
<g opacity="0.38">
<path d="M23.3631 32.0111C23.3631 32.0111 18.6634 34.3004 16.9859 35.0334C16.9099 35.0663 16.795 35.1135 16.6471 35.173C16.1236 35.3763 15.1812 35.7212 14.0478 36.1278C14.017 36.1196 13.9842 36.1093 13.9513 36.097C10.3213 34.9616 7.1943 32.6846 4.99329 29.6849C5.03024 29.6685 5.06104 29.652 5.08568 29.6356C5.67905 29.2496 9.73408 25.3712 10.6416 25.0919C11.159 24.9338 14.1402 24.1598 16.6081 23.5253C16.6225 23.5212 16.6348 23.5192 16.6492 23.5151C16.7067 23.5007 16.7642 23.4843 16.8217 23.4699C18.5895 23.0162 20.0431 22.6445 20.0431 22.6445C20.0431 22.6445 20.7781 23.0654 21.0266 23.6444C21.0368 23.667 21.0471 23.6896 21.0553 23.7142C21.0635 23.7409 21.0738 23.7697 21.08 23.7984C21.1128 23.9216 21.119 24.051 21.0923 24.1824C21.0738 24.2686 21.0594 24.3384 21.0492 24.3938C21.0204 24.5437 21.0122 24.5951 21.0163 24.5951C21.0266 24.5704 21.0594 24.4472 21.0779 24.3754C21.0841 24.3446 21.0902 24.322 21.0902 24.322C21.0902 24.322 21.1087 24.3281 21.1395 24.3446C21.2935 24.4205 21.776 24.7182 21.893 25.4759C22.0018 26.1842 21.7719 26.7858 21.6651 27.0178C21.6343 27.0835 21.6138 27.1184 21.6138 27.1184C21.6138 27.1184 21.6384 27.1266 21.6774 27.1574C21.7986 27.2519 22.045 27.5701 21.9361 28.5597C21.7965 29.8532 20.8089 30.6129 20.041 31.0687C19.7495 31.2412 19.1767 31.504 18.5771 31.7627C18.4416 31.8223 18.3102 31.8777 18.1891 31.929C17.8626 32.0686 17.5464 32.2 17.2795 32.3089C17.1912 32.3458 17.1091 32.3787 17.0331 32.4095C17.1071 32.3828 17.1892 32.352 17.2775 32.3191C17.7127 32.1569 18.3061 31.9475 18.957 31.7586L19.0617 31.7278C19.0925 31.7175 19.1233 31.7093 19.1561 31.7011C19.1746 31.695 19.1951 31.6888 19.2157 31.6847C19.2259 31.6806 19.2383 31.6785 19.2506 31.6744C19.2691 31.6683 19.2916 31.6621 19.3163 31.6559C19.3491 31.6477 19.384 31.6375 19.4251 31.6272C19.4292 31.6251 19.4354 31.6231 19.4415 31.6231C19.5195 31.6005 19.6078 31.5779 19.7043 31.5553C19.7823 31.5369 19.8665 31.5184 19.9548 31.4979C21.4803 31.1509 23.0161 31.0708 23.3631 32.0111Z" fill="#412945"/>
</g>
<path d="M23.4103 31.9556C22.7389 30.8223 20.6837 31.1549 19.6489 31.4095C20.349 31.0276 21.0451 30.5554 21.4742 30.0236C22.5952 28.6356 21.7534 27.0711 21.7431 27.0547C21.739 27.0465 21.7308 27.0383 21.7247 27.0321C22.4084 24.9584 21.197 24.3548 21.1847 24.3486C21.16 24.3363 21.1313 24.3404 21.1087 24.3548C19.6941 25.3074 15.4851 26.5352 15.4419 26.5455C15.4009 26.5578 15.3783 26.6009 15.3886 26.64C15.4009 26.681 15.4419 26.7036 15.483 26.6933C15.6555 26.6441 19.6838 25.4676 21.1539 24.5067C21.3489 24.6217 22.1825 25.2438 21.5522 27.0588C21.2648 27.184 19.0432 28.1511 16.9736 29.1962C16.9367 29.2146 16.9202 29.2619 16.9387 29.2988C16.9531 29.3255 16.9798 29.3419 17.0065 29.3419C17.0188 29.3419 17.029 29.3399 17.0414 29.3337C19.1952 28.2435 21.5173 27.2395 21.6343 27.1881C21.7698 27.4797 22.2831 28.767 21.3489 29.923C20.2751 31.2534 17.3514 32.2472 17.3206 32.2575C17.2795 32.2718 17.259 32.3149 17.2713 32.354C17.2816 32.3868 17.3124 32.4073 17.3452 32.4073C17.3534 32.4073 17.3617 32.4073 17.3699 32.4032C17.4294 32.3827 18.1686 32.1322 19.0309 31.7175C19.0391 31.7216 19.0473 31.7236 19.0555 31.7236C19.0637 31.7236 19.074 31.7236 19.0822 31.7195C19.0822 31.7175 19.1089 31.7113 19.15 31.6969C19.1685 31.6908 19.189 31.6846 19.2095 31.6805C19.2198 31.6764 19.2321 31.6744 19.2444 31.6702C19.2629 31.6641 19.2855 31.6579 19.3101 31.6518C19.343 31.6436 19.3779 31.6333 19.4189 31.623C19.4231 31.621 19.4292 31.6189 19.4354 31.6189C19.5134 31.5963 19.6017 31.5737 19.6982 31.5512C19.7762 31.5327 19.8604 31.5142 19.9487 31.4937C20.8788 31.2966 22.3119 31.1261 23.0264 31.7359C23.0264 31.7359 23.0264 31.7359 23.0284 31.738C22.7205 31.6148 22.3591 31.6148 22.0593 31.7585C21.6692 31.9433 21.3962 32.3581 21.3797 32.7892C21.3797 32.8057 21.3838 32.82 21.3921 32.8323C20.4045 33.3066 19.2403 33.8692 18.4273 34.2798C17.3247 34.8383 15.5692 35.4892 14.288 35.9655C14.169 36.0107 14.0519 36.0517 13.9431 36.0928C13.976 36.1051 14.0088 36.1154 14.0396 36.1236C14.0868 36.138 14.1341 36.1523 14.1792 36.1667C14.2326 36.1482 14.286 36.1277 14.3394 36.1072C15.6247 35.6308 17.3863 34.9779 18.4971 34.4153C20.1704 33.5694 23.3385 32.0727 23.3693 32.0583C23.3898 32.0501 23.4042 32.0316 23.4103 32.0111C23.4165 31.9905 23.4144 31.97 23.4021 31.9515L23.4103 31.9556ZM21.5419 32.7687C21.5686 32.4032 21.8006 32.0583 22.1312 31.9002C22.4618 31.7442 22.8745 31.7811 23.1742 31.9905C22.9073 32.1158 22.2852 32.4135 21.5419 32.7666V32.7687Z" fill="#412945"/>
<path d="M34.3415 28.4115C33.1281 30.401 31.5348 32.1339 29.6582 33.5054C27.72 32.8936 25.9173 32.2345 25.2685 31.7315C23.6671 30.4934 23.6424 24.531 23.0429 23.9458C23.0326 23.9356 23.0244 23.9273 23.0141 23.9212C22.6733 23.6933 21.9526 23.6666 21.0554 23.7138C20.2916 23.7528 19.3985 23.8493 18.5054 23.9212C17.7169 23.9848 17.101 23.7795 16.6493 23.5147C15.9882 23.1266 15.674 22.6092 15.674 22.6092L17.0661 22.2109L17.1277 22.1945L17.142 22.1904L18.0701 20.285L18.1378 20.1454C15.2901 20.8578 14.4421 19.899 14.1978 19.3857C14.1362 19.2564 14.1115 19.1557 14.1033 19.1167C14.1033 19.1044 14.1033 19.0983 14.1033 19.0983C14.1033 19.0983 14.1115 19.1024 14.128 19.1085C14.2409 19.1599 14.7296 19.3487 15.3825 19.1557C15.7726 19.0428 16.2037 18.5069 16.6862 18.3406C16.7006 18.3345 16.717 18.3283 16.7314 18.3242C17.4562 18.1127 18.2425 17.8828 18.9694 17.6734C19.0084 17.661 19.0453 17.6508 19.0843 17.6405C19.0967 17.6364 19.109 17.6323 19.1213 17.6302C19.6079 17.4886 20.0637 17.3592 20.4477 17.2504C21.0677 17.0759 21.505 16.9588 21.5995 16.9486C22.0204 16.8952 23.1209 17.7863 24.6936 18.4166C26.2664 19.0449 27.525 19.4124 28.0485 19.5171C28.5721 19.6218 29.2024 21.6668 29.6726 23.2909C30.1448 24.917 31.8757 26.9619 33.972 28.2185C34.089 28.2883 34.2142 28.354 34.3436 28.4115H34.3415Z" fill="#FF9582"/>
<path d="M15.8053 22.6503C15.8053 22.6503 16.7231 23.3196 17.5218 23.0301C18.3204 22.7427 18.4518 21.981 18.4518 21.981L15.8053 22.6503Z" fill="#F7EDE5"/>
<path d="M25.6996 24.954C25.6853 24.9458 24.3425 24.1862 23.1681 23.8207C22.2031 23.5209 20.8993 23.6359 19.5196 23.7591C19.1849 23.7878 18.8461 23.8186 18.5012 23.8433C17.0434 23.948 16.0805 22.9686 15.8136 22.6565L19.6387 21.7696C20.5749 21.8722 24.476 21.747 24.6423 21.7429C24.6854 21.7429 24.7182 21.7059 24.7162 21.6628C24.7162 21.6197 24.6813 21.5889 24.6361 21.5889C24.595 21.5889 20.5421 21.7182 19.6407 21.6156C19.6325 21.6156 19.6222 21.6156 19.614 21.6156L17.2426 22.1658C17.3904 21.8948 18.0125 20.7512 18.4683 19.8375C18.8892 18.9937 19.4313 19.0429 20.1828 19.1127C20.3162 19.1251 20.4538 19.1374 20.5975 19.1456C21.5276 19.1969 23.2235 19.3797 23.2399 19.3817C23.281 19.3838 23.32 19.355 23.3241 19.314C23.3282 19.2708 23.2974 19.2339 23.2564 19.2298C23.2399 19.2298 21.5399 19.045 20.6057 18.9937C20.464 18.9854 20.3285 18.9731 20.1971 18.9608C19.4477 18.891 18.801 18.8315 18.3308 19.7698C17.8134 20.8046 17.0804 22.1391 17.0742 22.1515C17.064 22.1679 17.064 22.1884 17.0681 22.2048L15.6575 22.5313C15.6329 22.5375 15.6124 22.5559 15.6021 22.5785C15.5939 22.6032 15.5959 22.6298 15.6124 22.6504C15.6226 22.6647 16.7067 24.1266 18.5115 23.9932C18.8564 23.9685 19.1972 23.9377 19.5319 23.9069C20.8952 23.7858 22.1846 23.6708 23.1209 23.9624C24.2788 24.3217 25.6093 25.0752 25.6216 25.0834C25.6339 25.0896 25.6463 25.0937 25.6606 25.0937C25.6873 25.0937 25.714 25.0793 25.7284 25.0547C25.7489 25.0177 25.7366 24.9705 25.6996 24.9499V24.954Z" fill="#412945"/>
<path d="M13.8138 19.2031C13.8138 19.2031 14.8445 19.8313 15.6658 19.431C16.487 19.0285 16.717 18.3325 16.717 18.3325L13.8138 19.2031Z" fill="#F7EDE5"/>
</svg>
