<svg width="32" height="32" viewBox="0 0 32 32" fill="none" xmlns="http://www.w3.org/2000/svg">
<g clip-path="url(#clip0_63_2128)">
<path d="M8.68549 -0.0315006C8.78365 -0.0320856 8.78365 -0.0320856 8.88379 -0.0326824C9.10118 -0.0336727 9.31852 -0.0328923 9.53591 -0.0321033C9.69253 -0.0324424 9.84915 -0.0328877 10.0058 -0.0334308C10.3859 -0.03445 10.766 -0.0343043 11.1461 -0.0335777C11.4552 -0.0330114 11.7643 -0.0329372 12.0734 -0.0332086C12.1175 -0.0332469 12.1616 -0.0332853 12.2071 -0.0333247C12.2967 -0.0334047 12.3863 -0.0334857 12.476 -0.0335679C13.3151 -0.0342795 14.1542 -0.033463 14.9933 -0.0321178C15.7122 -0.031001 16.4311 -0.031195 17.15 -0.0323475C17.9862 -0.0336875 18.8225 -0.0342109 19.6588 -0.0334444C19.7481 -0.0333648 19.8374 -0.0332862 19.9267 -0.0332086C19.9706 -0.0331701 20.0145 -0.0331315 20.0598 -0.0330918C20.3682 -0.0328766 20.6767 -0.0332389 20.9852 -0.0338285C21.4009 -0.0346058 21.8167 -0.0340468 22.2324 -0.032605C22.3847 -0.0322753 22.537 -0.0323679 22.6893 -0.0329206C22.8977 -0.0336072 23.1061 -0.0327428 23.3145 -0.0315006C23.3743 -0.0320583 23.4341 -0.032616 23.4957 -0.0331906C24.2588 -0.0244129 24.99 0.309299 25.5469 0.82837C26.1411 1.46461 26.3824 2.23005 26.3832 3.08706C26.3834 3.13243 26.3835 3.1778 26.3836 3.22455C26.384 3.37664 26.3839 3.52873 26.3838 3.68083C26.384 3.79096 26.3841 3.90108 26.3844 4.01121C26.3849 4.31391 26.385 4.6166 26.385 4.9193C26.3851 5.24574 26.3856 5.57219 26.386 5.89863C26.3869 6.61248 26.3873 7.32632 26.3875 8.04017C26.3877 8.48594 26.388 8.93172 26.3883 9.37749C26.389 10.6118 26.3897 11.8462 26.3899 13.0805C26.3899 13.1595 26.3899 13.2385 26.3899 13.3199C26.3899 13.399 26.3899 13.4782 26.3899 13.5598C26.39 13.7203 26.39 13.8807 26.39 14.0412C26.39 14.1208 26.3901 14.2003 26.3901 14.2824C26.3903 15.5719 26.3914 16.8614 26.3929 18.151C26.3944 19.4751 26.3951 20.7992 26.3952 22.1233C26.3953 22.8667 26.3956 23.61 26.3968 24.3534C26.3977 24.9864 26.398 25.6195 26.3975 26.2525C26.3973 26.5754 26.3973 26.8982 26.3982 27.2211C26.399 27.517 26.3989 27.8128 26.3982 28.1087C26.3981 28.2154 26.3982 28.3222 26.3988 28.4289C26.404 29.5131 26.2339 30.4239 25.4656 31.2341C24.8664 31.7865 24.1189 32.0395 23.3145 32.032C23.2491 32.0324 23.1837 32.0328 23.1162 32.0332C22.8989 32.0342 22.6815 32.0334 22.4641 32.0326C22.3075 32.0329 22.1509 32.0334 21.9943 32.0339C21.6142 32.0349 21.2341 32.0348 20.854 32.0341C20.5449 32.0335 20.2358 32.0334 19.9267 32.0337C19.8605 32.0338 19.8605 32.0338 19.793 32.0338C19.7033 32.0339 19.6137 32.034 19.5241 32.0341C18.6849 32.0348 17.8458 32.034 17.0067 32.0326C16.2878 32.0315 15.5689 32.0317 14.8501 32.0328C14.0138 32.0342 13.1775 32.0347 12.3413 32.0339C12.252 32.0339 12.1627 32.0338 12.0734 32.0337C12.0295 32.0337 11.9855 32.0336 11.9403 32.0336C11.6318 32.0334 11.3233 32.0337 11.0148 32.0343C10.5991 32.0351 10.1834 32.0345 9.76763 32.0331C9.61533 32.0328 9.46303 32.0329 9.31073 32.0334C9.10229 32.0341 8.89392 32.0332 8.68549 32.032C8.62571 32.0325 8.56592 32.0331 8.50433 32.0337C7.7412 32.0249 7.01008 31.6912 6.45314 31.1721C5.85894 30.5359 5.61763 29.7704 5.61681 28.9134C5.61668 28.8681 5.61655 28.8227 5.61642 28.7759C5.61606 28.6238 5.61615 28.4718 5.61624 28.3197C5.61608 28.2095 5.61589 28.0994 5.61568 27.9893C5.61518 27.6866 5.61506 27.3839 5.61502 27.0812C5.6149 26.7547 5.61443 26.4283 5.61401 26.1019C5.61316 25.388 5.61278 24.6742 5.61251 23.9603C5.61234 23.5145 5.61207 23.0688 5.61179 22.623C5.61103 21.3887 5.61038 20.1543 5.61017 18.92C5.61016 18.841 5.61014 18.762 5.61013 18.6806C5.61012 18.6014 5.6101 18.5223 5.61009 18.4407C5.61006 18.2802 5.61003 18.1198 5.61001 17.9593C5.60999 17.8797 5.60998 17.8001 5.60996 17.7181C5.60972 16.4286 5.60863 15.1391 5.60717 13.8495C5.60569 12.5254 5.60491 11.2013 5.60484 9.87719C5.60478 9.13382 5.60442 8.39044 5.60329 7.64707C5.60232 7.01405 5.602 6.38103 5.60252 5.74801C5.60276 5.42514 5.60271 5.10227 5.60183 4.77939C5.60103 4.48353 5.60111 4.18768 5.60186 3.89181C5.60199 3.78507 5.6018 3.67832 5.60125 3.57157C5.59606 2.48742 5.76613 1.57658 6.53444 0.766359C7.1336 0.214026 7.88109 -0.0390043 8.68549 -0.0315006ZM7.18752 6.31275C7.18752 12.2115 7.18752 18.1102 7.18752 24.1877C13.0038 24.1877 18.82 24.1877 24.8125 24.1877C24.8125 18.289 24.8125 12.3902 24.8125 6.31275C18.9963 6.31275 13.18 6.31275 7.18752 6.31275ZM7.18752 25.7502C6.93279 27.7734 6.93279 27.7734 7.56032 30.0276C8.09411 30.4504 8.55834 30.5098 9.2263 30.5086C9.31653 30.5088 9.31653 30.5088 9.40859 30.509C9.60995 30.5094 9.81131 30.5094 10.0127 30.5093C10.1571 30.5095 10.3016 30.5097 10.4461 30.51C10.8384 30.5105 11.2307 30.5107 11.623 30.5107C11.9505 30.5108 12.2781 30.511 12.6057 30.5112C13.3344 30.5117 14.0631 30.5119 14.7919 30.5118C14.8574 30.5118 14.8574 30.5118 14.9243 30.5118C14.968 30.5118 15.0118 30.5118 15.0569 30.5118C15.7658 30.5118 16.4747 30.5124 17.1836 30.5133C17.9121 30.5142 18.6406 30.5146 19.3691 30.5145C19.7779 30.5145 20.1866 30.5147 20.5954 30.5154C20.9799 30.516 21.3643 30.516 21.7488 30.5155C21.8898 30.5155 22.0308 30.5156 22.1717 30.516C22.3645 30.5165 22.5572 30.5162 22.7499 30.5157C22.8054 30.516 22.8609 30.5163 22.9181 30.5167C23.4354 30.5138 23.9009 30.462 24.3125 30.1252C25.3948 29.0178 24.8125 27.0143 24.8125 25.7502C18.9963 25.7502 13.18 25.7502 7.18752 25.7502Z" fill="black"/>
<path d="M19 10.5625C19.2009 10.7634 19.3043 10.9165 19.332 11.1992C19.2902 11.7098 18.9377 12.0268 18.5906 12.3702C18.5434 12.4176 18.4962 12.465 18.4476 12.5139C18.2923 12.6696 18.1364 12.8247 17.9805 12.9797C17.8721 13.0881 17.7638 13.1964 17.6554 13.3048C17.4288 13.5315 17.2018 13.7578 16.9746 13.9839C16.6831 14.2739 16.3924 14.5646 16.1019 14.8555C15.8785 15.0792 15.6547 15.3025 15.4309 15.5258C15.3235 15.6329 15.2163 15.74 15.1091 15.8473C14.9595 15.9969 14.8095 16.1461 14.6594 16.2952C14.6151 16.3397 14.5708 16.3841 14.5252 16.4299C14.4637 16.4908 14.4637 16.4908 14.401 16.5528C14.3479 16.6057 14.3479 16.6057 14.2937 16.6597C14.0441 16.8719 13.8298 16.8993 13.5115 16.8904C13.3166 16.8684 13.2095 16.8172 13.0625 16.6875C12.8823 16.414 12.8344 16.1999 12.875 15.875C13.0672 15.5375 13.3272 15.2792 13.6007 15.0062C13.6483 14.9581 13.6959 14.9101 13.7449 14.8607C13.9017 14.7027 14.059 14.5451 14.2163 14.3877C14.3258 14.2778 14.4352 14.168 14.5446 14.0581C14.7738 13.8282 15.0032 13.5985 15.2328 13.369C15.527 13.0749 15.8203 12.7799 16.1133 12.4846C16.339 12.2576 16.5652 12.0312 16.7915 11.8049C16.8999 11.6963 17.0081 11.5876 17.1161 11.4786C17.267 11.3265 17.4187 11.1751 17.5707 11.024C17.6151 10.9788 17.6595 10.9337 17.7053 10.8872C18.1072 10.4904 18.4568 10.3404 19 10.5625Z" fill="black"/>
<path d="M19.5 12.9376C19.7093 13.0446 19.8407 13.1949 19.9648 13.3946C20.0147 13.6327 20.017 13.8336 19.9375 14.0626C19.8542 14.1782 19.8542 14.1782 19.7482 14.2945C19.7086 14.338 19.6691 14.3815 19.6283 14.4264C19.4096 14.6585 19.1873 14.8867 18.9624 15.1129C18.9124 15.1632 18.8625 15.2135 18.811 15.2654C18.7061 15.3708 18.6012 15.4762 18.4962 15.5814C18.3355 15.7427 18.1756 15.9046 18.0156 16.0665C17.9133 16.1692 17.8109 16.2719 17.7085 16.3746C17.6609 16.423 17.6133 16.4713 17.5643 16.5212C17.5194 16.5658 17.4745 16.6105 17.4283 16.6565C17.3697 16.7155 17.3697 16.7155 17.3099 16.7756C17.0862 16.9573 16.9161 17.0007 16.6289 16.9962C16.3444 16.952 16.2011 16.8261 16 16.6251C15.929 16.4831 15.9231 16.3924 15.918 16.2345C15.9156 16.1877 15.9133 16.141 15.9109 16.0928C15.9891 15.6367 16.4385 15.2935 16.75 14.9835C16.8045 14.9288 16.8591 14.8741 16.9153 14.8178C17.0303 14.7027 17.1454 14.5878 17.2607 14.473C17.3788 14.3554 17.4967 14.2376 17.6143 14.1195C17.7842 13.9488 17.9545 13.7786 18.125 13.6085C18.1776 13.5556 18.2302 13.5027 18.2844 13.4483C18.3336 13.3995 18.3829 13.3506 18.4336 13.3003C18.4767 13.2573 18.5198 13.2143 18.5642 13.17C18.8491 12.9218 19.1321 12.8751 19.5 12.9376Z" fill="black"/>
<path d="M15.9961 27.293C16.069 27.292 16.142 27.2909 16.2172 27.2899C16.6763 27.2896 16.9828 27.3168 17.3359 27.6328C17.478 27.8841 17.4872 28.0926 17.4375 28.375C17.3081 28.6292 17.2039 28.7744 16.9375 28.875C16.6713 28.8998 16.4054 28.8982 16.1381 28.8982C16.0086 28.8984 15.8792 28.9007 15.7497 28.9031C15.6264 28.9034 15.6264 28.9034 15.5005 28.9038C15.4255 28.9043 15.3505 28.9048 15.2732 28.9054C15.0208 28.869 14.8859 28.7821 14.6875 28.625C14.5176 28.3758 14.513 28.1038 14.5625 27.8125C14.6684 27.6055 14.8087 27.4703 15.0189 27.3662C15.3361 27.2652 15.6661 27.2921 15.9961 27.293Z" fill="black"/>
</g>
<defs>
<clipPath id="clip0_63_2128">
<rect width="32" height="32" fill="white"/>
</clipPath>
</defs>
</svg>
