<svg width="21.821472" height="18.265448" viewBox="0 0 21.8215 18.2654" fill="none" xmlns="http://www.w3.org/2000/svg" xmlns:xlink="http://www.w3.org/1999/xlink">
	<desc>
			Created with Pixso.
	</desc>
	<defs/>
	<path id="Vector" d="M21.36 0.22C21.6 0.45 21.78 0.67 21.82 1C21.82 1.54 21.72 2.04 21.6 2.56C21.58 2.66 21.56 2.75 21.53 2.85C21.49 3.06 21.44 3.27 21.39 3.47C21.32 3.81 21.24 4.14 21.17 4.48C21.09 4.83 21.01 5.19 20.93 5.54C20.67 6.68 20.42 7.83 20.17 8.97C20.08 9.39 19.98 9.81 19.89 10.23C19.88 10.29 19.87 10.35 19.85 10.41C19.83 10.53 19.8 10.65 19.77 10.77C19.59 11.61 19.4 12.46 19.21 13.3C19.11 13.78 19 14.26 18.9 14.73C18.83 15.07 18.75 15.4 18.68 15.74C18.64 15.94 18.59 16.14 18.54 16.35C18.52 16.44 18.5 16.54 18.48 16.63C18.45 16.76 18.43 16.89 18.4 17.02C18.39 17.05 18.38 17.09 18.37 17.13C18.27 17.57 18.16 17.91 17.76 18.16C17.52 18.28 17.28 18.28 17.03 18.22C16.72 18.1 16.47 17.88 16.21 17.68C16.14 17.62 16.07 17.57 16 17.52C15.89 17.43 15.78 17.35 15.67 17.26C15.41 17.06 15.14 16.86 14.87 16.66C14.53 16.41 14.2 16.15 13.86 15.89C13.57 15.66 13.26 15.43 12.96 15.21C12.54 14.91 12.14 14.59 11.74 14.27C11.49 14.48 11.25 14.7 11.01 14.92C10.98 14.95 10.94 14.99 10.91 15.02C10.5 15.41 10.1 15.81 9.7 16.22C9.55 16.36 9.4 16.51 9.26 16.66C9.22 16.69 9.19 16.73 9.16 16.76C9.13 16.79 9.1 16.82 9.06 16.85C9.04 16.88 9.01 16.91 8.98 16.93C8.87 17.04 8.81 17.05 8.66 17.06C8.48 17.05 8.48 17.05 8.33 16.95C8.08 16.57 8.26 15.85 8.3 15.4C8.3 15.31 8.31 15.22 8.32 15.13C8.33 14.95 8.34 14.76 8.36 14.57C8.37 14.34 8.39 14.1 8.41 13.86C8.42 13.68 8.43 13.5 8.45 13.31C8.45 13.22 8.46 13.14 8.47 13.05C8.48 12.93 8.49 12.8 8.49 12.68C8.5 12.63 8.5 12.63 8.5 12.57C8.55 11.93 8.55 11.93 8.77 11.72C8.83 11.67 8.83 11.67 8.89 11.61C9.02 11.49 9.15 11.38 9.28 11.27C9.44 11.13 9.6 10.98 9.75 10.83C10.07 10.54 10.39 10.24 10.71 9.95C10.81 9.86 10.91 9.77 11 9.68C11.03 9.66 11.05 9.64 11.08 9.62C11.36 9.35 11.65 9.09 11.93 8.83C12.26 8.52 12.59 8.22 12.93 7.91C13.1 7.75 13.28 7.58 13.46 7.42C13.69 7.21 13.91 7 14.14 6.79C14.32 6.63 14.5 6.47 14.68 6.3C14.9 6.09 15.13 5.88 15.36 5.68C15.54 5.51 15.71 5.35 15.89 5.18C16.09 5 16.3 4.81 16.5 4.62C16.71 4.43 16.92 4.23 17.14 4.04C17.16 4.02 17.19 3.99 17.22 3.97C17.29 3.9 17.35 3.84 17.42 3.77C17.45 3.75 17.48 3.72 17.51 3.69C17.59 3.62 17.59 3.62 17.57 3.48C17.36 3.51 17.23 3.58 17.05 3.69C17 3.72 16.94 3.75 16.89 3.79C16.83 3.82 16.77 3.86 16.71 3.9C16.65 3.93 16.59 3.97 16.53 4.01C16.37 4.11 16.21 4.2 16.06 4.3C15.92 4.39 15.78 4.47 15.64 4.56C15.49 4.65 15.33 4.75 15.18 4.84C14.76 5.1 14.35 5.35 13.93 5.6C13.52 5.85 13.12 6.1 12.71 6.35C12.24 6.64 11.78 6.92 11.31 7.2C10.9 7.45 10.49 7.7 10.08 7.95C9.65 8.22 9.21 8.49 8.77 8.76C8.33 9.03 7.88 9.3 7.44 9.57C7.29 9.66 7.13 9.76 6.98 9.85C6.87 9.92 6.77 9.98 6.66 10.05C6.51 10.14 6.36 10.24 6.2 10.33C6.16 10.36 6.11 10.39 6.06 10.42C6.02 10.44 5.97 10.47 5.93 10.5C5.89 10.52 5.86 10.54 5.82 10.57C5.78 10.59 5.74 10.61 5.71 10.63C5.67 10.65 5.63 10.67 5.6 10.69C5.4 10.74 5.25 10.68 5.06 10.61C5 10.59 5 10.59 4.94 10.57C4.81 10.52 4.68 10.48 4.55 10.43C4.46 10.4 4.37 10.37 4.28 10.34C4.09 10.27 3.9 10.21 3.71 10.14C3.43 10.05 3.16 9.95 2.88 9.86C2.43 9.71 1.98 9.56 1.53 9.4C1.46 9.38 1.4 9.35 1.33 9.33C1.15 9.27 0.97 9.2 0.78 9.14C0.74 9.12 0.7 9.11 0.66 9.1C0.41 9.01 0.2 8.91 0.05 8.69C-0.04 8.42 -0.02 8.14 0.08 7.89C0.39 7.58 0.85 7.45 1.25 7.3C1.3 7.28 1.36 7.26 1.41 7.24C1.58 7.17 1.75 7.11 1.92 7.05C2.04 7 2.16 6.95 2.28 6.91C2.47 6.84 2.65 6.77 2.84 6.7C3.36 6.5 3.88 6.3 4.4 6.1C4.59 6.03 4.77 5.96 4.96 5.89C5.1 5.83 5.24 5.78 5.38 5.73C5.8 5.56 6.23 5.4 6.66 5.24C6.9 5.15 7.13 5.06 7.37 4.96C7.47 4.93 7.56 4.89 7.66 4.85C7.7 4.84 7.75 4.82 7.8 4.8C15.08 2.01 15.08 2.01 15.23 1.96C15.32 1.92 15.42 1.88 15.51 1.85C15.75 1.76 15.99 1.66 16.22 1.57C16.66 1.4 17.11 1.24 17.55 1.07C17.75 0.99 17.96 0.91 18.16 0.83C18.26 0.79 18.36 0.76 18.45 0.72C18.93 0.54 19.4 0.35 19.88 0.18C19.92 0.16 19.96 0.15 20 0.13C20.48 -0.04 20.92 -0.09 21.36 0.22Z" fill="#FFFFFF" fill-opacity="1.000000" fill-rule="nonzero"/>
</svg>
