<svg width="28" height="24" viewBox="0 0 28 24" fill="none" xmlns="http://www.w3.org/2000/svg">
<path d="M27.5409 0.226626C27.8572 0.533144 27.9891 0.883072 28 1.32287C28.0004 2.00869 27.875 2.64618 27.7271 3.31378C27.7001 3.43902 27.6733 3.56428 27.6466 3.68956C27.5743 4.02738 27.5006 4.3649 27.4268 4.70239C27.3563 5.02564 27.2868 5.34911 27.2173 5.67258C27.0886 6.27173 26.9592 6.87074 26.8293 7.46964C26.6419 8.33392 26.4565 9.19863 26.2722 10.0636C26.2585 10.1279 26.2448 10.1922 26.2306 10.2585C26.1754 10.5178 26.1201 10.7772 26.0649 11.0365C25.9683 11.4897 25.8714 11.9429 25.7744 12.396C25.7605 12.4608 25.7466 12.5256 25.7323 12.5924C25.704 12.7245 25.6757 12.8565 25.6475 12.9885C25.4005 14.1415 25.1549 15.2948 24.9104 16.4483C24.8485 16.7404 24.7865 17.0324 24.7244 17.3244C24.7114 17.3858 24.7114 17.3858 24.6981 17.4485C24.6544 17.654 24.6107 17.8594 24.567 18.0649C24.4732 18.5061 24.3797 18.9474 24.2865 19.3888C24.223 19.6897 24.1591 19.9905 24.095 20.2913C24.0579 20.4653 24.021 20.6393 23.9844 20.8134C23.9444 21.0035 23.9039 21.1936 23.8633 21.3836C23.8519 21.4383 23.8405 21.493 23.8288 21.5493C23.7077 22.1098 23.5508 22.8035 23.0756 23.1755C22.7252 23.3849 22.3925 23.4182 21.9954 23.3457C21.4375 23.1934 21.009 22.839 20.5538 22.4981C20.4687 22.4354 20.3835 22.3728 20.2983 22.3103C20.124 22.1823 19.9499 22.0539 19.7761 21.9252C19.5272 21.7412 19.2765 21.5598 19.0253 21.3791C18.4689 20.9784 17.9175 20.5709 17.3661 20.1634C17.2358 20.0671 17.1053 19.9708 16.9749 19.8745C16.9324 19.8431 16.8899 19.8118 16.8461 19.7794C16.5436 19.5566 16.2393 19.3364 15.9343 19.1171C15.6129 18.886 15.2945 18.6523 14.9859 18.4041C14.7865 18.5149 14.634 18.6343 14.4748 18.7973C14.4308 18.8418 14.3869 18.8864 14.3416 18.9323C14.2964 18.9786 14.2512 19.025 14.2046 19.0728C13.925 19.3583 13.6451 19.6367 13.3416 19.8969C13.172 20.0462 13.0151 20.2078 12.857 20.3692C12.625 20.6039 12.3921 20.8315 12.1391 21.0437C12.0182 21.1512 11.9102 21.2681 11.7994 21.3859C11.5472 21.6394 11.2522 21.8891 10.8789 21.9018C10.8351 21.9013 10.7912 21.9008 10.746 21.9003C10.6797 21.8997 10.6797 21.8997 10.612 21.8991C10.5782 21.8987 10.5445 21.8982 10.5098 21.8977C10.5586 20.7748 10.6182 19.6528 10.69 18.5311C10.7098 18.2221 10.7285 17.9131 10.745 17.6039C10.7612 17.3011 10.78 16.9986 10.8004 16.6961C10.8077 16.5819 10.8142 16.4675 10.8196 16.3532C10.8686 15.3544 10.8686 15.3544 11.2108 15.0434C11.3034 14.9791 11.3973 14.9166 11.4923 14.8559C11.5846 14.7755 11.6757 14.6938 11.7653 14.6103C12.3111 14.119 12.3111 14.119 12.4472 13.9966C12.5396 13.9134 12.632 13.8301 12.7244 13.7467C12.9288 13.5623 13.1335 13.3783 13.3415 13.1979C13.558 13.0093 13.7691 12.8149 13.9803 12.6205C14.1652 12.4505 14.3526 12.2842 14.5424 12.1198C14.6921 11.9876 14.839 11.8525 14.9859 11.7172C15.202 11.5183 15.42 11.322 15.6418 11.1295C15.8622 10.9369 16.0787 10.7397 16.296 10.5436C16.3869 10.4617 16.4779 10.3798 16.5689 10.2979C16.614 10.2574 16.659 10.2169 16.7054 10.1751C17.1148 9.80664 17.1148 9.80664 17.2508 9.68425C17.3433 9.60101 17.4357 9.5177 17.528 9.43434C17.7325 9.2499 17.9372 9.06595 18.1451 8.88549C18.3617 8.69697 18.5727 8.50256 18.7839 8.30808C18.9688 8.13814 19.1563 7.97184 19.346 7.80739C19.4958 7.67527 19.6426 7.54008 19.7896 7.40481C20.0056 7.20589 20.2236 7.00965 20.4454 6.81715C20.6659 6.62449 20.8823 6.42736 21.0996 6.23119C21.1906 6.1493 21.2816 6.06742 21.3726 5.98555C21.4176 5.94502 21.4626 5.90449 21.509 5.86273C21.6455 5.73991 21.782 5.61709 21.9184 5.49427C21.9631 5.45402 22.0078 5.41377 22.0538 5.3723C22.1482 5.28742 22.2428 5.20271 22.3374 5.11813C22.4712 4.99842 22.6045 4.87815 22.7372 4.75735C22.7686 4.72906 22.7999 4.70077 22.8321 4.67163C22.9151 4.59573 22.9151 4.59573 23.0102 4.48441C23.0102 4.43037 23.0102 4.37633 23.0102 4.32065C22.6755 4.21496 22.4388 4.34335 22.1368 4.48441C21.969 4.57707 21.809 4.67938 21.6489 4.78464C21.5577 4.84343 21.4664 4.90221 21.3751 4.96098C21.3063 5.00567 21.3063 5.00567 21.236 5.05126C21.0244 5.1881 20.8113 5.32241 20.5981 5.45674C20.5559 5.48342 20.5136 5.51011 20.4701 5.5376C19.9548 5.86302 19.4376 6.18556 18.9206 6.50831C18.6461 6.67968 18.3717 6.8512 18.0974 7.02271C17.9882 7.09094 17.879 7.15917 17.7698 7.22741C17.7158 7.26118 17.6618 7.29496 17.6061 7.32976C13.1845 10.0932 13.1845 10.0932 13.0207 10.1956C12.9117 10.2637 12.8028 10.3318 12.6938 10.3999C12.4176 10.5726 12.1412 10.7453 11.8648 10.9178C11.367 11.2286 10.8693 11.5398 10.3733 11.8537C10.0957 12.0293 9.81789 12.2044 9.53957 12.3788C9.48507 12.4131 9.43058 12.4473 9.37443 12.4826C9.26251 12.5523 9.15009 12.6212 9.03718 12.6893C8.71955 12.8822 8.43176 13.0816 8.15654 13.332C7.58908 13.7293 7.58908 13.7293 7.21566 13.6907C7.00488 13.6359 6.80076 13.5685 6.59571 13.4957C6.51724 13.4697 6.4387 13.4439 6.36009 13.4182C6.19241 13.3634 6.02512 13.3075 5.85801 13.2509C5.46143 13.1174 5.061 12.9963 4.66102 12.8735C4.43265 12.8032 4.20458 12.732 3.97649 12.6607C3.88474 12.6321 3.79298 12.6035 3.70123 12.5748C3.65561 12.5606 3.60999 12.5463 3.56299 12.5317C3.37478 12.473 3.18653 12.4144 2.99829 12.3557C2.81409 12.2984 2.6299 12.2409 2.44572 12.1835C2.35927 12.1565 2.27281 12.1296 2.18635 12.1027C1.92194 12.0203 1.65772 11.9374 1.39374 11.8537C1.29873 11.8236 1.29873 11.8236 1.2018 11.793C1.14434 11.7744 1.08689 11.7558 1.02769 11.7367C0.978719 11.7209 0.929748 11.7051 0.879293 11.6889C0.553608 11.5647 0.211582 11.397 0.0290654 11.0894C-0.0229792 10.8305 -0.0137086 10.57 0.128004 10.3423C0.520927 9.89265 1.10907 9.67799 1.65303 9.4723C1.72984 9.44269 1.80663 9.41302 1.8834 9.38331C2.1056 9.29755 2.32815 9.21272 2.55076 9.12803C2.77304 9.04335 2.99515 8.95823 3.21727 8.87314C3.79207 8.65299 4.36711 8.43352 4.94232 8.21445C5.62484 7.95451 6.30695 7.69353 6.9889 7.43211C7.65878 7.17536 8.32876 6.91892 8.99903 6.6632C9.06087 6.6396 9.12272 6.61601 9.18644 6.5917C9.31267 6.54354 9.4389 6.49538 9.56513 6.44722C10.6084 6.04919 11.6512 5.6499 12.6932 5.24863C13.6718 4.87181 14.651 4.49658 15.6307 4.12277C15.6936 4.09879 15.7564 4.0748 15.8212 4.05009C15.9473 4.00197 16.0734 3.95385 16.1995 3.90573C16.2613 3.88215 16.3231 3.85857 16.3868 3.83427C16.4482 3.81084 16.5097 3.7874 16.5729 3.76326C17.1847 3.5298 17.7963 3.29591 18.4078 3.06174C18.4596 3.04191 18.5114 3.02208 18.5647 3.00165C19.1684 2.77047 19.7719 2.53878 20.3751 2.30648C20.4337 2.28389 20.4924 2.26131 20.5528 2.23804C20.6117 2.21536 20.6706 2.19267 20.7313 2.1693C20.7904 2.14654 20.8496 2.12377 20.9105 2.10031C21.0293 2.05457 21.148 2.00883 21.2668 1.96308C22.2934 1.56779 23.3213 1.17622 24.3502 0.787009C24.8716 0.58956 25.3918 0.390239 25.9082 0.179875C26.4663 -0.0393967 27.01 -0.0960586 27.5409 0.226626Z" fill="black"/>
</svg>
