<svg width="159.000000" height="39.000000" viewBox="0 0 159 39" fill="none" xmlns="http://www.w3.org/2000/svg" xmlns:xlink="http://www.w3.org/1999/xlink">
	<desc>
			Created with Pixso.
	</desc>
	<defs/>
	<path id="Vector" d="M30.97 13.29C30.75 13.47 26.72 15.72 26.72 20.72C26.72 26.51 31.84 28.56 32 28.61C31.97 28.73 31.18 31.41 29.29 34.14C27.61 36.55 25.86 38.94 23.18 38.94C20.51 38.94 19.82 37.4 16.74 37.4C13.73 37.4 12.66 39 10.21 39C7.77 39 6.06 36.77 4.1 34.04C1.83 30.84 0 25.85 0 21.13C0 13.54 4.96 9.52 9.85 9.52C12.45 9.52 14.62 11.22 16.25 11.22C17.8 11.22 20.22 9.42 23.18 9.42C24.3 9.42 28.32 9.52 30.97 13.29ZM21.78 6.21C23 4.77 23.86 2.78 23.86 0.78C23.86 0.5 23.84 0.22 23.79 0C21.8 0.07 19.43 1.31 18.01 2.95C16.89 4.22 15.84 6.21 15.84 8.24C15.84 8.54 15.89 8.84 15.91 8.94C16.04 8.97 16.24 8.99 16.45 8.99C18.23 8.99 20.48 7.81 21.78 6.21Z" fill="#FFFFFF" fill-opacity="1.000000" fill-rule="nonzero"/>
	<path id="App Store" d="M100.16 25.92Q101.12 26.14 102.13 26.14Q103.73 26.14 104.83 25.67Q105.93 25.19 106.47 24.37Q106.73 23.97 106.86 23.53Q107.01 23.07 107.01 22.56Q107.01 21.45 106.47 20.77Q106.43 20.72 106.38 20.67Q106.05 20.3 105.66 20.02Q105.3 19.78 104.9 19.62Q104.04 19.28 102.61 18.94Q101.51 18.69 100.88 18.46Q100.24 18.24 99.8 17.83Q99.65 17.68 99.55 17.5Q99.37 17.19 99.37 16.78Q99.37 16.41 99.51 16.1Q99.69 15.66 100.14 15.34Q100.9 14.78 102.43 14.78Q103.3 14.78 104.2 15.04Q104.63 15.17 105.05 15.35Q105.48 15.55 105.89 15.81L106.48 14.37Q105.71 13.83 104.63 13.54Q104.05 13.38 103.45 13.31Q102.95 13.25 102.43 13.25Q100.83 13.25 99.75 13.74Q98.67 14.22 98.14 15.04Q97.94 15.34 97.82 15.67Q97.61 16.22 97.61 16.85Q97.61 18 98.17 18.7Q98.2 18.74 98.23 18.77Q98.54 19.13 98.92 19.39Q99.29 19.65 99.72 19.82Q100.6 20.16 102.02 20.51Q103.15 20.77 103.77 20.99Q104.4 21.21 104.82 21.61Q104.96 21.75 105.06 21.92Q105.24 22.24 105.24 22.66Q105.24 23.04 105.1 23.36Q104.91 23.78 104.47 24.08Q103.69 24.61 102.13 24.61Q101.57 24.61 101.03 24.52Q100.41 24.42 99.81 24.21Q98.69 23.8 97.97 23.15L97.3 24.55Q98.06 25.26 99.38 25.7Q99.77 25.83 100.16 25.92ZM55.83 26L57.22 22.84L63.91 22.84L65.3 26L67.19 26L61.47 13.4L59.68 13.4L53.98 26L55.83 26ZM113.81 25.93Q114.37 25.76 114.74 25.44L114.2 24.19Q114.04 24.32 113.86 24.42Q113.42 24.65 112.85 24.65Q112.24 24.65 111.87 24.35Q111.8 24.29 111.75 24.23L111.74 24.23Q111.36 23.81 111.36 23.04L111.36 17.88L114.1 17.88L114.1 16.45L111.36 16.45L111.36 14.37L109.63 14.37L109.63 16.45L108.01 16.45L108.01 17.88L109.63 17.88L109.63 23.12Q109.63 24.4 110.26 25.16Q110.34 25.25 110.42 25.33Q110.49 25.4 110.57 25.46Q111.34 26.1 112.66 26.1Q113.06 26.1 113.45 26.03Q113.63 25.99 113.81 25.93ZM60.56 15.23L63.29 21.41L57.85 21.41L60.56 15.23ZM76.06 16.83Q75.07 16.37 73.87 16.37Q72.83 16.37 71.96 16.75Q71.94 16.76 71.92 16.77Q71.52 16.96 71.18 17.22Q70.78 17.54 70.47 17.97L70.47 16.45L68.81 16.45L68.81 29.49L70.54 29.49L70.54 24.55Q70.89 25 71.33 25.33Q71.64 25.55 71.98 25.71Q72.03 25.73 72.07 25.75Q72.89 26.1 73.87 26.1Q75.07 26.1 76.06 25.64Q76.21 25.57 76.35 25.49Q76.87 25.2 77.28 24.8Q77.74 24.35 78.07 23.77Q78.09 23.73 78.12 23.69Q78.69 22.61 78.69 21.23Q78.69 19.81 78.09 18.72Q78.08 18.7 78.07 18.69Q77.75 18.12 77.31 17.69Q76.89 17.28 76.35 16.98Q76.21 16.9 76.06 16.83ZM88.34 16.83Q87.35 16.37 86.14 16.37Q85.1 16.37 84.24 16.75Q84.22 16.76 84.2 16.77Q83.8 16.96 83.46 17.22Q83.06 17.54 82.74 17.97L82.74 16.45L81.09 16.45L81.09 29.49L82.81 29.49L82.81 24.55Q83.17 25 83.61 25.33Q83.91 25.55 84.26 25.71Q84.3 25.73 84.35 25.75Q85.17 26.1 86.14 26.1Q87.35 26.1 88.34 25.64Q88.48 25.57 88.63 25.49Q89.15 25.2 89.56 24.8Q90.02 24.35 90.35 23.77Q90.37 23.73 90.39 23.69Q90.97 22.61 90.97 21.23Q90.97 19.81 90.36 18.72Q90.35 18.7 90.35 18.69Q90.03 18.12 89.59 17.69Q89.16 17.28 88.63 16.98Q88.48 16.9 88.34 16.83ZM118.36 25.64Q119.37 26.1 120.6 26.1Q121.83 26.1 122.84 25.63Q122.99 25.56 123.14 25.48Q123.75 25.14 124.21 24.66Q124.61 24.25 124.9 23.74Q125.01 23.55 125.11 23.35Q125.55 22.39 125.55 21.23Q125.55 20.05 125.09 19.08Q125.01 18.89 124.9 18.71Q124.6 18.18 124.18 17.76Q123.72 17.31 123.14 16.99Q123.02 16.92 122.89 16.86Q121.86 16.37 120.6 16.37Q119.34 16.37 118.31 16.85Q118.17 16.91 118.04 16.99Q117.44 17.32 116.97 17.78Q116.56 18.2 116.26 18.71Q116.17 18.88 116.09 19.06Q115.63 20.03 115.63 21.23Q115.63 22.4 116.07 23.37Q116.16 23.56 116.26 23.74Q116.55 24.23 116.94 24.63Q117.41 25.13 118.04 25.48Q118.2 25.56 118.36 25.64ZM130.03 17.45Q129.78 17.72 129.6 18.06L129.6 16.45L127.94 16.45L127.94 26L129.67 26L129.67 21.24Q129.67 19.75 130.41 18.92Q130.44 18.89 130.47 18.86Q130.63 18.69 130.82 18.55Q131.56 18.02 132.67 18.02Q132.92 18.02 133.07 18.04L133.07 16.37Q131.81 16.37 130.92 16.8Q130.4 17.05 130.03 17.45ZM143.69 21.8Q143.73 21.48 143.73 21.28Q143.73 19.85 143.13 18.74Q143.13 18.73 143.12 18.72Q142.77 18.07 142.26 17.59Q141.9 17.25 141.45 16.99Q141.3 16.9 141.15 16.83Q140.19 16.37 139.01 16.37Q137.87 16.37 136.92 16.8Q136.73 16.88 136.55 16.99Q136.09 17.25 135.72 17.59Q135.2 18.08 134.84 18.72Q134.73 18.92 134.64 19.12Q134.22 20.08 134.22 21.23Q134.22 22.38 134.65 23.34Q134.74 23.55 134.86 23.75Q135.12 24.2 135.47 24.57Q135.97 25.11 136.67 25.49Q137.84 26.1 139.35 26.1Q140.54 26.1 141.5 25.71Q142.19 25.42 142.72 24.96Q142.93 24.77 143.11 24.55L142.16 23.44Q141.78 23.85 141.32 24.12Q140.5 24.59 139.41 24.59Q138.26 24.59 137.42 24.09Q137.23 23.97 137.06 23.83Q136.65 23.5 136.39 23.08Q136.04 22.52 135.95 21.8L143.69 21.8ZM137.5 18.18Q138.16 17.82 139.01 17.82Q139.83 17.82 140.48 18.16Q140.8 18.33 141.09 18.59Q141.39 18.87 141.61 19.21Q141.98 19.79 142.07 20.56L135.95 20.56Q136.05 19.72 136.47 19.1Q136.66 18.82 136.93 18.58Q137.19 18.34 137.5 18.18ZM75.09 24.31Q74.47 24.59 73.72 24.59Q73.08 24.59 72.52 24.38Q72.29 24.29 72.08 24.17Q71.76 23.99 71.5 23.74Q71.17 23.41 70.93 22.98Q70.52 22.22 70.52 21.23Q70.52 20.23 70.94 19.48Q71.19 19.03 71.55 18.7Q71.8 18.47 72.09 18.3Q72.28 18.19 72.48 18.11Q73.05 17.88 73.72 17.88Q74.5 17.88 75.13 18.17Q75.26 18.23 75.37 18.29Q75.64 18.44 75.86 18.64Q76.25 18.98 76.52 19.47Q76.53 19.48 76.53 19.49Q76.94 20.25 76.94 21.23Q76.94 22.19 76.55 22.94Q76.53 22.96 76.52 22.98Q76.26 23.45 75.89 23.79Q75.65 24.01 75.37 24.17Q75.23 24.25 75.09 24.31ZM87.37 24.31Q86.75 24.59 86 24.59Q85.35 24.59 84.79 24.38Q84.57 24.29 84.36 24.17Q84.04 23.99 83.78 23.74Q83.44 23.41 83.21 22.98Q82.8 22.22 82.8 21.23Q82.8 20.23 83.22 19.48Q83.47 19.03 83.83 18.7Q84.07 18.47 84.37 18.3Q84.56 18.19 84.75 18.11Q85.33 17.88 86 17.88Q86.77 17.88 87.41 18.17Q87.53 18.23 87.65 18.29Q87.91 18.44 88.14 18.64Q88.53 18.98 88.8 19.47Q88.8 19.48 88.81 19.49Q89.22 20.25 89.22 21.23Q89.22 22.19 88.82 22.94Q88.81 22.96 88.8 22.98Q88.54 23.45 88.16 23.79Q87.93 24.01 87.65 24.17Q87.51 24.25 87.37 24.31ZM121.94 24.33Q121.32 24.59 120.6 24.59Q119.85 24.59 119.23 24.31Q119.09 24.25 118.95 24.17Q118.68 24.01 118.45 23.81Q118.06 23.46 117.79 22.98Q117.78 22.96 117.77 22.94Q117.37 22.19 117.37 21.23Q117.37 20.25 117.78 19.49Q117.79 19.48 117.79 19.47Q118.07 18.97 118.47 18.63Q118.69 18.44 118.95 18.29Q119.07 18.23 119.19 18.17Q119.83 17.88 120.6 17.88Q121.35 17.88 121.98 18.16Q122.11 18.22 122.24 18.29Q122.52 18.45 122.75 18.66Q123.13 19 123.38 19.47Q123.8 20.23 123.8 21.23Q123.8 22.2 123.39 22.96Q123.39 22.97 123.38 22.98Q123.14 23.44 122.78 23.77Q122.54 24 122.24 24.17Q122.09 24.26 121.94 24.33Z" fill="#FFFFFF" fill-opacity="1.000000" fill-rule="evenodd"/>
</svg>
