<svg width="57" height="58" viewBox="0 0 57 58" fill="none" xmlns="http://www.w3.org/2000/svg">
<rect x="0.518182" y="0.518182" width="55.9636" height="55.9636" rx="27.9818" fill="url(#paint0_linear_28_4)" stroke="#F6CE90" stroke-width="1.03636"/>
<path d="M28.5 57.0674C12.7599 57.0674 0 44.3075 0 28.5674C0 12.8273 12.7599 0.0673828 28.5 0.0673828C44.2401 0.0673828 57 12.8273 57 28.5674C57 44.3075 44.2401 57.0674 28.5 57.0674Z" fill="#5790FF"/>
<path d="M2.00898 28.4928C2.00256 34.3412 3.94164 40.0255 7.52085 44.6507C8.46589 45.8862 9.52047 47.0339 10.6718 48.0798C11.7275 49.0507 12.8659 49.9277 14.074 50.701C14.1167 50.7451 14.1689 50.7788 14.2266 50.7997C15.1685 51.418 16.1524 51.97 17.1711 52.4514C22.4372 54.9455 28.3788 55.6331 34.0754 54.4078C39.772 53.1826 44.9054 50.1127 48.6802 45.6741C51.4468 42.4237 53.3873 38.553 54.3365 34.3916C55.2857 30.2301 55.2155 25.9009 54.132 21.7724C53.0485 17.6438 50.9836 13.8381 48.1131 10.679C45.2427 7.51995 41.6515 5.10099 37.6452 3.62797C33.639 2.15495 29.3361 1.67147 25.1028 2.21865C20.8695 2.76584 16.831 4.3275 13.331 6.77076C9.83098 9.21403 6.97298 12.4666 5.00016 16.2517C3.02734 20.0368 1.99809 24.2425 2 28.5108L2.00898 28.4928Z" fill="#C9DCFF"/>
<mask id="mask0_28_4" style="mask-type:alpha" maskUnits="userSpaceOnUse" x="2" y="2" width="53" height="53">
<path d="M2.00898 28.4928C2.00256 34.3412 3.94164 40.0255 7.52085 44.6507C8.46589 45.8862 9.52047 47.0339 10.6718 48.0798C11.7275 49.0507 12.8659 49.9277 14.074 50.701C14.1167 50.7451 14.1689 50.7788 14.2266 50.7997C15.1685 51.418 16.1524 51.97 17.1711 52.4514C22.4372 54.9455 28.3788 55.6331 34.0754 54.4078C39.772 53.1826 44.9054 50.1127 48.6802 45.6741C51.4468 42.4237 53.3873 38.553 54.3365 34.3916C55.2857 30.2301 55.2155 25.9009 54.132 21.7724C53.0485 17.6438 50.9836 13.8381 48.1131 10.679C45.2427 7.51995 41.6515 5.10099 37.6452 3.62797C33.639 2.15495 29.3361 1.67147 25.1028 2.21865C20.8695 2.76584 16.831 4.3275 13.331 6.77076C9.83098 9.21403 6.97298 12.4666 5.00016 16.2517C3.02734 20.0368 1.99809 24.2425 2 28.5108L2.00898 28.4928Z" fill="#C9DCFF"/>
</mask>
<g mask="url(#mask0_28_4)">
<path d="M24.8294 37.5661L12.4784 44.4091C12.4784 44.4091 10.8527 49.2279 10.4456 55.0327H48.5544C48.5544 55.0327 46.8124 46.0784 46.1174 44.729C46.1174 44.729 36.8286 38.6625 33.0858 37.3276L24.8294 37.5661Z" fill="#2D8BBB"/>
<path d="M24.8294 37.5661L12.4784 44.4091C12.4784 44.4091 10.8527 49.2279 10.4456 55.0327H48.5544C48.5544 55.0327 46.8124 46.0784 46.1174 44.729C46.1174 44.729 36.8286 38.6625 33.0858 37.3276L24.8294 37.5661Z" fill="#5790FF"/>
<path d="M20.7696 41.6142C20.7696 41.6142 20.7725 41.6375 20.7812 41.6462C20.787 41.6549 20.7958 41.6579 20.8045 41.6637C21.1564 42.1406 21.5926 42.6641 22.1277 43.1788C22.1306 43.1905 22.1364 43.205 22.1451 43.2137C22.1568 43.2283 22.1742 43.2341 22.1888 43.2399C22.6773 43.7052 23.2415 44.1589 23.8842 44.5602C23.8872 44.566 23.8872 44.5719 23.893 44.5777C23.9046 44.5893 23.9221 44.5922 23.9366 44.5951C24.6956 45.0633 25.5681 45.453 26.554 45.706C26.5598 45.709 26.5627 45.7119 26.5685 45.7148C26.5801 45.7177 26.5889 45.7206 26.6005 45.7206C26.6005 45.7206 26.6005 45.7206 26.6034 45.7206C27.3363 45.9038 28.1302 46.0114 28.991 46.0114C29.0259 46.0114 29.0579 46.0114 29.0928 46.0114C29.0957 46.0114 29.1015 46.0114 29.1044 46.0114C29.1103 46.0114 29.1161 46.0114 29.119 46.0085C32.5186 45.9765 34.7609 44.7609 36.2033 43.4144C36.2237 43.4115 36.2411 43.4028 36.2557 43.3853C36.2673 43.3737 36.2702 43.3591 36.2731 43.3446C36.8111 42.8328 37.2357 42.3035 37.5644 41.8149C37.5731 41.8091 37.5818 41.8062 37.5876 41.7974C37.5993 41.7858 37.6022 41.7684 37.6051 41.7538C38.0965 41.0122 38.367 40.3753 38.4862 40.0496C38.4339 40.0205 38.3786 39.9886 38.3263 39.9595C38.2187 40.2532 37.9657 40.8668 37.4946 41.591L36.1248 40.3317C36.087 40.2968 36.0317 40.2997 35.9968 40.3375C35.9619 40.3753 35.9648 40.4306 36.0027 40.4655L37.3957 41.7422C37.0816 42.2046 36.6774 42.7048 36.1713 43.1905L34.7434 41.9487C34.7056 41.9167 34.6474 41.9196 34.6155 41.9574C34.5835 41.9952 34.5864 42.0534 34.6242 42.0854L36.0405 43.3155C35.5752 43.743 35.0284 44.156 34.3857 44.5195L33.1294 43.0945C33.0974 43.0567 33.0392 43.0538 33.0014 43.0858C32.9636 43.1178 32.9607 43.1759 32.9927 43.2137L34.2228 44.6068C33.4958 44.9994 32.6524 45.328 31.6724 45.5432L31.0355 43.7983C31.018 43.7517 30.9657 43.7285 30.9191 43.743C30.8726 43.7605 30.8493 43.8128 30.8639 43.8594L31.4921 45.5781C30.7941 45.7206 30.0263 45.802 29.1917 45.8166V43.967C29.1917 43.9175 29.151 43.8768 29.1015 43.8768C29.0521 43.8768 29.0114 43.9175 29.0114 43.967V45.8195C29.0114 45.8195 28.9968 45.8195 28.9881 45.8195C28.1709 45.8195 27.4148 45.7235 26.7168 45.5548L27.3363 43.8564C27.3537 43.8099 27.3304 43.7576 27.281 43.7401C27.2345 43.7227 27.1821 43.7459 27.1647 43.7954L26.5394 45.5083C25.6233 45.2669 24.809 44.9063 24.0936 44.473L25.2104 43.2079C25.2424 43.1701 25.2395 43.1119 25.2017 43.08C25.1638 43.048 25.1057 43.0509 25.0737 43.0887L23.9366 44.377C23.3375 43.9989 22.8082 43.5773 22.3487 43.1439L23.576 42.0795C23.6138 42.0475 23.6167 41.9894 23.5847 41.9516C23.5527 41.9138 23.4945 41.9109 23.4567 41.9429L22.2179 43.0189C21.7176 42.5303 21.3018 42.0388 20.9673 41.5851L22.1946 40.4568C22.2324 40.4219 22.2353 40.3666 22.2004 40.3288C22.1655 40.291 22.1103 40.291 22.0724 40.323L20.8597 41.4368C20.4991 40.9337 20.2403 40.4946 20.0745 40.1892L19.9175 40.2765C20.092 40.5993 20.3712 41.0704 20.7609 41.6084L20.7696 41.6142Z" fill="#1B6E93"/>
<path d="M29.5028 44.2927C35.8717 44.2927 36.7616 39.0813 36.7616 39.0784C35.3424 38.3077 34.0367 37.665 33.0886 37.3276L24.8323 37.5661L21.4937 39.4157C21.4937 39.4157 23.1368 44.2927 29.5057 44.2927H29.5028Z" fill="#DADFE5"/>
<path d="M22.2122 39.0141C22.2122 39.0141 24.1752 41.614 26.1149 42.4399L29.1075 40.1105L32.3036 42.2596L29.503 38.8047L22.2122 39.0141Z" fill="#CED4DD"/>
<path d="M33.0888 37.3242L24.8325 37.5627L22.2151 39.0139C22.7618 39.7002 24.0734 41.2183 25.5711 41.9686L28.6393 39.4036H29.5059C29.5059 39.4036 32.1611 42.0849 32.3065 42.2594C32.3065 42.2594 35.046 40.0288 36.0028 38.6707C34.8831 38.0833 33.8653 37.6005 33.0888 37.3242Z" fill="#F9F9F9"/>
<path d="M38.6027 22.7836C38.6027 22.7836 40.4029 21.7395 40.81 24.8745C41.2172 28.0096 38.1112 30.8829 37.2679 31.0573C36.4274 31.2318 34.8308 31.29 34.8308 31.29L38.6027 22.7865V22.7836Z" fill="#F6B994"/>
<path d="M39.8474 25.3315C39.8474 25.3315 38.3555 26.1807 38.0938 27.7482" stroke="#D1937D" stroke-width="0.290819" stroke-linecap="round" stroke-linejoin="round"/>
<path d="M39.728 26.5381C39.728 26.5381 38.9836 26.5526 38.2449 27.1924" stroke="#D1937D" stroke-width="0.290819" stroke-linecap="round" stroke-linejoin="round"/>
<path d="M24.8293 33.2995V37.5659C24.8293 37.5659 27.5805 39.4155 28.8048 39.4155H30.1193C30.1193 39.4155 32.158 38.5168 33.0857 37.3245V33L24.8293 33.2966V33.2995Z" fill="#F6B994"/>
<path d="M19.272 22.7836C19.272 22.7836 17.4718 21.7395 17.0647 24.8745C16.6575 28.0096 19.7635 30.8829 20.6068 31.0573C21.4473 31.2318 23.0439 31.29 23.0439 31.29L19.272 22.7865V22.7836Z" fill="#F6B994"/>
<path d="M24.8293 34.4221C24.8293 34.4221 26.5423 37.1209 28.959 37.1209C30.5817 37.1209 32.1987 35.7337 33.0886 34.8234V33L24.8323 33.2966V34.4221H24.8293Z" fill="#F38B82"/>
<path d="M19.1265 22.5658C19.1265 22.5658 21.3338 34.8296 29.0957 35.8155C29.0957 35.8155 36.308 35.8155 38.4863 22.5658V13.1753H19.1265V22.5658Z" fill="#F6B994"/>
<path d="M24.9867 18.5611C24.9867 18.5611 29.2268 19.2009 32.0419 15.9932C34.1155 13.6317 36.2792 15.6442 36.2792 15.6442V13.5532H24.1433L24.9838 18.5611H24.9867Z" fill="#F38B82"/>
<path d="M24.5823 18.5755C24.5823 18.5755 25.4082 18.5319 25.9462 19.2008C25.9462 19.2008 25.9986 18.9594 25.8473 18.7093C25.8473 18.7093 25.603 18.3487 25.0476 18.2236L24.5823 18.5755Z" fill="#2D1A22"/>
<path d="M19.2488 23.1476C19.2488 23.1476 21.6219 34.6552 29.0959 35.8156C29.0959 35.8156 36.5699 35.583 38.4864 22.5659" stroke="#D1937D" stroke-width="0.218114" stroke-linecap="round" stroke-linejoin="round"/>
<path d="M27.7464 16.1968L27.1648 17.5898C27.1648 17.5898 29.5291 18.2296 31.3584 16.1968C33.1876 14.164 34.537 14.3821 35.4938 14.9056C35.4938 14.9056 35.8428 22.2197 38.847 23.2201C38.847 23.2201 41.9384 18.8229 40.0219 14.1204C38.0996 9.4033 34.9791 8.9409 33.8449 9.94132C33.8449 9.94132 30.0672 5.39873 24.0879 7.77762C18.1087 10.1565 17.0647 18.1686 14.6829 18.2267C14.6829 18.2267 15.2936 21.6526 18.2977 21.7398L19.429 23.8744C19.429 23.8744 20.3713 22.6995 20.5748 21.2774C20.5748 21.2774 24.0879 20.0589 27.7435 16.1968H27.7464Z" fill="#5B3C48"/>
<path d="M30.9975 6.18083C30.9975 6.18083 32.8559 7.22487 33.3764 8.18457C33.3764 8.18457 33.9435 7.43135 33.1292 6.51528C32.3179 5.60211 30.9946 6.18083 30.9946 6.18083H30.9975Z" fill="#5B3C48"/>
<path d="M34.409 8.25728C34.409 8.25728 35.962 7.38774 36.311 7.38774C36.311 7.38774 36.0492 6.76248 35.2815 6.96605C34.5137 7.16962 34.3247 7.9083 34.4119 8.25728H34.409Z" fill="#5B3C48"/>
<path d="M17.9719 18.692C18.2103 19.3667 18.6902 19.6197 18.6902 19.6197C16.7912 19.5005 15.4127 18.8141 14.7292 18.4303C14.9154 19.166 15.7355 21.6671 18.2976 21.7398L19.4289 23.8744C19.4289 23.8744 20.3711 22.6995 20.5747 21.2774C20.5747 21.2774 24.0878 20.0588 27.7434 16.1968C23.0408 20.0123 17.969 18.692 17.969 18.692H17.9719Z" fill="#442A34"/>
<path d="M35.4966 14.9028C35.4966 14.9028 35.8456 22.2169 38.8497 23.2173C38.8497 23.2173 39.1434 22.8014 39.4924 22.086C37.3404 20.5447 35.4995 14.8999 35.4995 14.8999L35.4966 14.9028Z" fill="#442A34"/>
<path d="M18.4954 21.3698C18.4954 21.3698 20.1152 21.4192 21.2407 20.666" stroke="#2D1A22" stroke-width="0.218114" stroke-linecap="round" stroke-linejoin="round"/>
<path d="M31.6521 18.9243C31.6521 18.9243 33.5686 17.8657 34.9616 18.997C34.9616 18.997 34.6214 18.1274 33.3069 18.1274C31.972 18.1274 31.6521 18.9243 31.6521 18.9243Z" fill="#2D1A22"/>
<path d="M24.9867 22.385C24.9867 22.8067 24.7977 23.1469 24.565 23.1469C24.3323 23.1469 24.1433 22.8067 24.1433 22.385C24.1433 21.9633 24.3323 21.623 24.565 21.623C24.7977 21.623 24.9867 21.9633 24.9867 22.385Z" fill="#2D1A22"/>
<path d="M27.8889 27.4859C27.8889 27.4859 29.3576 27.073 29.9392 27.4132C30.4045 27.6866 29.7967 28.4718 28.9679 28.4282C28.139 28.3846 27.8889 27.4859 27.8889 27.4859Z" fill="#F38B82"/>
<path d="M33.3068 22.385C33.3068 22.8067 33.1177 23.1469 32.8851 23.1469C32.6524 23.1469 32.4634 22.8067 32.4634 22.385C32.4634 21.9633 32.6524 21.623 32.8851 21.623C33.1177 21.623 33.3068 21.9633 33.3068 22.385Z" fill="#2D1A22"/>
<path d="M28.488 23.4819C28.488 23.4819 27.9878 27.2248 27.9878 27.5738H29.0987" stroke="#D1937D" stroke-width="0.348982" stroke-linecap="round" stroke-linejoin="round"/>
<path d="M26.2078 28.9663C26.2078 28.9663 27.0482 30.1848 29.0956 30.1848C30.9394 30.1848 31.9253 28.9663 31.9253 28.9663" stroke="#D1937D" stroke-width="0.348982" stroke-linecap="round" stroke-linejoin="round"/>
<path d="M18.0271 25.3315C18.0271 25.3315 19.519 26.1807 19.7807 27.7482" stroke="#D1937D" stroke-width="0.290819" stroke-linecap="round" stroke-linejoin="round"/>
<path d="M18.1465 26.5381C18.1465 26.5381 18.891 26.5526 19.6297 27.1924" stroke="#D1937D" stroke-width="0.290819" stroke-linecap="round" stroke-linejoin="round"/>
</g>
<defs>
<linearGradient id="paint0_linear_28_4" x1="28.5" y1="0" x2="28.5" y2="57" gradientUnits="userSpaceOnUse">
<stop offset="1" stop-color="#FFF3E0"/>
</linearGradient>
</defs>
</svg>
