<svg width="1697.000488" height="1217.426758" viewBox="0 0 1697 1217.43" fill="none" xmlns="http://www.w3.org/2000/svg" xmlns:xlink="http://www.w3.org/1999/xlink">
	<desc>
			Created with Pixso.
	</desc>
	<defs>
		<clipPath id="clip41_19517">
			<rect id="Frame" rx="0.000000" width="348.787018" height="621.224060" transform="translate(546.250244 516.913574)" fill="white" fill-opacity="0"/>
		</clipPath>
	</defs>
	<path id="Vector" d="M136.35 0L136.35 702.64L145.17 702.64L145.17 8.65L1545.12 8.65L1545.03 702.21L1553.86 702.21L1553.86 0L136.35 0Z" fill="#F6A23C" fill-opacity="1.000000" fill-rule="nonzero"/>
	<path id="Vector" d="M75.09 908.48L341.35 117.68L429.85 117.51L472.27 388.44L535.65 117.51L623.05 117.51L692.37 376.56L731.49 117.51L815.49 117.51L869.45 305.12L925.54 117.51L1008.7 117.51L1067.67 453.18L1122.48 117.51L1199.01 117.51L1264.68 370.54L1316.45 117.51L1395.78 117.51L1623.77 906.79L1536.72 1057.56L1512.28 1101.43L184.71 1099.56L162.14 1059.27L75.09 908.48Z" fill="#FFF3E0" fill-opacity="1.000000" fill-rule="nonzero"/>
	<path id="Vector" d="M526.83 664.54L532.17 656.14L519.87 660.38C519.87 660.38 512.32 666.75 510.54 669.46C509.77 670.65 508.5 674.64 508.5 674.64C507.99 675.99 506.8 677.01 505.45 677.44L422.89 699.24C422.89 699.24 385.3 639.17 384.88 639.51L381.48 700.86C384.54 703.91 412.71 730.21 413.38 730.04C418.65 729.03 511.98 691.1 511.98 691.1L525.47 687.45L539.56 674.47L526.83 664.54Z" fill="#F7A491" fill-opacity="1.000000" fill-rule="nonzero"/>
	<path id="Vector" d="M448.34 995.71C448.34 995.71 442.15 1024.65 442.83 1031.01C443.76 1040.18 487.29 1019.64 477.7 1016.59C475.5 1015.91 468.54 1013.11 467.94 1012.68C464.97 1010.56 465.82 996.9 465.82 996.9L448.34 995.71Z" fill="#F7A491" fill-opacity="1.000000" fill-rule="nonzero"/>
	<path id="Vector" d="M496.79 1020.91L469.22 1012.94C469.22 1012.94 458.35 1016.33 442.74 1014.64C442.74 1014.64 439.69 1030.25 440.62 1039.84C440.62 1039.84 497.9 1040.35 511.3 1034.57C524.62 1028.72 496.79 1020.91 496.79 1020.91Z" fill="#263238" fill-opacity="1.000000" fill-rule="nonzero"/>
	<path id="Vector" d="M479.4 851.29C474.65 819.14 375.29 786.81 371.64 784.6C365.78 781.04 355.77 749.47 355.77 749.47L284.75 777.73L332.86 837.46C333.54 839.67 431.88 875.99 436.38 874.88C436.38 874.88 435.19 892.62 434.6 900.17C432.39 926.39 438.33 1005.47 438.33 1005.47L465.91 1003.01C465.82 1003.01 484.06 883.2 479.4 851.29Z" fill="#F6A23C" fill-opacity="1.000000" fill-rule="nonzero"/>
	<path id="Vector" d="M320.05 1059.52C320.05 1059.52 316.32 1090.82 317 1097.18C317.93 1106.36 361.46 1085.82 351.87 1082.77C349.66 1082.09 342.7 1079.29 342.11 1078.87C339.14 1076.75 339.99 1063.07 339.99 1063.07L320.05 1059.52Z" fill="#F7A491" fill-opacity="1.000000" fill-rule="nonzero"/>
	<path id="Vector" d="M377.66 934.11C378.77 927.91 361.8 862.49 351.27 814.05C350.94 812.43 358.57 773.32 362.22 759.57L283.22 770.26C283.22 770.26 280.68 818.2 289.84 830.08C296.29 838.4 326.5 938.01 326.5 938.01L312.5 1066.48L342.45 1068.26C342.45 1068.18 374.1 954.39 377.66 934.11Z" fill="#F54C10" fill-opacity="1.000000" fill-rule="nonzero"/>
	<path id="Vector" d="M356.37 619.74C351.36 619.06 338.12 617.11 336.17 616.77C333.71 616.34 305.96 689.06 296.89 716.64C287.81 744.21 290.1 755.41 290.1 755.41C290.1 755.41 305.29 767.46 332.78 772.13C354.33 775.78 362.73 770.43 362.73 770.43C362.73 770.43 384.11 704.67 382.84 687.03C382.07 676.25 382.75 638.58 382.75 638.58C382.75 638.58 357.55 619.91 356.37 619.74Z" fill="#FFCB83" fill-opacity="1.000000" fill-rule="nonzero"/>
	<path id="Vector" d="M303.59 623.3C303.59 623.3 292.22 660.47 287.3 686.77C279.49 728.6 264.22 775.27 263.79 782.06C263.29 788.84 265.32 792.41 300.79 795.12C308.85 795.72 326.58 798.01 331.25 797.5C332.01 797.41 333.97 782.57 333.97 781.72L337.53 617.02C337.44 616.94 310.55 620.93 303.59 623.3Z" fill="#F6A23C" fill-opacity="1.000000" fill-rule="nonzero"/>
	<path id="Vector" d="M343.38 1079.04C343.38 1079.04 332.52 1083.28 316.91 1081.57C316.91 1081.57 314.11 1091.34 315.04 1101.01C315.04 1101.01 377.75 1105.34 391.07 1099.56C404.39 1093.8 343.38 1079.04 343.38 1079.04Z" fill="#263238" fill-opacity="1.000000" fill-rule="nonzero"/>
	<path id="Vector" d="M522.93 665.73L512.07 660.72L521.4 651.64C521.4 651.64 535.74 644.01 536.5 644.52C537.52 645.19 538.11 647.74 536.93 649.27C535.31 651.39 528.44 655.55 528.44 655.55L526.32 664.54L522.93 665.73Z" fill="#F7A491" fill-opacity="1.000000" fill-rule="nonzero"/>
	<path id="Vector" d="M528.27 655.89L527.34 660.04C526.66 662.76 525.13 665.22 522.93 667L521.48 668.19L524.2 667.43C526.49 666.83 528.53 665.47 530.05 663.69L530.9 662.67L528.27 655.89Z" fill="#F57258" fill-opacity="1.000000" fill-rule="nonzero"/>
	<path id="Vector" d="M393.78 735.22C392.17 705.35 387.85 654.78 384.96 639.59L356.79 619.82C361.12 626.53 375.37 643.75 376.05 669.97C376.14 671.75 362.64 770.52 362.64 770.52L366.97 778.41C369.77 779.6 390.65 779.43 391.92 777.98C394.63 774.85 394.72 753.04 393.78 735.22Z" fill="#F6A23C" fill-opacity="1.000000" fill-rule="nonzero"/>
	<path id="Vector" d="M562.98 627.88L559.5 622.54L561.02 621.61L564.42 626.87L562.98 627.88Z" fill="#F6A23C" fill-opacity="1.000000" fill-rule="nonzero"/>
	<path id="Vector" d="M575.79 634.16L579.18 639.51L577.74 640.44L574.34 635.18L575.79 634.16Z" fill="#F6A23C" fill-opacity="1.000000" fill-rule="nonzero"/>
	<path id="Vector" d="M565.18 644.51L568.58 649.86L567.13 650.79L563.65 645.53L565.18 644.51Z" fill="#F6A23C" fill-opacity="1.000000" fill-rule="nonzero"/>
	<path id="Vector" d="M555.93 654.7L559.33 660.04L557.8 660.98L554.41 655.71L555.93 654.7Z" fill="#F6A23C" fill-opacity="1.000000" fill-rule="nonzero"/>
	<path id="Vector" d="M549.91 633.14L546.51 627.8L547.96 626.87L551.35 632.13L549.91 633.14Z" fill="#F6A23C" fill-opacity="1.000000" fill-rule="nonzero"/>
	<path id="Vector" d="M537.1 639.59L533.7 634.25L535.14 633.31L538.62 638.58L537.1 639.59Z" fill="#F6A23C" fill-opacity="1.000000" fill-rule="nonzero"/>
	<path id="Vector" d="M557.97 625.17L557.21 622.62C556.78 621.27 557.29 619.74 558.48 618.98C559.67 618.21 561.19 618.3 562.3 619.23L564.25 621.01L557.97 625.17Z" fill="#F6A23C" fill-opacity="1.000000" fill-rule="nonzero"/>
	<path id="Vector" d="M580.79 636.88L581.56 639.42C581.98 640.78 581.47 642.31 580.28 643.07C579.1 643.84 577.57 643.75 576.47 642.82L574.52 641.04L580.79 636.88Z" fill="#F6A23C" fill-opacity="1.000000" fill-rule="nonzero"/>
	<path id="Vector" d="M570.19 647.23L570.95 649.78C571.38 651.13 570.87 652.66 569.68 653.42C568.49 654.19 566.96 654.1 565.86 653.17L563.91 651.39L570.19 647.23Z" fill="#F6A23C" fill-opacity="1.000000" fill-rule="nonzero"/>
	<path id="Vector" d="M560.94 657.41L561.7 659.96C562.13 661.31 561.62 662.84 560.43 663.61C559.24 664.37 557.71 664.28 556.61 663.35L554.66 661.57L560.94 657.41Z" fill="#F6A23C" fill-opacity="1.000000" fill-rule="nonzero"/>
	<path id="Vector" d="M544.9 630.43L544.14 627.88C543.71 626.53 544.22 625 545.41 624.24C546.6 623.47 548.13 623.56 549.23 624.49L551.18 626.27L544.9 630.43Z" fill="#F6A23C" fill-opacity="1.000000" fill-rule="nonzero"/>
	<path id="Vector" d="M532.09 636.88L531.33 634.33C530.9 632.97 531.41 631.45 532.6 630.68C533.79 629.92 535.31 630.01 536.42 630.94L538.37 632.72L532.09 636.88Z" fill="#F6A23C" fill-opacity="1.000000" fill-rule="nonzero"/>
	<path id="Vector" d="M419.75 728.01C419.75 728.01 383.52 702.3 378.17 703.83C372.91 705.35 358.74 733.78 352.46 735.98C346.18 738.1 295.7 740.65 286.7 753.38C277.71 766.1 290.1 814.05 290.1 814.05C290.1 814.05 300.11 808.87 319.71 826.52C339.31 844.17 345.42 842.64 355.77 835.85C366.12 829.06 386.83 789.52 392.94 785.54C399.05 781.55 460.14 777.9 463.11 772.38C466.08 766.87 463.02 757.87 444.27 756.69C425.52 755.5 414.32 751.26 411.43 746.84C408.55 742.43 419.75 728.01 419.75 728.01Z" fill="#FF6E53" fill-opacity="1.000000" fill-rule="nonzero"/>
	<path id="Vector" d="M378.34 703.74C378.26 703.74 378.26 703.74 378.17 703.74C372.91 705.27 358.74 733.69 352.46 735.9C346.18 738.02 295.7 740.57 286.7 753.29C277.71 766.02 290.1 813.96 290.1 813.96C290.1 813.96 300.11 808.79 319.71 826.43C319.88 826.6 320.13 826.77 320.3 826.94L329.47 773.66L361.12 770.94L378.34 703.74Z" fill="#E74A60" fill-opacity="1.000000" fill-rule="nonzero"/>
	<path id="Vector" d="M525.13 652.49C525.13 652.49 532.6 647.4 530.73 639.68C530.73 639.68 583.42 614.99 584.19 616.09C584.95 617.28 587.92 622.2 590.72 621.69C593.52 621.18 596.15 623.3 593.01 625.25C589.96 627.29 556.27 649.27 552.03 661.31C552.03 661.31 543.46 655.97 533.79 663.52C524.11 671.07 403.29 752.19 403.29 752.19L392.68 735.81L525.13 652.49Z" fill="#F6A23C" fill-opacity="1.000000" fill-rule="nonzero"/>
	<path id="Vector" d="M552.03 661.48C556.27 649.44 589.96 627.37 593.01 625.42C596.07 623.39 593.44 621.27 590.72 621.86C587.92 622.37 584.95 617.45 584.19 616.26C583.42 615.07 530.73 639.85 530.73 639.85C532.6 647.57 525.13 652.66 525.13 652.66L524.88 652.83L532.6 664.79C533.11 664.45 533.53 664.11 533.79 663.86C543.46 656.14 552.03 661.48 552.03 661.48Z" fill="#F6A23C" fill-opacity="1.000000" fill-rule="nonzero"/>
	<path id="Vector" d="M524.45 667.25L519.36 659.36L524.2 656.22L529.29 664.11L524.45 667.25Z" fill="#FFCB83" fill-opacity="1.000000" fill-rule="nonzero"/>
	<path id="Vector" d="M505.62 680.24L500.19 671.84L504.85 668.87L510.2 677.18L505.62 680.24Z" fill="#FFCB83" fill-opacity="1.000000" fill-rule="nonzero"/>
	<path id="Vector" d="M488.9 691.1L483.47 682.78L488.14 679.73L493.48 688.13L488.9 691.1Z" fill="#FFCB83" fill-opacity="1.000000" fill-rule="nonzero"/>
	<path id="Vector" d="M473.97 700.86L468.28 692.12L472.95 689.15L478.55 697.89L473.97 700.86Z" fill="#FFCB83" fill-opacity="1.000000" fill-rule="nonzero"/>
	<path id="Vector" d="M461.41 709.59L455.47 700.52L459.03 698.14L464.89 707.3L461.41 709.59Z" fill="#FFCB83" fill-opacity="1.000000" fill-rule="nonzero"/>
	<path id="Vector" d="M444.36 720.71L438.33 711.38L441.89 709L447.92 718.42L444.36 720.71Z" fill="#FFCB83" fill-opacity="1.000000" fill-rule="nonzero"/>
	<path id="Vector" d="M430.1 730.04L423.99 720.71L427.13 718.67L433.16 728.09L430.1 730.04Z" fill="#FFCB83" fill-opacity="1.000000" fill-rule="nonzero"/>
	<path id="Vector" d="M423.4 735.64L416.78 725.38L418.14 724.53L424.76 734.8L423.4 735.64Z" fill="#FFCB83" fill-opacity="1.000000" fill-rule="nonzero"/>
	<path id="Vector" d="M416.02 740.48L409.4 730.21L410.84 729.28L417.46 739.55L416.02 740.48Z" fill="#FFCB83" fill-opacity="1.000000" fill-rule="nonzero"/>
	<path id="Vector" d="M409.65 744.55L402.52 733.44L403.54 732.76L410.67 743.87L409.65 744.55Z" fill="#FFCB83" fill-opacity="1.000000" fill-rule="nonzero"/>
	<path id="Vector" d="M393.28 762.2L379.36 740.65C378.6 739.55 378.94 738.02 380.04 737.26L389.29 731.23C390.39 730.47 391.92 730.81 392.68 731.91L406.6 753.46C407.36 754.57 407.02 756.09 405.92 756.86L396.67 762.88C395.57 763.73 394.04 763.39 393.28 762.2Z" fill="#F6A23C" fill-opacity="1.000000" fill-rule="nonzero"/>
	<path id="Vector" d="M392.94 759.74L381.99 742.77C381.48 742.01 381.74 740.9 382.5 740.4L390.73 735.05C391.49 734.54 392.51 734.8 393.02 735.56L403.97 752.53C404.48 753.29 404.22 754.4 403.46 754.9L395.23 760.25C394.46 760.67 393.44 760.5 392.94 759.74Z" fill="#064C91" fill-opacity="1.000000" fill-rule="nonzero"/>
	<path id="Vector" d="M367.82 781.8C367.31 782.14 366.63 782.31 365.95 782.14C365.36 781.97 364.77 781.63 364.43 781.04L350.51 759.49C349.75 758.38 350.09 756.86 351.27 756.09L360.52 750.07C361.03 749.73 361.71 749.56 362.39 749.73C362.98 749.9 363.58 750.24 363.92 750.83L377.83 772.38C378.6 773.49 378.26 775.01 377.07 775.78L367.82 781.8Z" fill="#F6A23C" fill-opacity="1.000000" fill-rule="nonzero"/>
	<path id="Vector" d="M364.09 778.49L353.14 761.52C352.63 760.76 352.89 759.66 353.65 759.15L361.88 753.8C362.64 753.29 363.66 753.55 364.17 754.31L375.12 771.28C375.63 772.05 375.37 773.15 374.61 773.66L366.38 779C365.7 779.51 364.6 779.34 364.09 778.49Z" fill="#064C91" fill-opacity="1.000000" fill-rule="nonzero"/>
	<path id="Vector" d="M338.04 764.07L347.54 758.47L364.6 784.86L355.01 790.46L338.04 764.07Z" fill="#F6A23C" fill-opacity="1.000000" fill-rule="nonzero"/>
	<path id="Vector" d="M336.17 771.7C335.92 772.64 334.98 773.23 334.05 772.98C333.12 772.72 332.52 771.79 332.78 770.86C333.03 769.92 333.97 769.33 334.9 769.58C335.83 769.75 336.34 770.77 336.17 771.7Z" fill="#FFB769" fill-opacity="1.000000" fill-rule="nonzero"/>
	<path id="Vector" d="M348.05 793.94L333.88 771.96L335.15 771.2L349.32 793.09L348.05 793.94Z" fill="#F6A23C" fill-opacity="1.000000" fill-rule="nonzero"/>
	<path id="Vector" d="M333.46 774.76L330.83 770.77L335.49 767.8L338.04 771.79L333.46 774.76Z" fill="#F6A23C" fill-opacity="1.000000" fill-rule="nonzero"/>
	<path id="Vector" d="M349.49 793.6C349.24 794.53 348.31 795.12 347.37 794.87C346.44 794.61 345.85 793.68 346.1 792.75C346.35 791.81 347.29 791.22 348.22 791.47C349.15 791.64 349.75 792.58 349.49 793.6Z" fill="#FFB769" fill-opacity="1.000000" fill-rule="nonzero"/>
	<path id="Vector" d="M346.86 796.65L344.23 792.66L348.81 789.61L351.44 793.6L346.86 796.65Z" fill="#F6A23C" fill-opacity="1.000000" fill-rule="nonzero"/>
	<path id="Vector" d="M373.76 774.51C373.76 774.51 370.03 773.74 368.75 773.4C367.31 772.98 363.07 771.45 363.07 771.45C363.07 771.45 348.56 765.34 349.07 764.41C349.58 763.39 352.04 761.44 353.06 761.52C354.07 761.61 355.94 762.71 356.96 762.8C357.98 762.88 359.42 762.12 359.59 760.93C359.76 759.74 354.92 757.54 354.92 757.54C354.92 757.54 350.94 755.75 347.97 756.01C337.61 756.94 338.21 758.55 336.85 758.64C336.43 758.64 286.03 723.77 286.53 722.24C289.42 713.41 297.73 687.37 301.81 674.72C307.32 657.58 303.59 623.47 303.59 623.47C303.59 623.47 282.63 628.39 278.81 639.76C269.56 667.43 251.66 720.97 258.11 734.12C263.37 744.89 313.01 766.87 326.41 773.57C328.79 775.78 332.69 779.43 335.58 782.06C339.99 785.96 346.01 787.83 347.37 788.76C347.54 788.93 352.46 791.73 359.42 793.6C365.44 795.21 360.44 791.05 360.44 791.05C360.44 791.05 349.83 786.05 350.34 785.28C350.77 784.69 356.37 787.74 362.98 789.69C364.68 790.2 366.38 790.63 367.91 791.05C371.98 792.15 373.76 790.03 369.69 788.25C368.24 787.57 365.87 786.64 364 786.13C362.05 785.62 360.35 784.52 358.83 783.84C355.69 782.48 353.31 781.55 353.48 781.46C353.65 781.38 353.23 780.62 355.01 781.12C357.21 781.72 361.63 783.84 364.85 784.43C366.72 784.77 370.54 785.71 370.54 785.71C370.54 785.71 376.64 786.05 376.73 785.71C377.41 783.84 373.34 782.48 370.79 782.4C369.18 781.46 365.11 780.62 365.11 780.62C365.11 780.62 357.21 777.14 357.72 776.03C357.89 775.61 362.98 777.14 368.24 777.98C373.08 778.75 378.09 778.75 378.43 777.81C379.02 775.86 373.76 774.51 373.76 774.51Z" fill="#F8A492" fill-opacity="1.000000" fill-rule="nonzero"/>
	<path id="Vector" d="M358.32 605.99L357.3 620.16C357.3 620.16 360.01 641.38 354.41 644.18C348.81 646.98 337.36 617.11 337.36 617.11L343.21 581.13L358.32 605.99Z" fill="#F7A491" fill-opacity="1.000000" fill-rule="nonzero"/>
	<path id="Vector" d="M357.64 615.84C350.09 611.93 341.69 599.63 343.3 581.3L358.32 605.99L357.64 615.84Z" fill="#F47458" fill-opacity="1.000000" fill-rule="nonzero"/>
	<path id="Vector" d="M374.27 556.61C379.28 558.22 382.75 563.14 382.84 568.74C383.01 573.41 382.84 580.2 381.82 587.67C379.87 601.5 368.58 611.08 361.8 609.98C355.01 608.88 341.01 599.63 343.55 580.03C344.66 571.63 346.1 560.6 354.33 557.2C360.69 554.57 368.41 554.83 374.27 556.61Z" fill="#F7A491" fill-opacity="1.000000" fill-rule="nonzero"/>
	<path id="Vector" d="M340.84 595.22C340.84 595.22 324.8 567.13 328.87 550.93C332.95 534.72 350.34 530.82 363.07 534.38C368.75 535.99 372.57 537.43 378.17 540.06C390.22 545.66 396.58 553.9 390.39 563.31C382.08 575.96 359.76 555.93 353.06 558.48C347.54 560.6 351.95 571.46 346.61 573.33C341.6 575.11 343.64 574.85 343.04 581.13C342.53 587.41 340.84 595.22 340.84 595.22Z" fill="#031322" fill-opacity="1.000000" fill-rule="nonzero"/>
	<path id="Vector" d="M398.62 551.27C405.15 551.94 417.03 561.7 417.03 561.7C417.03 561.7 410.76 548.3 400.49 544.31C396.59 542.78 390.39 541.08 384.28 539.47C386.06 528.95 408.21 528.95 408.21 528.95C408.21 528.95 394.8 523.27 381.74 525.64C368.67 528.02 346.35 534.8 346.35 534.8L346.35 558.39C346.35 558.39 346.78 550.76 354.33 558.31C361.88 565.86 380.55 565.27 386.23 574.34C391.92 583.42 384.71 591.06 384.71 591.06C384.71 591.06 395.4 591.91 397.01 581.13C398.54 570.36 390.56 563.31 390.56 563.31C401.68 566.54 410.33 594.45 410.33 594.45C410.33 594.45 412.96 588.18 411.86 576.04C410.59 563.99 398.62 551.27 398.62 551.27Z" fill="#031322" fill-opacity="1.000000" fill-rule="nonzero"/>
	<path id="Vector" d="M338.21 573.58C337.53 577.57 338.97 581.13 341.35 581.56C343.72 581.98 346.27 579.01 346.95 575.02C347.63 571.03 346.18 567.47 343.81 567.05C341.35 566.62 338.8 569.59 338.21 573.58Z" fill="#F7A491" fill-opacity="1.000000" fill-rule="nonzero"/>
	<path id="Vector" d="M350.17 943.53C350.17 943.53 373.76 937.25 373.76 939.71C373.76 942.25 372.32 947.26 369.94 948.02C365.95 949.38 344.32 956.42 340.67 956.42C337.02 956.42 336.77 947.77 350.17 943.53Z" fill="#F7A491" fill-opacity="1.000000" fill-rule="nonzero"/>
	<path id="Vector" d="M335.32 920.45C342.37 914.85 367.23 907.97 369.69 910.44C372.23 912.98 370.96 917.82 370.96 917.82C370.96 917.82 340.58 926.64 338.46 927.41C336.51 928.08 333.8 921.64 335.32 920.45Z" fill="#F7A491" fill-opacity="1.000000" fill-rule="nonzero"/>
	<path id="Vector" d="M327.86 887.27C327.86 887.27 357.72 876.41 360.86 879.55C364 882.69 362.56 886.17 362.56 886.17C362.56 886.17 327.94 900.68 326.5 897.28C325.06 894.06 323.02 889.65 327.86 887.27Z" fill="#F7A491" fill-opacity="1.000000" fill-rule="nonzero"/>
	<path id="Vector" d="M539.56 674.55C539.56 674.55 551.01 647.23 546.51 647.23C542.02 647.23 536.84 662.08 536.84 662.08C536.84 662.08 540.83 648.42 537.61 647.65C534.38 646.89 527.42 675.91 524.37 678.88C521.31 681.93 525.56 687.45 525.56 687.45L539.56 674.55Z" fill="#F7A491" fill-opacity="1.000000" fill-rule="nonzero"/>
	<path id="Vector" d="M492.3 532.09L492.3 588.6L507.4 584.36L497.47 654.7L497.47 597.17L479.82 600.99L492.3 532.09Z" fill="#FFCB83" fill-opacity="1.000000" fill-rule="nonzero"/>
	<path id="Vector" d="M1375.84 518.09L1375.84 572.82L1390.35 568.66L1380.76 636.79L1380.76 581.13L1363.71 584.78L1375.84 518.09Z" fill="#FFCB83" fill-opacity="1.000000" fill-rule="nonzero"/>
	<path id="Vector" d="M1284.46 599.04L1314.75 621.86L1318.57 612.02L1352.25 645.79L1321.45 622.54L1316.36 633.57L1284.46 599.04Z" fill="#FFCB83" fill-opacity="1.000000" fill-rule="nonzero"/>
	<path id="Vector" d="M328.28 63.04L440.71 63.04L440.71 117.51L328.28 117.51L328.28 63.04Z" fill="#F6A23C" fill-opacity="1.000000" fill-rule="evenodd"/>
	<path id="Vector" d="M75.21 908.51L162.27 1059.29L89.23 1101.46L2.17 950.68L75.21 908.51Z" fill="#F6A23C" fill-opacity="1.000000" fill-rule="evenodd"/>
	<path id="Vector" d="M522.42 63.04L634.84 63.04L634.84 117.51L522.42 117.51L522.42 63.04Z" fill="#F6A23C" fill-opacity="1.000000" fill-rule="evenodd"/>
	<path id="Vector" d="M716.55 63.04L828.98 63.04L828.98 117.51L716.55 117.51L716.55 63.04Z" fill="#F6A23C" fill-opacity="1.000000" fill-rule="evenodd"/>
	<path id="Vector" d="M910.69 63.04L1023.12 63.04L1023.12 117.51L910.69 117.51L910.69 63.04Z" fill="#F6A23C" fill-opacity="1.000000" fill-rule="evenodd"/>
	<path id="Vector" d="M1104.82 63.04L1217.26 63.04L1217.26 117.51L1104.82 117.51L1104.82 63.04Z" fill="#F6A23C" fill-opacity="1.000000" fill-rule="evenodd"/>
	<path id="Vector" d="M1298.97 63.04L1411.39 63.04L1411.39 117.51L1298.97 117.51L1298.97 63.04Z" fill="#F6A23C" fill-opacity="1.000000" fill-rule="evenodd"/>
	<path id="Vector" d="M336 4.24L346.69 4.24L346.69 70.84L336 70.84L336 4.24Z" fill="#F6A23C" fill-opacity="1.000000" fill-rule="evenodd"/>
	<path id="Vector" d="M419.66 4.24L429.42 4.24L429.42 70.84L419.66 70.84L419.66 4.24Z" fill="#F6A23C" fill-opacity="1.000000" fill-rule="evenodd"/>
	<path id="Vector" d="M531.92 4.24L542.61 4.24L542.61 70.84L531.92 70.84L531.92 4.24Z" fill="#F6A23C" fill-opacity="1.000000" fill-rule="evenodd"/>
	<path id="Vector" d="M615.58 4.24L625.34 4.24L625.34 70.84L615.58 70.84L615.58 4.24Z" fill="#F6A23C" fill-opacity="1.000000" fill-rule="evenodd"/>
	<path id="Vector" d="M725.46 4.24L736.15 4.24L736.15 70.84L725.46 70.84L725.46 4.24Z" fill="#F6A23C" fill-opacity="1.000000" fill-rule="evenodd"/>
	<path id="Vector" d="M809.13 4.24L818.88 4.24L818.88 70.84L809.13 70.84L809.13 4.24Z" fill="#F6A23C" fill-opacity="1.000000" fill-rule="evenodd"/>
	<path id="Vector" d="M920.19 4.24L930.88 4.24L930.88 70.84L920.19 70.84L920.19 4.24Z" fill="#F6A23C" fill-opacity="1.000000" fill-rule="evenodd"/>
	<path id="Vector" d="M1003.86 4.24L1013.62 4.24L1013.62 70.84L1003.86 70.84L1003.86 4.24Z" fill="#F6A23C" fill-opacity="1.000000" fill-rule="evenodd"/>
	<path id="Vector" d="M1114.32 4.24L1125.03 4.24L1125.03 70.84L1114.32 70.84L1114.32 4.24Z" fill="#F6A23C" fill-opacity="1.000000" fill-rule="evenodd"/>
	<path id="Vector" d="M1198 4.24L1207.75 4.24L1207.75 70.84L1198 70.84L1198 4.24Z" fill="#F6A23C" fill-opacity="1.000000" fill-rule="evenodd"/>
	<path id="Vector" d="M1308.47 4.24L1319.16 4.24L1319.16 70.84L1308.47 70.84L1308.47 4.24Z" fill="#F6A23C" fill-opacity="1.000000" fill-rule="evenodd"/>
	<path id="Vector" d="M1392.13 4.24L1401.89 4.24L1401.89 70.84L1392.13 70.84L1392.13 4.24Z" fill="#F6A23C" fill-opacity="1.000000" fill-rule="evenodd"/>
	<path id="Vector" d="M1120.43 417.29L1122.81 421.61L1116.19 426.2L1118.92 432.98L1114.59 437.31L1116.71 439.52L1122.56 433.83L1120.02 427.38L1126.81 422.55L1123.24 416.01L1120.43 417.29Z" fill="#F54C10" fill-opacity="1.000000" fill-rule="nonzero"/>
	<path id="Vector" d="M807 400.83L802.08 399.81L802.85 391.83L795.89 389.54L795.46 383.43L792.32 383.69L792.92 391.75L799.54 393.95L798.77 402.27L806.07 403.8L807 400.83Z" fill="#F54C10" fill-opacity="1.000000" fill-rule="nonzero"/>
	<path id="Vector" d="M402.01 340.41L399.05 351.27L407.87 358.74L403.71 370.7L415.51 375.71L411.35 389.46L421.7 395.4L419.92 409.23L414.66 408.55L416.02 398.2L405.07 391.92L409.06 378.68L397.09 373.59L401.68 360.44L393.02 353.14L395.82 343.04L389.12 339.48L391.66 334.81L402.01 340.41Z" fill="#F54C10" fill-opacity="1.000000" fill-rule="nonzero"/>
	<path id="Vector" d="M793.17 288.82L783.59 294.76L784.94 306.22L773.74 312.07L779 323.78L766.53 331.08L770.01 342.45L759.23 351.36L755.84 347.29L763.99 340.58L760.25 328.62L772.22 321.66L766.87 309.7L779.26 303.16L777.99 292.05L786.81 286.53L784.43 279.41L789.44 277.71L793.17 288.82Z" fill="#F54C10" fill-opacity="1.000000" fill-rule="nonzero"/>
	<path id="Vector" d="M1187.81 371.98L1184.07 382.58L1192.31 390.64L1187.31 402.27L1198.76 408.12L1193.67 421.53L1203.51 428.23L1200.71 441.89L1195.54 440.88L1197.56 430.61L1187.22 423.57L1192.06 410.67L1180.52 404.73L1186.03 391.92L1177.97 384.03L1181.44 374.18L1175.09 370.11L1177.89 365.7L1187.81 371.98Z" fill="#F54C10" fill-opacity="1.000000" fill-rule="nonzero"/>
	<path id="Vector" d="M961.43 349.75L965.42 343.04L962.11 336C961.77 335.24 962.45 334.3 963.3 334.47L970.93 336.17L976.62 330.91C977.3 330.32 978.32 330.74 978.4 331.59L979.16 339.31L985.95 343.13C986.72 343.55 986.63 344.66 985.87 345.08L978.74 348.13L977.21 355.77C977.04 356.62 975.94 356.96 975.35 356.28L970.17 350.43L962.45 351.36C961.6 351.53 960.92 350.51 961.43 349.75Z" fill="#FFCB83" fill-opacity="1.000000" fill-rule="nonzero"/>
	<path id="Vector" d="M585.55 409.91L589.53 403.2L586.22 396.16C585.88 395.4 586.56 394.46 587.41 394.63L595.05 396.33L600.73 391.07C601.41 390.47 602.43 390.9 602.52 391.75L603.28 399.47L610.07 403.29C610.83 403.71 610.75 404.81 609.98 405.24L602.85 408.29L601.33 415.93C601.16 416.78 600.05 417.12 599.46 416.44L594.28 410.58L586.56 411.52C585.71 411.6 585.12 410.67 585.55 409.91Z" fill="#FFCB83" fill-opacity="1.000000" fill-rule="nonzero"/>
	<path id="Vector" d="M488.31 513.68L492.3 506.97L488.99 499.93C488.65 499.17 489.33 498.23 490.17 498.4L497.81 500.1L503.5 494.84C504.17 494.25 505.19 494.67 505.28 495.52L506.04 503.24L512.83 507.06C513.59 507.48 513.51 508.59 512.74 509.01L505.62 512.06L504.09 519.7C503.92 520.55 502.82 520.89 502.22 520.21L497.05 514.36L489.33 515.29C488.48 515.46 487.88 514.44 488.31 513.68Z" fill="#FFCB83" fill-opacity="1.000000" fill-rule="nonzero"/>
	<path id="Vector" d="M328.28 461.41L324.72 450.21L313.52 446.81C312.24 446.39 311.99 444.78 313.01 443.93L322.51 437.06L322.26 425.35C322.26 423.99 323.78 423.23 324.8 423.99L334.22 430.95L345.25 427.13C346.52 426.7 347.71 427.89 347.29 429.17L343.64 440.28L350.68 449.61C351.44 450.72 350.68 452.24 349.41 452.16L337.7 452.08L331 461.66C330.32 462.94 328.62 462.68 328.28 461.41Z" fill="#FFCB83" fill-opacity="1.000000" fill-rule="nonzero"/>
	<path id="Vector" d="M1137.24 490.51L1141.23 483.81L1137.92 476.77C1137.57 476 1138.26 475.07 1139.11 475.24L1146.75 476.94L1152.43 471.68C1153.11 471.08 1154.13 471.51 1154.21 472.36L1154.98 480.08L1161.77 483.89C1162.53 484.32 1162.43 485.42 1161.68 485.85L1154.55 488.9L1153.03 496.54C1152.86 497.39 1151.75 497.73 1151.16 497.05L1145.98 491.19L1138.26 492.13C1137.41 492.29 1136.81 491.28 1137.24 490.51Z" fill="#FFCB83" fill-opacity="1.000000" fill-rule="nonzero"/>
	<path id="Vector" d="M1372.02 422.12L1376.01 415.42L1372.7 408.38C1372.36 407.61 1373.04 406.68 1373.89 406.85L1381.53 408.55L1387.21 403.29C1387.89 402.69 1388.91 403.12 1388.99 403.97L1389.76 411.69L1396.55 415.51C1397.31 415.93 1397.22 417.03 1396.46 417.46L1389.33 420.51L1387.81 428.15C1387.64 429 1386.53 429.34 1385.94 428.66L1380.76 422.8L1373.04 423.74C1372.19 423.91 1371.6 422.89 1372.02 422.12Z" fill="#FFCB83" fill-opacity="1.000000" fill-rule="nonzero"/>
	<path id="Vector" d="M1152.43 660.81C1152.43 662.67 1150.91 664.12 1149.12 664.12C1147.26 664.12 1145.81 662.59 1145.81 660.81C1145.81 658.94 1147.34 657.5 1149.12 657.5C1150.99 657.5 1152.43 659.02 1152.43 660.81Z" fill="#064C91" fill-opacity="1.000000" fill-rule="nonzero"/>
	<path id="Vector" d="M937.42 924.18L954.22 924.18L954.22 928.93L937.42 928.93L937.42 924.18Z" fill="#F6A23C" fill-opacity="1.000000" fill-rule="evenodd"/>
	<path id="Vector" d="M948.28 990.7L965.08 990.7L965.08 995.46L948.28 995.46L948.28 990.7Z" fill="#F6A23C" fill-opacity="1.000000" fill-rule="evenodd"/>
	<path id="Vector" d="M1313.39 691.35C1310.51 690.93 1299.48 696.78 1299.48 696.78L1300.41 709.09C1286.5 726.57 1265.37 749.39 1263.07 748.88L1224.05 712.23L1202.49 739.21C1202.49 739.21 1259 781.21 1265.62 781.21C1271.48 781.21 1297.78 750.15 1309.24 717.91C1309.24 717.91 1311.53 716.04 1313.14 713.33C1315.77 708.66 1318.31 701.96 1318.31 701.19C1318.4 699.92 1316.11 691.78 1313.39 691.35Z" fill="#F48C7F" fill-opacity="1.000000" fill-rule="nonzero"/>
	<path id="Vector" d="M1257.65 735.56L1231.93 766.44C1231.93 766.44 1204.79 747.1 1194.77 736.75C1182.64 724.1 1169.4 697.04 1171.35 696.02C1176.87 693.22 1188.75 691.01 1196.89 692.71C1225.23 698.56 1257.65 735.56 1257.65 735.56Z" fill="#E74A60" fill-opacity="1.000000" fill-rule="nonzero"/>
	<path id="Vector" d="M1154.38 692.2C1154.38 692.2 1134.27 694.83 1129.01 698.4C1123.06 702.47 1116.46 711.55 1116.46 711.55C1116.46 711.55 1141.15 819.73 1141.15 837.89C1141.15 851.97 1142.17 867.76 1142.17 867.76C1142.17 867.76 1199.61 866.4 1227.86 856.05C1227.86 856.05 1229.73 839.42 1229.73 828.64C1229.73 817.86 1219.04 719.69 1216.66 712.82C1214.46 706.63 1210.47 695.43 1196.81 692.63C1183.15 689.83 1154.38 692.2 1154.38 692.2Z" fill="#FF6E53" fill-opacity="1.000000" fill-rule="nonzero"/>
	<path id="Vector" d="M1159.9 663.1L1155.06 692.29C1155.06 692.29 1170.17 717.32 1181.03 714.18C1190.11 711.55 1187.39 691.69 1187.39 691.69C1187.39 691.69 1182.47 674.64 1183.91 666.07C1185.43 657.5 1159.9 663.1 1159.9 663.1Z" fill="#F7A491" fill-opacity="1.000000" fill-rule="nonzero"/>
	<path id="Vector" d="M1184 666.07C1185.52 657.5 1159.9 663.1 1159.9 663.1L1159.48 665.64C1160.24 667.34 1161.17 668.78 1162.28 669.89C1167.96 675.57 1176.87 678.96 1184.59 679.22C1183.82 674.55 1183.31 669.55 1184 666.07Z" fill="#F47458" fill-opacity="1.000000" fill-rule="nonzero"/>
	<path id="Vector" d="M1155.74 620.42C1154.98 620.16 1149.97 654.78 1159.56 664.37C1169.15 673.96 1187.9 677.01 1194.6 669.55C1202.06 661.23 1201.65 623.98 1186.71 614.22C1171.78 604.46 1155.74 620.42 1155.74 620.42Z" fill="#F7A491" fill-opacity="1.000000" fill-rule="nonzero"/>
	<path id="Vector" d="M1189.6 616.6C1182.3 614.9 1174.82 620.42 1174.82 620.42L1171.61 624.49C1169.56 628.48 1168.98 633.65 1168.13 637.39C1167.87 638.58 1167.54 639.59 1167.11 640.36C1164.91 644.52 1156.84 647.82 1159.39 652.83C1160.31 654.7 1160.82 657.07 1161.09 659.19C1161.51 662.76 1161 666.32 1159.73 669.8L1158.03 674.38C1158.03 674.38 1158.19 665.64 1147.68 658.09C1146.66 657.41 1145.73 656.65 1144.88 655.8C1136.4 647.91 1133 634.93 1139.53 621.52C1147.6 604.81 1159.9 599.88 1168.81 601.16C1181.96 602.85 1190.61 616.85 1189.6 616.6Z" fill="#031322" fill-opacity="1.000000" fill-rule="nonzero"/>
	<path id="Vector" d="M1123.92 706.12C1102.79 706.71 1099.15 770.52 1099.15 789.61C1099.15 808.7 1103.3 833.73 1107.55 834.66L1127.23 806.32C1127.23 806.32 1128.07 755.41 1132.31 751.34C1136.65 747.35 1130.71 705.95 1123.92 706.12Z" fill="#F7A491" fill-opacity="1.000000" fill-rule="nonzero"/>
	<path id="Vector" d="M1132.75 696.7C1132.75 696.7 1120.94 699.24 1108.81 711.89C1097.79 723.43 1090.82 787.91 1090.82 787.91L1129.01 793.6L1132.06 762.37L1142.25 748.12L1132.75 696.7Z" fill="#E74A60" fill-opacity="1.000000" fill-rule="nonzero"/>
	<path id="Vector" d="M1151.07 856.05C1151.07 856.05 1065.38 896.35 1065.04 930.46C1064.69 964.65 1144.12 1076.06 1144.12 1076.06L1116.8 1087.52L1167.79 1084.81L1111.54 948.28L1190.44 895.25L1275.8 941.07L1209.71 1082.43L1245 1083.28C1245 1083.28 1225.4 1076.15 1229.81 1070.38C1231.17 1068.6 1327.82 935.81 1330.36 912.64C1332.91 889.39 1213.1 852.91 1213.1 852.91L1151.07 856.05Z" fill="#E6A748" fill-opacity="1.000000" fill-rule="nonzero"/>
	<path id="Vector" d="M941.24 873.78L966.01 1021.76L1071.49 1021.76L1087.43 877.09L941.24 873.78Z" fill="#CA6846" fill-opacity="1.000000" fill-rule="nonzero"/>
	<path id="Vector" d="M1087.43 877.09L941.24 873.78L942.17 879.47L963.13 879.89L968.39 900.34L977.38 900.34L977.38 880.14L1037.21 881.16L1036.18 900.34L1045.35 900.34L1050.61 881.42L1086.93 882.01L1087.43 877.09Z" fill="#F6A23C" fill-opacity="1.000000" fill-rule="nonzero"/>
	<path id="Vector" d="M1063.76 1016.25L1061.13 1009.97L1055.36 1009.97L1055.36 1016.25L985.1 1016.25L985.7 1009.97L979.76 1009.97L976.87 1016.25L965.08 1016.25L966.01 1021.76L1071.49 1021.76L1072.16 1016.25L1063.76 1016.25Z" fill="#F6A23C" fill-opacity="1.000000" fill-rule="nonzero"/>
	<path id="Vector" d="M944.46 973.65C943.02 973.65 941.83 972.63 941.58 971.19L929.19 900.76C928.93 899.15 929.95 897.62 931.56 897.37C933.18 897.11 934.7 898.13 934.96 899.74L947.35 970.17C947.6 971.78 946.58 973.31 944.97 973.56C944.8 973.65 944.63 973.65 944.46 973.65Z" fill="#F6A23C" fill-opacity="1.000000" fill-rule="nonzero"/>
	<path id="Vector" d="M970.17 1101.27L946.33 978.82C946.16 977.89 945.22 977.21 944.29 977.47C943.36 977.64 942.68 978.57 942.93 979.5L966.61 1101.27L970.17 1101.27Z" fill="#F6A23C" fill-opacity="1.000000" fill-rule="nonzero"/>
	<path id="Vector" d="M1074.03 1101.27L1088.19 981.45C1088.29 980.52 1087.61 979.59 1086.67 979.5C1086.25 979.42 1085.74 979.59 1085.4 979.84C1085.06 980.1 1084.81 980.52 1084.72 981.03L1070.55 1101.27L1074.03 1101.27Z" fill="#F6A23C" fill-opacity="1.000000" fill-rule="nonzero"/>
	<path id="Vector" d="M1151.06 847.99L1190.36 847.99L1190.36 856.05L1151.06 856.05L1151.06 847.99Z" fill="#F6A23C" fill-opacity="1.000000" fill-rule="evenodd"/>
	<path id="Vector" d="M1170.76 852.91L1175.09 852.91L1175.09 920.11L1170.76 920.11L1170.76 852.91Z" fill="#F6A23C" fill-opacity="1.000000" fill-rule="evenodd"/>
	<path id="Vector" d="M1001.4 705.52L1008.44 705.52L1008.44 1056.47L1001.4 1056.47L1001.4 705.52Z" fill="#F6A23C" fill-opacity="1.000000" fill-rule="evenodd"/>
	<path id="Vector" d="M998.26 762.97L1011.24 762.97L1011.24 786.13L998.26 786.13L998.26 762.97Z" fill="#F6A23C" fill-opacity="1.000000" fill-rule="evenodd"/>
	<path id="Vector" d="M1077.17 742.69C1069.44 757.79 1030.76 753.38 990.79 732.84C950.82 712.31 924.78 683.46 932.58 668.36C940.3 653.25 978.99 657.67 1018.96 678.2C1058.93 698.73 1084.98 727.67 1077.17 742.69Z" fill="#F6A23C" fill-opacity="1.000000" fill-rule="nonzero"/>
	<path id="Vector" d="M1044.16 725.72C1039.92 733.95 1018.96 731.49 997.24 720.37C975.52 709.26 961.35 693.56 965.59 685.33C969.83 677.1 990.79 679.56 1012.52 690.67C1034.24 701.87 1048.41 717.57 1044.16 725.72Z" fill="#FFCB83" fill-opacity="1.000000" fill-rule="nonzero"/>
	<path id="Vector" d="M941.07 1101.27L1006.32 1011.07L1003.44 1008.95L936.48 1101.27L941.07 1101.27Z" fill="#F6A23C" fill-opacity="1.000000" fill-rule="nonzero"/>
	<path id="Vector" d="M1076.24 1101.27L1006.32 1008.95L1003.52 1011.07L1071.74 1101.27L1076.24 1101.27Z" fill="#F6A23C" fill-opacity="1.000000" fill-rule="nonzero"/>
	<path id="Vector" d="M1379.58 699.16C1380.59 701.11 1385.6 700.43 1390.69 697.63C1395.78 694.83 1399.09 691.1 1398.07 689.15C1397.05 687.2 1392.05 687.87 1386.96 690.67C1381.78 693.47 1378.47 697.21 1379.58 699.16Z" fill="#F6A23C" fill-opacity="1.000000" fill-rule="nonzero"/>
	<path id="Vector" d="M1385.28 694.27L1392.32 694.13L1399.43 1045L1392.39 1045.14L1385.28 694.27Z" fill="#F6A23C" fill-opacity="1.000000" fill-rule="evenodd"/>
	<path id="Vector" d="M1470.54 1101.27L1396.29 997.49L1393.49 999.78L1465.78 1101.27L1470.54 1101.27Z" fill="#F6A23C" fill-opacity="1.000000" fill-rule="nonzero"/>
	<path id="Vector" d="M1327.05 1101.27L1396.38 999.78L1393.49 997.58L1322.64 1101.27L1327.05 1101.27Z" fill="#F6A23C" fill-opacity="1.000000" fill-rule="nonzero"/>
	<path id="Vector" d="M1332.31 1062.82L1337.49 1062.66L1333.42 844.93L1328.24 845.1L1332.31 1062.82Z" fill="#F6A23C" fill-opacity="1.000000" fill-rule="nonzero"/>
	<path id="Vector" d="M1389 1101.27L1335.28 1025.41L1333.25 1027.11L1385.69 1101.27L1389 1101.27Z" fill="#F6A23C" fill-opacity="1.000000" fill-rule="nonzero"/>
	<path id="Vector" d="M1285.14 1101.27L1335.28 1027.11L1333.16 1025.5L1281.74 1101.27L1285.14 1101.27Z" fill="#F6A23C" fill-opacity="1.000000" fill-rule="nonzero"/>
	<path id="Vector" d="M1397.07 774.59L1384.09 774.85L1383.63 751.69L1396.6 751.43L1397.07 774.59Z" fill="#F6A23C" fill-opacity="1.000000" fill-rule="evenodd"/>
	<path id="Vector" d="M1160.82 800.89C1159.73 800.47 1159.22 799.28 1159.56 798.26L1186.71 726.31C1184.59 723.85 1186.37 719.95 1189.68 719.95C1191.55 719.95 1193.07 721.22 1193.5 723.09C1193.92 725.29 1192.4 727.41 1190.11 727.67L1163.55 799.79C1163.12 800.72 1161.93 801.32 1160.82 800.89Z" fill="#FFCB83" fill-opacity="1.000000" fill-rule="nonzero"/>
	<path id="Vector" d="M1335.03 712.06C1334.69 712.06 1334.44 711.97 1334.18 711.89L1264.6 679.22C1261.04 681.85 1256.54 677.18 1259.34 673.7C1261.55 670.9 1266.13 672.35 1266.22 676L1335.96 708.15C1336.47 708.41 1336.81 708.83 1337.07 709.34C1337.32 709.85 1337.24 710.44 1336.98 710.95C1336.64 711.63 1335.88 712.06 1335.03 712.06Z" fill="#FFCB83" fill-opacity="1.000000" fill-rule="nonzero"/>
	<path id="Vector" d="M1295.06 818.12L1275.89 905.85L1193.92 905.85L1181.54 820.07L1295.06 818.12Z" fill="#CA6846" fill-opacity="1.000000" fill-rule="nonzero"/>
	<path id="Vector" d="M1181.54 820.07L1295.06 818.12L1294.3 821.51L1278.09 821.77L1274.02 833.82L1266.98 833.82L1266.98 821.85L1220.56 822.45L1221.42 833.82L1214.19 833.82L1210.13 822.62L1181.96 823.04L1181.54 820.07Z" fill="#F6A23C" fill-opacity="1.000000" fill-rule="nonzero"/>
	<path id="Vector" d="M1199.94 902.63L1201.99 898.9L1206.48 898.9L1206.48 902.63L1261.04 902.63L1260.62 898.9L1265.19 898.9L1267.4 902.63L1276.56 902.63L1275.89 905.85L1193.92 905.85L1193.5 902.63L1199.94 902.63Z" fill="#F6A23C" fill-opacity="1.000000" fill-rule="nonzero"/>
	<path id="Vector" d="M1308.13 688.55C1308.13 688.55 1302.53 704.67 1305.76 704.42C1308.98 704.25 1312.63 694.24 1311.61 691.52C1310.59 688.89 1308.13 688.55 1308.13 688.55Z" fill="#F79C8D" fill-opacity="1.000000" fill-rule="nonzero"/>
	<path id="Vector" d="M1315.52 693.56C1315.52 693.56 1312.29 704.67 1310.17 705.44C1307.96 706.29 1308.39 700.69 1309.49 695.93C1310.68 691.18 1311.1 690.59 1311.1 690.59C1311.1 690.59 1315.26 691.1 1315.52 693.56Z" fill="#F79C8D" fill-opacity="1.000000" fill-rule="nonzero"/>
	<path id="Vector" d="M1308.47 690.42C1308.47 690.42 1303.13 698.31 1301.51 697.55C1299.81 696.78 1303.38 686.09 1306.68 686.77C1308.64 687.11 1308.47 690.42 1308.47 690.42Z" fill="#F79C8D" fill-opacity="1.000000" fill-rule="nonzero"/>
	<path id="Vector" d="M1167.37 783.41C1167.37 783.41 1110.52 835.85 1105.85 837.38L1108.4 803.02L1162.61 769.25C1162.61 769.25 1174.75 752.27 1177.97 752.78C1181.19 753.38 1181.88 755.41 1182.72 757.03C1183.56 758.64 1184.76 760.08 1185.18 763.05C1185.61 766.11 1182.47 775.69 1180.26 777.14C1178.06 778.58 1167.37 783.41 1167.37 783.41Z" fill="#F7A491" fill-opacity="1.000000" fill-rule="nonzero"/>
	<path id="Vector" d="M1053.67 818.12L1072.93 905.85L1154.81 905.85L1167.19 820.07L1053.67 818.12Z" fill="#CA6846" fill-opacity="1.000000" fill-rule="nonzero"/>
	<path id="Vector" d="M1167.19 820.07L1053.67 818.12L1054.43 821.51L1070.72 821.77L1074.71 833.82L1081.75 833.82L1081.75 821.85L1128.17 822.45L1127.4 833.82L1134.53 833.82L1138.6 822.62L1166.77 823.04L1167.19 820.07Z" fill="#F6A23C" fill-opacity="1.000000" fill-rule="nonzero"/>
	<path id="Vector" d="M1148.78 902.63L1146.75 898.9L1142.25 898.9L1142.25 902.63L1087.78 902.63L1088.19 898.9L1083.53 898.9L1081.41 902.63L1072.16 902.63L1072.93 905.85L1154.81 905.85L1155.31 902.63L1148.78 902.63Z" fill="#F6A23C" fill-opacity="1.000000" fill-rule="nonzero"/>
	<path id="Vector" d="M1301.34 979.5C1301.34 1049.93 1245.46 1107.04 1176.53 1107.04C1107.6 1107.04 1051.72 1049.93 1051.72 979.5C1051.72 909.07 1107.6 851.97 1176.53 851.97C1245.46 851.97 1301.34 909.07 1301.34 979.5Z" fill="#F6A23C" fill-opacity="1.000000" fill-rule="evenodd"/>
	<path id="Vector" d="M1276.56 979.5C1276.56 1035.93 1231.77 1081.67 1176.53 1081.67C1121.29 1081.67 1076.49 1035.93 1076.49 979.5C1076.49 923.08 1121.29 877.34 1176.53 877.34C1231.77 877.26 1276.56 923.08 1276.56 979.5Z" fill="#CA6846" fill-opacity="1.000000" fill-rule="nonzero"/>
	<path id="Vector" d="M1189.6 616.6C1182.13 620.93 1168.72 636.88 1168.05 637.39L1148.02 659.53C1139.54 651.64 1128.93 643.07 1138.93 620.93C1146.57 604.04 1159.9 599.88 1168.81 601.16C1181.96 602.85 1190.53 616.09 1189.6 616.6Z" fill="#F54C10" fill-opacity="1.000000" fill-rule="nonzero"/>
	<path id="Vector" d="M1166.52 646.55C1166.6 650.79 1164.48 654.27 1161.85 654.27C1159.22 654.27 1157.01 650.96 1156.93 646.72C1156.84 642.48 1158.97 639 1161.6 639C1164.23 638.92 1166.43 642.31 1166.52 646.55Z" fill="#F7A491" fill-opacity="1.000000" fill-rule="nonzero"/>
	<path id="Vector" d="M1146.92 661.32C1146.92 661.32 1140.81 664.88 1140.55 669.63C1140.21 674.38 1141.23 683.63 1141.23 683.63C1141.23 683.63 1149.12 675.4 1150.23 671.16C1151.24 666.83 1146.92 661.32 1146.92 661.32Z" fill="#F54C10" fill-opacity="1.000000" fill-rule="nonzero"/>
	<path id="Vector" d="M1146.92 659.28C1146.92 659.28 1141.06 653.68 1136.06 653.68C1131.05 653.68 1123.24 659.62 1123.24 659.62L1146.92 659.28Z" fill="#F54C10" fill-opacity="1.000000" fill-rule="nonzero"/>
	<path id="Vector" d="M1345.47 843.66C1341.48 843.66 1338.08 841.28 1336.56 837.8C1335.45 835.34 1332.99 833.9 1330.36 833.9C1327.73 833.9 1325.19 835.43 1324.17 837.8C1322.64 841.2 1319.25 843.66 1315.26 843.66L1266.22 843.66L1266.22 848.16L1399.86 848.16L1399.86 843.66L1345.47 843.66Z" fill="#B75742" fill-opacity="1.000000" fill-rule="nonzero"/>
	<path id="Vector" d="M1299.48 696.78C1299.48 696.78 1307.11 690.67 1310 691.69C1312.88 692.71 1303.55 702.04 1303.55 702.04L1300.41 709C1300.41 709 1297.94 699.67 1299.48 696.78Z" fill="#F7A491" fill-opacity="1.000000" fill-rule="nonzero"/>
	<path id="Vector" d="M1317.3 732.76C1325.36 747.69 1363.88 742.52 1403.42 721.13C1442.96 699.84 1468.41 670.39 1460.35 655.46C1452.29 640.53 1413.77 645.7 1374.23 667.09C1334.69 688.47 1309.24 717.91 1317.3 732.76Z" fill="#F6A23C" fill-opacity="1.000000" fill-rule="nonzero"/>
	<path id="Vector" d="M1696.88 948.93L1609.83 1099.71L1536.79 1057.54L1623.84 906.76L1696.88 948.93Z" fill="#F6A23C" fill-opacity="1.000000" fill-rule="evenodd"/>
	<path id="Vector" d="M45.9 1010.14L0 1089.73L0 1101.43L5.09 1104.31L56 1015.99L45.9 1010.14Z" fill="#F6A23C" fill-opacity="1.000000" fill-rule="nonzero"/>
	<path id="Vector" d="M1697 1084.72L1652.96 1008.44L1642.87 1014.3L1693.86 1102.63L1697 1100.84L1697 1084.72Z" fill="#F6A23C" fill-opacity="1.000000" fill-rule="nonzero"/>
	<rect id="Frame" rx="0.000000" width="348.787018" height="621.224060" transform="translate(546.250244 516.913574)" fill="#FFFFFF" fill-opacity="0"/>
	<g clip-path="url(#clip41_19517)">
		<path id="Vector" d="M837.28 1110.24C837.28 1126.43 775.34 1139.54 698.95 1139.54C622.55 1139.54 560.61 1126.43 560.61 1110.24C560.61 1094.06 622.55 1080.93 698.95 1080.93C775.34 1080.93 837.28 1094.06 837.28 1110.24Z" fill="#ECEDEB" fill-opacity="1.000000" fill-rule="evenodd"/>
		<path id="XMLID_20_" d="M743.46 561.42C743.46 561.42 756.42 554.1 751.07 536.91C745.71 519.73 733.88 510.15 706.27 518.88C678.66 527.61 670.77 539.73 671.9 549.03C673.03 558.6 678.1 563.39 673.59 568.75C669.08 574.1 645.13 589.88 645.13 612.42C645.13 634.95 665.42 632.14 653.87 645.94C642.32 659.75 604 666.23 594.14 691.02C584.28 715.81 606.82 718.63 620.9 734.97C634.99 751.03 626.82 774.13 645.13 788.5C663.45 802.87 693.59 804 706.83 792.73C719.79 781.46 740.92 758.64 733.32 742.01C725.71 725.39 700.92 705.11 713.03 683.98C724.86 662.85 772.76 653.83 775.01 634.95C776.99 616.36 750.78 604.25 748.25 588.19C745.43 571.85 743.46 561.42 743.46 561.42Z" fill="#F4AD57" fill-opacity="1.000000" fill-rule="nonzero"/>
		<path id="XMLID_19_" d="M628.23 741.45C628.23 741.45 618.37 760.33 603.15 783.99C587.94 807.66 579.49 823.43 579.49 823.43C579.49 823.43 563.71 817.52 559.49 816.39C555.26 815.26 551.32 822.31 549.63 826.53C547.94 830.76 540.89 831.89 547.09 835.27C553.29 838.65 565.97 839.77 567.94 840.9C569.63 842.03 576.39 844 580.62 842.31C584.84 840.62 600.06 821.46 616.4 804.56C633.02 787.65 647.67 761.17 647.67 761.17L628.23 741.45Z" fill="#F6BA99" fill-opacity="1.000000" fill-rule="nonzero"/>
		<path id="XMLID_18_" d="M752.47 1096.16C752.47 1096.16 769.38 1108.84 768.25 1113.34C767.13 1117.85 762.9 1120.67 748.81 1115.88C734.73 1111.09 718.95 1102.92 723.46 1099.81C728.25 1096.43 752.47 1096.16 752.47 1096.16Z" fill="#DA5955" fill-opacity="1.000000" fill-rule="nonzero"/>
		<path id="XMLID_17_" d="M636.12 1097.29C636.12 1097.29 625.7 1110.25 622.03 1121.8C618.37 1133.35 638.94 1124.61 646.54 1117.29C654.15 1109.96 659.79 1099.81 659.79 1097.85C660.07 1096.16 644.29 1092.21 636.12 1097.29Z" fill="#DA5955" fill-opacity="1.000000" fill-rule="nonzero"/>
		<path id="XMLID_16_" d="M681.48 824.28C681.48 824.28 679.79 873.87 684.58 896.97C689.37 920.07 689.09 965.99 689.09 965.99C689.09 965.99 657.53 1044.31 650.49 1062.35C643.44 1080.38 640.06 1079.81 637.81 1084.61C635.84 1089.11 635.84 1092.78 634.99 1094.47C634.43 1096.16 631.89 1096.43 634.43 1097.85C636.96 1099.26 648.23 1104.61 655.28 1103.76C662.32 1103.19 666.26 1103.19 667.67 1099.81C669.08 1096.72 669.08 1093.06 670.49 1088.82C671.9 1084.61 691.9 1046.85 698.95 1027.69C705.99 1008.26 727.12 975.29 731.35 962.61C735.57 949.93 742.9 865.41 742.9 858.37C742.9 851.33 745.71 840.34 745.71 840.34L749.09 841.47C749.09 841.47 747.97 930.49 744.3 948.52C740.36 966.56 728.53 1014.17 720.64 1045.16C713.03 1076.15 717.26 1095.03 717.26 1097.85C717.26 1100.67 721.2 1099.81 729.65 1101.23C738.11 1102.64 752.76 1096.72 752.76 1095.59C752.76 1094.47 753.04 1070.52 753.32 1061.79C753.6 1053.05 764.31 1005.16 772.76 976.98C781.21 948.81 787.41 921.48 799.52 885.42C811.36 849.64 807.13 803.43 807.13 803.43C807.13 803.43 755.86 807.38 731.63 808.22C707.12 810.19 689.09 810.47 681.48 824.28Z" fill="#F6A23C" fill-opacity="1.000000" fill-rule="nonzero"/>
		<path id="XMLID_15_" d="M693.31 641.72C693.31 641.72 656.12 654.39 655 661.44C654.15 668.48 654.71 690.17 654.71 691.3C654.71 692.43 625.98 739.2 628.23 743.99C630.77 748.78 645.42 762.58 646.54 762.58C647.67 762.58 677.53 725.95 677.53 725.95C677.53 725.95 695.85 753 696.41 759.76C696.97 766.52 682.61 805.4 679.79 815.26C676.97 825.12 675.84 829.91 675.84 829.91C675.84 829.91 685.42 835.27 699.51 842.31C713.6 849.35 738.67 856.96 738.67 856.96L748.81 827.38L757.26 857.24C757.26 857.24 782.9 845.69 792.76 838.65C802.62 831.6 820.09 809.91 820.09 809.91C820.09 809.91 797.55 745.68 796.43 738.07C795.3 730.46 792.48 688.48 793.89 678.34C795.3 668.2 799.81 658.06 799.81 658.06C799.81 658.06 844.6 660.03 853.34 661.44C862.07 662.85 864.61 662 864.61 662L857.84 629.04C857.84 629.04 838.12 627.35 820.65 621.71C803.19 616.08 789.1 612.98 782.62 611.29C776.42 609.6 770.79 612.42 758.11 618.33C745.43 624.25 733.6 629.88 731.06 630.73C728.53 631.01 693.31 641.72 693.31 641.72Z" fill="#F54C10" fill-opacity="1.000000" fill-rule="nonzero"/>
		<path id="XMLID_14_" d="M715 615.8C715 615.8 706.83 622.56 702.04 623.97C696.97 625.37 692.47 622.56 689.65 628.47C686.83 634.39 685.14 659.75 685.14 659.75C685.14 659.75 692.47 649.89 695.56 652.98C698.66 656.08 709.93 665.38 717.82 668.48C725.43 671.58 737.54 675.52 737.54 675.52C737.54 675.52 743.46 656.65 745.15 651.86C746.84 647.35 748.25 642 748.25 642C748.25 642 755.29 652.98 755.29 651.86C755.29 650.73 757.26 635.8 752.76 626.78C748.25 617.77 744.02 614.39 737.54 612.98C731.34 612.13 715 615.8 715 615.8Z" fill="#CC4414" fill-opacity="1.000000" fill-rule="nonzero"/>
		<path id="XMLID_13_" d="M704.58 595.51C704.58 595.51 713.03 613.82 713.31 620.59C713.6 627.35 705.71 634.39 704.3 645.66C702.89 656.93 714.72 666.79 721.77 671.02C728.81 675.24 737.83 679.19 737.83 679.19C737.83 679.19 743.18 654.11 743.18 642.28C743.18 630.45 736.98 620.02 736.98 616.36C736.98 612.42 738.11 608.19 738.11 608.19C738.11 608.19 708.24 589.88 704.58 595.51Z" fill="#F2957E" fill-opacity="1.000000" fill-rule="nonzero"/>
		<path id="XMLID_12_" d="M731.34 541.42C731.34 541.42 734.44 547.34 729.37 552.41C724.02 557.2 718.95 556.91 709.09 563.39C699.23 569.87 700.07 583.12 700.07 583.12C700.07 583.12 694.72 580.3 694.44 586.21C694.16 592.13 693.87 595.23 698.95 597.2C704.3 598.89 706.55 598.61 706.55 598.61C706.55 598.61 706.27 601.99 716.98 607.06C727.96 611.85 743.46 615.52 747.12 607.34C751.07 599.17 753.04 585.65 750.22 575.23C747.4 565.08 742.05 552.41 739.8 548.46C737.82 544.8 731.34 541.42 731.34 541.42Z" fill="#F6BA99" fill-opacity="1.000000" fill-rule="nonzero"/>
		<path id="XMLID_11_" d="M746.84 581.14C746.84 581.14 738.11 581.71 731.34 582.55C724.58 583.12 720.36 581.99 720.36 581.99C720.36 581.99 727.68 592.98 733.03 594.95C738.39 596.92 746.84 581.14 746.84 581.14Z" fill="#FFFFFF" fill-opacity="1.000000" fill-rule="nonzero"/>
		<path id="XMLID_10_" d="M864.61 662L857.84 629.04C857.84 629.04 847.7 628.19 835.87 625.66C833.33 627.91 830.8 632.42 830.23 641.44C829.67 649.04 830.52 655.24 831.36 659.75C840.94 660.31 849.96 660.88 853.34 661.44C862.35 662.85 864.61 662 864.61 662Z" fill="#CC4414" fill-opacity="1.000000" fill-rule="nonzero"/>
		<path id="XMLID_9_" d="M647.95 742.58C643.73 738.07 638.94 731.03 635.56 725.39C630.77 734.41 627.39 742.01 628.23 743.99C630.77 748.78 645.42 762.58 646.54 762.58C646.82 762.58 651.9 756.95 657.53 750.18C654.43 748.21 651.05 745.68 647.95 742.58Z" fill="#CC4414" fill-opacity="1.000000" fill-rule="nonzero"/>
		<path id="XMLID_8_" d="M547.09 830.48C547.09 830.48 548.78 828.79 556.95 830.48C565.12 832.17 568.78 833.58 568.78 833.58" stroke="#393762" stroke-opacity="1.000000" stroke-width="1.408671"/>
		<path id="XMLID_7_" d="M789.67 576.07L836.15 546.77L833.05 540.29L782.06 560.86L789.67 576.07Z" fill="#393762" fill-opacity="1.000000" fill-rule="nonzero"/>
		<path id="XMLID_6_" d="M773.61 561.42C767.69 564.24 765.15 571.56 768.25 577.48C771.07 583.4 778.4 585.93 784.31 582.83C790.23 580.02 792.76 572.69 789.67 566.78C786.57 561.14 779.52 558.61 773.61 561.42Z" fill="#393762" fill-opacity="1.000000" fill-rule="nonzero"/>
		<path id="XMLID_4_" d="M864.61 662C864.61 662 876.16 661.44 885.74 657.21C895.32 652.99 898.98 648.48 893.91 638.34C888.84 628.19 849.96 567.9 841.79 560.58C833.62 553.25 823.76 551 819.53 551.84C815.3 552.41 805.16 559.45 801.22 560.3C797.27 560.86 785.44 558.89 786 562.27C786.57 565.65 797.27 566.49 797.27 566.49C797.27 566.49 803.19 573.54 807.7 574.1C812.2 574.66 830.24 566.49 830.24 566.49C830.24 566.49 849.11 610.73 851.65 616.92C854.46 622.56 860.38 656.65 864.61 662Z" fill="#F6BA99" fill-opacity="1.000000" fill-rule="nonzero"/>
		<path id="XMLID_2_" d="M788.82 558.89C788.82 558.89 788.54 544.8 790.51 543.67C792.48 542.55 795.02 544.8 795.02 544.8C795.02 544.8 798.12 542.27 802.62 541.98C807.13 541.7 821.22 543.39 817.28 545.93C813.33 548.46 798.4 554.66 797.27 554.94C796.15 555.22 795.58 559.73 792.76 559.73C790.23 560.01 788.82 558.89 788.82 558.89Z" fill="#F6BA99" fill-opacity="1.000000" fill-rule="nonzero"/>
		<path id="KuKu’Ku" d="M707.74 709.52Q707.47 709.62 707.27 709.95L702.21 718.11L701.21 711.51Q701.15 711.13 700.93 710.93Q700.58 710.61 699.85 710.73Q699.13 710.83 698.9 711.23Q698.75 711.49 698.81 711.88L700.99 726.2Q701.05 726.59 701.27 726.79Q701.61 727.1 702.32 726.99Q703.06 726.88 703.3 726.47Q703.45 726.21 703.39 725.83L702.77 721.77L707.1 714.77L709.32 711.2Q709.44 711.05 709.48 710.87Q709.52 710.71 709.49 710.54Q709.46 710.31 709.27 710.12Q709.09 709.92 708.83 709.73Q708.33 709.41 707.9 709.48Q707.82 709.49 707.74 709.52ZM733.13 705.65Q732.85 705.75 732.66 706.08L727.6 714.24L726.59 707.64Q726.54 707.26 726.32 707.06Q725.97 706.74 725.23 706.86Q724.52 706.96 724.29 707.36Q724.13 707.62 724.19 708.01L726.38 722.33Q726.44 722.72 726.66 722.92Q727 723.23 727.71 723.12Q728.45 723 728.69 722.6Q728.84 722.34 728.78 721.96L728.16 717.9L732.48 710.9L734.71 707.33Q734.83 707.18 734.87 707Q734.9 706.84 734.88 706.67Q734.84 706.44 734.66 706.25Q734.47 706.05 734.22 705.86Q733.72 705.54 733.29 705.61Q733.21 705.62 733.13 705.65ZM762.05 701.24Q761.78 701.35 761.58 701.67L756.52 709.84L755.52 703.23Q755.46 702.85 755.24 702.65Q754.89 702.33 754.16 702.45Q753.44 702.56 753.21 702.95Q753.06 703.21 753.12 703.6L755.3 717.92Q755.36 718.31 755.58 718.51Q755.92 718.82 756.63 718.71Q757.37 718.6 757.61 718.19Q757.76 717.93 757.7 717.55L757.08 713.49L761.41 706.49L763.63 702.92Q763.75 702.77 763.79 702.59Q763.83 702.43 763.8 702.26Q763.77 702.04 763.58 701.84Q763.4 701.64 763.14 701.45Q762.64 701.13 762.21 701.2Q762.13 701.21 762.05 701.24ZM751.02 707.32Q751.32 705.94 751.43 704.85L751.25 704.65L749.35 704.93Q749.35 705.66 749.32 706.54Q749.3 707.43 749.24 708.33Q749.18 709.24 749.09 710.04L750.4 709.84Q750.73 708.7 751.02 707.32ZM723.26 721.85Q723.45 721.18 723.33 720.38L722.09 712.27Q722.03 711.86 721.79 711.65Q721.47 711.38 720.84 711.48Q720.2 711.57 719.97 711.93Q719.81 712.2 719.87 712.61L721.08 720.55Q721.09 720.64 721.1 720.73Q721.12 721.17 720.91 721.61L720.93 721.59Q720.9 721.68 720.85 721.75Q720.6 722.13 719.93 722.23L717.41 722.62Q716.71 722.73 716.36 722.43Q716.3 722.37 716.24 722.3Q716.17 722.22 716.11 722.14Q715.88 721.8 715.81 721.35L714.6 713.42Q714.53 713 714.29 712.79Q713.97 712.52 713.34 712.62Q712.71 712.71 712.49 713.07Q712.32 713.34 712.38 713.75L713.61 721.86Q713.74 722.66 714.11 723.25Q714.4 723.68 714.79 723.96Q714.93 724.05 715.08 724.13L715.06 724.13Q715.27 724.24 715.48 724.32Q715.84 724.45 716.22 724.53Q716.83 724.65 717.33 724.57L720.59 724.08Q721.11 724 721.64 723.7Q721.84 723.59 722.03 723.46Q722.35 723.24 722.63 722.98L722.61 722.98Q722.74 722.86 722.84 722.71Q723.13 722.34 723.26 721.85ZM748.65 717.98Q748.84 717.31 748.72 716.51L747.48 708.4Q747.42 707.99 747.17 707.78Q746.85 707.51 746.22 707.61Q745.59 707.7 745.36 708.06Q745.19 708.33 745.26 708.74L746.47 716.68Q746.48 716.77 746.48 716.86Q746.5 717.3 746.3 717.74L746.32 717.72Q746.29 717.81 746.24 717.88Q745.99 718.26 745.32 718.36L742.8 718.75Q742.1 718.86 741.75 718.56Q741.68 718.5 741.63 718.43Q741.56 718.35 741.5 718.27Q741.26 717.93 741.2 717.48L739.99 709.55Q739.92 709.13 739.68 708.92Q739.36 708.65 738.73 708.75Q738.1 708.84 737.87 709.2Q737.7 709.47 737.77 709.88L739 717.99Q739.12 718.79 739.5 719.38Q739.78 719.81 740.18 720.09Q740.31 720.18 740.46 720.26L740.44 720.26Q740.65 720.36 740.87 720.45Q741.23 720.58 741.61 720.66Q742.22 720.78 742.72 720.7L745.98 720.21Q746.5 720.13 747.03 719.83Q747.23 719.72 747.42 719.59Q747.73 719.37 748.02 719.11L748 719.11Q748.13 718.99 748.23 718.84Q748.51 718.47 748.65 717.98ZM777.57 713.57Q777.76 712.9 777.64 712.1L776.4 703.99Q776.34 703.58 776.1 703.37Q775.78 703.1 775.15 703.2Q774.51 703.29 774.29 703.65Q774.12 703.92 774.18 704.33L775.39 712.27Q775.4 712.36 775.41 712.45Q775.43 712.89 775.22 713.33L775.24 713.31Q775.21 713.4 775.16 713.48Q774.91 713.85 774.24 713.96L771.72 714.34Q771.02 714.45 770.67 714.15Q770.61 714.09 770.56 714.02Q770.48 713.94 770.42 713.86Q770.19 713.53 770.12 713.08L768.91 705.14Q768.84 704.72 768.6 704.51Q768.28 704.24 767.65 704.34Q767.02 704.44 766.8 704.79Q766.63 705.06 766.69 705.48L767.92 713.58Q768.05 714.39 768.42 714.97Q768.71 715.4 769.1 715.68Q769.24 715.77 769.39 715.85L769.37 715.85Q769.58 715.96 769.79 716.04Q770.15 716.17 770.53 716.25Q771.14 716.37 771.64 716.29L774.9 715.8Q775.42 715.72 775.95 715.42Q776.15 715.31 776.34 715.18Q776.66 714.97 776.94 714.7L776.92 714.7Q777.05 714.58 777.15 714.44Q777.44 714.06 777.57 713.57ZM705.81 719.91Q705.84 719.95 705.87 719.98L710.56 724.99Q710.75 725.14 710.93 725.24Q711.12 725.33 711.29 725.31Q711.45 725.28 711.64 725.17Q711.83 725.06 712.03 724.89L712.01 724.89Q712.37 724.52 712.4 724.11Q712.41 724 712.39 723.88Q712.38 723.78 712.34 723.68Q712.27 723.48 712.12 723.3L712.14 723.32L707.37 718.22Q707.12 717.9 706.83 717.87Q706.75 717.86 706.66 717.87Q706.26 717.93 705.9 718.28L705.92 718.28Q705.68 718.51 705.59 718.78Q705.52 719.03 705.56 719.32Q705.61 719.67 705.81 719.91ZM731.2 716.04Q731.22 716.08 731.26 716.11L735.94 721.12Q736.13 721.27 736.32 721.37Q736.51 721.46 736.67 721.44Q736.84 721.41 737.03 721.3Q737.22 721.19 737.42 721.02L737.4 721.02Q737.76 720.65 737.79 720.24Q737.8 720.13 737.78 720.01Q737.76 719.91 737.73 719.81Q737.66 719.61 737.5 719.43L737.53 719.45L732.76 714.35Q732.51 714.03 732.22 714Q732.14 713.99 732.05 714Q731.64 714.06 731.28 714.41L731.3 714.41Q731.07 714.63 730.98 714.91Q730.9 715.16 730.95 715.45Q731 715.8 731.2 716.04ZM760.12 711.63Q760.15 711.67 760.18 711.7L764.87 716.71Q765.06 716.86 765.24 716.96Q765.43 717.05 765.6 717.03Q765.76 717 765.95 716.9Q766.14 716.78 766.34 716.61L766.32 716.61Q766.68 716.24 766.71 715.84Q766.72 715.72 766.7 715.6Q766.69 715.5 766.65 715.4Q766.58 715.2 766.43 715.02L766.45 715.04L761.69 709.94Q761.43 709.62 761.14 709.59Q761.06 709.58 760.97 709.59Q760.57 709.65 760.21 710L760.23 710Q759.99 710.23 759.91 710.5Q759.83 710.75 759.87 711.04Q759.92 711.39 760.12 711.63Z" fill="#FFFFFF" fill-opacity="1.000000" fill-rule="evenodd"/>
	</g>
	<path id="Vector" d="M0 1101.43L1697 1101.43L1697 1217.43L0 1217.43L0 1101.43Z" fill="#F6A23C" fill-opacity="1.000000" fill-rule="evenodd"/>
	<path id="Vector" d="M939.6 553.41L939.6 425.29C939.6 424.73 940.05 424.25 940.64 424.25C941.2 424.25 941.69 424.7 941.69 425.29L941.69 553.41L939.6 553.41Z" fill="#F54C10" fill-opacity="1.000000" fill-rule="nonzero"/>
	<path id="Vector" d="M948.05 544.33L948.05 434.34C948.05 433.78 948.51 433.29 949.1 433.29C949.65 433.29 950.14 433.75 950.14 434.34L950.14 544.33L948.05 544.33Z" fill="#F54C10" fill-opacity="1.000000" fill-rule="nonzero"/>
	<path id="Vector" d="M957.55 526.69C957 526.69 956.51 526.23 956.51 525.64L956.51 453.02C956.51 452.47 956.96 451.98 957.55 451.98C958.11 451.98 958.6 452.43 958.6 453.02L958.6 525.64C958.6 526.2 958.11 526.69 957.55 526.69Z" fill="#F54C10" fill-opacity="1.000000" fill-rule="nonzero"/>
	<path id="Vector" d="M966.01 509.6C965.45 509.6 964.96 509.15 964.96 508.56L964.96 470.11C964.96 469.55 965.42 469.06 966.01 469.06C966.56 469.06 967.05 469.52 967.05 470.11L967.05 508.56C967.05 509.11 966.56 509.6 966.01 509.6Z" fill="#F54C10" fill-opacity="1.000000" fill-rule="nonzero"/>
	<path id="Vector" d="M974.46 500.52C973.91 500.52 973.42 500.07 973.42 499.47L973.42 479.19C973.42 478.63 973.87 478.14 974.46 478.14C975.06 478.14 975.51 478.6 975.51 479.19L975.51 499.47C975.51 500.03 975.06 500.52 974.46 500.52Z" fill="#F54C10" fill-opacity="1.000000" fill-rule="nonzero"/>
	<path id="Vector" d="M931.14 544.33L931.14 434.34C931.14 433.78 931.59 433.29 932.19 433.29C932.74 433.29 933.23 433.75 933.23 434.34L933.23 544.33L931.14 544.33Z" fill="#F54C10" fill-opacity="1.000000" fill-rule="nonzero"/>
	<path id="Vector" d="M922.69 538.97L922.69 439.66C922.69 439.1 923.14 438.62 923.73 438.62C924.29 438.62 924.78 439.07 924.78 439.66L924.78 538.97L922.69 538.97Z" fill="#F54C10" fill-opacity="1.000000" fill-rule="nonzero"/>
	<path id="Vector" d="M915.24 520.25C914.68 520.25 914.2 519.8 914.2 519.2L914.2 459.42C914.2 458.87 914.65 458.38 915.24 458.38C915.8 458.38 916.28 458.83 916.28 459.42L916.28 519.24C916.28 519.8 915.83 520.25 915.24 520.25Z" fill="#F54C10" fill-opacity="1.000000" fill-rule="nonzero"/>
	<path id="Vector" d="M906.79 509.04C906.23 509.04 905.74 508.59 905.74 508L905.74 470.63C905.74 470.07 906.19 469.58 906.79 469.58C907.38 469.58 907.83 470.04 907.83 470.63L907.83 508C907.83 508.59 907.34 509.04 906.79 509.04Z" fill="#F54C10" fill-opacity="1.000000" fill-rule="nonzero"/>
	<path id="Vector" d="M898.33 499.44C897.77 499.44 897.29 498.99 897.29 498.4L897.29 480.27C897.29 479.71 897.74 479.22 898.33 479.22C898.89 479.22 899.37 479.68 899.37 480.27L899.37 498.43C899.37 498.99 898.89 499.44 898.33 499.44Z" fill="#F54C10" fill-opacity="1.000000" fill-rule="nonzero"/>
	<path id="Vector" d="M889.87 494.99C889.32 494.99 888.83 494.53 888.83 493.94L888.83 484.72C888.83 484.16 889.28 483.68 889.87 483.68C890.43 483.68 890.92 484.13 890.92 484.72L890.92 493.94C890.88 494.5 890.43 494.99 889.87 494.99Z" fill="#F54C10" fill-opacity="1.000000" fill-rule="nonzero"/>
	<path id="Vector" d="M881.42 510.51C880.86 510.51 880.38 510.05 880.38 509.46L880.38 469.2C880.38 468.65 880.83 468.16 881.42 468.16C881.98 468.16 882.46 468.61 882.46 469.2L882.46 509.46C882.43 510.02 881.98 510.51 881.42 510.51Z" fill="#F54C10" fill-opacity="1.000000" fill-rule="nonzero"/>
	<path id="Vector" d="M872.93 516.8C872.37 516.8 871.88 516.35 871.88 515.76L871.88 462.9C871.88 462.35 872.34 461.86 872.93 461.86C873.49 461.86 873.97 462.31 873.97 462.9L873.97 515.76C873.97 516.32 873.52 516.8 872.93 516.8Z" fill="#F54C10" fill-opacity="1.000000" fill-rule="nonzero"/>
	<path id="Vector" d="M864.47 530.2C863.92 530.2 863.43 529.75 863.43 529.15L863.43 449.47C863.43 448.92 863.88 448.43 864.47 448.43C865.03 448.43 865.52 448.88 865.52 449.47L865.52 529.15C865.52 529.75 865.07 530.2 864.47 530.2Z" fill="#F54C10" fill-opacity="1.000000" fill-rule="nonzero"/>
	<path id="Vector" d="M856.02 531.03C855.46 531.03 854.97 530.58 854.97 529.99L854.97 448.64C854.97 448.08 855.43 447.59 856.02 447.59C856.57 447.59 857.06 448.05 857.06 448.64L857.06 530.03C857.06 530.58 856.61 531.03 856.02 531.03Z" fill="#F54C10" fill-opacity="1.000000" fill-rule="nonzero"/>
	<path id="Vector" d="M847.56 509.25C847.01 509.25 846.52 508.8 846.52 508.21L846.52 470.45C846.52 469.9 846.97 469.41 847.56 469.41C848.12 469.41 848.61 469.86 848.61 470.45L848.61 508.21C848.61 508.77 848.12 509.25 847.56 509.25Z" fill="#F54C10" fill-opacity="1.000000" fill-rule="nonzero"/>
	<path id="Vector" d="M839.11 504.62C838.55 504.62 838.06 504.17 838.06 503.58L838.06 475.05C838.06 474.49 838.52 474 839.11 474C839.66 474 840.15 474.46 840.15 475.05L840.15 503.58C840.15 504.17 839.66 504.62 839.11 504.62Z" fill="#F54C10" fill-opacity="1.000000" fill-rule="nonzero"/>
	<path id="Vector" d="M830.65 496.24C830.09 496.24 829.61 495.79 829.61 495.19L829.61 483.43C829.61 482.88 830.06 482.39 830.65 482.39C831.24 482.39 831.7 482.84 831.7 483.43L831.7 495.19C831.66 495.79 831.21 496.24 830.65 496.24Z" fill="#F54C10" fill-opacity="1.000000" fill-rule="nonzero"/>
	<path id="Vector" d="M1042.15 494.99C1041.59 494.99 1041.1 494.53 1041.1 493.94L1041.1 484.72C1041.1 484.16 1041.55 483.68 1042.15 483.68C1042.69 483.68 1043.18 484.13 1043.18 484.72L1043.18 493.94C1043.18 494.5 1042.74 494.99 1042.15 494.99Z" fill="#F54C10" fill-opacity="1.000000" fill-rule="nonzero"/>
	<path id="Vector" d="M1033.68 510.51C1033.13 510.51 1032.65 510.05 1032.65 509.46L1032.65 469.2C1032.65 468.65 1033.1 468.16 1033.68 468.16C1034.28 468.16 1034.73 468.61 1034.73 469.2L1034.73 509.46C1034.73 510.02 1034.28 510.51 1033.68 510.51Z" fill="#F54C10" fill-opacity="1.000000" fill-rule="nonzero"/>
	<path id="Vector" d="M1025.24 516.8C1024.68 516.8 1024.18 516.35 1024.18 515.76L1024.18 462.9C1024.18 462.35 1024.64 461.86 1025.24 461.86C1025.79 461.86 1026.28 462.31 1026.28 462.9L1026.28 515.76C1026.28 516.32 1025.82 516.8 1025.24 516.8Z" fill="#F54C10" fill-opacity="1.000000" fill-rule="nonzero"/>
	<path id="Vector" d="M1016.78 530.2C1016.22 530.2 1015.74 529.75 1015.74 529.15L1015.74 449.47C1015.74 448.92 1016.19 448.43 1016.78 448.43C1017.37 448.43 1017.82 448.88 1017.82 449.47L1017.82 529.15C1017.82 529.75 1017.34 530.2 1016.78 530.2Z" fill="#F54C10" fill-opacity="1.000000" fill-rule="nonzero"/>
	<path id="Vector" d="M1008.32 531.03C1007.77 531.03 1007.28 530.58 1007.28 529.99L1007.28 448.64C1007.28 448.08 1007.73 447.59 1008.32 447.59C1008.88 447.59 1009.37 448.05 1009.37 448.64L1009.37 530.03C1009.37 530.58 1008.88 531.03 1008.32 531.03Z" fill="#F54C10" fill-opacity="1.000000" fill-rule="nonzero"/>
	<path id="Vector" d="M999.87 509.25C999.31 509.25 998.82 508.8 998.82 508.21L998.82 470.45C998.82 469.9 999.27 469.41 999.87 469.41C1000.43 469.41 1000.91 469.86 1000.91 470.45L1000.91 508.21C1000.88 508.77 1000.43 509.25 999.87 509.25Z" fill="#F54C10" fill-opacity="1.000000" fill-rule="nonzero"/>
	<path id="Vector" d="M991.41 504.62C990.85 504.62 990.37 504.17 990.37 503.58L990.37 475.05C990.37 474.49 990.82 474 991.41 474C991.97 474 992.45 474.46 992.45 475.05L992.45 503.58C992.42 504.17 991.97 504.62 991.41 504.62Z" fill="#F54C10" fill-opacity="1.000000" fill-rule="nonzero"/>
	<path id="Vector" d="M982.92 496.24C982.36 496.24 981.88 495.79 981.88 495.19L981.88 483.43C981.88 482.88 982.33 482.39 982.92 482.39C983.48 482.39 983.96 482.84 983.96 483.43L983.96 495.19C983.96 495.79 983.51 496.24 982.92 496.24Z" fill="#F54C10" fill-opacity="1.000000" fill-rule="nonzero"/>
	<circle id="Ellipse 9" cx="863.029053" cy="496.895508" r="20.340750" fill="#FFCB83" fill-opacity="1.000000"/>
	<circle id="Ellipse 9" cx="863.029053" cy="496.895508" r="19.614294" stroke="#F54C10" stroke-opacity="1.000000" stroke-width="1.452911"/>
	<circle id="Ellipse 10" cx="937.127441" cy="482.366211" r="21.793659" fill="#FFCB83" fill-opacity="1.000000"/>
	<circle id="Ellipse 10" cx="937.127441" cy="482.366211" r="21.067204" stroke="#F54C10" stroke-opacity="1.000000" stroke-width="1.452911"/>
	<circle id="Ellipse 11" cx="1002.508301" cy="488.177979" r="14.529106" fill="#FFCB83" fill-opacity="1.000000"/>
	<circle id="Ellipse 11" cx="1002.508301" cy="488.177979" r="13.802650" stroke="#F54C10" stroke-opacity="1.000000" stroke-width="1.452911"/>
	<path id="Ku" d="M862.72 504.46L858.68 497.98L862.56 493.24L859.85 493.24L853.63 501L853.63 493.24L851.1 493.24L851.1 504.46L853.38 504.46L857.06 499.96L859.83 504.46L862.72 504.46ZM866.56 501.08C866.33 500.65 866.21 500.13 866.21 499.55L866.21 493.24L863.68 493.24L863.68 499.66Q863.68 500.95 864.19 501.98Q864.27 502.14 864.37 502.29Q864.6 502.67 864.89 503Q865.47 503.64 866.3 504.06C867.14 504.48 868.1 504.69 869.18 504.69Q870.81 504.69 872.06 504.06C872.9 503.64 873.54 503.05 874 502.29C874.46 501.53 874.69 500.65 874.69 499.66L874.69 493.24L872.15 493.24L872.15 499.55Q872.15 500.44 871.8 501.08C871.57 501.51 871.24 501.84 870.79 502.07C870.35 502.3 869.81 502.42 869.18 502.42C868.56 502.42 868.02 502.3 867.57 502.07C867.13 501.84 866.79 501.51 866.56 501.08Z" fill="#FFFFFF" fill-opacity="1.000000" fill-rule="evenodd"/>
	<path id="Ku" d="M936.82 488.48L932.78 482L936.66 477.26L933.95 477.26L927.73 485.02L927.73 477.26L925.2 477.26L925.2 488.48L927.48 488.48L931.16 483.98L933.93 488.48L936.82 488.48ZM940.66 485.1C940.43 484.66 940.31 484.15 940.31 483.56L940.31 477.26L937.78 477.26L937.78 483.68Q937.78 484.96 938.29 485.99Q938.37 486.16 938.46 486.31Q938.69 486.69 938.99 487.01Q939.57 487.66 940.4 488.08C941.23 488.49 942.19 488.7 943.28 488.7Q944.91 488.7 946.16 488.08C946.99 487.66 947.64 487.07 948.1 486.31C948.56 485.55 948.79 484.67 948.79 483.68L948.79 477.26L946.24 477.26L946.24 483.56Q946.24 484.45 945.9 485.1C945.67 485.53 945.33 485.86 944.89 486.09C944.45 486.32 943.91 486.44 943.28 486.44C942.66 486.44 942.12 486.32 941.67 486.09C941.23 485.86 940.89 485.53 940.66 485.1Z" fill="#FFFFFF" fill-opacity="1.000000" fill-rule="evenodd"/>
	<path id="Ku" d="M1003.01 492.4L1000.1 487.72L1002.9 484.3L1000.94 484.3L996.44 489.9L996.44 484.3L994.62 484.3L994.62 492.4L996.27 492.4L998.92 489.15L1000.93 492.4L1003.01 492.4ZM1005.79 489.96C1005.62 489.64 1005.54 489.28 1005.54 488.85L1005.54 484.3L1003.71 484.3L1003.71 488.93Q1003.71 489.86 1004.08 490.61Q1004.14 490.72 1004.2 490.83C1004.53 491.38 1005 491.81 1005.6 492.11C1006.2 492.41 1006.9 492.56 1007.68 492.56Q1008.86 492.56 1009.76 492.11C1010.36 491.81 1010.83 491.38 1011.16 490.83C1011.49 490.28 1011.66 489.65 1011.66 488.93L1011.66 484.3L1009.82 484.3L1009.82 488.85C1009.82 489.28 1009.74 489.65 1009.57 489.96C1009.41 490.27 1009.16 490.51 1008.84 490.68C1008.52 490.84 1008.14 490.93 1007.68 490.93Q1007.01 490.93 1006.52 490.68C1006.2 490.51 1005.96 490.27 1005.79 489.96Z" fill="#FFFFFF" fill-opacity="1.000000" fill-rule="evenodd"/>
</svg>
