<svg width="2843" height="371" viewBox="0 0 2843 371" fill="none" xmlns="http://www.w3.org/2000/svg">
<path d="M17.123 129.669C21.2233 151.146 30.6531 156.005 30.6531 156.005C24.2565 118.081 62.3704 114.21 70.8309 76.587C74.1122 61.9997 73.2894 49.8424 73.2894 49.8424C57.9711 81.8101 7.78703 80.7784 17.123 129.669ZM94.7538 290.855C87.431 283.619 82.8818 273.625 82.8818 262.629V228.221C82.8818 217.225 87.431 207.235 94.7538 199.994C102.079 192.756 112.189 188.261 123.313 188.261C134.442 188.261 144.552 192.756 151.875 199.994C159.199 207.235 163.749 217.225 163.749 228.221V262.629C163.749 273.625 159.199 283.619 151.875 290.855C144.552 298.096 134.442 302.593 123.313 302.593C112.189 302.593 102.079 298.096 94.7538 290.855ZM113.88 48.2199C110.598 84.2863 72.4686 119.945 50.74 149.526C29.0094 179.106 38.8516 212.736 38.8516 212.736C38.8516 212.736 29.0094 209.294 23.2694 201.187C17.5295 193.084 14.8676 178.497 14.8676 178.497C-12.851 232.531 1.25359 294.797 31.9977 327.48C53.9373 350.811 84.5446 364.085 116.577 365.07V329.459C100.502 327.895 86.073 320.796 75.2672 310.112C62.9684 297.96 55.3641 281.174 55.366 262.627V232.663H68.8413V262.627C68.8413 277.496 74.9409 290.955 84.7965 300.696C94.6547 310.441 108.273 316.463 123.313 316.463C138.358 316.463 151.978 310.441 161.833 300.696C171.688 290.955 177.788 277.496 177.788 262.627V232.663H191.262V262.627C191.262 281.174 183.66 297.96 171.365 310.112C160.558 320.794 146.126 327.895 130.054 329.459V364.755C138.082 364.139 146.136 362.741 154.106 360.531C209.154 344.311 236.219 297.148 236.219 251.569C236.219 233.194 229.503 211.865 223.819 194.249C212.954 160.57 276.336 107.521 215.145 62.4035C223.85 92.9903 213.091 124.807 182.345 137.366C200.018 74.3348 165.285 30.3914 112.238 0C112.238 0 117.157 12.1574 113.88 48.2199Z" fill="#5790FF"/>
<path d="M464.489 300.433C456.43 300.433 449.379 298.721 443.335 295.296C437.492 292.072 434.571 286.331 434.571 278.071C434.571 272.832 435.881 266.99 438.5 260.543C442.126 264.572 445.45 267.393 448.472 269.005C451.696 270.616 455.121 271.422 458.747 271.422C468.82 271.422 476.274 265.781 481.11 254.499C486.146 243.217 488.665 230.726 488.665 217.026C488.665 191.44 479.095 178.647 459.956 178.647C454.516 178.647 449.882 178.949 446.055 179.554L421.274 295.296H377.758L418.857 103.097L463.582 97.0535L449.379 164.142H451.192C458.848 164.142 466 161.724 472.648 156.889C479.296 151.852 484.635 145.607 488.665 138.152C492.694 130.497 494.709 122.841 494.709 115.185C494.709 105.918 491.384 98.1615 484.736 91.9161C478.289 85.6706 468.317 82.5479 454.818 82.5479C442.529 82.5479 430.542 85.3684 418.857 91.0095C407.172 96.449 397.602 104.709 390.148 115.79C382.895 126.87 379.269 140.268 379.269 155.982C379.269 163.436 379.974 168.675 381.384 171.697C382.794 174.517 383.499 176.129 383.499 176.532C372.822 176.532 364.763 174.416 359.323 170.186C353.884 165.753 351.164 158.601 351.164 148.729C351.164 135.03 356.302 122.035 366.576 109.746C376.851 97.4564 390.45 87.5846 407.373 80.1303C424.296 72.4746 442.126 68.6468 460.862 68.6468C474.965 68.6468 486.851 70.8629 496.522 75.2951C506.192 79.7274 513.344 85.5699 517.978 92.8227C522.813 100.075 525.231 108.033 525.231 116.696C525.231 125.964 522.612 134.929 517.373 143.592C512.135 152.255 504.681 159.306 495.011 164.746C507.099 166.962 516.064 172.603 521.906 181.669C527.749 190.534 530.67 201.111 530.67 213.4C530.67 224.884 528.454 237.374 524.022 250.873C519.791 264.371 512.639 276.056 502.566 285.928C492.694 295.598 480.002 300.433 464.489 300.433Z" fill="#111111"/>
<path d="M587.37 297.109C572.462 297.109 560.877 293.281 552.617 285.625C544.357 277.768 540.227 265.58 540.227 249.059C540.227 235.158 542.947 219.847 548.387 203.125C553.826 186.404 562.691 171.999 574.98 159.911C587.269 147.621 602.883 141.477 621.821 141.477C643.982 141.477 655.063 151.147 655.063 170.488C655.063 181.77 651.839 192.145 645.392 201.614C638.945 211.083 630.383 218.739 619.705 224.581C609.028 230.222 597.645 233.446 585.557 234.252C585.154 240.296 584.953 244.325 584.953 246.34C584.953 256.01 586.564 262.658 589.788 266.285C593.213 269.911 598.451 271.724 605.502 271.724C613.158 271.724 621.519 268.199 630.585 261.147C639.651 254.096 647.81 244.627 655.063 232.741C662.316 220.854 667.352 208.162 670.173 194.664L680.75 144.196H724.266L712.481 200.405C711.876 203.427 711.574 206.248 711.574 208.867C711.574 217.127 714.596 221.257 720.64 221.257C726.482 221.257 731.519 218.84 735.75 214.004C740.182 208.968 743.204 202.521 744.816 194.664L755.393 144.196H798.909L777.151 246.944C776.345 249.966 775.942 253.189 775.942 256.614C775.942 260.644 776.849 263.565 778.662 265.378C780.677 266.99 783.9 267.796 788.332 267.796C793.973 267.796 798.809 265.378 802.838 260.543C807.069 255.708 810.393 249.261 812.811 241.202H825.503C818.049 262.961 808.781 277.768 797.701 285.625C786.821 293.281 775.842 297.109 764.761 297.109C755.091 297.109 747.233 294.087 741.189 288.043C735.347 281.999 732.426 272.933 732.426 260.845C732.426 255.809 733.232 249.261 734.843 241.202L736.354 233.647C730.512 240.094 724.568 244.526 718.524 246.944C712.48 249.362 706.336 250.57 700.09 250.57C685.383 250.57 675.612 244.426 670.777 232.136C661.308 250.067 649.119 265.378 634.211 278.071C619.504 290.763 603.89 297.109 587.37 297.109ZM587.975 219.746C595.429 219.343 602.48 216.724 609.129 211.889C615.978 207.054 621.418 200.909 625.447 193.455C629.678 186.001 631.793 178.143 631.793 169.883C631.793 161.623 629.275 157.493 624.238 157.493C616.986 157.493 609.834 163.839 602.782 176.532C595.933 189.224 590.997 203.629 587.975 219.746Z" fill="#111111"/>
<path d="M858.948 297.109C844.039 297.109 832.455 293.281 824.195 285.625C815.935 277.768 811.805 265.58 811.805 249.059C811.805 235.158 814.525 219.847 819.964 203.125C825.404 186.404 834.268 171.999 846.558 159.911C858.847 147.621 874.461 141.477 893.398 141.477C915.56 141.477 926.64 151.147 926.64 170.488C926.64 181.77 923.417 192.145 916.97 201.614C910.523 211.083 901.961 218.739 891.283 224.581C880.605 230.222 869.222 233.446 857.135 234.252C856.732 240.296 856.53 244.325 856.53 246.34C856.53 256.211 858.243 262.961 861.667 266.587C865.092 270.012 870.633 271.724 878.288 271.724C889.168 271.724 898.435 269.206 906.091 264.169C913.948 259.133 922.51 251.477 931.778 241.202H942.052C919.69 278.473 891.988 297.109 858.948 297.109ZM859.552 219.746C867.006 219.343 874.058 216.724 880.706 211.889C887.556 207.054 892.995 200.909 897.025 193.455C901.256 186.001 903.371 178.143 903.371 169.883C903.371 161.623 900.853 157.493 895.816 157.493C888.563 157.493 881.411 163.839 874.36 176.532C867.51 189.224 862.574 203.629 859.552 219.746Z" fill="#111111"/>
<path d="M957.703 133.015H1001.22L996.384 155.68C1006.46 147.017 1018.24 142.685 1031.74 142.685C1043.02 142.685 1051.99 146.413 1058.64 153.867C1065.29 161.321 1068.61 173.51 1068.61 190.433C1068.61 206.349 1066.29 222.466 1061.66 238.785C1057.03 254.902 1049.17 268.702 1038.09 280.186C1027.01 291.468 1012.4 297.109 994.269 297.109C981.375 297.109 972.813 293.483 968.582 286.23L952.868 359.966L907.236 370.846L957.703 133.015ZM984.901 270.818C994.571 270.818 1002.53 266.285 1008.77 257.219C1015.22 248.153 1019.86 237.374 1022.68 224.884C1025.7 212.191 1027.21 200.405 1027.21 189.526C1027.21 172.805 1022.17 164.444 1012.1 164.444C1008.47 164.444 1004.75 165.753 1000.92 168.372C997.291 170.991 994.068 174.618 991.247 179.252L973.417 263.867C975.029 268.501 978.857 270.818 984.901 270.818Z" fill="#111111"/>
<path d="M1109.04 297.109C1099.37 297.109 1091.51 294.087 1085.46 288.043C1079.62 281.999 1076.7 272.933 1076.7 260.845C1076.7 255.809 1077.51 249.261 1079.12 241.202L1099.67 144.196H1143.18L1121.43 246.944C1120.82 249.966 1120.52 252.787 1120.52 255.406C1120.52 263.666 1123.54 267.796 1129.59 267.796C1135.23 267.796 1140.06 265.479 1144.09 260.845C1148.12 256.01 1151.34 249.462 1153.76 241.202L1174.31 144.196H1217.83L1196.07 246.944C1195.26 249.966 1194.86 253.189 1194.86 256.614C1194.86 260.644 1195.77 263.565 1197.58 265.378C1199.59 266.99 1202.82 267.796 1207.25 267.796C1212.89 267.796 1217.73 265.378 1221.76 260.543C1225.99 255.708 1229.31 249.261 1231.73 241.202H1244.42C1236.97 262.961 1227.7 277.768 1216.62 285.625C1205.74 293.281 1194.76 297.109 1183.68 297.109C1175.02 297.109 1168.07 294.691 1162.83 289.856C1157.79 285.021 1154.77 277.869 1153.76 268.4C1146.91 279.481 1139.66 287.036 1132 291.065C1124.55 295.094 1116.89 297.109 1109.04 297.109Z" fill="#111111"/>
<path d="M1344.41 297.109C1332.93 297.109 1324.07 294.087 1317.82 288.043C1311.78 281.798 1308.75 274.142 1308.75 265.076C1308.75 259.233 1311.07 245.131 1315.7 222.768H1282.16L1266.75 295.296H1223.23L1255.26 144.196H1298.78L1285.79 204.636H1319.63L1333.23 144.196H1373.73L1357.71 219.142C1355.7 227.805 1353.98 235.36 1352.57 241.807C1351.16 248.254 1350.46 252.686 1350.46 255.103C1350.46 263.565 1354.49 267.796 1362.55 267.796C1368.19 267.796 1372.72 265.882 1376.14 262.054C1379.57 258.226 1383.5 251.276 1387.93 241.202H1400.62C1387.93 278.473 1369.19 297.109 1344.41 297.109Z" fill="#111111"/>
<path d="M1500 297.109C1487.91 297.109 1478.74 294.188 1472.5 288.345C1466.45 282.301 1463.43 274.041 1463.43 263.565C1463.43 260.744 1464.14 255.103 1465.55 246.642C1466.55 241.605 1467.06 237.677 1467.06 234.856C1467.06 225.186 1463.23 220.351 1455.57 220.351C1452.95 220.351 1450.44 221.156 1448.02 222.768C1445.8 224.178 1441.87 227.1 1436.23 231.532L1422.94 295.296H1379.42L1411.75 144.196H1455.27L1442.28 204.032C1455.98 187.915 1466.86 175.625 1474.91 167.164C1482.97 158.702 1490.33 152.356 1496.97 148.125C1503.82 143.693 1510.47 141.477 1516.92 141.477C1529.41 141.477 1535.66 148.125 1535.66 161.422C1535.66 167.466 1533.94 172.301 1530.52 175.927C1527.29 179.352 1522.66 181.065 1516.62 181.065C1510.98 181.065 1506.75 179.554 1503.92 176.532C1501.1 173.308 1499.79 169.682 1500 165.653C1496.17 168.07 1492.74 170.79 1489.72 173.812C1486.7 176.834 1483.38 180.763 1479.75 185.598C1475.52 191.239 1471.39 196.074 1467.36 200.103C1471.39 199.297 1475.62 198.894 1480.05 198.894C1490.53 198.894 1497.88 201.211 1502.11 205.845C1506.54 210.479 1508.76 217.53 1508.76 226.999C1508.76 229.819 1508.16 234.453 1506.95 240.9C1505.74 247.75 1505.13 252.988 1505.13 256.614C1505.13 264.069 1509.16 267.796 1517.22 267.796C1522.86 267.796 1527.29 265.882 1530.52 262.054C1533.94 258.226 1537.87 251.276 1542.3 241.202H1555C1542.3 278.473 1523.97 297.109 1500 297.109Z" fill="#111111"/>
<path d="M1581.58 297.109C1570.1 297.109 1560.53 293.18 1552.87 285.323C1545.22 277.466 1541.39 265.177 1541.39 248.455C1541.39 233.547 1544.31 217.933 1550.15 201.614C1556.2 185.094 1565.06 171.193 1576.75 159.911C1588.63 148.427 1602.74 142.685 1619.06 142.685C1627.32 142.685 1633.46 144.096 1637.49 146.916C1641.52 149.737 1643.53 153.464 1643.53 158.098V160.213L1646.86 144.196H1690.37L1668.62 246.944C1667.81 249.966 1667.41 253.189 1667.41 256.614C1667.41 260.644 1668.31 263.565 1670.13 265.378C1672.14 266.99 1675.37 267.796 1679.8 267.796C1682.62 267.796 1684.83 267.393 1686.45 266.587C1682.01 277.869 1677.78 285.827 1673.75 290.461C1669.72 294.893 1663.88 297.109 1656.23 297.109C1647.97 297.109 1641.22 294.691 1635.98 289.856C1630.94 284.82 1627.82 277.869 1626.61 269.005C1614.32 287.741 1599.31 297.109 1581.58 297.109ZM1601.23 267.796C1606.26 267.796 1611.2 265.479 1616.03 260.845C1621.07 256.01 1624.5 249.462 1626.31 241.202L1640.81 172.905C1640.81 170.286 1639.81 167.768 1637.79 165.35C1635.78 162.731 1632.65 161.422 1628.42 161.422C1620.37 161.422 1613.11 166.156 1606.67 175.625C1600.22 184.893 1595.18 196.175 1591.56 209.471C1587.93 222.567 1586.12 234.151 1586.12 244.224C1586.12 254.298 1587.53 260.744 1590.35 263.565C1593.37 266.385 1596.99 267.796 1601.23 267.796Z" fill="#111111"/>
<path d="M1829.87 300.131C1807.1 300.131 1790.38 294.389 1779.7 282.906C1769.02 271.422 1763.69 252.384 1763.69 225.79C1763.69 204.636 1767.21 181.871 1774.26 157.493C1781.52 133.116 1793 112.264 1808.71 94.9381C1824.63 77.4105 1844.78 68.6468 1869.15 68.6468C1884.26 68.6468 1896.45 71.971 1905.72 78.6193C1914.99 85.2677 1919.62 95.4417 1919.62 109.141C1919.62 117.804 1917.91 124.654 1914.48 129.691C1911.06 134.526 1905.72 136.944 1898.47 136.944C1891.21 136.944 1885.47 134.325 1881.24 129.087C1884.87 127.273 1888.09 123.647 1890.91 118.207C1893.73 112.768 1895.14 107.127 1895.14 101.284C1895.14 95.8447 1893.63 91.4124 1890.61 87.9875C1887.79 84.5626 1883.16 82.8501 1876.71 82.8501C1866.03 82.8501 1855.86 90.2036 1846.19 104.911C1836.52 119.416 1828.66 137.75 1822.61 159.911C1816.77 182.072 1813.85 203.427 1813.85 223.977C1813.85 239.288 1816.47 250.973 1821.71 259.032C1826.95 267.091 1836.42 271.12 1850.11 271.12C1862 271.12 1872.98 268.501 1883.05 263.263C1893.13 258.025 1901.79 250.57 1909.04 240.9L1915.99 243.922C1910.96 256.614 1903.5 267.191 1893.63 275.653C1883.76 284.114 1873.18 290.36 1861.9 294.389C1850.62 298.217 1839.94 300.131 1829.87 300.131Z" fill="#5790FF"/>
<path d="M1954.39 297.109C1939.49 297.109 1927.9 293.281 1919.64 285.625C1911.38 277.768 1907.25 265.58 1907.25 249.059C1907.25 235.158 1909.97 219.847 1915.41 203.125C1920.85 186.404 1929.71 171.999 1942 159.911C1954.29 147.621 1969.91 141.477 1988.85 141.477C2011.01 141.477 2022.09 151.147 2022.09 170.488C2022.09 181.77 2018.86 192.145 2012.42 201.614C2005.97 211.083 1997.41 218.739 1986.73 224.581C1976.05 230.222 1964.67 233.446 1952.58 234.252C1952.18 240.296 1951.98 244.325 1951.98 246.34C1951.98 256.211 1953.69 262.961 1957.11 266.587C1960.54 270.012 1966.08 271.724 1973.74 271.724C1984.61 271.724 1993.88 269.206 2001.54 264.169C2009.39 259.133 2017.96 251.477 2027.22 241.202H2037.5C2015.14 278.473 1987.43 297.109 1954.39 297.109ZM1955 219.746C1962.45 219.343 1969.5 216.724 1976.15 211.889C1983 207.054 1988.44 200.909 1992.47 193.455C1996.7 186.001 1998.82 178.143 1998.82 169.883C1998.82 161.623 1996.3 157.493 1991.26 157.493C1984.01 157.493 1976.86 163.839 1969.81 176.532C1962.96 189.224 1958.02 203.629 1955 219.746Z" fill="#5790FF"/>
<path d="M2070.68 297.109C2055.77 297.109 2044.18 294.289 2035.92 288.647C2027.87 283.006 2023.84 274.444 2023.84 262.961C2023.84 255.506 2025.55 249.059 2028.97 243.62C2032.2 237.979 2036.13 233.345 2040.76 229.719C2045.39 225.891 2051.54 221.559 2059.19 216.724C2068.86 210.882 2076.02 205.644 2080.65 201.01C2085.48 196.175 2087.9 190.231 2087.9 183.18C2087.9 178.748 2086.69 175.323 2084.28 172.905C2082.06 170.286 2078.64 168.977 2074 168.977C2067.35 168.977 2061.41 171.495 2056.17 176.532C2050.93 181.568 2046 189.526 2041.36 200.405H2026.86C2033.51 181.468 2041.97 166.962 2052.24 156.889C2062.52 146.614 2076.02 141.477 2092.74 141.477C2104.42 141.477 2114.09 144.297 2121.75 149.938C2129.61 155.579 2133.53 164.142 2133.53 175.625C2133.53 184.288 2131.72 191.843 2128.09 198.29C2124.47 204.737 2120.04 210.076 2114.8 214.307C2109.56 218.336 2103.01 222.768 2095.16 227.603C2086.29 233.043 2079.84 237.777 2075.81 241.807C2071.79 245.635 2069.77 250.268 2069.77 255.708C2069.77 266.385 2076.92 271.724 2091.23 271.724C2100.29 271.724 2108.86 269.407 2116.91 264.774C2125.17 260.14 2134.04 252.283 2143.51 241.202H2153.78C2142.9 258.528 2130.71 272.228 2117.22 282.301C2103.92 292.173 2088.41 297.109 2070.68 297.109Z" fill="#5790FF"/>
<path d="M2190.65 296.505C2175.74 296.505 2163.96 292.677 2155.29 285.021C2146.63 277.365 2142.3 265.277 2142.3 248.757C2142.3 235.058 2145.12 219.847 2150.76 203.125C2156.4 186.404 2165.47 171.999 2177.96 159.911C2190.45 147.621 2206.16 141.477 2225.1 141.477C2250.89 141.477 2263.78 157.594 2263.78 189.828V190.131C2264.39 190.332 2265.49 190.433 2267.11 190.433C2273.75 190.433 2281.41 188.72 2290.07 185.295C2298.74 181.669 2306.59 177.338 2313.65 172.301L2316.36 180.46C2310.52 186.706 2302.87 192.045 2293.4 196.477C2284.13 200.708 2273.96 203.73 2262.88 205.543C2261.26 223.876 2257.13 239.893 2250.49 253.592C2243.84 267.292 2235.27 277.869 2224.8 285.323C2214.32 292.778 2202.94 296.505 2190.65 296.505ZM2202.74 269.307C2207.57 269.307 2212.41 266.587 2217.24 261.147C2222.08 255.506 2226.31 247.951 2229.94 238.482C2233.56 228.812 2236.18 218.134 2237.79 206.449C2232.35 205.241 2229.63 201.01 2229.63 193.757C2229.63 185.497 2232.76 180.057 2239 177.438C2238.6 170.79 2237.59 166.257 2235.98 163.839C2234.37 161.22 2231.55 159.911 2227.52 159.911C2220.87 159.911 2214.42 164.746 2208.18 174.416C2201.93 184.087 2196.9 195.671 2193.07 209.169C2189.24 222.667 2187.33 234.554 2187.33 244.829C2187.33 254.499 2188.43 261.047 2190.65 264.472C2192.87 267.695 2196.9 269.307 2202.74 269.307Z" fill="#5790FF"/>
<path d="M2335.84 370.846C2326.17 370.846 2318.11 368.327 2311.67 363.291C2305.22 358.254 2302 351.001 2302 341.532C2302 330.049 2306.63 320.781 2315.9 313.73C2325.16 306.88 2336.95 301.138 2351.25 296.505L2354.88 280.488C2344.61 291.569 2332.52 297.109 2318.62 297.109C2307.13 297.109 2297.56 293.18 2289.91 285.323C2282.25 277.466 2278.42 265.177 2278.42 248.455C2278.42 233.547 2281.35 217.933 2287.19 201.614C2293.23 185.094 2302.1 171.193 2313.78 159.911C2325.67 148.427 2339.77 142.685 2356.09 142.685C2364.35 142.685 2370.49 144.096 2374.52 146.916C2378.55 149.737 2380.57 153.464 2380.57 158.098V159.911L2383.89 144.196H2427.41L2397.49 284.417C2407.16 281.193 2414.92 276.358 2420.76 269.911C2426.6 263.464 2431.54 253.895 2435.57 241.202H2448.26C2442.82 259.133 2435.47 272.329 2426.2 280.79C2416.93 289.05 2406.46 294.691 2394.77 297.713L2390.24 319.472C2386.21 339.014 2379.26 352.411 2369.39 359.664C2359.51 367.118 2348.33 370.846 2335.84 370.846ZM2338.26 267.796C2342.89 267.796 2347.63 265.68 2352.46 261.45C2357.3 257.219 2360.62 251.477 2362.44 244.224L2377.85 172.603C2377.85 170.186 2376.84 167.768 2374.83 165.35C2372.81 162.731 2369.69 161.422 2365.46 161.422C2357.4 161.422 2350.15 166.156 2343.7 175.625C2337.25 184.893 2332.22 196.175 2328.59 209.471C2324.96 222.567 2323.15 234.151 2323.15 244.224C2323.15 254.298 2324.56 260.744 2327.38 263.565C2330.4 266.385 2334.03 267.796 2338.26 267.796ZM2328.89 347.274C2332.32 347.274 2335.64 344.957 2338.86 340.323C2342.09 335.69 2344.61 329.041 2346.42 320.378L2348.23 311.615C2328.49 318.867 2318.62 327.43 2318.62 337.301C2318.62 339.921 2319.52 342.237 2321.34 344.252C2323.15 346.267 2325.67 347.274 2328.89 347.274Z" fill="#5790FF"/>
<path d="M2548.24 297.109C2536.76 297.109 2527.89 294.087 2521.65 288.043C2515.6 281.798 2512.58 274.142 2512.58 265.076C2512.58 259.233 2514.9 245.131 2519.53 222.768H2485.99L2470.57 295.296H2427.06L2459.09 144.196H2502.61L2489.61 204.636H2523.46L2537.06 144.196H2577.55L2561.54 219.142C2559.52 227.805 2557.81 235.36 2556.4 241.807C2554.99 248.254 2554.28 252.686 2554.28 255.103C2554.28 263.565 2558.31 267.796 2566.37 267.796C2572.01 267.796 2576.54 265.882 2579.97 262.054C2583.39 258.226 2587.32 251.276 2591.76 241.202H2604.45C2591.76 278.473 2573.02 297.109 2548.24 297.109Z" fill="#5790FF"/>
<path d="M2617.09 297.109C2606.21 297.109 2597.85 293.886 2592.01 287.439C2586.17 280.79 2583.24 272.631 2583.24 262.961C2583.24 255.708 2584.96 249.865 2588.38 245.433C2591.6 241.001 2596.14 238.785 2601.98 238.785C2606.61 238.785 2610.34 240.296 2613.16 243.318C2616.18 246.138 2617.69 249.865 2617.69 254.499C2617.69 259.334 2616.49 262.961 2614.07 265.378C2611.85 267.796 2609.03 268.803 2605.61 268.4C2605.81 271.019 2606.82 273.336 2608.63 275.351C2610.44 277.164 2613.36 278.071 2617.39 278.071C2623.84 278.071 2628.78 274.444 2632.2 267.191C2635.83 259.939 2639.45 248.052 2643.08 231.532C2634.22 229.719 2627.16 225.891 2621.93 220.048C2616.89 214.206 2614.37 206.349 2614.37 196.477C2614.37 180.964 2620.62 168.372 2633.11 158.702C2645.6 149.032 2665.85 144.196 2693.85 144.196H2739.78L2723.77 219.142C2721.75 227.805 2720.04 235.36 2718.63 241.807C2717.22 248.254 2716.51 252.686 2716.51 255.103C2716.51 263.565 2720.54 267.796 2728.6 267.796C2732.43 267.796 2735.85 266.889 2738.88 265.076C2736.66 284.215 2727.19 294.893 2710.47 297.109C2698.99 297.109 2690.12 294.087 2683.88 288.043C2677.83 281.798 2674.81 274.142 2674.81 265.076C2674.81 259.233 2676.62 247.951 2680.25 231.23C2674.81 232.439 2669.17 233.043 2663.33 233.043C2659.7 248.556 2656.17 260.744 2652.75 269.609C2649.32 278.473 2644.79 285.323 2639.15 290.158C2633.51 294.792 2626.16 297.109 2617.09 297.109ZM2678.13 218.84C2680.35 218.84 2681.96 218.638 2682.97 218.235L2695.66 160.515H2688.41C2676.72 160.515 2667.76 163.739 2661.51 170.186C2655.47 176.431 2652.45 184.893 2652.45 195.57C2652.45 211.083 2659.7 218.84 2674.21 218.84H2678.13Z" fill="#5790FF"/>
<path d="M2795.53 74.3886L2842.07 68.0424L2798.25 225.488H2772.56L2795.53 74.3886ZM2776.79 297.109C2770.14 297.109 2764.4 294.792 2759.57 290.158C2754.93 285.323 2752.62 279.582 2752.62 272.933C2752.62 266.285 2754.93 260.644 2759.57 256.01C2764.4 251.376 2770.14 249.059 2776.79 249.059C2783.44 249.059 2789.08 251.376 2793.72 256.01C2798.35 260.644 2800.67 266.285 2800.67 272.933C2800.67 279.582 2798.35 285.323 2793.72 290.158C2789.08 294.792 2783.44 297.109 2776.79 297.109Z" fill="#5790FF"/>
</svg>
