<svg width="1529.000000" height="1255.336426" viewBox="0 0 1529 1255.34" fill="none" xmlns="http://www.w3.org/2000/svg" xmlns:xlink="http://www.w3.org/1999/xlink">
	<desc>
			Created with Pixso.
	</desc>
	<defs>
		<linearGradient x1="764.500000" y1="0.000000" x2="764.500000" y2="899.909912" id="paint_linear_17_19063_0" gradientUnits="userSpaceOnUse">
			<stop offset="0.980000" stop-color="#F6A23C"/>
		</linearGradient>
	</defs>
	<mask id="mask17_19063" mask-type="alpha" maskUnits="userSpaceOnUse" x="0.000000" y="0.000000" width="1529.000000" height="1255.336426">
		<rect id="Rectangle 179" rx="150.640396" width="1529.000000" height="1255.336548" fill="url(#paint_linear_17_19063_0)" fill-opacity="1.000000"/>
	</mask>
	<g mask="url(#mask17_19063)">
		<path id="Vector" d="M186.18 383.01C297.47 234.3 494.81 133.11 669.55 153.17C762.73 163.85 767.52 199.61 879.1 210.62C1077.32 230.16 1145.53 125.55 1257.69 163.3C1388.46 207.33 1440.09 398.19 1450.35 497.92C1470.87 695.16 1371.2 927.45 1200.21 998.19C1018.28 1073.46 918.58 898.37 615.32 923.83C349.81 946.14 263.99 1094.28 162.6 1035.36C28.18 957.35 19.78 605.4 186.18 383.01Z" fill="#F4AD57" fill-opacity="1.000000" fill-rule="nonzero"/>
		<g opacity="0.300000">
			<path id="Vector" d="M500.95 1207.31C502.5 1226.91 429.9 1248.68 338.77 1255.93C247.64 1263.18 172.5 1253.17 170.94 1233.56C169.38 1213.97 241.99 1192.19 333.12 1184.94C424.25 1177.69 499.39 1187.71 500.95 1207.31Z" fill="#FFD8A8" fill-opacity="1.000000" fill-rule="evenodd"/>
		</g>
		<path id="Vector" d="M444.93 1176.12C444.93 1176.12 453.61 1182.13 466.25 1165.31C466.25 1165.31 542.2 1210.42 537.99 1237.31C533.78 1264.21 504.26 1260.56 489.86 1251.93C475.46 1243.29 463.18 1214.92 446.05 1205.96C428.91 1197 444.93 1176.12 444.93 1176.12Z" fill="#F54C10" fill-opacity="1.000000" fill-rule="nonzero"/>
		<path id="Vector" d="M486.3 1249.37C487.06 1244.34 488.83 1239.5 491.48 1235.16C495.56 1228.68 501.45 1223.55 508.42 1220.41C515.39 1217.27 523.14 1216.25 530.68 1217.48C535.94 1224.68 538.93 1231.41 537.88 1237.39C533.67 1264.31 504.15 1260.64 489.75 1252C488.54 1251.19 487.39 1250.32 486.3 1249.37Z" fill="#B33305" fill-opacity="1.000000" fill-rule="nonzero"/>
		<path id="Vector" d="M446.05 1205.96C443.44 1204.81 441.26 1202.86 439.85 1200.39C438.43 1197.91 437.86 1195.04 438.2 1192.21C438.99 1193.63 439.94 1194.94 441.05 1196.13C443.83 1198.93 447.27 1200.98 451.05 1202.11C459.87 1205.31 463.29 1211.76 474.49 1223.71C495.01 1245.69 504.48 1246.56 503.76 1253.94C503.66 1255.04 503.37 1256.1 502.89 1257.07C498.31 1256.04 493.91 1254.3 489.86 1251.93C475.46 1243.36 463.19 1214.92 446.05 1205.96Z" fill="#B33305" fill-opacity="1.000000" fill-rule="nonzero"/>
		<path id="Vector" d="M203.99 1217.84C203.99 1217.84 196.79 1225.51 180.92 1211.68C180.92 1211.68 115.87 1271.43 125.55 1296.97C135.24 1322.49 163.35 1312.77 175.66 1301.36C187.97 1289.94 194.13 1259.6 209.07 1247.36C224.01 1235.12 203.99 1217.84 203.99 1217.84Z" fill="#F54C10" fill-opacity="1.000000" fill-rule="nonzero"/>
		<path id="Vector" d="M231.35 510.82C228.4 505.38 195.6 405.99 216.74 363.69C233.19 330.83 266.52 328.56 301.84 332.19C357.82 338.03 354.83 402.39 399.03 400.37C436.65 398.65 459.04 356.28 505.41 344.83C553.97 332.84 645.81 369.49 635.01 467.22C626.69 543.18 545.95 608.99 475.21 629.9C382.69 657.3 271.53 585.12 231.35 510.82Z" fill="#D18824" fill-opacity="1.000000" fill-rule="nonzero"/>
		<path id="Vector" d="M345.65 394.72C345.65 397.25 343.6 399.29 341.08 399.29C338.55 399.29 336.5 397.25 336.5 394.72C336.5 392.2 338.55 390.15 341.08 390.15C343.6 390.15 345.65 392.2 345.65 394.72Z" fill="#AE6C1C" fill-opacity="1.000000" fill-rule="evenodd"/>
		<path id="Vector" d="M330.24 358.54C335.68 366.28 353.39 447.96 328.77 457.65C293.09 471.72 258.24 446.27 251.48 411.1C245.07 377.95 249.28 357.72 271.02 349.9C292.77 342.09 315.37 337.3 330.24 358.54Z" fill="#F7AE7E" fill-opacity="1.000000" fill-rule="nonzero"/>
		<path id="Vector" d="M265.19 431.12C261.59 436.27 253.85 437.02 247.59 432.85C241.32 428.67 239.02 421.11 242.48 416C245.93 410.89 253.82 410.09 260.08 414.27C266.34 418.45 268.79 426.01 265.19 431.12Z" fill="#F7AE7E" fill-opacity="1.000000" fill-rule="nonzero"/>
		<path id="Vector" d="M298.45 363.58C298.45 363.58 286.47 419.74 243.38 416.11C206.87 413.01 206.41 333.31 278.19 317.65C309.51 310.74 345.14 331 338.16 364.84C332.91 390.11 298.45 363.58 298.45 363.58Z" fill="#D18824" fill-opacity="1.000000" fill-rule="nonzero"/>
		<path id="Vector" d="M471.1 798.27C466.28 788.19 456.7 750.32 451.09 712.45C444.5 667.23 420.31 606.14 383.52 579.07C331.61 540.88 280.35 488.46 327.07 481.08C405.41 468.74 445.08 584.36 457.5 606.43C458.38 607.97 459.38 609.43 460.48 610.82C486.76 646.1 489.93 793.84 489.93 793.84C489.93 793.84 486.3 829.88 471.1 798.27Z" fill="#F7AE7E" fill-opacity="1.000000" fill-rule="nonzero"/>
		<g opacity="0.080000">
			<path id="Vector" d="M383.52 579.07C403.89 594.05 420.38 619.5 432.19 646.89C430.86 641.28 429.27 635.66 427.94 630.95C422.76 612.62 415.67 600.28 405.08 582.6C377.62 536.63 363.79 513.7 358.5 514.89C352.06 516.33 347.7 530.9 347.2 549.55C358.79 560.01 370.92 569.86 383.52 579.07Z" fill="#000000" fill-opacity="1.000000" fill-rule="nonzero"/>
		</g>
		<path id="Vector" d="M100.61 810.22C106.44 800.72 120.04 764.07 129.4 726.99C140.67 682.68 171.09 624.47 210.55 601.35C266.16 568.78 323.04 521.29 277.18 509.52C273.58 508.62 267.24 505.92 262.2 504.66C203.6 490.73 147.8 601.53 134.12 620.87C133 622.29 131.8 623.65 130.52 624.93C100.68 657.33 82.14 803.85 82.14 803.85C82.14 803.85 82.21 840.06 100.61 810.22Z" fill="#F7AE7E" fill-opacity="1.000000" fill-rule="nonzero"/>
		<g opacity="0.080000">
			<path id="Vector" d="M219.51 596.03L227.18 591.24C232.61 587.64 237.98 584.04 243.12 580.44L243.48 580.44C249.28 576.37 254.82 572.23 259.97 568.09L247.19 514.24C246 514.45 244.82 514.63 243.59 514.92C241.35 527.45 238 539.75 233.58 551.68C230.6 561.63 226.06 571.05 220.12 579.58C210.58 588.54 197.8 600.24 196.4 601.68C185.09 613.31 171.49 625.33 161.12 642.9C148.74 663.81 139.52 686.1 136.14 705.57C140.65 692.91 146.11 680.6 152.44 668.75L153.27 667.2C154.28 665.33 155.32 663.6 156.37 661.62L157.92 658.99C158.89 657.33 159.89 655.71 160.9 654.06L162.88 650.93C163.86 649.45 164.79 647.94 165.8 646.5L168.32 642.9C169.22 641.64 170.08 640.38 171.02 639.12C172.71 636.81 174.62 634.51 176.27 632.31L178.33 629.87C179.59 628.39 180.85 626.88 182.14 625.44L184.55 622.88C185.78 621.59 187.04 620.29 188.15 619.03L190.67 616.62C191.97 615.39 193.27 614.21 194.6 613.02L197.08 610.89C198.55 609.69 200.02 608.5 201.51 607.3L203.67 605.68C205.94 604.13 208.17 602.62 210.47 601.28L218.03 596.75L219.51 596.03Z" fill="#000000" fill-opacity="1.000000" fill-rule="nonzero"/>
		</g>
		<path id="Vector" d="M238.77 505.74C238.77 505.74 251.15 501.39 269.84 495.84C288.52 490.3 276.75 438.25 276.75 438.25L309.4 439.43C309.4 439.43 309.83 484.83 333.84 486.23C357.85 487.64 347.41 477.38 361.92 483.14C423.98 507.76 377.08 545.77 377.08 545.77L248.2 598.87L238.77 505.74Z" fill="#F7AE7E" fill-opacity="1.000000" fill-rule="nonzero"/>
		<path id="Vector" d="M238.66 505.38L259.47 499.05C266.67 563.02 356.27 542.96 341.8 480.04L348.06 480.26C349.46 480.26 354.4 480.9 355.69 481.16L356.7 481.16C356.7 481.16 409.19 591.38 386.62 622.78C383.34 627.35 379.2 646.75 378.73 652.22C377.58 664.93 386.62 677.78 389.71 689.59C394.51 708.11 403.09 725.44 414.91 740.49C414.91 740.49 312.96 777.97 261.84 755.97C261.84 755.97 261.01 731.02 258.93 703.02C258.28 694.05 257.52 665.97 256.59 657.51C255.15 644.55 243.84 637.93 239.88 613.52C226.85 533.53 238.66 505.38 238.66 505.38Z" fill="#F54C10" fill-opacity="1.000000" fill-rule="nonzero"/>
		<path id="Vector" d="M308.39 738.69C247.19 735.41 224.84 898.35 222.35 981.75C221.38 1015.06 219.98 1010.77 210.15 1042.6C188.08 1114.09 178.58 1219.31 178.58 1219.31C178.58 1219.31 171.81 1249.48 198.59 1227.74C215.8 1213.77 252.27 1113.62 266.52 1052.39C273.08 1024.24 270.34 1017.4 283.01 991.44C324.3 906.63 387.59 742.97 308.39 738.69Z" fill="#F7AE7E" fill-opacity="1.000000" fill-rule="nonzero"/>
		<path id="Vector" d="M492.34 976.64C492.34 974.74 491.52 973.04 491.34 971.06C485.76 916.85 427.19 686.42 376.79 725.98C310.08 778.4 382.37 897.41 430.03 956.12C445.11 974.74 444.75 982.04 440.07 1005.55C427.44 1068.84 444.97 1176.07 444.97 1176.07C444.97 1176.07 456.2 1191.27 462.46 1175.79C471.57 1153.18 491.98 1033.85 492.34 976.64Z" fill="#F7AE7E" fill-opacity="1.000000" fill-rule="nonzero"/>
		<g opacity="0.080000">
			<path id="Vector" d="M449.94 983.09C447.84 969.47 442.93 956.44 435.54 944.82C399.32 884.09 399.54 836.21 386.72 836.82C381.36 837.04 375.13 845.93 369.73 860.94C385.98 895.02 406.26 927.02 430.14 956.27C445.22 974.88 444.86 982.19 440.18 1005.7C432.08 1046.34 436.4 1105.06 440.51 1141.92C441.66 1124.89 429.49 1081.57 444.75 1030.68C450.18 1015.44 451.95 999.14 449.94 983.09Z" fill="#000000" fill-opacity="1.000000" fill-rule="nonzero"/>
		</g>
		<path id="Vector" d="M312.78 724.22C312.78 724.22 360.55 872.07 375.96 888.63L402.56 879.66C443.13 861.84 451.45 851.73 470.96 829.26L389.85 689.48L312.78 724.22Z" fill="#754536" fill-opacity="1.000000" fill-rule="nonzero"/>
		<path id="Vector" d="M258.85 702.84C258.85 702.84 331.75 707.95 389.71 689.41L402.27 723.03L316.63 734.55L258.85 702.84Z" fill="#754536" fill-opacity="1.000000" fill-rule="nonzero"/>
		<path id="Vector" d="M387.53 693.86Q351.84 704.67 302.7 706.67Q287.03 707.31 274.07 707.08L317.33 730.82L397.32 720.06L387.53 693.86ZM389.71 689.41L400.98 719.57L402.27 723.03L398.62 723.52L316.63 734.55L266.16 706.85L258.85 702.84C258.85 702.84 261.82 703.04 267.04 703.22C287.68 703.94 343.45 704.21 389.71 689.41L389.71 689.41Z" fill="#754536" fill-opacity="1.000000" fill-rule="evenodd"/>
		<g opacity="0.300000">
			<path id="Vector" d="M346.84 823.94L347.84 778.43L358.72 854.61L346.84 823.94Z" fill="#000000" fill-opacity="1.000000" fill-rule="nonzero"/>
		</g>
		<path id="Vector" d="M320.52 712.77C320.52 712.77 343.88 679.87 392.52 687.93C441.15 696 447.92 674 447.92 674" fill="#754536" fill-opacity="1.000000" fill-rule="nonzero"/>
		<path id="Vector" d="M320.52 712.77C320.52 712.77 343.88 679.87 392.52 687.93C441.15 696 447.92 674 447.92 674" stroke="#754536" stroke-opacity="1.000000" stroke-width="3.599881"/>
		<path id="Vector" d="M315.59 719.97C315.59 719.97 330.6 682.53 379.81 679C429.02 675.48 430.43 652.55 430.43 652.55" fill="#754536" fill-opacity="1.000000" fill-rule="nonzero"/>
		<path id="Vector" d="M315.59 719.97C315.59 719.97 330.6 682.53 379.81 679C429.02 675.48 430.43 652.55 430.43 652.55" stroke="#754536" stroke-opacity="1.000000" stroke-width="3.599881"/>
		<path id="Vector" d="M436.18 649.7C436.39 650.73 436.28 651.8 435.88 652.77C435.47 653.74 434.79 654.56 433.92 655.14C433.04 655.72 432.01 656.03 430.96 656.02C429.92 656.02 428.89 655.7 428.02 655.11C427.15 654.52 426.48 653.69 426.09 652.71C425.69 651.74 425.6 650.67 425.81 649.64C426.03 648.62 426.54 647.68 427.3 646.94C428.05 646.21 429 645.72 430.03 645.53C431.4 645.27 432.81 645.57 433.96 646.35C435.12 647.13 435.91 648.34 436.18 649.7Z" fill="#754536" fill-opacity="1.000000" fill-rule="nonzero"/>
		<path id="Vector" d="M453.64 671.52C453.79 672.2 453.79 672.9 453.65 673.58C453.52 674.27 453.25 674.92 452.86 675.49C452.47 676.07 451.97 676.56 451.39 676.94C450.81 677.32 450.15 677.58 449.47 677.71C448.77 677.9 448.03 677.94 447.31 677.83C446.59 677.72 445.9 677.47 445.29 677.08C444.67 676.7 444.14 676.19 443.73 675.59C443.32 674.98 443.04 674.31 442.9 673.59C442.76 672.88 442.77 672.14 442.94 671.43C443.1 670.72 443.4 670.05 443.83 669.47C444.26 668.88 444.81 668.39 445.44 668.02C446.07 667.66 446.77 667.43 447.49 667.34C448.17 667.21 448.87 667.22 449.54 667.35C450.22 667.49 450.86 667.77 451.43 668.15C452 668.54 452.49 669.04 452.87 669.62C453.25 670.19 453.52 670.84 453.64 671.52Z" fill="#754536" fill-opacity="1.000000" fill-rule="nonzero"/>
		<path id="Vector" d="M258.85 702.84L215.19 876.89C269.19 870.99 343.38 898.49 343.38 898.49L360.7 705.93L258.85 702.84Z" fill="#754536" fill-opacity="1.000000" fill-rule="nonzero"/>
		<path id="Vector" d="M89.05 766.77C89.05 766.77 73.64 793.41 71.91 802.41C70.47 812.98 70.12 823.66 70.87 834.3C71.48 844.35 78.72 858.78 84.51 858.71C88.11 858.71 79.62 838.52 80.09 834.7C80.55 830.88 83.18 817.89 83.18 817.89C81.57 825.22 80.37 832.64 79.58 840.1C79.26 846.58 88.87 867.75 92.4 865.3C98.95 860.98 87.75 841.11 90.24 837.26C92.72 833.4 93.08 822.35 93.08 822.35C93.08 822.35 83 839.52 91.25 852.52C99.49 865.51 101.79 859.14 100.5 855.8C99.2 852.45 94.88 842.58 96.25 838.08C97.62 833.58 97.26 815.12 99.16 808.78C101.07 802.44 100.71 819.18 101.36 826.46C102.51 839.78 110.47 837.94 109.57 834.38C108.22 825.06 108.5 815.59 110.4 806.37C112.81 798.2 121.2 773.97 89.05 766.77Z" fill="#F7AE7E" fill-opacity="1.000000" fill-rule="nonzero"/>
		<path id="Vector" d="M295.39 399.91C297.76 402.15 299.68 404.83 301.04 407.79C301.9 409.47 302.24 411.36 302.02 413.23C301.89 413.87 301.62 414.48 301.21 415C300.8 415.52 300.28 415.94 299.68 416.21C299.14 416.41 298.58 416.56 298.02 416.68L296.47 416.68C294.73 416.3 293.07 415.58 291.61 414.55C290.14 413.52 288.9 412.22 287.94 410.71C286.06 408.06 284.69 405.08 283.91 401.92C285.96 404.37 287.98 406.75 290.1 408.87C291.87 410.94 294.23 412.41 296.87 413.08L297.59 413.08C297.79 413.06 298 413.06 298.2 413.08C298.2 413.08 298.53 413.08 298.63 412.51C298.79 411.3 298.68 410.07 298.31 408.91C297.59 405.85 296.47 402.93 295.39 399.91Z" fill="#702924" fill-opacity="1.000000" fill-rule="nonzero"/>
		<path id="Vector" d="M326.68 387.23C329.03 389.47 330.93 392.13 332.29 395.08C333.15 396.77 333.49 398.67 333.27 400.55C333.15 401.2 332.88 401.81 332.48 402.33C332.08 402.85 331.56 403.27 330.96 403.54C330.42 403.72 329.87 403.86 329.31 403.97L327.76 403.97C326 403.61 324.34 402.89 322.88 401.87C321.41 400.84 320.17 399.52 319.23 398C317.32 395.37 315.95 392.4 315.16 389.25C317.25 391.7 319.26 394.04 321.35 396.2C323.14 398.24 325.5 399.7 328.12 400.41L328.95 400.41C329.15 400.37 329.35 400.37 329.56 400.41C329.56 400.19 329.88 400.41 329.99 399.83C330.14 398.63 330.03 397.4 329.66 396.23C328.91 393.17 327.72 390.26 326.68 387.23Z" fill="#702924" fill-opacity="1.000000" fill-rule="nonzero"/>
		<path id="Vector" d="M312.39 406.78C315.12 408.8 317.64 410.74 320.27 412.33C322.7 413.94 325.47 414.95 328.37 415.28L331.65 415.49L329.77 417.94C327.69 420.78 325.28 423.36 322.57 425.61C323.68 422.24 325.19 419.03 327.07 416.03L328.48 418.7C324.81 418.66 321.29 417.31 318.54 414.88C317.2 413.84 315.99 412.63 314.94 411.28C313.87 409.92 313.01 408.4 312.39 406.78Z" fill="#702924" fill-opacity="1.000000" fill-rule="nonzero"/>
		<path id="Vector" d="M289.31 425.65C293.02 428.87 297.34 431.32 302.02 432.84C304.31 433.64 306.64 434.31 309 434.86C310.23 435.11 311.45 435.36 312.6 435.69C313.82 435.93 315.02 436.23 316.2 436.59C314.94 436.95 313.65 437.24 312.35 437.45C311.05 437.58 309.74 437.64 308.43 437.63C305.75 437.58 303.1 437.11 300.58 436.23C297.95 435.38 295.5 434.04 293.38 432.27C291.4 430.51 289.99 428.2 289.31 425.65Z" fill="#702924" fill-opacity="1.000000" fill-rule="nonzero"/>
		<path id="Vector" d="M259.5 435.51C259.5 438.03 257.46 440.08 254.93 440.08C252.41 440.08 250.36 438.03 250.36 435.51C250.36 432.98 252.41 430.94 254.93 430.94C257.46 430.94 259.5 432.98 259.5 435.51Z" fill="#AE6C1C" fill-opacity="1.000000" fill-rule="evenodd"/>
		<path id="Vector" d="M273.83 499.41C273.46 499.57 273.06 499.64 272.66 499.62C272.26 499.59 271.87 499.48 271.52 499.28C271.17 499.08 270.87 498.8 270.65 498.47C270.42 498.14 270.28 497.75 270.23 497.35C270.12 496.98 270.11 496.58 270.18 496.2C270.25 495.81 270.42 495.45 270.65 495.14C270.89 494.83 271.2 494.58 271.55 494.41C271.9 494.24 272.29 494.15 272.68 494.15C273.33 494.11 273.97 494.32 274.49 494.72C275.01 495.12 275.36 495.7 275.48 496.34C275.6 496.98 275.49 497.65 275.16 498.21C274.83 498.77 274.31 499.2 273.69 499.41L273.83 499.41Z" fill="#AE6C1C" fill-opacity="1.000000" fill-rule="nonzero"/>
		<path id="Vector" d="M276.64 503.98C276.34 504.21 276 504.38 275.64 504.47C275.27 504.57 274.89 504.58 274.52 504.5C274.15 504.43 273.8 504.28 273.49 504.06C273.19 503.84 272.93 503.55 272.75 503.22C272.53 502.91 272.39 502.56 272.32 502.18C272.26 501.81 272.28 501.42 272.38 501.06C272.49 500.69 272.67 500.35 272.92 500.07C273.17 499.78 273.48 499.56 273.83 499.41C274.45 499.13 275.14 499.08 275.79 499.25C276.45 499.42 277.02 499.8 277.43 500.34C277.74 500.95 277.83 501.64 277.69 502.3C277.54 502.97 277.17 503.56 276.64 503.98Z" fill="#AE6C1C" fill-opacity="1.000000" fill-rule="nonzero"/>
		<path id="Vector" d="M280.56 507.58C280.34 507.87 280.05 508.12 279.72 508.29C279.39 508.47 279.02 508.57 278.65 508.59C278.28 508.61 277.91 508.55 277.56 508.41C277.21 508.27 276.9 508.06 276.64 507.79C276.35 507.55 276.12 507.25 275.96 506.92C275.8 506.58 275.72 506.21 275.72 505.83C275.72 505.46 275.8 505.09 275.96 504.75C276.12 504.41 276.35 504.11 276.64 503.87C277.14 503.48 277.77 503.28 278.41 503.3C279.04 503.33 279.65 503.58 280.12 504.01C280.59 504.44 280.9 505.03 280.98 505.66C281.06 506.29 280.91 506.93 280.56 507.47L280.56 507.58Z" fill="#AE6C1C" fill-opacity="1.000000" fill-rule="nonzero"/>
		<path id="Vector" d="M285.24 510.31C285.09 510.66 284.87 510.98 284.6 511.24C284.32 511.5 283.99 511.69 283.63 511.81C283.27 511.94 282.89 511.98 282.51 511.95C282.13 511.91 281.77 511.8 281.43 511.61C281.1 511.43 280.82 511.17 280.59 510.87C280.36 510.56 280.2 510.22 280.12 509.85C280.04 509.47 280.04 509.09 280.11 508.72C280.19 508.35 280.34 508 280.56 507.69C280.95 507.15 281.52 506.77 282.17 506.62C282.82 506.48 283.5 506.58 284.08 506.9C284.66 507.23 285.1 507.76 285.31 508.39C285.53 509.02 285.5 509.7 285.24 510.31Z" fill="#AE6C1C" fill-opacity="1.000000" fill-rule="nonzero"/>
		<path id="Vector" d="M290.39 511.65C290.34 512.02 290.22 512.39 290.01 512.71C289.81 513.03 289.54 513.3 289.22 513.51C288.9 513.72 288.54 513.85 288.16 513.9C287.79 513.95 287.4 513.92 287.04 513.81C286.66 513.74 286.29 513.58 285.97 513.35C285.66 513.12 285.4 512.82 285.22 512.47C285.04 512.12 284.94 511.74 284.93 511.34C284.92 510.95 285 510.56 285.17 510.21C285.41 509.58 285.86 509.06 286.45 508.74C287.04 508.42 287.72 508.31 288.37 508.44C289.04 508.65 289.6 509.09 289.97 509.67C290.34 510.26 290.49 510.96 290.39 511.65Z" fill="#AE6C1C" fill-opacity="1.000000" fill-rule="nonzero"/>
		<path id="Vector" d="M295.83 511.39C295.89 511.77 295.87 512.15 295.77 512.51C295.67 512.87 295.49 513.21 295.25 513.5C295.01 513.79 294.7 514.02 294.36 514.18C294.02 514.34 293.65 514.42 293.27 514.42C292.89 514.46 292.52 514.41 292.16 514.29C291.8 514.16 291.48 513.96 291.21 513.69C290.94 513.43 290.74 513.11 290.61 512.75C290.48 512.4 290.43 512.02 290.46 511.65C290.5 510.98 290.79 510.35 291.26 509.88C291.73 509.42 292.37 509.14 293.03 509.11C293.7 509.08 294.35 509.29 294.87 509.71C295.38 510.14 295.72 510.74 295.83 511.39Z" fill="#AE6C1C" fill-opacity="1.000000" fill-rule="nonzero"/>
		<path id="Vector" d="M300.97 509.85C301.12 510.19 301.18 510.57 301.17 510.94C301.16 511.32 301.07 511.69 300.91 512.03C300.75 512.37 300.51 512.67 300.23 512.92C299.94 513.16 299.61 513.34 299.25 513.45C298.89 513.56 298.51 513.59 298.14 513.54C297.76 513.5 297.41 513.37 297.08 513.18C296.76 512.99 296.48 512.73 296.27 512.42C296.05 512.11 295.9 511.76 295.82 511.39C295.69 510.73 295.79 510.04 296.13 509.44C296.46 508.85 296.99 508.39 297.63 508.15C298.29 507.99 299 508.07 299.61 508.38C300.23 508.69 300.71 509.21 300.97 509.85Z" fill="#AE6C1C" fill-opacity="1.000000" fill-rule="nonzero"/>
		<path id="Vector" d="M305.65 507.18C305.86 507.49 306 507.84 306.07 508.2C306.14 508.57 306.13 508.94 306.04 509.31C305.96 509.67 305.8 510.01 305.57 510.31C305.35 510.6 305.07 510.85 304.75 511.04C304.43 511.22 304.07 511.33 303.7 511.37C303.33 511.41 302.96 511.38 302.6 511.26C302.25 511.15 301.92 510.97 301.64 510.73C301.36 510.48 301.13 510.18 300.97 509.85C300.68 509.22 300.64 508.51 300.83 507.84C301.03 507.18 301.47 506.61 302.05 506.25C302.66 505.94 303.37 505.86 304.03 506.03C304.69 506.21 305.27 506.61 305.65 507.18Z" fill="#AE6C1C" fill-opacity="1.000000" fill-rule="nonzero"/>
		<path id="Vector" d="M309.58 503.51C309.89 503.75 310.14 504.06 310.32 504.41C310.5 504.76 310.6 505.14 310.62 505.53C310.63 505.92 310.56 506.32 310.41 506.68C310.26 507.04 310.03 507.37 309.74 507.63C309.45 507.9 309.11 508.1 308.74 508.21C308.36 508.33 307.97 508.37 307.58 508.32C307.19 508.27 306.81 508.14 306.48 507.93C306.15 507.72 305.87 507.44 305.65 507.11C305.25 506.54 305.07 505.83 305.15 505.13C305.16 504.81 305.23 504.5 305.36 504.21C305.49 503.92 305.67 503.66 305.91 503.44C306.43 503.02 307.08 502.8 307.75 502.81C308.42 502.83 309.07 503.07 309.58 503.51Z" fill="#AE6C1C" fill-opacity="1.000000" fill-rule="nonzero"/>
		<path id="Vector" d="M312.6 499.05C312.92 499.23 313.2 499.47 313.41 499.76C313.63 500.06 313.79 500.39 313.87 500.75C313.95 501.1 313.95 501.47 313.88 501.83C313.82 502.19 313.67 502.53 313.47 502.83C313.28 503.15 313.02 503.43 312.71 503.64C312.4 503.86 312.05 504 311.68 504.07C311.31 504.13 310.93 504.12 310.57 504.02C310.2 503.92 309.87 503.75 309.58 503.51C309.06 503.08 308.71 502.49 308.59 501.83C308.46 501.18 308.57 500.5 308.89 499.91C309.29 499.33 309.89 498.91 310.58 498.75C311.27 498.59 311.99 498.7 312.6 499.05Z" fill="#AE6C1C" fill-opacity="1.000000" fill-rule="nonzero"/>
		<path id="Vector" d="M315.59 494.55C316.11 494.97 316.48 495.56 316.61 496.22C316.74 496.87 316.63 497.56 316.31 498.15C315.92 498.71 315.34 499.11 314.67 499.27C314.01 499.43 313.31 499.34 312.71 499.01C312.11 498.65 311.68 498.07 311.51 497.4C311.33 496.73 311.43 496.01 311.77 495.41C311.95 495.08 312.19 494.8 312.49 494.57C312.78 494.35 313.12 494.19 313.48 494.11C313.85 494.03 314.22 494.02 314.58 494.1C314.95 494.18 315.29 494.33 315.59 494.55Z" fill="#AE6C1C" fill-opacity="1.000000" fill-rule="nonzero"/>
		<path id="Vector" d="M319.66 491.09C320.13 491.64 320.38 492.35 320.33 493.07C320.28 493.79 319.95 494.47 319.41 494.94C318.86 495.42 318.15 495.66 317.43 495.62C316.7 495.57 316.03 495.24 315.55 494.69C315.32 494.42 315.14 494.11 315.02 493.77C314.91 493.43 314.86 493.07 314.88 492.71C314.91 492.36 315 492.01 315.16 491.68C315.32 491.36 315.54 491.08 315.81 490.84C316.07 490.6 316.39 490.42 316.73 490.31C317.07 490.19 317.43 490.14 317.78 490.17C318.14 490.19 318.49 490.28 318.81 490.44C319.13 490.6 319.42 490.82 319.66 491.09Z" fill="#AE6C1C" fill-opacity="1.000000" fill-rule="nonzero"/>
		<path id="Vector" d="M324.73 489.33C324.85 489.98 324.74 490.66 324.43 491.24C324.11 491.83 323.61 492.3 323.01 492.57C322.36 492.74 321.68 492.69 321.07 492.42C320.46 492.15 319.96 491.68 319.66 491.09C319.5 490.75 319.41 490.38 319.41 490C319.4 489.62 319.48 489.25 319.62 488.9C319.77 488.56 319.99 488.24 320.26 487.99C320.54 487.73 320.87 487.53 321.22 487.41C321.58 487.28 321.96 487.24 322.33 487.27C322.71 487.3 323.07 487.41 323.4 487.59C323.73 487.77 324.02 488.02 324.25 488.32C324.48 488.62 324.64 488.96 324.73 489.33Z" fill="#AE6C1C" fill-opacity="1.000000" fill-rule="nonzero"/>
		<path id="Vector" d="M329.99 488.71C330.1 489.06 330.12 489.44 330.04 489.8C329.97 490.16 329.8 490.49 329.56 490.77C329.3 491.07 328.99 491.31 328.63 491.48C328.28 491.66 327.9 491.76 327.5 491.77C326.81 491.79 326.14 491.55 325.61 491.1C325.09 490.64 324.75 490.01 324.66 489.33C324.61 488.96 324.64 488.6 324.74 488.24C324.84 487.89 325.01 487.57 325.24 487.28C325.48 487 325.77 486.77 326.09 486.61C326.42 486.45 326.78 486.36 327.14 486.34C327.47 486.31 327.79 486.36 328.1 486.47C328.4 486.58 328.68 486.76 328.91 486.99C329.43 487.45 329.8 488.05 329.99 488.71Z" fill="#AE6C1C" fill-opacity="1.000000" fill-rule="nonzero"/>
		<path id="Vector" d="M334.09 485.33C334.43 485.56 334.71 485.87 334.91 486.23C335.1 486.59 335.2 486.99 335.2 487.4C335.2 487.81 335.1 488.21 334.91 488.58C334.71 488.94 334.43 489.24 334.09 489.47C333.74 489.8 333.32 490.04 332.85 490.18C332.39 490.31 331.9 490.33 331.43 490.23C331.06 490.14 330.72 489.96 330.46 489.69C330.19 489.42 330 489.08 329.92 488.71C329.79 488.05 329.79 487.37 329.92 486.7C329.96 486.22 330.14 485.77 330.46 485.4C330.99 485.05 331.62 484.85 332.26 484.84C332.91 484.82 333.54 485 334.09 485.33Z" fill="#AE6C1C" fill-opacity="1.000000" fill-rule="nonzero"/>
		<path id="Vector" d="M335.71 480.22C336.11 480.27 336.49 480.41 336.83 480.64C337.16 480.86 337.44 481.16 337.64 481.51C337.84 481.86 337.95 482.25 337.97 482.65C338 483.05 337.92 483.45 337.77 483.82C337.68 484.19 337.5 484.54 337.26 484.83C337.02 485.13 336.71 485.36 336.37 485.52C336.02 485.68 335.64 485.76 335.26 485.75C334.88 485.74 334.5 485.65 334.16 485.48C333.6 485.16 333.15 484.67 332.87 484.08C332.6 483.5 332.53 482.84 332.65 482.2C332.87 481.58 333.29 481.05 333.85 480.69C334.4 480.33 335.06 480.17 335.71 480.22Z" fill="#AE6C1C" fill-opacity="1.000000" fill-rule="nonzero"/>
		<path id="Vector" d="M335.35 474.89C335.73 474.81 336.12 474.81 336.5 474.89C336.88 474.97 337.24 475.14 337.55 475.37C337.86 475.6 338.12 475.9 338.31 476.24C338.49 476.58 338.6 476.96 338.63 477.35C338.65 477.73 338.59 478.12 338.46 478.49C338.32 478.85 338.1 479.18 337.83 479.45C337.55 479.72 337.22 479.93 336.85 480.07C336.49 480.2 336.1 480.25 335.71 480.22C335.05 480.16 334.43 479.88 333.94 479.42C333.46 478.97 333.14 478.36 333.05 477.7C333.08 477.05 333.32 476.42 333.73 475.91C334.15 475.41 334.72 475.05 335.35 474.89Z" fill="#AE6C1C" fill-opacity="1.000000" fill-rule="nonzero"/>
		<path id="Vector" d="M332.83 470.21C333.08 469.93 333.4 469.73 333.75 469.61C334.11 469.5 334.48 469.48 334.85 469.56C335.27 469.67 335.66 469.86 336 470.12C336.35 470.39 336.63 470.73 336.83 471.11C337 471.44 337.11 471.8 337.12 472.17C337.14 472.54 337.08 472.92 336.94 473.26C336.8 473.6 336.58 473.91 336.31 474.16C336.03 474.41 335.71 474.6 335.35 474.71C334.73 474.87 334.08 474.84 333.48 474.61C332.88 474.39 332.36 473.98 332 473.45C331.83 472.89 331.82 472.29 331.96 471.71C332.11 471.14 332.41 470.62 332.83 470.21Z" fill="#AE6C1C" fill-opacity="1.000000" fill-rule="nonzero"/>
		<path id="Vector" d="M328.12 467.76C328.18 467.41 328.33 467.07 328.55 466.77C328.77 466.48 329.05 466.24 329.38 466.07C329.77 465.9 330.19 465.81 330.62 465.81C331.05 465.81 331.47 465.9 331.86 466.07C332.24 466.22 332.58 466.46 332.85 466.76C333.12 467.07 333.31 467.44 333.4 467.83C333.5 468.23 333.5 468.64 333.4 469.04C333.3 469.43 333.1 469.8 332.83 470.1C332.41 470.55 331.86 470.87 331.26 471.01C330.66 471.16 330.03 471.13 329.45 470.93C329.19 470.81 328.96 470.63 328.76 470.41C328.57 470.2 328.43 469.95 328.33 469.67C328.06 469.07 327.99 468.41 328.12 467.76Z" fill="#AE6C1C" fill-opacity="1.000000" fill-rule="nonzero"/>
		<path id="Vector" d="M322.79 467.51C322.76 467.14 322.82 466.76 322.95 466.41C323.08 466.05 323.29 465.73 323.55 465.47C323.82 465.2 324.14 465 324.49 464.86C324.84 464.73 325.22 464.68 325.6 464.7C325.99 464.72 326.38 464.82 326.74 465C327.1 465.17 327.42 465.41 327.68 465.71C327.91 466 328.08 466.33 328.16 466.68C328.25 467.04 328.26 467.41 328.19 467.76C328.05 468.42 327.7 469 327.19 469.44C326.68 469.87 326.05 470.11 325.38 470.14C324.71 470.08 324.07 469.79 323.6 469.3C323.12 468.82 322.84 468.19 322.79 467.51Z" fill="#AE6C1C" fill-opacity="1.000000" fill-rule="nonzero"/>
		<path id="Vector" d="M317.39 468.34C317.32 467.98 317.32 467.61 317.39 467.26C317.47 466.9 317.61 466.56 317.82 466.26C318.03 465.96 318.29 465.71 318.6 465.51C318.91 465.32 319.26 465.19 319.62 465.14C319.98 465.07 320.35 465.08 320.71 465.17C321.07 465.25 321.4 465.41 321.7 465.64C321.99 465.86 322.23 466.14 322.41 466.47C322.58 466.79 322.69 467.15 322.72 467.51C322.79 468.2 322.59 468.89 322.17 469.43C321.74 469.98 321.13 470.34 320.44 470.45C319.76 470.56 319.06 470.4 318.5 470C317.93 469.61 317.53 469.02 317.39 468.34Z" fill="#AE6C1C" fill-opacity="1.000000" fill-rule="nonzero"/>
		<path id="Vector" d="M274.37 489.04C274.04 488.83 273.77 488.56 273.56 488.23C273.36 487.9 273.23 487.54 273.19 487.15C273.14 486.77 273.18 486.38 273.31 486.02C273.43 485.65 273.63 485.32 273.9 485.04C274.16 484.75 274.48 484.52 274.83 484.35C275.18 484.18 275.56 484.09 275.95 484.07C276.31 484.08 276.67 484.16 277 484.3C277.33 484.45 277.62 484.67 277.86 484.93C278.33 485.46 278.58 486.14 278.58 486.84C278.61 487.16 278.58 487.48 278.48 487.79C278.38 488.09 278.22 488.37 278.01 488.61C277.53 489.07 276.92 489.37 276.26 489.44C275.6 489.52 274.94 489.38 274.37 489.04Z" fill="#AE6C1C" fill-opacity="1.000000" fill-rule="nonzero"/>
		<path id="Vector" d="M272.82 494.15C272.46 494.14 272.11 494.04 271.8 493.87C271.49 493.69 271.22 493.44 271.02 493.14C270.78 492.79 270.63 492.38 270.57 491.96C270.52 491.53 270.56 491.1 270.7 490.69C270.78 490.32 270.95 489.97 271.19 489.67C271.43 489.37 271.74 489.13 272.09 488.97C272.44 488.81 272.82 488.73 273.2 488.75C273.58 488.76 273.96 488.86 274.3 489.04C274.85 489.36 275.3 489.84 275.58 490.42C275.85 491 275.95 491.65 275.85 492.28C275.61 492.8 275.24 493.25 274.77 493.58C274.18 493.93 273.51 494.13 272.82 494.15Z" fill="#AE6C1C" fill-opacity="1.000000" fill-rule="nonzero"/>
		<path id="Vector" d="M278.37 481.05C278.06 481.26 277.8 481.53 277.61 481.84C277.42 482.16 277.29 482.51 277.24 482.88C277.2 483.25 277.23 483.62 277.33 483.97C277.44 484.33 277.62 484.66 277.86 484.94C278.06 485.12 278.28 485.27 278.51 485.4C278.99 483.82 279.36 482.21 279.63 480.58C279.17 480.63 278.74 480.79 278.37 481.05Z" fill="#AE6C1C" fill-opacity="1.000000" fill-rule="nonzero"/>
		<path id="Vector" d="M315.8 471.58C316.39 471.33 316.87 470.89 317.16 470.32C317.45 469.75 317.53 469.1 317.39 468.48C317.28 467.91 316.97 467.39 316.53 467.01C316.08 466.63 315.52 466.42 314.94 466.4C314.57 466.39 314.19 466.48 313.86 466.65C314.44 468.2 315.08 469.85 315.8 471.58Z" fill="#AE6C1C" fill-opacity="1.000000" fill-rule="nonzero"/>
		<g opacity="0.300000">
			<path id="Vector" d="M263 649.09C263 649.09 279.48 649.09 287.04 646.1C287.04 646.1 278.15 655.68 263 649.09Z" fill="#000000" fill-opacity="1.000000" fill-rule="nonzero"/>
		</g>
		<g opacity="0.300000">
			<path id="Vector" d="M363.94 632.53C363.94 632.53 379.78 628.07 386.29 623.14C386.29 623.14 380.39 634.76 363.94 632.53Z" fill="#000000" fill-opacity="1.000000" fill-rule="nonzero"/>
		</g>
		<g opacity="0.300000">
			<path id="Vector" d="M278.4 720.48C278.4 720.48 275.77 774.11 241.47 772.13L242.73 766.95C242.73 766.95 269.29 764.76 278.4 720.48Z" fill="#000000" fill-opacity="1.000000" fill-rule="nonzero"/>
		</g>
		<g opacity="0.300000">
			<path id="Vector" d="M382.01 705.57C382.01 705.57 390.86 728.9 409.76 724.04L407.75 720.44C407.75 720.44 395.33 725.69 382.01 705.57Z" fill="#000000" fill-opacity="1.000000" fill-rule="nonzero"/>
		</g>
		<g opacity="0.300000">
			<path id="Vector" d="M394.1 697.76C342.23 725.91 256.01 714.21 256.01 714.21L254.61 719.76C280.79 721.36 307.06 720.69 333.12 717.74L339.82 746.54C349.43 746.76 338.92 718.03 338.52 716.95C382.01 710.58 394.1 697.76 394.1 697.76Z" fill="#000000" fill-opacity="1.000000" fill-rule="nonzero"/>
		</g>
		<path id="Vector" d="M488.92 771.34C488.92 771.34 494.5 800.14 493.28 808.56C491.29 818.44 488.29 828.09 484.35 837.36C480.75 846.18 469.95 856.88 464.62 855.04C461.24 853.82 475.24 838.44 475.96 834.88C476.68 831.32 478.41 818.86 478.41 818.86C477.58 825.94 476.38 832.97 474.81 839.92C473.08 845.82 457.93 861.81 455.52 858.68C450.98 852.77 467.11 838.41 466.06 834.2C465.02 829.98 468.12 819.98 468.12 819.98C468.12 819.98 471.72 838.48 460.48 847.55C449.25 856.62 448.97 850.25 451.16 847.55C453.36 844.85 460.27 837.44 460.45 832.97C460.63 828.51 466.6 812.09 466.86 805.83C467.11 799.57 462.28 814.68 459.44 821.02C454.29 832.58 447.78 828.47 449.65 825.56C453.7 817.61 456.34 809.02 457.46 800.18C457.86 792.33 458 768.07 488.92 771.34Z" fill="#F7AE7E" fill-opacity="1.000000" fill-rule="nonzero"/>
		<path id="Vector" d="M178.58 1298.04C176.8 1293.27 174.08 1288.9 170.59 1285.19C167.09 1281.49 162.89 1278.52 158.23 1276.47C153.57 1274.41 148.55 1273.31 143.45 1273.22C138.36 1273.14 133.3 1274.07 128.58 1275.98C124.98 1283.97 123.36 1291.31 125.52 1296.96C135.16 1322.45 163.32 1312.77 175.63 1301.36C176.7 1300.34 177.69 1299.23 178.58 1298.04Z" fill="#AE6C1C" fill-opacity="1.000000" fill-rule="nonzero"/>
		<path id="Vector" d="M209.03 1247.29C211.35 1245.63 213.08 1243.26 213.95 1240.54C214.82 1237.82 214.78 1234.9 213.86 1232.19C213.39 1233.76 212.73 1235.25 211.88 1236.63C209.73 1239.93 206.79 1242.65 203.31 1244.51C195.35 1249.48 193.19 1256.36 184.84 1270.76C169.33 1296.5 160.22 1299.3 162.41 1306.36C162.77 1307.39 163.28 1308.36 163.93 1309.24C168.2 1307.28 172.14 1304.68 175.63 1301.54C187.94 1289.91 194.09 1259.6 209.03 1247.29Z" fill="#B33305" fill-opacity="1.000000" fill-rule="nonzero"/>
		<path id="Vector" d="M179.15 1243.32C173.83 1240.88 169.69 1212.87 179.15 1208.48C183.95 1207.43 188.94 1207.76 193.55 1209.42C197.69 1212.4 196.18 1220.22 195.93 1221.4C194.09 1231.16 183.22 1245.19 179.15 1243.32Z" fill="#F54C10" fill-opacity="1.000000" fill-rule="nonzero"/>
		<path id="Vector" d="M468.58 1193.54C473.73 1190.73 475.96 1162.51 466.17 1158.77C461.29 1158.04 456.3 1158.69 451.77 1160.67C447.85 1163.91 449.87 1171.47 450.19 1172.77C452.85 1182.49 464.66 1195.66 468.58 1193.54Z" fill="#F54C10" fill-opacity="1.000000" fill-rule="nonzero"/>
		<g opacity="0.300000">
			<path id="Vector" d="M881.09 1181.36C976.79 1187.18 1053.28 1209.67 1051.94 1231.6C1050.62 1253.53 971.96 1266.59 876.26 1260.77C780.57 1254.94 704.08 1232.46 705.41 1210.53C706.75 1188.6 785.4 1175.54 881.09 1181.36Z" fill="#FFD8A8" fill-opacity="1.000000" fill-rule="evenodd"/>
		</g>
		<path id="Vector" d="M846.21 1001.77C845.67 999.91 845.02 998.08 844.27 996.3C821.44 945.29 755.67 710.58 820.98 720.08C907.55 732.68 903.95 875.31 891.46 951.8C887.5 976.03 891.46 982.33 907.84 1000.84C951.58 1050.66 990.96 1154.91 990.96 1154.91C990.96 1154.91 1013.11 1188.9 975.12 1163.55C954.24 1149.62 861.98 1052.5 846.21 1001.77Z" fill="#F7AE7E" fill-opacity="1.000000" fill-rule="nonzero"/>
		<path id="Vector" d="M990.96 1154.73C990.96 1154.73 991.5 1165.53 970.12 1167.26C970.12 1167.26 979.12 1254.66 993.63 1267.69C1014.33 1286.24 1032.04 1251.21 1032.37 1234.18C1032.68 1217.15 1014.69 1191.31 1016.24 1171.76C1017.79 1152.21 990.96 1154.73 990.96 1154.73Z" fill="#F54C10" fill-opacity="1.000000" fill-rule="nonzero"/>
		<path id="Vector" d="M1031.97 1229.68C1027.32 1227.74 1011.56 1231.23 1005.66 1234.06C994.02 1239.76 987.65 1248.29 986.28 1253.98C990.68 1268.38 995.75 1270.14 1000.44 1271.98C1018.44 1279.18 1032.01 1251.17 1032.32 1234.15C1032.31 1232.65 1032.18 1231.16 1031.97 1229.68Z" fill="#B33305" fill-opacity="1.000000" fill-rule="nonzero"/>
		<path id="Vector" d="M1016.24 1171.76C1016.65 1168.89 1016.13 1165.96 1014.75 1163.41C1013.37 1160.87 1011.2 1158.82 1008.57 1157.61C1010.02 1159.57 1011.28 1161.68 1012.35 1163.88C1013.26 1167.78 1013.17 1171.86 1012.1 1175.72C1010.12 1185.01 1016.24 1191.34 1020.56 1207.43C1028.51 1236.88 1019.8 1243.87 1026.56 1247.03C1027.57 1247.52 1028.66 1247.82 1029.77 1247.97C1031.31 1243.47 1032.18 1238.76 1032.37 1234C1032.65 1217.15 1014.69 1191.31 1016.24 1171.76Z" fill="#B33305" fill-opacity="1.000000" fill-rule="nonzero"/>
		<path id="Vector" d="M985.17 1185.04C979.26 1185.66 961.08 1163.43 967.17 1154.91C970.79 1151.5 975.31 1149.18 980.2 1148.25C985.35 1148.68 988.05 1156.1 988.52 1157.36C991.97 1166.86 989.77 1184.54 985.17 1185.04Z" fill="#F54C10" fill-opacity="1.000000" fill-rule="nonzero"/>
		<path id="Vector" d="M751.75 691.17C751.75 691.17 692.53 535.4 664.78 553.33C626.47 578.06 723.1 682.75 740.37 700.03C765 724.33 751.75 691.17 751.75 691.17Z" fill="#F7AE7E" fill-opacity="1.000000" fill-rule="nonzero"/>
		<path id="Vector" d="M898.2 373.59C901.43 373.45 904.65 374.14 907.54 375.59C910.44 377.04 912.92 379.2 914.75 381.87C920.59 390.98 925.27 390.87 925.27 390.87C925.27 390.87 901.33 402.25 898.2 373.59Z" fill="#9F6619" fill-opacity="1.000000" fill-rule="nonzero"/>
		<path id="Vector" d="M897.69 376.61C895.99 378.99 894.92 381.76 894.6 384.67C894.27 387.57 894.69 390.51 895.82 393.21C899.89 402.14 897.47 405.63 897.47 405.63C897.47 405.63 918.07 393.21 897.69 376.61Z" fill="#9F6619" fill-opacity="1.000000" fill-rule="nonzero"/>
		<path id="Vector" d="M987.54 227.47C983.19 237.91 967.67 305.66 964.18 344.32C960.08 390.47 938.98 453.69 902.98 483.21C852.26 524.78 802.69 581.52 850.78 585.91C854.38 586.24 857.98 587.32 863.13 587.68C924.33 592.18 966.2 472.84 976.82 451.31C977.65 449.72 978.59 448.18 979.62 446.7C1004.43 409.48 999.85 252.78 999.85 252.78C999.85 252.78 1001.19 194.6 987.54 227.47Z" fill="#F7AE7E" fill-opacity="1.000000" fill-rule="nonzero"/>
		<path id="Vector" d="M777.53 664.25C714.96 673.64 727.49 803.81 742.39 888.01C748.04 921.65 747.79 956.01 741.67 989.57C729.68 1058.62 748.15 1172.69 748.15 1172.69C748.15 1172.69 749.23 1221.98 768.6 1177.77C777.74 1156.93 799.02 1052.1 800.64 987.73C801.36 958.1 801.25 928.51 808.63 899.82C832.78 806.15 858.34 652.15 777.53 664.25Z" fill="#F7AE7E" fill-opacity="1.000000" fill-rule="nonzero"/>
		<path id="Vector" d="M783.93 357.39C778.93 365.6 766.69 449.48 792.43 457.54C829.76 469.24 863.42 441.09 868.03 405.02C872.2 371.03 866.48 351.02 843.8 344.58C821.12 338.13 797.54 334.78 783.93 357.39Z" fill="#F7AE7E" fill-opacity="1.000000" fill-rule="nonzero"/>
		<path id="Vector" d="M855.36 426.22C859.21 431.19 867.31 431.41 873.35 426.73C879.4 422.05 881.24 414.27 877.35 409.34C873.46 404.41 865.4 404.15 859.35 408.83C853.3 413.51 851.47 421.18 855.36 426.22Z" fill="#F7AE7E" fill-opacity="1.000000" fill-rule="nonzero"/>
		<path id="Vector" d="M816.66 360.16C816.66 360.16 832.82 416.1 876.45 409.37C913.39 403.69 908.24 323.19 834.04 312.18C801.65 307.39 766.8 330.39 776.45 364.12C783.57 389.5 816.66 360.16 816.66 360.16Z" fill="#D18824" fill-opacity="1.000000" fill-rule="nonzero"/>
		<path id="Vector" d="M887.5 499.87C887.5 499.87 874.58 496.27 855.1 492.03C835.63 487.78 843.98 434.43 843.98 434.43L810.79 438.03C810.79 438.03 815.43 479.14 780.69 481.23C777.09 481.44 766.29 482.34 760.46 485.91C702.07 520.9 764.28 567.8 764.28 567.8L884.37 594.84L887.5 499.87Z" fill="#F7AE7E" fill-opacity="1.000000" fill-rule="nonzero"/>
		<path id="Vector" d="M885.56 484.14L857.08 492.46C793.83 581.05 796.68 609.35 780.77 481.08L774.39 481.77C772.99 482.02 767.99 482.88 766.69 483.21L765.68 483.39C765.68 483.39 718.2 599.52 750.13 622.13C754.67 625.37 752.29 633.68 750.49 638.15C748.85 642.61 746.68 646.86 744.05 650.82L752.36 652.73C751.86 655.75 748.01 667.66 747.65 670.72C744.44 691.53 746.17 683.5 746.82 696.18C740.7 728.29 739.33 742.11 739.33 742.11C739.33 742.11 831.31 780.16 881.78 754.31C881.78 754.31 880.88 729.11 880.99 700.53C880.99 691.46 879.84 662.99 880.16 654.34C880.44 651.29 881.38 648.33 882.89 645.67L894.2 641.21C893.98 626.81 908.85 585.55 917.96 565.9C952.48 491.49 885.56 484.14 885.56 484.14Z" fill="#F54C10" fill-opacity="1.000000" fill-rule="nonzero"/>
		<path id="Vector" d="M779 658.77C769.99 657.48 761.08 655.5 752.36 652.87C751.86 655.86 748.01 667.81 747.65 670.87C745.56 684.37 746.35 680.34 746.39 685.85C761.33 709.86 794.99 715.76 807.87 718.03C813.24 718.96 851.68 725.8 881.02 717.16C881.02 711.91 881.02 706.36 881.02 700.68C881.02 691.6 880.41 673.14 880.34 664.68C880.54 658.38 881.41 652.11 882.93 645.99C841.35 658.77 810.29 663.74 779 658.77Z" fill="#F7AE7E" fill-opacity="1.000000" fill-rule="nonzero"/>
		<path id="Vector" d="M880.48 672.49C880.48 672.49 786.27 713.71 747.65 670.83L690.91 869.91C690.91 869.91 761.54 942.12 839.44 922.39C917.35 902.66 912.23 880.81 973.61 877.97L880.48 672.49Z" fill="#754536" fill-opacity="1.000000" fill-rule="nonzero"/>
		<path id="Vector" d="M822.35 396.77C821.45 399.94 820.44 402.97 819.86 405.92C819.57 407.16 819.57 408.45 819.86 409.7C819.86 410.17 820.15 410.09 820.37 410.27L821.01 410.27L821.84 410.27C824.47 409.39 826.77 407.74 828.43 405.52C830.41 403.22 832.28 400.7 834.23 398.07C833.6 401.31 832.38 404.41 830.63 407.21C829.76 408.81 828.58 410.22 827.17 411.35C825.75 412.49 824.13 413.33 822.38 413.84C821.88 413.84 821.37 413.84 820.83 413.84C820.26 413.77 819.7 413.66 819.14 413.51C818.5 413.26 817.92 412.87 817.45 412.36C817 411.89 816.69 411.3 816.55 410.67C816.18 408.79 816.39 406.84 817.16 405.09C818.35 402.02 820.11 399.2 822.35 396.77Z" fill="#702924" fill-opacity="1.000000" fill-rule="nonzero"/>
		<path id="Vector" d="M789.59 386.15C788.72 389.29 787.71 392.31 787.14 395.26C786.85 396.52 786.85 397.82 787.14 399.08C787.14 399.51 787.43 399.44 787.64 399.62L788.25 399.62L789.08 399.62C791.72 398.75 794.04 397.09 795.71 394.87C797.69 392.56 799.56 390.01 801.5 387.38C800.9 390.63 799.67 393.73 797.9 396.52C797.05 398.13 795.88 399.54 794.47 400.69C793.06 401.83 791.44 402.68 789.69 403.18L788.15 403.18C787.56 403.13 786.98 403.02 786.42 402.86C785.79 402.61 785.23 402.23 784.76 401.74C784.31 401.27 784 400.69 783.86 400.05C783.5 398.16 783.7 396.21 784.44 394.43C785.62 391.38 787.37 388.57 789.59 386.15Z" fill="#702924" fill-opacity="1.000000" fill-rule="nonzero"/>
		<path id="Vector" d="M805.5 404.77C804.96 406.4 804.2 407.95 803.23 409.37C802.29 410.84 801.16 412.18 799.88 413.37C797.26 416 793.79 417.61 790.09 417.91L791.31 415.13C793.42 418.04 795.19 421.18 796.57 424.49C793.65 422.42 790.99 420 788.65 417.29L786.56 414.95L789.84 414.56C792.77 414 795.53 412.77 797.9 410.96C800.46 409.12 802.91 407 805.5 404.77Z" fill="#702924" fill-opacity="1.000000" fill-rule="nonzero"/>
		<path id="Vector" d="M830.37 422.37C829.69 425.06 828.24 427.48 826.2 429.35C824.21 431.25 821.89 432.78 819.36 433.85C816.83 434.87 814.18 435.52 811.47 435.8C810.13 435.87 808.78 435.87 807.44 435.8C806.11 435.67 804.79 435.46 803.48 435.18C804.72 434.72 805.98 434.33 807.26 434.03L810.86 432.92C813.3 432.21 815.71 431.38 818.06 430.43C822.66 428.58 826.84 425.84 830.37 422.37Z" fill="#702924" fill-opacity="1.000000" fill-rule="nonzero"/>
		<g opacity="0.300000">
			<path id="Vector" d="M883.58 614.78C883.58 614.78 864.72 629.51 853.41 632.78C853.41 632.93 872.17 635.81 883.58 614.78Z" fill="#000000" fill-opacity="1.000000" fill-rule="nonzero"/>
		</g>
		<g opacity="0.300000">
			<path id="Vector" d="M768.53 629.97C762.91 629.03 757.5 627.1 752.54 624.29C752.54 624.29 752.94 634.26 768.53 629.97Z" fill="#000000" fill-opacity="1.000000" fill-rule="nonzero"/>
		</g>
		<path id="Vector" d="M935.99 337.23C936.38 344.32 934.66 351.36 931.06 357.48C927.46 363.59 922.13 368.5 915.74 371.6C909.35 374.69 902.19 375.83 895.16 374.86C888.13 373.9 881.54 370.88 876.22 366.18C870.9 361.49 867.09 355.32 865.26 348.46C863.44 341.6 863.68 334.36 865.96 327.64C868.23 320.92 872.45 315.02 878.07 310.69C883.69 306.35 890.47 303.78 897.55 303.29C902.3 302.98 907.07 303.62 911.58 305.17C916.08 306.71 920.24 309.13 923.81 312.28C927.39 315.43 930.3 319.26 932.39 323.54C934.48 327.82 935.7 332.48 935.99 337.23Z" fill="#D18824" fill-opacity="1.000000" fill-rule="nonzero"/>
		<path id="Vector" d="M870.98 324.24C876.13 324.76 881.01 326.79 885.02 330.07C889.21 333.27 892.67 337.33 895.17 341.98C897.57 346.58 899.08 351.59 899.63 356.74C899.85 359.27 899.85 361.81 899.63 364.34C899.37 366.84 898.9 369.32 898.23 371.75C897.26 369.34 896.72 367 896 364.55C895.28 362.11 894.63 360.02 893.8 357.86C892.31 353.58 890.52 349.4 888.44 345.37C884.05 337.25 878.12 330.07 870.98 324.24Z" fill="#9F6619" fill-opacity="1.000000" fill-rule="nonzero"/>
		<path id="Vector" d="M865.94 494.55C865.94 494.55 918.75 468.88 926.31 450.88C933.87 432.88 956.37 324.7 956.37 324.7L1015.09 391.05C1015.09 391.05 983.37 504.59 949.24 531.63C915.11 558.66 881.24 583.64 881.24 583.64L865.94 494.55Z" fill="#F54C10" fill-opacity="1.000000" fill-rule="nonzero"/>
		<path id="Vector" d="M779.15 481.73C779.15 481.73 764.24 479.72 733.97 493.97C698.62 510.6 643.75 560.71 651.71 577.56C659.67 594.41 699.88 668.17 699.88 668.17L728.68 606.72L715.82 587.28L754.49 536.88L779.15 481.73Z" fill="#F54C10" fill-opacity="1.000000" fill-rule="nonzero"/>
		<path id="Vector" d="M711.58 701.58C709.56 698.59 706.28 692.65 708.23 690.31C710.17 687.97 719.75 696.25 719.75 696.25C720.58 694.99 710.24 686.82 713.2 684.3C716.15 681.78 724 685.2 727.34 686.74C731.74 688.76 726.34 666.76 729.29 664.42C732.24 662.08 737.14 664.1 739.55 665.04C746.75 667.84 757.08 675.55 757.29 686.28C757.29 690.99 754.85 695.02 749.84 703.16C744.16 712.34 741.31 716.91 736.88 718.31C729.07 720.8 720.07 714.03 711.58 701.58Z" fill="#F7AE7E" fill-opacity="1.000000" fill-rule="nonzero"/>
		<path id="Vector" d="M986.61 260.37C986.61 260.37 986.03 229.16 988.95 220.31C992.91 210.22 997.89 200.57 1003.82 191.51C1009.29 182.9 1022.93 173.51 1028.05 176.57C1031.43 178.48 1013.65 192.08 1012.24 195.68C1010.84 199.28 1006.66 212.14 1006.66 212.14C1008.82 204.8 1011.37 197.59 1014.29 190.54C1017.25 184.67 1036.29 170.59 1038.31 174.37C1041.91 181.57 1022.21 193.56 1022.5 198.2C1022.79 202.85 1017.68 212.82 1017.68 212.82C1017.68 212.82 1017.14 192.62 1030.93 185.14C1044.71 177.65 1043.63 184.45 1040.82 186.79C1038.02 189.13 1029.27 195.72 1028.26 200.4C1027.25 205.08 1017.82 221.28 1016.38 227.83C1014.94 234.38 1015.55 223.3 1019.73 217.03C1027.36 205.8 1033.55 211.34 1031 214.08C1028.43 216.82 1026.61 228.48 1022.14 236.43C1014.69 250.04 1005.22 262.79 986.61 260.37Z" fill="#F7AE7E" fill-opacity="1.000000" fill-rule="nonzero"/>
		<g opacity="0.150000">
			<path id="Vector" d="M800.93 667.59C800.93 670.11 799.81 672.09 798.77 672.06C797.72 672.02 797 669.9 797.15 667.38C797.29 664.86 798.26 662.88 799.31 662.95C800.35 663.02 801.11 665.07 800.93 667.59Z" fill="#000000" fill-opacity="1.000000" fill-rule="nonzero"/>
		</g>
		<path id="Vector" d="M825.48 480.65C831.85 480.64 838.18 479.74 844.3 477.99C843.5 474.74 842.97 471.43 842.72 468.09C830.52 472.1 817.28 471.63 805.39 466.76C803.69 469.75 801.46 472.41 798.8 474.6C807.11 478.65 816.24 480.72 825.48 480.65Z" fill="#754536" fill-opacity="1.000000" fill-rule="nonzero"/>
		<path id="Vector" d="M819.18 488.86C818.17 494.55 814.28 498.65 810.46 497.97C806.65 497.28 804.38 492.13 805.39 486.41C806.4 480.69 810.32 476.65 814.14 477.3C817.95 477.95 820.22 483.13 819.18 488.86Z" fill="#754536" fill-opacity="1.000000" fill-rule="nonzero"/>
		<path id="Vector" d="M772.77 1166C772.77 1166 764.89 1173.19 749.66 1158.32C749.66 1158.32 679.54 1214.71 687.78 1241.13C696.03 1267.55 725.26 1259.56 738.54 1248.8C751.82 1238.03 760.14 1207.68 776.05 1196.17C791.96 1184.65 772.77 1166 772.77 1166Z" fill="#F54C10" fill-opacity="1.000000" fill-rule="nonzero"/>
		<path id="Vector" d="M741.71 1245.56C740.22 1240.63 737.77 1236.04 734.51 1232.06C729.42 1226.15 722.72 1221.85 715.22 1219.72C707.72 1217.57 699.75 1217.68 692.32 1220.03C688.07 1227.88 686.02 1235.23 687.85 1241.06C696.06 1267.48 725.33 1259.49 738.61 1248.73C739.71 1247.74 740.75 1246.68 741.71 1245.56Z" fill="#B33305" fill-opacity="1.000000" fill-rule="nonzero"/>
		<path id="Vector" d="M775.98 1196.13C778.44 1194.61 780.34 1192.32 781.4 1189.64C782.46 1186.94 782.61 1183.98 781.85 1181.18C781.28 1182.74 780.5 1184.21 779.54 1185.55C777.15 1188.77 773.98 1191.32 770.33 1193C761.9 1197.5 759.53 1204.48 749.84 1218.19C732.38 1243.4 722.92 1245.52 724.64 1252.79C724.92 1253.87 725.38 1254.9 726.01 1255.81C730.49 1254.06 734.66 1251.64 738.4 1248.62C751.75 1237.96 759.96 1207.65 775.98 1196.13Z" fill="#B33305" fill-opacity="1.000000" fill-rule="nonzero"/>
		<path id="Vector" d="M745.78 1190.23C740.52 1187.42 738.11 1158.8 748.04 1154.98C753.01 1154.23 758.08 1154.88 762.69 1156.86C766.73 1160.13 764.71 1167.84 764.35 1169.13C761.76 1179 749.77 1192.39 745.78 1190.23Z" fill="#F54C10" fill-opacity="1.000000" fill-rule="nonzero"/>
		<g opacity="0.300000">
			<path id="Vector" d="M1434.8 1212.03C1435.99 1233.97 1359.35 1255.96 1263.62 1261.14C1167.89 1266.32 1089.31 1252.75 1088.14 1230.81C1086.94 1208.87 1163.59 1186.88 1259.31 1181.69C1355.04 1176.52 1433.61 1190.1 1434.8 1212.03Z" fill="#FFD8A8" fill-opacity="1.000000" fill-rule="evenodd"/>
		</g>
		<path id="Vector" d="M1605.4 552.94C1594.34 551.28 1557.59 538.03 1523.18 521.29C1482.06 501.31 1419.79 500.13 1374.32 509.59C1311.21 522.7 1250.88 530.87 1272.84 488.97C1308.01 421.9 1415.72 450.56 1439.08 456.57C1440.85 456.84 1442.64 456.84 1444.41 456.57C1488.36 454.66 1612.31 535.12 1612.31 535.12C1612.31 535.12 1640.06 558.16 1605.4 552.94Z" fill="#F7AE7E" fill-opacity="1.000000" fill-rule="nonzero"/>
		<g opacity="0.080000">
			<path id="Vector" d="M1374.32 509.59C1391.38 506.15 1408.72 504.27 1426.12 503.98C1390.34 500.38 1354.7 499.44 1349.26 513.59C1349.14 513.9 1349.04 514.23 1348.98 514.56C1357.22 513.05 1365.75 511.39 1374.32 509.59Z" fill="#000000" fill-opacity="1.000000" fill-rule="nonzero"/>
		</g>
		<path id="Vector" d="M1587.97 523.42C1587.97 523.42 1614.79 534.86 1621.2 540.73C1628.29 547.93 1634.61 555.84 1640.06 564.35C1645.32 572.3 1648.02 587.39 1643.66 590.59C1640.78 592.71 1635.92 572.59 1633.4 569.89C1630.88 567.19 1621.52 558.88 1621.52 558.88C1626.93 563.5 1632.09 568.42 1636.97 573.6C1640.85 578.32 1645.61 599.84 1641.61 600.09C1634.2 600.53 1631.39 579.11 1627.21 577.59C1623.04 576.08 1616.59 567.91 1616.59 567.91C1616.59 567.91 1634.02 575.11 1635.13 589.73C1636.25 604.34 1630.88 600.74 1629.95 597.47C1629.01 594.19 1626.74 584.29 1623.14 581.63C1619.54 578.96 1609.32 564.78 1604.28 561.07C1599.24 557.36 1609.03 569.82 1612.67 575.72C1619.33 586.52 1612.27 589.58 1610.94 586.52C1606.64 578.7 1601.01 571.69 1594.31 565.79C1587.86 560.89 1567.89 547.18 1587.97 523.42Z" fill="#F7AE7E" fill-opacity="1.000000" fill-rule="nonzero"/>
		<path id="Vector" d="M1205.27 513.48C1204.55 490.77 1193.86 486.88 1184.21 488.07C1179.9 488.69 1175.79 490.32 1172.22 492.82C1168.65 495.32 1165.71 498.63 1163.65 502.47C1148.21 529.83 1101.84 615.68 1096.62 668.24C1096.29 671.68 1095.32 675.02 1093.78 678.1C1069.37 725.51 1049.72 813.5 1049.65 832.5C1049.65 872.75 1071.24 837.36 1071.24 837.36C1071.24 837.36 1128.84 748.19 1139.46 691.42C1140.1 687.94 1141.42 684.61 1143.35 681.63C1174.31 633.57 1205.92 534.43 1205.27 513.48Z" fill="#F7AE7E" fill-opacity="1.000000" fill-rule="nonzero"/>
		<path id="Vector" d="M1050.43 826.53C1050.43 826.53 1044.1 857.85 1045.4 867.28C1047.52 878.13 1050.72 888.75 1054.97 898.96C1058.9 908.64 1070.81 920.56 1076.56 918.43C1080.17 917.14 1065.05 900.18 1064.26 896.29C1063.47 892.41 1061.71 878.76 1061.71 878.76C1062.5 886.5 1063.69 894.19 1065.31 901.8C1067.14 908.28 1083.63 925.92 1086.29 922.5C1091.3 916.06 1073.73 900.25 1074.88 895.61C1076.03 890.97 1072.76 880.02 1072.76 880.02C1072.76 880.02 1068.51 900.25 1080.93 910.3C1093.35 920.34 1093.49 913.32 1091.12 910.3C1088.74 907.27 1081.22 899.21 1081.06 894.31C1080.93 889.42 1074.44 871.38 1074.23 864.54C1074.02 857.7 1079.17 874.23 1082.23 881.21C1087.81 893.88 1094.97 889.45 1093.02 886.25C1088.66 877.51 1085.82 868.09 1084.67 858.39C1084.28 849.57 1084.28 823.14 1050.43 826.53Z" fill="#F7AE7E" fill-opacity="1.000000" fill-rule="nonzero"/>
		<g opacity="0.080000">
			<path id="Vector" d="M1174.27 587.21L1171.86 590.56C1171.86 590.56 1163.01 631.45 1155.81 649.34C1151.63 659.75 1147.92 670.73 1145.55 678.14C1158.97 656.22 1172.4 625.33 1183.09 595.92L1174.27 587.21Z" fill="#000000" fill-opacity="1.000000" fill-rule="nonzero"/>
		</g>
		<path id="Vector" d="M1347.32 1187.96C1347.32 1187.96 1354.88 1193.79 1367.01 1179.21C1367.01 1179.21 1433.47 1223.19 1428.5 1247.29C1423.53 1271.37 1397.07 1266.76 1384.47 1258.34C1371.87 1249.91 1362.08 1223.78 1347 1214.92C1331.91 1206.06 1347.32 1187.96 1347.32 1187.96Z" fill="#F54C10" fill-opacity="1.000000" fill-rule="nonzero"/>
		<path id="Vector" d="M1381.34 1255.89C1382.26 1251.39 1384.07 1247.12 1386.66 1243.32C1389.25 1239.53 1392.58 1236.29 1396.43 1233.8C1400.29 1231.31 1404.61 1229.61 1409.13 1228.8C1413.65 1228 1418.29 1228.1 1422.77 1229.11C1427.2 1235.73 1429.61 1242.03 1428.5 1247.36C1423.49 1271.48 1397.07 1266.82 1384.47 1258.41C1383.38 1257.64 1382.33 1256.79 1381.34 1255.89Z" fill="#F54C10" fill-opacity="1.000000" fill-rule="nonzero"/>
		<path id="Vector" d="M1347 1215C1344.69 1213.85 1342.82 1211.99 1341.66 1209.68C1340.5 1207.4 1340.11 1204.79 1340.55 1202.25C1341.21 1203.55 1342.02 1204.75 1342.96 1205.85C1345.34 1208.5 1348.35 1210.49 1351.71 1211.65C1359.49 1214.96 1362.3 1220.9 1371.87 1232.24C1389.37 1252.97 1397.86 1254.16 1396.89 1260.79C1396.76 1261.76 1396.46 1262.69 1395.99 1263.56C1391.9 1262.43 1388.02 1260.67 1384.47 1258.34C1371.87 1249.99 1362.08 1223.96 1347 1215Z" fill="#B33305" fill-opacity="1.000000" fill-rule="nonzero"/>
		<path id="Vector" d="M1398.87 1010.41C1398.75 1008.71 1398.53 1007.02 1398.22 1005.34C1395.56 956.23 1352.94 746.14 1305.85 779.41C1243.43 823.72 1303.29 934.2 1343.61 989.17C1356.43 1006.6 1355.74 1013.15 1350.49 1034.14C1336.34 1090.62 1347.36 1188.03 1347.36 1188.03C1347.36 1188.03 1356.82 1202.22 1363.16 1188.54C1372.38 1168.56 1396.17 1061.96 1398.87 1010.41Z" fill="#F7AE7E" fill-opacity="1.000000" fill-rule="nonzero"/>
		<g opacity="0.080000">
			<path id="Vector" d="M1360.39 1014.3C1359.07 1001.94 1355.2 989.98 1349.01 979.2C1319.06 922.9 1321.22 879.74 1309.81 879.59C1304.99 879.59 1299.01 887.29 1293.43 900.58C1306.55 932.01 1323.4 961.75 1343.61 989.17C1356.43 1006.6 1355.74 1013.15 1350.49 1034.14C1341.38 1070.39 1342.68 1123.52 1344.76 1156.89C1346.56 1141.63 1337.56 1102.06 1353.51 1056.85C1359.11 1043.41 1361.47 1028.82 1360.39 1014.3Z" fill="#000000" fill-opacity="1.000000" fill-rule="nonzero"/>
		</g>
		<path id="Vector" d="M1367.88 1204.81C1372.63 1202.5 1375.9 1177.16 1367.26 1173.38C1362.92 1172.5 1358.41 1172.88 1354.27 1174.46C1350.67 1177.19 1352.04 1184.14 1352.29 1185.26C1354.2 1194.15 1364.24 1206.54 1367.88 1204.81Z" fill="#F54C10" fill-opacity="1.000000" fill-rule="nonzero"/>
		<path id="Vector" d="M1218.01 767.09C1218.01 767.09 1270.61 884.2 1336.81 981.83C1336.81 981.83 1338.57 1139.9 1342.57 1166.61L1378.78 1163.01C1378.78 1163.01 1409.42 1036.23 1407.58 1005.37C1405.75 974.52 1337.96 698.77 1337.96 698.77L1168.18 702.58L1218.01 767.09Z" fill="#754536" fill-opacity="1.000000" fill-rule="nonzero"/>
		<g opacity="0.300000">
			<path id="Vector" d="M1341.81 967.21C1327.77 936.5 1322.48 923.51 1288.17 871.81C1257.22 825.23 1247.68 789.23 1221.4 763.03C1222.32 768.68 1223.27 774.55 1224.28 780.56C1240.04 814.07 1284.11 904.11 1336.84 981.83C1336.84 981.83 1338.57 1113.12 1340.66 1139.29L1342.75 1096.09C1342.75 1096.09 1344.48 1071.61 1344.08 1050.12C1343.25 1002.03 1354.7 995.47 1341.81 967.21Z" fill="#000000" fill-opacity="1.000000" fill-rule="nonzero"/>
		</g>
		<path id="Vector" d="M1170.81 1218.69C1170.81 1218.69 1165.13 1226.37 1149.47 1215.64C1149.47 1215.64 1097.56 1276.12 1108.9 1297.93C1120.24 1319.75 1144.47 1308.09 1154.29 1296.56C1164.12 1285.05 1166.39 1257.18 1178.49 1244.55C1190.57 1231.91 1170.81 1218.69 1170.81 1218.69Z" fill="#F54C10" fill-opacity="1.000000" fill-rule="nonzero"/>
		<path id="Vector" d="M1213.37 778.4C1158.15 782 1155.44 930.31 1162.11 1005.19C1164.73 1035.15 1163.04 1031.47 1157.61 1061.03C1145.43 1127.41 1148.06 1222.69 1148.06 1222.69C1148.06 1222.69 1145.22 1250.42 1166.89 1228.1C1180.86 1213.69 1202.89 1120.1 1209.16 1063.8C1212.04 1037.88 1208.87 1032.05 1217.47 1007.43C1245.59 927.11 1284.75 773.97 1213.37 778.4Z" fill="#F7AE7E" fill-opacity="1.000000" fill-rule="nonzero"/>
		<path id="Vector" d="M1156.53 1293.36C1154.41 1289.29 1151.5 1285.68 1147.97 1282.74C1144.43 1279.8 1140.36 1277.6 1135.97 1276.26C1131.57 1274.92 1126.96 1274.47 1122.4 1274.93C1117.82 1275.4 1113.4 1276.77 1109.37 1278.96C1106.92 1286.49 1106.31 1293.36 1108.82 1298.07C1120.19 1319.9 1144.39 1308.23 1154.18 1296.68C1155.04 1295.63 1155.81 1294.52 1156.53 1293.36Z" fill="#F54C10" fill-opacity="1.000000" fill-rule="nonzero"/>
		<path id="Vector" d="M1178.49 1244.55C1180.39 1242.81 1181.68 1240.52 1182.17 1238C1182.67 1235.48 1182.32 1232.87 1181.22 1230.55C1180.93 1231.99 1180.49 1233.39 1179.89 1234.72C1178.32 1237.93 1175.97 1240.68 1173.05 1242.72C1166.46 1248.01 1165.38 1254.49 1159.3 1267.91C1148.1 1292.61 1140.26 1296.1 1142.99 1302.18C1143.4 1303.07 1143.96 1303.9 1144.65 1304.6C1148.25 1302.38 1151.5 1299.63 1154.29 1296.46C1164.09 1285.16 1166.39 1257.18 1178.49 1244.55Z" fill="#B33305" fill-opacity="1.000000" fill-rule="nonzero"/>
		<path id="Vector" d="M1151.27 1244.18C1146.27 1242.56 1139.56 1217.91 1147.67 1212.98C1151.85 1211.53 1156.36 1211.29 1160.67 1212.3C1164.69 1214.49 1164.27 1221.57 1164.09 1222.74C1163.4 1231.81 1155.12 1245.56 1151.27 1244.18Z" fill="#F54C10" fill-opacity="1.000000" fill-rule="nonzero"/>
		<path id="Vector" d="M1173.16 701.72C1173.16 701.72 1148.81 938.02 1144.36 982.51C1139.9 1027.01 1143.14 1187.42 1143.14 1187.42L1188.21 1190.37C1188.21 1190.37 1215.39 1068.69 1234.14 989.03C1252.9 909.36 1289.54 703.34 1289.54 703.34L1173.16 701.72Z" fill="#754536" fill-opacity="1.000000" fill-rule="nonzero"/>
		<path id="Vector" d="M1194.15 466.5C1194.15 466.5 1190.37 467.66 1209.3 462.9C1228.24 458.15 1217.54 407.68 1217.54 407.68L1250.12 410.45C1250.12 410.45 1248.22 458.69 1272.26 458.37C1282.74 458.37 1288.79 458.08 1292.53 459.16C1356.72 477.63 1312.47 519.96 1312.47 519.96L1181.15 566.76L1194.15 466.5Z" fill="#F7AE7E" fill-opacity="1.000000" fill-rule="nonzero"/>
		<path id="Vector" d="M1276.76 325.75C1281.98 334.03 1296.27 419.78 1270.18 428.24C1205.59 449.15 1197.81 412.87 1192.56 376.11C1187.63 341.52 1192.99 320.78 1215.89 313.91C1238.78 307.03 1262.36 303 1276.76 325.75Z" fill="#F7AE7E" fill-opacity="1.000000" fill-rule="nonzero"/>
		<path id="Vector" d="M1193.28 352.78C1193.28 352.78 1218.77 412.51 1194.57 411.32C1168.91 410.06 1128.59 309.94 1217.93 290C1250.34 282.8 1289 293.85 1280.06 328.52C1273.34 354.58 1193.28 352.78 1193.28 352.78Z" fill="#D18824" fill-opacity="1.000000" fill-rule="nonzero"/>
		<path id="Vector" d="M1213.18 395.98C1209.37 401.13 1201.17 401.49 1194.9 396.85C1188.64 392.2 1186.66 384.28 1190.47 379.17C1194.29 374.06 1202.5 373.66 1208.76 378.31C1215.03 382.95 1217.04 390.94 1213.18 395.98Z" fill="#F7AE7E" fill-opacity="1.000000" fill-rule="nonzero"/>
		<path id="Vector" d="M1238.6 366.79C1240.9 369.25 1242.72 372.12 1243.97 375.25C1244.77 377.02 1245.02 378.99 1244.68 380.9C1244.54 381.55 1244.23 382.16 1243.79 382.67C1243.35 383.18 1242.79 383.57 1242.17 383.81C1241.6 383.98 1241.02 384.11 1240.43 384.21C1239.9 384.21 1239.4 384.21 1238.86 384.21C1237.06 383.75 1235.4 382.93 1233.93 381.8C1232.48 380.68 1231.26 379.27 1230.36 377.66C1228.55 374.83 1227.27 371.7 1226.57 368.41C1228.6 371.03 1230.54 373.63 1232.59 375.93C1234.32 378.18 1236.72 379.84 1239.43 380.68L1240.26 380.68C1240.48 380.67 1240.68 380.67 1240.91 380.68C1241.12 380.5 1241.3 380.68 1241.41 380.07C1241.73 378.79 1241.73 377.46 1241.41 376.18C1240.76 373.01 1239.54 369.95 1238.6 366.79Z" fill="#702924" fill-opacity="1.000000" fill-rule="nonzero"/>
		<path id="Vector" d="M1271.57 355.23C1273.88 357.7 1275.71 360.56 1276.98 363.69C1277.76 365.47 1278.01 367.43 1277.69 369.34C1277.54 370 1277.22 370.6 1276.79 371.11C1276.35 371.63 1275.8 372.03 1275.18 372.29C1274.61 372.45 1274.03 372.57 1273.44 372.65L1271.87 372.65C1270.07 372.18 1268.41 371.36 1266.94 370.23C1265.49 369.1 1264.27 367.68 1263.37 366.07C1261.61 363.23 1260.39 360.1 1259.77 356.81C1261.75 359.48 1263.69 362.03 1265.78 364.34C1267.51 366.58 1269.89 368.24 1272.59 369.09L1273.44 369.09C1273.67 369.05 1273.88 369.05 1274.1 369.09C1274.31 368.87 1274.5 369.09 1274.6 368.48C1274.9 367.19 1274.9 365.85 1274.6 364.55C1273.63 361.49 1272.55 358.4 1271.57 355.23Z" fill="#702924" fill-opacity="1.000000" fill-rule="nonzero"/>
		<path id="Vector" d="M1255.81 374.6C1258.51 376.79 1261 378.95 1263.66 380.75C1266.07 382.6 1268.91 383.83 1271.9 384.35L1275.21 384.71L1273.19 387.09C1270.88 389.91 1268.23 392.45 1265.31 394.65C1266.64 391.25 1268.37 388.02 1270.46 385.04L1271.76 387.74C1267.98 387.53 1264.42 385.96 1261.72 383.31C1260.36 382.14 1259.16 380.81 1258.12 379.35C1257.14 377.87 1256.37 376.28 1255.81 374.6Z" fill="#702924" fill-opacity="1.000000" fill-rule="nonzero"/>
		<path id="Vector" d="M1230.97 393.1C1234.63 396.63 1238.97 399.39 1243.72 401.2C1246.02 402.17 1248.43 402.86 1250.92 403.61L1254.69 404.62C1255.96 404.95 1257.25 405.27 1258.55 405.74C1257.22 406.05 1255.87 406.26 1254.52 406.39C1253.16 406.46 1251.8 406.46 1250.44 406.39C1247.68 406.16 1244.99 405.53 1242.42 404.51C1239.77 403.5 1237.31 402 1235.22 400.09C1233.16 398.22 1231.68 395.79 1230.97 393.1Z" fill="#702924" fill-opacity="1.000000" fill-rule="nonzero"/>
		<path id="Vector" d="M1208.57 463.34C1208.57 463.34 1238.03 502.54 1269.24 458.22C1269.24 458.22 1270.43 445.23 1337.38 437.45L1365.03 520.25L1336.74 530.19L1369.14 798.05L1152.67 803.06L1177.18 592L1121.06 575.98C1121.06 575.98 1141.15 470.75 1208.57 463.34Z" fill="#F54C10" fill-opacity="1.000000" fill-rule="nonzero"/>
		<g opacity="0.300000">
			<path id="Vector" d="M1362.15 797.87L1162.75 802.81L1161.78 812.49L1362.15 797.87Z" fill="#000000" fill-opacity="1.000000" fill-rule="nonzero"/>
		</g>
		<g opacity="0.300000">
			<path id="Vector" d="M1359.88 505.06C1359.88 505.06 1334.07 513.23 1336.74 530.26L1365.03 520.32L1359.88 505.06Z" fill="#000000" fill-opacity="1.000000" fill-rule="nonzero"/>
		</g>
		<g opacity="0.300000">
			<path id="Vector" d="M1177.37 592.14L1179.21 569.78L1171.86 590.56L1177.37 592.14Z" fill="#000000" fill-opacity="1.000000" fill-rule="nonzero"/>
		</g>
		<g opacity="0.300000">
			<path id="Vector" d="M1193.53 810.54C1193.53 810.54 1190.98 864.29 1156.71 862.27L1157.25 856.73C1157.25 856.73 1184.31 854.82 1193.53 810.54Z" fill="#000000" fill-opacity="1.000000" fill-rule="nonzero"/>
		</g>
		<g opacity="0.300000">
			<path id="Vector" d="M1335.26 800.21C1335.26 800.21 1340.3 852.56 1374.61 850.61L1372.95 843.81C1372.95 843.81 1344.3 844.53 1335.26 800.21Z" fill="#000000" fill-opacity="1.000000" fill-rule="nonzero"/>
		</g>
		<path id="Vector" d="M338.27 34.88C342.37 34.14 346.27 32.52 349.68 30.13C345.8 30.93 341.84 31.32 337.87 31.28C335.93 31.28 333.99 31.28 332.08 30.99C330.17 30.7 328.15 30.67 326.39 30.38L323.4 29.84L323.4 33.15C323.4 37 323.4 40.82 323.73 44.63C324.05 48.45 324.23 52.27 324.63 56.08C325.02 59.9 325.49 63.71 326.1 67.49C326.1 68.54 326.46 69.58 326.64 70.62C322.24 67.43 317.02 65.54 311.59 65.19C308.45 64.42 305.13 64.81 302.24 66.28C299.35 67.76 297.09 70.22 295.86 73.22C294.66 76.03 294.18 79.1 294.46 82.15C294.75 85.2 295.78 88.13 297.48 90.68C300.18 94.85 304.32 99.17 309.9 98.67C320.49 97.73 332.4 93.16 331.11 79.48C331.11 79.48 330.75 71.6 330.35 69.47C329.78 64.95 329.62 60.38 329.88 55.83C329.88 51.98 329.88 48.16 329.59 44.35C329.59 41.5 329.27 38.66 329.02 35.81C330.04 35.87 331.06 35.87 332.08 35.81C334.16 35.64 336.23 35.33 338.27 34.88Z" fill="#AE6C1C" fill-opacity="1.000000" fill-rule="nonzero"/>
		<path id="Vector" d="M795.85 140.39C798.72 139.87 801.45 138.74 803.84 137.08C801.13 137.64 798.37 137.91 795.6 137.87C794.23 137.87 792.86 137.87 791.49 137.69C790.13 137.51 788.76 137.44 787.53 137.22L785.45 136.86L785.45 139.2C785.45 141.87 785.45 144.57 785.66 147.23C785.88 149.89 786.02 152.59 786.31 155.26C786.6 157.92 786.92 160.59 787.32 163.25C787.32 164.01 787.61 164.73 787.71 165.45C784.62 163.21 780.97 161.89 777.17 161.63C774.96 161.09 772.63 161.37 770.61 162.41C768.58 163.44 767 165.17 766.15 167.28C765.3 169.25 764.96 171.41 765.16 173.54C765.35 175.68 766.08 177.74 767.27 179.52C768.07 181.16 769.31 182.54 770.85 183.52C772.38 184.51 774.16 185.05 775.98 185.1C783.39 184.45 791.75 181.25 790.85 171.67C790.85 171.67 790.59 166.13 790.31 164.47C789.92 161.3 789.81 158.09 789.98 154.9C789.98 152.2 789.98 149.53 789.8 146.83C789.8 144.85 789.55 142.84 789.37 140.86C790.09 140.86 790.81 140.86 791.53 140.86C792.98 140.81 794.42 140.65 795.85 140.39Z" fill="#AE6C1C" fill-opacity="1.000000" fill-rule="nonzero"/>
		<path id="Vector" d="M1323.17 3.31C1326.06 2.83 1328.8 1.69 1331.19 -0.01C1328.47 0.58 1325.69 0.84 1322.91 0.79C1321.55 0.79 1320.21 0.79 1318.85 0.79C1317.48 0.79 1316.11 0.57 1314.85 0.35L1312.76 -0.01L1312.76 2.3C1312.76 5 1312.76 7.66 1312.98 10.36C1313.19 13.06 1313.34 15.69 1313.59 18.39C1313.84 21.09 1314.2 23.72 1314.63 26.38C1314.63 27.1 1314.89 27.86 1315.03 28.58C1311.94 26.35 1308.28 25.03 1304.48 24.76C1302.27 24.23 1299.93 24.51 1297.91 25.54C1295.88 26.58 1294.3 28.31 1293.43 30.41C1292.59 32.38 1292.26 34.53 1292.44 36.66C1292.65 38.79 1293.37 40.83 1294.55 42.62C1295.36 44.26 1296.6 45.65 1298.14 46.64C1299.68 47.63 1301.46 48.18 1303.29 48.23C1310.71 47.59 1319.03 44.38 1318.16 34.77C1318.16 34.77 1317.87 29.26 1317.62 27.57C1317.2 24.4 1317.09 21.19 1317.3 17.99C1317.3 15.33 1317.3 12.63 1317.08 9.97C1317.08 7.95 1316.87 5.97 1316.69 3.99C1317.41 3.99 1318.13 3.99 1318.85 3.99C1320.3 3.87 1321.75 3.64 1323.17 3.31Z" fill="#AE6C1C" fill-opacity="1.000000" fill-rule="nonzero"/>
		<path id="Vector" d="M580.33 246.44C580.33 246.44 576.29 239.89 575 238.27C571.97 234.67 564.88 222.18 562.94 219.01C561.46 216.64 559.95 213.76 558.69 211.24C557.67 208.75 556.46 206.34 555.09 204.04L553.11 205.12C548.07 207.64 537.13 213.43 534.28 214.51C532.59 215.05 530.93 215.66 529.24 216.13C527.55 216.6 525.64 217.07 524.24 217.32L521.54 217.79L522.51 220.92C523.7 224.52 525.03 228.12 526.36 231.72C527.7 235.32 529.14 238.92 530.65 242.19C532.16 245.47 533.71 249.07 535.4 252.45L536.84 255.19C532.18 253.63 527.16 253.53 522.44 254.9C519.43 255.35 516.68 256.87 514.7 259.17C512.72 261.48 511.63 264.42 511.64 267.47C511.46 270.46 511.97 273.45 513.14 276.21C514.31 278.97 516.1 281.43 518.37 283.38C521.97 286.44 526.8 289.14 531.4 286.98C540.11 282.69 548.79 274.59 543.5 262.17C543.5 262.17 540.73 254.97 539.9 252.99C538.02 248.9 536.48 244.67 535.29 240.32C534.14 236.72 532.88 233.12 531.51 229.52C530.5 226.89 529.5 224.27 528.41 221.68C529.28 221.35 530.11 220.99 530.97 220.6C532.7 219.77 535.94 218.58 537.63 217.75C542.82 215.41 547.82 212.65 552.57 209.51L553.61 211.49C555.41 214.76 556.42 217.36 558.37 220.56C560.31 223.76 562.36 226.82 564.49 229.88C566.61 232.94 568.77 235.97 571.04 238.92L572.95 241.29C568.04 240.8 563.1 241.83 558.8 244.25C555.91 245.37 553.51 247.46 552 250.16C550.49 252.86 549.96 256 550.52 259.04C550.88 261.98 551.93 264.78 553.58 267.24C555.23 269.69 557.44 271.71 560.02 273.15C564.09 275.39 569.31 276.75 573.38 273.73C580.83 267.39 587.81 257.49 580.33 246.44Z" fill="#AE6C1C" fill-opacity="1.000000" fill-rule="nonzero"/>
		<path id="Vector" d="M155.5 195.76C155.5 195.76 157.27 188.27 157.48 186.22C158.02 181.43 161.73 167.68 162.56 164.04C163.21 161.34 164.18 158.25 165.08 155.58C166.14 153.07 167.02 150.48 167.71 147.84L165.55 147.23C160.18 145.47 148.34 141.83 145.57 140.57C143.98 139.78 142.4 139.06 140.89 138.16C139.38 137.26 137.79 136.39 136.46 135.5L134.23 133.91L132.72 136.79C130.99 140.14 129.44 143.59 127.89 147.05C126.35 150.51 124.91 153.96 123.54 157.49C122.17 161.02 120.84 164.51 119.65 168.11C119.33 169.08 119 170.09 118.71 171.06C116.51 166.65 113.02 163 108.71 160.62C106.25 158.8 103.23 157.92 100.18 158.14C97.13 158.36 94.27 159.68 92.11 161.85C89.87 163.83 88.11 166.3 86.99 169.08C85.86 171.85 85.4 174.85 85.63 177.83C85.99 182.55 87.54 187.91 92.36 189.57C101.54 192.7 113.39 193.17 118.46 180.57C118.46 180.57 121.66 173.37 122.28 171.42C123.84 167.21 125.74 163.12 127.96 159.22C129.69 155.83 131.31 152.41 132.86 148.96C134.01 146.4 135.13 143.81 136.21 141.22C137.04 141.61 137.9 141.94 138.76 142.26C140.56 142.87 143.73 144.31 145.53 144.96C150.85 146.95 156.31 148.53 161.88 149.68L161.26 151.84C160.18 155.44 159.07 157.96 158.2 161.59C157.34 165.23 156.62 168.79 155.94 172.39C155.25 175.99 154.68 179.59 154.21 183.19C154.21 184.24 153.96 185.25 153.85 186.25C150.74 182.42 146.51 179.65 141.75 178.33C138.92 177.09 135.75 176.87 132.77 177.71C129.8 178.55 127.21 180.4 125.45 182.94C123.62 185.27 122.38 188 121.81 190.9C121.25 193.81 121.38 196.8 122.2 199.64C123.5 204.11 126.09 208.9 131.24 209.51C141.03 210.95 152.98 208.79 155.5 195.76Z" fill="#AE6C1C" fill-opacity="1.000000" fill-rule="nonzero"/>
		<path id="Vector" d="M1029.16 69.47C1029.16 69.47 1030.96 62.67 1031.25 60.76C1031.86 56.4 1035.64 43.95 1036.51 40.64C1037.15 38.19 1038.16 35.38 1039.06 32.97C1040.11 30.72 1040.98 28.4 1041.68 26.02L1039.71 25.34C1034.81 23.43 1023.94 19.51 1021.42 18.14C1019.98 17.35 1018.54 16.55 1017.18 15.69C1015.81 14.83 1014.37 13.89 1013.14 12.99L1011.13 11.41L1009.65 14.03C1007.96 17.02 1006.45 20.12 1004.94 23.21C1003.42 26.31 1001.98 29.41 1000.62 32.57C999.24 35.74 997.95 38.91 996.76 42.15C996.4 43.05 996.11 43.95 995.79 44.85C993.88 40.65 990.76 37.13 986.82 34.73C984.66 32.92 981.91 31.96 979.08 32.01C976.26 32.06 973.55 33.13 971.45 35.02C969.33 36.75 967.64 38.95 966.53 41.45C965.42 43.96 964.93 46.69 965.08 49.42C965.3 53.78 966.56 58.78 970.98 60.54C979.37 63.89 990.32 64.86 995.32 53.6C995.32 53.6 998.45 47.19 999.1 45.39C1000.66 41.64 1002.52 38.03 1004.68 34.59C1006.38 31.57 1007.96 28.51 1009.47 25.41C1010.59 23.11 1011.7 20.8 1012.75 18.46C1013.52 18.87 1014.31 19.23 1015.12 19.54C1016.74 20.23 1019.62 21.7 1021.28 22.39C1026.13 24.48 1031.14 26.21 1036.25 27.53L1035.61 29.48C1034.56 32.72 1033.44 35.02 1032.55 38.3C1031.65 41.57 1030.85 44.92 1030.17 48.23C1029.49 51.54 1028.8 54.93 1028.26 58.28C1028.26 59.21 1028.01 60.15 1027.87 61.05C1025.13 57.4 1021.37 54.66 1017.07 53.16C1014.51 51.88 1011.58 51.53 1008.8 52.19C1006.01 52.85 1003.55 54.47 1001.84 56.76C1000.09 58.83 998.86 61.3 998.27 63.94C997.67 66.59 997.72 69.34 998.42 71.96C999.5 76.1 1001.77 80.67 1006.52 81.46C1015.38 82.79 1026.46 81.39 1029.16 69.47Z" fill="#AE6C1C" fill-opacity="1.000000" fill-rule="nonzero"/>
		<path id="Vector" d="M370.31 259.19C364.84 259.44 361.2 258.25 359.51 255.59C357.38 252.35 359.04 248.39 360.62 244.32C361.96 241.04 363.22 237.91 361.92 236.11C360.62 234.31 356.16 234.38 352.42 234.71C348.67 235.03 344.39 235.36 343.02 232.84C341.65 230.32 343.45 228.3 345.18 225.85C346.91 223.4 348.46 221.06 347.92 218.65C347.38 216.24 343.53 212.78 328.87 211.13C328.72 211.13 328.58 211.1 328.44 211.04C328.3 210.98 328.18 210.89 328.08 210.78C327.98 210.67 327.9 210.54 327.86 210.4C327.81 210.26 327.8 210.11 327.82 209.96C327.84 209.81 327.89 209.67 327.96 209.54C328.04 209.41 328.15 209.3 328.27 209.22C328.39 209.14 328.54 209.08 328.68 209.05C328.83 209.03 328.98 209.04 329.13 209.08C342.01 210.52 348.82 213.5 349.93 218.15C350.06 219.73 349.85 221.32 349.32 222.81C348.79 224.3 347.96 225.67 346.87 226.82C345.54 228.77 344.28 230.42 344.82 231.65C345.36 232.87 349.1 232.73 352.24 232.48C356.56 232.12 361.45 231.72 363.61 234.71C365.77 237.7 364.04 241.26 362.53 244.93C361.02 248.6 359.69 251.95 361.24 254.26C362.78 256.56 365.52 257.03 370.24 256.85C370.37 256.84 370.51 256.86 370.64 256.91C370.77 256.96 370.88 257.03 370.99 257.13C371.09 257.22 371.17 257.33 371.22 257.46C371.28 257.58 371.31 257.72 371.32 257.85C371.36 258.01 371.37 258.17 371.34 258.33C371.31 258.49 371.24 258.64 371.14 258.77C371.05 258.9 370.92 259.01 370.78 259.08C370.63 259.15 370.47 259.19 370.31 259.19Z" fill="#AE6C1C" fill-opacity="1.000000" fill-rule="nonzero"/>
		<path id="Vector" d="M1499.45 101.01C1493.12 101.26 1488.94 99.89 1486.96 96.98C1484.48 93.38 1486.38 88.48 1488.26 83.91C1489.8 80.09 1491.24 76.49 1489.73 74.37C1488.22 72.24 1483.07 72.42 1478.72 72.78C1474.36 73.14 1469.43 73.54 1467.92 70.59C1466.41 67.64 1468.46 65.37 1470.44 62.49C1472.42 59.61 1474.22 56.95 1473.61 54.39C1472.99 51.83 1468.49 47.59 1451.54 45.68C1451.23 45.63 1450.94 45.47 1450.75 45.22C1450.55 44.97 1450.46 44.66 1450.49 44.35C1450.51 44.19 1450.56 44.04 1450.64 43.9C1450.71 43.76 1450.82 43.64 1450.94 43.54C1451.07 43.45 1451.21 43.38 1451.36 43.33C1451.51 43.29 1451.67 43.28 1451.83 43.3C1466.73 44.96 1474.61 48.41 1475.95 53.81C1476.08 55.65 1475.82 57.49 1475.2 59.21C1474.58 60.94 1473.61 62.52 1472.35 63.86C1470.8 66.09 1469.32 68.25 1469.97 69.44C1470.62 70.62 1474.94 70.7 1478.54 70.37C1483.54 69.98 1489.34 69.51 1491.71 73C1494.09 76.49 1492.22 80.56 1490.49 84.81C1488.76 89.06 1487.21 92.94 1488.98 95.61C1490.74 98.27 1493.94 98.81 1499.42 98.6C1499.73 98.6 1500.03 98.72 1500.26 98.94C1500.48 99.17 1500.6 99.47 1500.6 99.78C1500.6 100.1 1500.48 100.4 1500.26 100.62C1500.03 100.85 1499.73 100.97 1499.42 100.97L1499.45 101.01Z" fill="#AE6C1C" fill-opacity="1.000000" fill-rule="nonzero"/>
		<path id="Vector" d="M597.64 126.57C590.44 121.6 586.84 116.63 587.06 111.7C587.38 105.47 593.43 101.8 599.3 98.24C604.16 95.25 608.77 92.44 608.84 88.84C608.91 85.24 603.04 81.14 598.04 78.04C593.03 74.94 587.06 71.24 587.74 66.63C588.32 62.71 592.64 61.23 597.21 59.68C601.78 58.13 606.03 56.66 607.47 53.27C608.91 49.89 607.47 41.47 590.12 25.34C589.96 25.19 589.83 25.02 589.73 24.82C589.64 24.62 589.59 24.41 589.58 24.19C589.57 23.97 589.6 23.76 589.68 23.55C589.75 23.35 589.86 23.16 590.01 23C590.16 22.84 590.33 22.71 590.53 22.62C590.73 22.52 590.94 22.47 591.16 22.46C591.37 22.45 591.59 22.48 591.8 22.56C592 22.63 592.19 22.74 592.35 22.89C607.61 37.29 613.55 47.48 610.53 54.57C608.51 59.32 603.08 61.19 598.29 62.81C594.69 64.04 591.31 65.19 591.09 67.1C590.73 69.55 595.59 72.57 599.87 75.23C605.78 78.83 612.47 83.04 612.4 89.02C612.4 94.42 606.68 97.84 601.28 101.15C595.88 104.46 590.87 107.52 590.48 111.95C590.48 115.55 593.36 119.66 599.62 123.9C599.92 124.15 600.11 124.5 600.18 124.88C600.25 125.26 600.17 125.66 599.98 125.99C599.87 126.18 599.71 126.35 599.53 126.49C599.35 126.62 599.15 126.72 598.93 126.77C598.71 126.82 598.49 126.83 598.27 126.8C598.04 126.76 597.83 126.69 597.64 126.57Z" fill="#AE6C1C" fill-opacity="1.000000" fill-rule="nonzero"/>
		<path id="Vector" d="M1204.77 220.78C1197.56 215.95 1194.22 211.09 1194.43 206.38C1194.76 200.29 1200.66 196.69 1206.35 193.24C1211.1 190.32 1215.6 187.58 1215.64 184.09C1215.67 180.6 1209.98 176.6 1204.84 173.29C1199.68 169.98 1194.04 166.63 1194.79 162.17C1195.32 158.35 1199.55 156.91 1204.01 155.4C1208.47 153.89 1212.61 152.45 1214.02 149.14C1215.42 145.83 1214.02 137.65 1197.1 121.92C1196.94 121.77 1196.81 121.59 1196.74 121.39C1196.66 121.2 1196.62 120.98 1196.62 120.77C1196.62 120.56 1196.66 120.34 1196.74 120.15C1196.81 119.95 1196.94 119.77 1197.1 119.62C1197.41 119.32 1197.81 119.15 1198.25 119.15C1198.68 119.15 1199.09 119.32 1199.4 119.62C1214.23 133.48 1220.03 143.56 1217.11 150.47C1215.13 155.11 1209.91 156.91 1205.16 158.53C1201.56 159.72 1198.36 160.84 1197.96 162.71C1197.56 164.58 1202.31 168.04 1206.49 170.63C1212.25 174.23 1218.77 178.26 1218.69 184.06C1218.62 189.85 1213.15 192.66 1207.9 195.86C1202.64 199.07 1197.75 202.06 1197.53 206.45C1197.53 210.05 1200.34 213.94 1206.42 218.08C1206.6 218.19 1206.75 218.34 1206.87 218.52C1206.99 218.69 1207.06 218.89 1207.11 219.1C1207.15 219.31 1207.15 219.52 1207.1 219.73C1207.06 219.94 1206.97 220.13 1206.85 220.31C1206.62 220.63 1206.28 220.85 1205.9 220.93C1205.51 221.02 1205.11 220.96 1204.77 220.78Z" fill="#AE6C1C" fill-opacity="1.000000" fill-rule="nonzero"/>
	</g>
	<path id="Ku1" d="M306.14 573.1Q305.4 573.35 304.86 574.19L290.88 595.28L288.76 577.81Q288.64 576.81 288.08 576.26Q287.2 575.4 285.24 575.63Q283.36 575.86 282.72 576.88Q282.29 577.55 282.41 578.58L287 616.46Q287.12 617.49 287.7 618.05Q288.57 618.88 290.45 618.65Q292.41 618.42 293.06 617.37Q293.47 616.7 293.35 615.7L292.05 604.96L304.01 586.86L310.16 577.66Q310.48 577.25 310.6 576.8Q310.71 576.38 310.65 575.92Q310.58 575.33 310.1 574.79Q309.64 574.25 308.99 573.74Q307.69 572.86 306.57 573Q306.34 573.03 306.14 573.1ZM346 606.83Q346.55 605.08 346.29 602.95L343.7 581.51Q343.56 580.41 342.94 579.85Q342.12 579.11 340.45 579.31Q338.77 579.52 338.15 580.44Q337.68 581.13 337.81 582.23L340.36 603.23Q340.39 603.47 340.39 603.71Q340.4 604.85 339.83 606L339.88 605.95Q339.79 606.18 339.65 606.38Q338.98 607.35 337.2 607.57L330.52 608.38Q328.67 608.6 327.78 607.78Q327.62 607.63 327.49 607.45Q327.3 607.23 327.15 607Q326.56 606.11 326.41 604.92L323.87 583.91Q323.74 582.81 323.11 582.25Q322.29 581.51 320.63 581.71Q318.96 581.91 318.34 582.83Q317.87 583.52 318 584.62L320.59 606.06Q320.85 608.2 321.8 609.76Q322.51 610.92 323.52 611.69Q323.87 611.95 324.26 612.16L324.21 612.17Q324.75 612.45 325.32 612.69Q326.25 613.07 327.24 613.3Q328.84 613.68 330.17 613.51L338.78 612.47Q340.16 612.3 341.59 611.56Q342.12 611.28 342.63 610.96Q343.48 610.42 344.24 609.74L344.19 609.75Q344.54 609.43 344.83 609.07Q345.6 608.1 346 606.83ZM300.2 600.3Q300.27 600.4 300.35 600.49L312.29 614.05Q312.78 614.48 313.26 614.75Q313.76 615.01 314.19 614.96Q314.62 614.91 315.13 614.63Q315.64 614.35 316.18 613.91L316.13 613.92Q317.1 612.96 317.21 611.9Q317.25 611.6 317.21 611.28Q317.18 611.01 317.1 610.76Q316.92 610.21 316.53 609.74L316.59 609.78L304.46 595.96Q303.82 595.12 303.06 595Q302.84 594.97 302.61 595Q301.54 595.13 300.56 596.01L300.62 596.01Q299.98 596.59 299.73 597.31Q299.5 597.96 299.6 598.73Q299.71 599.66 300.2 600.3Z" fill="#FFFFFF" fill-opacity="1.000000" fill-rule="evenodd"/>
	<path id="Ku" d="M801.87 599.58Q801.2 599.68 800.62 600.3L785.63 615.87L786.54 600.87Q786.59 600.01 786.2 599.46Q785.6 598.6 783.92 598.5Q782.3 598.4 781.6 599.15Q781.14 599.65 781.08 600.54L779.1 633.07Q779.05 633.96 779.45 634.52Q780.05 635.35 781.67 635.45Q783.35 635.55 784.05 634.77Q784.51 634.27 784.56 633.41L785.12 624.19L797.96 610.82L804.54 604.04Q804.87 603.75 805.04 603.38Q805.2 603.05 805.22 602.65Q805.25 602.15 804.94 601.62Q804.63 601.09 804.16 600.56Q803.2 599.62 802.24 599.57Q802.05 599.55 801.87 599.58ZM830.16 634.07Q830.89 632.69 831.01 630.85L832.13 612.44Q832.19 611.49 831.75 610.93Q831.17 610.18 829.74 610.09Q828.3 610 827.63 610.68Q827.13 611.19 827.07 612.13L825.98 630.17Q825.96 630.38 825.93 630.58Q825.77 631.54 825.11 632.42L825.16 632.38Q825.04 632.56 824.9 632.71Q824.18 633.43 822.66 633.33L816.92 632.98Q815.33 632.89 814.71 632.06Q814.59 631.91 814.51 631.73Q814.39 631.53 814.3 631.31Q813.94 630.46 814 629.44L815.1 611.4Q815.16 610.46 814.72 609.89Q814.14 609.14 812.71 609.05Q811.28 608.97 810.62 609.64Q810.11 610.15 810.06 611.1L808.93 629.51Q808.82 631.34 809.37 632.8Q809.79 633.89 810.53 634.69Q810.78 634.96 811.07 635.2L811.03 635.2Q811.44 635.52 811.88 635.8Q812.61 636.27 813.4 636.61Q814.69 637.18 815.83 637.25L823.22 637.7Q824.41 637.77 825.73 637.37Q826.22 637.21 826.69 637.02Q827.49 636.7 828.24 636.25L828.19 636.24Q828.53 636.03 828.83 635.77Q829.63 635.07 830.16 634.07ZM792.68 621.53Q792.73 621.62 792.78 621.71L800.73 634.94Q801.07 635.38 801.43 635.68Q801.81 635.98 802.18 636Q802.55 636.02 803.02 635.87Q803.49 635.71 804.01 635.42L803.97 635.42Q804.93 634.77 805.19 633.9Q805.27 633.65 805.29 633.38Q805.3 633.14 805.27 632.91Q805.21 632.43 804.96 631.97L805 632.02L796.93 618.54Q796.52 617.73 795.9 617.52Q795.72 617.45 795.53 617.44Q794.61 617.39 793.65 617.98L793.7 617.98Q793.07 618.38 792.75 618.94Q792.46 619.45 792.42 620.11Q792.37 620.91 792.68 621.53Z" fill="#FFFFFF" fill-opacity="1.000000" fill-rule="evenodd"/>
	<path id="Ku" d="M1248.18 548.36Q1247.37 548.65 1246.77 549.58L1231.34 573.22L1228.85 553.75Q1228.69 552.63 1228.06 552.02Q1227.07 551.07 1224.9 551.35Q1222.8 551.61 1222.09 552.75Q1221.62 553.51 1221.77 554.66L1227.17 596.88Q1227.31 598.02 1227.97 598.64Q1228.93 599.56 1231.04 599.29Q1233.22 599.01 1233.93 597.84Q1234.39 597.09 1234.25 595.97L1232.72 584.01L1245.92 563.73L1252.71 553.42Q1253.06 552.96 1253.18 552.45Q1253.31 551.99 1253.25 551.47Q1253.16 550.82 1252.63 550.22Q1252.11 549.62 1251.37 549.05Q1249.92 548.09 1248.67 548.25Q1248.42 548.28 1248.18 548.36ZM1292.9 585.69Q1293.51 583.73 1293.19 581.35L1290.15 557.46Q1289.99 556.23 1289.29 555.61Q1288.37 554.79 1286.51 555.03Q1284.64 555.27 1283.94 556.3Q1283.43 557.08 1283.59 558.3L1286.59 581.71Q1286.62 581.98 1286.63 582.24Q1286.65 583.52 1286.02 584.81L1286.06 584.74Q1285.97 585 1285.81 585.23Q1285.07 586.32 1283.1 586.57L1275.66 587.52Q1273.59 587.79 1272.59 586.88Q1272.41 586.71 1272.26 586.51Q1272.05 586.27 1271.88 586.02Q1271.21 585.02 1271.04 583.7L1268.05 560.29Q1267.89 559.06 1267.18 558.44Q1266.27 557.62 1264.41 557.86Q1262.55 558.1 1261.87 559.12Q1261.35 559.9 1261.51 561.13L1264.56 585.01Q1264.87 587.4 1265.93 589.14Q1266.74 590.43 1267.87 591.27Q1268.26 591.56 1268.69 591.8L1268.64 591.81Q1269.25 592.12 1269.88 592.37Q1270.92 592.79 1272.03 593.04Q1273.81 593.45 1275.3 593.26L1284.89 592.03Q1286.43 591.83 1288.03 591Q1288.62 590.68 1289.18 590.32Q1290.12 589.71 1290.97 588.95L1290.91 588.96Q1291.3 588.59 1291.62 588.19Q1292.47 587.1 1292.9 585.69ZM1241.77 578.75Q1241.85 578.86 1241.93 578.95L1255.36 593.99Q1255.91 594.47 1256.44 594.77Q1257.01 595.05 1257.49 594.99Q1257.96 594.93 1258.53 594.62Q1259.1 594.3 1259.69 593.81L1259.64 593.82Q1260.71 592.74 1260.84 591.56Q1260.87 591.22 1260.82 590.87Q1260.79 590.57 1260.69 590.28Q1260.5 589.68 1260.06 589.15L1260.13 589.2L1246.49 573.88Q1245.77 572.94 1244.92 572.82Q1244.68 572.78 1244.42 572.82Q1243.23 572.97 1242.15 573.96L1242.19 573.96Q1241.5 574.61 1241.23 575.41Q1240.98 576.14 1241.09 577Q1241.22 578.03 1241.77 578.75Z" fill="#FFFFFF" fill-opacity="1.000000" fill-rule="evenodd"/>
</svg>
