<svg width="165.000000" height="35.643433" viewBox="0 0 165 35.6434" fill="none" xmlns="http://www.w3.org/2000/svg" xmlns:xlink="http://www.w3.org/1999/xlink">
	<desc>
			Created with Pixso.
	</desc>
	<defs>
		<linearGradient x1="0.595215" y1="8.922634" x2="24.252640" y2="8.922634" id="paint_linear_41_2214_0" gradientUnits="userSpaceOnUse">
			<stop offset="0.077000" stop-color="#086A1F"/>
			<stop offset="0.374000" stop-color="#65B362"/>
		</linearGradient>
		<linearGradient x1="0.527591" y1="26.722420" x2="24.306726" y2="26.722420" id="paint_linear_41_2215_0" gradientUnits="userSpaceOnUse">
			<stop offset="0.121000" stop-color="#DF2253"/>
			<stop offset="0.451000" stop-color="#E63D49"/>
		</linearGradient>
		<linearGradient x1="17.828125" y1="17.798874" x2="31.999844" y2="17.798874" id="paint_linear_41_2216_0" gradientUnits="userSpaceOnUse">
			<stop offset="0.077000" stop-color="#FCC40D"/>
			<stop offset="0.286000" stop-color="#FDCE0F"/>
			<stop offset="0.683000" stop-color="#FEE40E"/>
			<stop offset="0.769000" stop-color="#FEE90F"/>
		</linearGradient>
		<linearGradient x1="8.918503" y1="0.444580" x2="8.918503" y2="35.065281" id="paint_linear_41_2217_0" gradientUnits="userSpaceOnUse">
			<stop offset="0.198000" stop-color="#48BCE8"/>
			<stop offset="0.593000" stop-color="#61C4E2"/>
		</linearGradient>
	</defs>
	<path id="Google Play" d="M102.54 10.64L100.81 10.64L100.81 24L102.54 24L102.54 10.64ZM136.41 10.64L134.69 10.64L134.69 24L136.41 24L136.41 10.64ZM62.34 17.62L60.62 17.62L60.62 21.73Q60.45 21.83 60.28 21.93Q59.13 22.54 57.66 22.54Q56.46 22.54 55.46 22.09Q55.27 22.01 55.1 21.91Q54.46 21.56 53.98 21.06Q53.59 20.67 53.3 20.17Q53.14 19.89 53.01 19.58Q52.66 18.71 52.66 17.69Q52.66 16.62 53.05 15.71Q53.16 15.45 53.3 15.2Q53.6 14.69 54 14.29Q54.48 13.81 55.1 13.47Q55.2 13.42 55.3 13.37Q56.37 12.85 57.68 12.85Q58.83 12.85 59.79 13.27Q60.63 13.63 61.33 14.31L62.45 13.19Q62.16 12.87 61.83 12.61Q61.17 12.07 60.35 11.75Q59.12 11.25 57.61 11.25Q55.88 11.25 54.47 11.92Q54.3 11.99 54.14 12.08Q53.28 12.54 52.63 13.21Q52.12 13.73 51.73 14.38Q51.5 14.77 51.33 15.18Q50.86 16.34 50.86 17.69Q50.86 19.09 51.36 20.27Q51.52 20.64 51.73 21Q52.1 21.62 52.59 22.13Q53.25 22.82 54.13 23.31Q54.35 23.42 54.58 23.53Q55.93 24.14 57.57 24.14Q58.71 24.14 59.77 23.85Q59.97 23.79 60.16 23.73Q61.41 23.31 62.34 22.54L62.34 17.62ZM130.7 12.56Q129.3 11.4 126.85 11.4L121.94 11.4L121.94 24L123.74 24L123.74 20.18L126.85 20.18Q129.3 20.18 130.7 19.01Q131.19 18.61 131.5 18.1Q132.11 17.13 132.11 15.79Q132.11 14.44 131.5 13.47Q131.19 12.97 130.7 12.56ZM129.41 17.89Q128.51 18.61 126.8 18.61L123.74 18.61L123.74 12.96L126.8 12.96Q128.51 12.96 129.41 13.69Q129.67 13.9 129.85 14.16Q130.31 14.81 130.31 15.79Q130.31 16.77 129.85 17.43Q129.66 17.68 129.41 17.89ZM67.38 23.64Q68.39 24.1 69.62 24.1Q70.85 24.1 71.86 23.63Q72.01 23.56 72.16 23.48Q72.76 23.14 73.23 22.66Q73.63 22.25 73.92 21.74Q74.03 21.55 74.13 21.35Q74.57 20.39 74.57 19.23Q74.57 18.05 74.11 17.08Q74.03 16.89 73.92 16.71Q73.62 16.18 73.2 15.76Q72.74 15.31 72.16 14.99Q72.04 14.92 71.91 14.86Q70.88 14.37 69.62 14.37Q68.36 14.37 67.33 14.85Q67.19 14.91 67.06 14.99Q66.46 15.32 65.99 15.78Q65.58 16.2 65.28 16.71Q65.19 16.88 65.11 17.06Q64.65 18.03 64.65 19.23Q64.65 20.4 65.09 21.37Q65.18 21.56 65.28 21.74Q65.57 22.23 65.96 22.63Q66.43 23.13 67.06 23.48Q67.22 23.56 67.38 23.64ZM78.81 23.64Q79.82 24.1 81.05 24.1Q82.28 24.1 83.29 23.63Q83.44 23.56 83.59 23.48Q84.19 23.14 84.66 22.66Q85.06 22.25 85.35 21.74Q85.46 21.55 85.56 21.35Q86 20.39 86 19.23Q86 18.05 85.54 17.08Q85.46 16.89 85.35 16.71Q85.05 16.18 84.63 15.76Q84.17 15.31 83.59 14.99Q83.47 14.92 83.34 14.86Q82.31 14.37 81.05 14.37Q79.79 14.37 78.76 14.85Q78.62 14.91 78.49 14.99Q77.89 15.32 77.42 15.78Q77.01 16.2 76.71 16.71Q76.62 16.88 76.54 17.06Q76.08 18.03 76.08 19.23Q76.08 20.4 76.52 21.37Q76.61 21.56 76.71 21.74Q77 22.23 77.39 22.63Q77.86 23.13 78.49 23.48Q78.65 23.56 78.81 23.64ZM97.51 22.7L97.51 14.45L95.88 14.45L95.88 15.93Q95.66 15.64 95.39 15.41Q94.94 15.01 94.36 14.76Q94.29 14.73 94.21 14.7Q93.35 14.37 92.35 14.37Q91.13 14.37 90.12 14.82Q90 14.88 89.88 14.94Q89.27 15.26 88.8 15.72Q88.42 16.1 88.14 16.57Q88.03 16.75 87.94 16.93Q87.51 17.85 87.51 18.97Q87.51 20.08 87.93 21Q88.03 21.19 88.14 21.38Q88.41 21.84 88.78 22.21Q89.25 22.69 89.88 23.02Q90.02 23.09 90.18 23.16Q91.17 23.6 92.35 23.6Q93.37 23.6 94.25 23.24Q94.27 23.24 94.28 23.23Q94.76 23.03 95.15 22.73Q95.5 22.47 95.79 22.12L95.79 22.88Q95.79 24.5 94.99 25.29Q94.19 26.08 92.51 26.08Q91.89 26.08 91.29 25.96Q90.88 25.88 90.49 25.75Q89.51 25.42 88.84 24.84L88.01 26.17Q88.77 26.86 89.99 27.23Q91.22 27.59 92.57 27.59Q95.03 27.59 96.27 26.39Q97.51 25.2 97.51 22.7ZM114.42 19.8Q114.45 19.48 114.45 19.28Q114.45 17.85 113.86 16.74Q113.85 16.73 113.85 16.72Q113.5 16.07 112.99 15.59Q112.62 15.25 112.17 14.99Q112.03 14.9 111.88 14.83Q110.92 14.37 109.74 14.37Q108.6 14.37 107.65 14.8Q107.46 14.88 107.28 14.99Q106.82 15.25 106.45 15.59Q105.93 16.08 105.57 16.72Q105.46 16.92 105.37 17.12Q104.95 18.08 104.95 19.23Q104.95 20.38 105.38 21.34Q105.47 21.55 105.59 21.75Q105.85 22.2 106.19 22.57Q106.7 23.11 107.4 23.49Q108.57 24.1 110.08 24.1Q111.27 24.1 112.23 23.71Q112.92 23.42 113.45 22.96Q113.66 22.77 113.84 22.55L112.89 21.44Q112.51 21.85 112.05 22.12Q111.23 22.59 110.13 22.59Q108.99 22.59 108.15 22.09Q107.96 21.97 107.78 21.83Q107.38 21.5 107.12 21.08Q106.77 20.52 106.68 19.8L114.42 19.8ZM146.21 15.34Q145.16 14.37 143.18 14.37Q142.03 14.37 141 14.68Q139.98 15 139.24 15.59L139.96 16.88Q140.52 16.42 141.33 16.14Q141.88 15.95 142.44 15.89Q142.71 15.86 142.98 15.86Q144.24 15.86 144.89 16.45Q145 16.55 145.08 16.66Q145.54 17.23 145.54 18.16L145.54 18.51L142.8 18.51Q140.81 18.51 139.89 19.27Q139.5 19.6 139.27 20.01Q138.97 20.57 138.97 21.3Q138.97 21.95 139.23 22.48Q139.47 22.96 139.93 23.33Q140.89 24.1 142.5 24.1Q143.59 24.1 144.39 23.75Q145.03 23.48 145.43 23Q145.54 22.87 145.63 22.73L145.63 24L147.27 24L147.27 18.23Q147.27 16.49 146.4 15.52Q146.31 15.43 146.21 15.34ZM154.11 24.95L158.73 14.45L157.04 14.45L153.75 22.09L150.42 14.45L148.62 14.45L152.83 23.98L152.53 24.64Q152.18 25.45 151.76 25.78Q151.69 25.84 151.62 25.88Q151.23 26.12 150.71 26.12Q150.3 26.12 149.94 26Q149.43 25.83 149 25.42L148.26 26.71Q148.69 27.15 149.34 27.37Q149.61 27.46 149.89 27.52Q150.29 27.59 150.71 27.59Q151.66 27.59 152.39 27.19Q152.53 27.1 152.67 27Q153.5 26.41 154.11 24.95ZM108.23 16.18Q108.89 15.82 109.74 15.82Q110.56 15.82 111.21 16.16Q111.53 16.33 111.81 16.59Q112.12 16.87 112.33 17.21Q112.71 17.79 112.8 18.56L106.68 18.56Q106.78 17.72 107.2 17.1Q107.39 16.82 107.66 16.58Q107.92 16.34 108.23 16.18ZM70.95 22.33Q70.34 22.59 69.62 22.59Q68.87 22.59 68.25 22.31Q68.11 22.25 67.97 22.17Q67.7 22.01 67.47 21.81Q67.08 21.46 66.81 20.98Q66.8 20.96 66.79 20.94Q66.39 20.19 66.39 19.23Q66.39 18.25 66.8 17.49Q66.81 17.48 66.81 17.47Q67.09 16.97 67.49 16.63Q67.71 16.44 67.97 16.29Q68.08 16.23 68.21 16.17Q68.84 15.88 69.62 15.88Q70.37 15.88 71 16.16Q71.13 16.22 71.26 16.29Q71.54 16.45 71.77 16.66Q72.15 17 72.4 17.47Q72.82 18.23 72.82 19.23Q72.82 20.2 72.41 20.96Q72.41 20.97 72.4 20.98Q72.16 21.44 71.8 21.77Q71.55 22 71.26 22.17Q71.11 22.26 70.95 22.33ZM82.38 22.33Q81.77 22.59 81.05 22.59Q80.3 22.59 79.68 22.31Q79.54 22.25 79.4 22.17Q79.13 22.01 78.9 21.81Q78.51 21.46 78.24 20.98Q78.23 20.96 78.22 20.94Q77.82 20.19 77.82 19.23Q77.82 18.25 78.23 17.49Q78.24 17.48 78.24 17.47Q78.52 16.97 78.92 16.63Q79.14 16.44 79.4 16.29Q79.52 16.23 79.64 16.17Q80.27 15.88 81.05 15.88Q81.8 15.88 82.43 16.16Q82.56 16.22 82.69 16.29Q82.97 16.45 83.2 16.66Q83.58 17 83.83 17.47Q84.25 18.23 84.25 19.23Q84.25 20.2 83.84 20.96Q83.84 20.97 83.83 20.98Q83.59 21.44 83.23 21.77Q82.98 22 82.69 22.17Q82.54 22.26 82.38 22.33ZM94.11 21.75Q93.41 22.09 92.55 22.09Q91.6 22.09 90.86 21.7Q90.85 21.7 90.85 21.69Q90.43 21.47 90.11 21.15Q89.86 20.9 89.67 20.58Q89.59 20.44 89.52 20.29Q89.25 19.69 89.25 18.97Q89.25 18.07 89.64 17.39Q89.85 17.03 90.17 16.74Q90.38 16.54 90.62 16.38Q91.43 15.88 92.55 15.88Q93.63 15.88 94.41 16.36Q94.68 16.52 94.9 16.74Q95.22 17.03 95.43 17.39Q95.82 18.07 95.82 18.97Q95.82 19.69 95.55 20.29Q95.49 20.44 95.4 20.58Q95.22 20.89 94.98 21.14Q94.66 21.47 94.23 21.69Q94.17 21.72 94.11 21.75ZM144.49 22.33Q143.77 22.77 142.78 22.77Q141.8 22.77 141.24 22.36Q140.98 22.17 140.85 21.92Q140.68 21.62 140.68 21.22Q140.68 20.76 140.89 20.45Q141.36 19.75 142.88 19.75L145.54 19.75L145.54 21.08Q145.35 21.56 145.02 21.91Q144.79 22.15 144.49 22.33Z" fill="#FFFFFF" fill-opacity="1.000000" fill-rule="evenodd"/>
	<path id="Vector" d="M23.69 12.04L3.08 0.4C2.06 -0.18 1.15 -0.12 0.59 0.45L17.86 17.84L21.14 16.28C22.84 15.32 25.39 13 23.69 12.04Z" fill="url(#paint_linear_41_2214_0)" fill-opacity="1.000000" fill-rule="nonzero"/>
	<path id="Vector" d="M17.82 17.8L22.05 20.45C23.75 21.42 25.25 22.36 23.56 23.58L3.11 35.23C2.01 35.85 1.07 35.75 0.52 35.06L5.98 28.51L17.82 17.8Z" fill="url(#paint_linear_41_2215_0)" fill-opacity="1.000000" fill-rule="nonzero"/>
	<path id="Vector" d="M30.72 16L23.62 12.01L17.82 17.8L23.56 23.58L30.72 19.5C30.93 19.38 31.12 19.25 31.28 19.11C31.44 18.98 31.57 18.83 31.67 18.68C31.7 18.65 31.73 18.61 31.75 18.57C32.29 17.7 31.94 16.7 30.72 16Z" fill="url(#paint_linear_41_2216_0)" fill-opacity="1.000000" fill-rule="nonzero"/>
	<path id="Vector" d="M0.6 0.44C0.23 0.81 0 1.41 0.01 2.19L0.04 33.41C0.04 34.1 0.22 34.68 0.52 35.06L17.82 17.79L0.6 0.44Z" fill="url(#paint_linear_41_2217_0)" fill-opacity="1.000000" fill-rule="nonzero"/>
	<path id="Vector" d="M31.55 16.66C32.11 17.54 31.82 18.69 30.5 19.41L2.93 35.13C1.86 35.73 0.95 35.5 0.39 34.87C0.91 35.7 1.89 35.91 3.12 35.22L30.7 19.5C32.08 18.76 32.34 17.59 31.55 16.66Z" fill="#CCCCCC" fill-opacity="1.000000" fill-rule="nonzero"/>
</svg>
